<svg width="40" height="40" viewBox="0 0 40 40" fill="none" xmlns="http://www.w3.org/2000/svg">
<path d="M20 0.495117C8.95 0.495117 0 9.45012 0 20.4951C0 29.3334 5.73 36.8284 13.675 39.4701C14.675 39.6584 15.0417 39.0401 15.0417 38.5084C15.0417 38.0334 15.025 36.7751 15.0167 35.1084C9.45333 36.3151 8.28 32.4251 8.28 32.4251C7.37 30.1168 6.055 29.5001 6.055 29.5001C4.24333 28.2601 6.195 28.2851 6.195 28.2851C8.20333 28.4251 9.25833 30.3451 9.25833 30.3451C11.0417 33.4034 13.94 32.5201 15.0833 32.0084C15.2633 30.7151 15.7783 29.8334 16.35 29.3334C11.9083 28.8334 7.24 27.1134 7.24 19.4501C7.24 17.2668 8.015 15.4834 9.29833 14.0834C9.07333 13.5784 8.39833 11.5451 9.47333 8.79012C9.47333 8.79012 11.1483 8.25345 14.9733 10.8401C16.5733 10.3951 18.2733 10.1751 19.9733 10.1651C21.6733 10.1751 23.3733 10.3951 24.9733 10.8401C28.7733 8.25345 30.4483 8.79012 30.4483 8.79012C31.5233 11.5451 30.8483 13.5784 30.6483 14.0834C31.9233 15.4834 32.6983 17.2668 32.6983 19.4501C32.6983 27.1334 28.0233 28.8251 23.5733 29.3168C24.2733 29.9168 24.9233 31.1434 24.9233 33.0168C24.9233 35.6934 24.8983 37.8434 24.8983 38.4934C24.8983 39.0184 25.2483 39.6434 26.2733 39.4434C34.275 36.8201 40 29.3201 40 20.4951C40 9.45012 31.045 0.495117 20 0.495117Z" fill="#2F80ED"/>
</svg>
