<svg width="228" height="170" viewBox="0 0 228 170" fill="none" xmlns="http://www.w3.org/2000/svg">
<g clip-path="url(#clip0)">
<path d="M155.113 97.0487L157.068 96.6301C157.255 96.5894 157.441 96.5399 157.629 96.4978C154.534 94.1195 152.185 90.5087 150.968 86.2586C149.75 82.0086 149.736 77.3721 150.928 73.1108C152.12 68.8496 154.447 65.2172 157.527 62.8103C160.607 60.4034 164.257 59.3652 167.876 59.8663L165.314 67.4162L171.385 60.8524C171.399 60.8568 171.413 60.8625 171.426 60.8696C173.414 61.7366 175.245 63.0799 176.814 64.8229C178.382 66.5659 179.658 68.6744 180.569 71.028C181.48 73.3817 182.007 75.9344 182.121 78.5404C182.234 81.1463 181.933 83.7545 181.232 86.216C181.131 86.574 181.01 86.9158 180.894 87.2617C182.608 86.1955 184.252 84.9542 185.593 83.3648C188.307 80.1442 189.794 75.6998 191.456 70.2243C194.749 59.3736 197.919 48.366 200.963 37.3343C197.606 35.085 195.007 31.4274 193.632 27.0184C192.257 22.6094 192.197 17.738 193.463 13.2791C193.626 12.7055 193.815 12.1531 194.015 11.6106C194.065 11.4748 194.116 11.3399 194.168 11.2061C194.371 10.6859 194.586 10.1763 194.822 9.68726C194.861 9.60709 194.904 9.53206 194.943 9.45275C195.148 9.04038 195.365 8.64023 195.592 8.25227C195.677 8.10662 195.762 7.96136 195.849 7.81917C196.107 7.40144 196.375 6.99497 196.656 6.60693C196.75 6.47709 196.85 6.35577 196.947 6.22929C197.163 5.9465 197.386 5.67225 197.614 5.40653C197.735 5.26665 197.854 5.12575 197.977 4.99082C198.009 4.9562 198.038 4.91842 198.07 4.88408C198.072 4.88662 198.073 4.88934 198.075 4.89184C200.902 1.84143 204.503 0.11396 208.252 0.00968189C212.001 -0.0945958 215.66 1.4309 218.595 4.32105L215.261 14.1459L221.263 7.66023C223.363 10.9738 224.554 15.0317 224.661 19.242C224.767 23.4523 223.785 27.5947 221.856 31.0648C221.862 31.0673 221.867 31.0691 221.873 31.0715C221.807 31.1908 221.733 31.2999 221.666 31.4171C221.539 31.6369 221.409 31.8528 221.277 32.0648C221.106 32.3367 220.929 32.5995 220.748 32.8586C220.612 33.0543 220.477 33.2515 220.335 33.4397C220.127 33.715 219.91 33.9756 219.691 34.2348C219.563 34.386 219.44 34.5449 219.309 34.6905C218.964 35.0721 218.607 35.4342 218.238 35.7767C218.108 35.8967 217.972 36.0025 217.84 36.1174C217.581 36.343 217.321 36.5653 217.052 36.7711C216.885 36.8988 216.714 37.0155 216.543 37.1355C216.297 37.3094 216.049 37.4778 215.795 37.6352C215.615 37.7468 215.434 37.8526 215.251 37.9558C214.991 38.1027 214.728 38.2389 214.461 38.3685C214.282 38.4555 214.105 38.5435 213.923 38.6225C213.625 38.7529 213.321 38.8661 213.016 38.9746C212.862 39.0294 212.711 39.0921 212.555 39.1411C212.097 39.2857 211.635 39.4087 211.166 39.503C211.078 39.5208 210.989 39.5275 210.9 39.5434C210.512 39.6133 210.122 39.6698 209.729 39.7042C209.56 39.719 209.39 39.7211 209.22 39.7293C208.902 39.7446 208.584 39.7524 208.264 39.7439C208.077 39.739 207.891 39.7271 207.704 39.714C207.392 39.6922 207.08 39.6586 206.768 39.6132C206.584 39.5868 206.4 39.5605 206.215 39.5259C205.881 39.4631 205.547 39.3809 205.213 39.291C205.191 39.2851 205.169 39.2815 205.147 39.2755C203.862 43.9296 202.554 48.5737 201.222 53.2079C202.847 51.3988 204.753 50.0199 206.824 49.1558C208.894 48.2916 211.086 47.9606 213.264 48.1828C215.441 48.4051 217.559 49.176 219.488 50.4483C221.416 51.7206 223.115 53.4675 224.478 55.5816L218.929 63.1797L226.442 59.4663C228.267 64.2044 228.498 69.6458 227.084 74.5946C226.595 76.3336 225.908 77.9779 225.046 79.4784C223.189 82.7293 220.587 85.2146 217.576 86.6119C214.565 88.0092 211.285 88.2541 208.16 87.3146C205.035 86.3752 202.211 84.2949 200.053 81.3436C197.895 78.3922 196.502 74.706 196.057 70.7631C195.916 71.23 195.779 71.7028 195.638 72.1693C194.171 76.9998 192.347 83.0115 188.682 87.3578C186.198 90.3038 183.142 92.1728 180.21 93.753C178.301 94.7818 176.366 95.733 174.406 96.6066C172.227 98.2425 169.765 99.214 167.224 99.4409C164.131 100.505 160.999 101.393 157.838 102.078L155.867 102.499C154.096 102.875 152.279 103.262 150.477 103.707C150.736 103.803 150.996 103.894 151.254 104.006C154.466 105.406 157.236 108.034 159.162 111.51C161.089 114.987 162.073 119.132 161.972 123.346L149.615 128.042L160.797 130.241C159.774 133.353 158.13 136.094 156.02 138.207C153.91 140.32 151.402 141.736 148.729 142.323C146.057 142.91 143.309 142.649 140.74 141.565C138.171 140.48 135.867 138.607 134.041 136.12C134.155 136.591 134.269 137.061 134.383 137.53C134.61 138.463 134.835 139.391 135.052 140.309C137.994 152.827 136.728 162.674 131.486 168.035L128.641 163.772C133.743 158.553 132.16 147.8 130.763 141.854C130.551 140.952 130.329 140.041 130.106 139.124C128.19 131.242 126.018 122.307 128.831 114.096C133.072 101.722 145.293 99.1305 155.113 97.0487Z" fill="#F2F2F2"/>
<path d="M151.491 169.641H64.9135C62.0743 169.641 59.3515 168.244 57.3439 165.758C55.3363 163.273 54.2085 159.901 54.2085 156.386V107.273C54.2085 106.559 54.3258 105.854 54.5534 105.198C54.7809 104.543 55.1138 103.952 55.5319 103.462L101.409 49.6151C103.244 47.4622 105.675 46.2622 108.202 46.2622C110.73 46.2622 113.161 47.4622 114.995 49.6151L158.737 100.955C159.83 102.237 160.7 103.782 161.295 105.495C161.889 107.207 162.196 109.052 162.196 110.916V156.386C162.196 158.127 161.919 159.85 161.381 161.458C160.843 163.066 160.055 164.528 159.061 165.758C158.067 166.989 156.887 167.966 155.588 168.632C154.289 169.298 152.897 169.641 151.491 169.641Z" fill="#3F3D56"/>
<path opacity="0.1" d="M54.2085 108.079H161.296V161.637C161.296 163.76 160.615 165.796 159.403 167.296C158.191 168.797 156.547 169.641 154.832 169.641H60.6725C58.9582 169.641 57.314 168.797 56.1018 167.296C54.8895 165.796 54.2085 163.76 54.2085 161.637V108.079Z" fill="black"/>
<path d="M142.02 65.8771H74.1596C70.9066 65.8771 68.2695 69.1423 68.2695 73.1701V157.194C68.2695 161.222 70.9066 164.487 74.1596 164.487H142.02C145.273 164.487 147.91 161.222 147.91 157.194V73.1701C147.91 69.1423 145.273 65.8771 142.02 65.8771Z" fill="#2F80ED"/>
<path opacity="0.1" d="M147.91 110.294V164.487H68.2695V110.294L108.09 134.124L147.91 110.294Z" fill="black"/>
<path d="M108.09 137.188L57.0672 106.654C56.7517 106.465 56.4025 106.378 56.0525 106.402C55.7025 106.426 55.3631 106.559 55.0662 106.79C54.7693 107.021 54.5245 107.341 54.3549 107.721C54.1852 108.1 54.0962 108.527 54.0962 108.961V161.498C54.0962 162.549 54.2634 163.59 54.5882 164.561C54.9131 165.532 55.3892 166.414 55.9895 167.157C56.5897 167.9 57.3023 168.49 58.0865 168.892C58.8708 169.294 59.7114 169.501 60.5602 169.501H155.62C156.469 169.501 157.309 169.294 158.093 168.892C158.878 168.49 159.59 167.9 160.191 167.157C160.791 166.414 161.267 165.532 161.592 164.561C161.917 163.59 162.084 162.549 162.084 161.498V109.861C162.084 109.332 161.975 108.811 161.768 108.347C161.561 107.884 161.262 107.493 160.9 107.212C160.538 106.93 160.124 106.767 159.697 106.738C159.27 106.709 158.843 106.815 158.458 107.045L108.09 137.188Z" fill="#3F3D56"/>
<path d="M97.4033 74.9303H75.1309V78.8301H97.4033V74.9303Z" fill="#F2F2F2"/>
<path d="M139.474 89.1368H73.3311V91.3653H139.474V89.1368Z" fill="#F2F2F2"/>
<path d="M139.474 96.658H73.3311V98.8864H139.474V96.658Z" fill="#F2F2F2"/>
<path d="M139.474 104.179H73.3311V106.408H139.474V104.179Z" fill="#F2F2F2"/>
<path d="M13.7129 169.501H199.092" stroke="#3F3D56" stroke-miterlimit="10"/>
<path d="M0 135.2C0 151.624 8.32148 164.914 18.6052 164.914L0 135.2Z" fill="#46455B"/>
<path d="M18.6055 164.914C18.6055 148.305 27.8918 134.866 39.3678 134.866L18.6055 164.914Z" fill="#2F80ED"/>
<path d="M6.74121 136.689C6.74121 152.29 12.0477 164.914 18.6054 164.914L6.74121 136.689Z" fill="#2F80ED"/>
<path d="M18.6055 164.914C18.6055 143.692 29.339 126.519 42.6035 126.519L18.6055 164.914Z" fill="#46455B"/>
<path d="M14.6909 165.123C14.6909 165.123 17.3294 165.023 18.1246 164.322C18.9198 163.621 22.1833 162.784 22.3806 163.908C22.5779 165.032 26.3458 169.5 23.3669 169.53C20.3881 169.56 16.4453 168.956 15.6517 168.357C14.858 167.758 14.6909 165.123 14.6909 165.123Z" fill="#A8A8A8"/>
<path opacity="0.2" d="M23.4201 169.139C20.4412 169.168 16.4985 168.564 15.7049 167.966C15.1004 167.51 14.8596 165.874 14.779 165.119C14.7232 165.122 14.6909 165.124 14.6909 165.124C14.6909 165.124 14.858 167.758 15.6517 168.357C16.4454 168.956 20.3881 169.56 23.367 169.53C24.2268 169.521 24.5239 169.143 24.5075 168.582C24.3881 168.921 24.0601 169.132 23.4201 169.139Z" fill="black"/>
<path d="M161.917 45.3414C161.782 46.8329 160.863 48.0345 160.522 49.475C160.01 51.6431 160.896 53.9698 162.108 55.6584C163.086 57.0065 164.27 58.1009 165.592 58.8782C166.914 59.6554 168.348 60.1 169.81 60.1862C170.239 60.233 170.672 60.1746 171.083 60.0144C171.45 59.8315 171.781 59.5517 172.052 59.1946C172.965 58.0598 173.455 56.4874 173.65 54.9042C173.845 53.3209 173.769 51.7079 173.693 50.1091C173.693 49.7786 173.645 49.4508 173.55 49.142C173.425 48.8477 173.254 48.5875 173.047 48.3767C172.39 47.6303 171.666 46.9792 170.889 46.4361C170.539 46.2414 170.229 45.9481 169.985 45.5796C169.839 45.2639 169.744 44.9154 169.706 44.5541L169.468 43.0502C169.425 42.6168 169.306 42.2005 169.118 41.8311C168.697 41.1278 167.891 41.0321 167.185 40.9978L164.596 40.8721C163.791 40.833 162.73 40.5471 161.944 40.7429C161.21 40.9257 161.454 41.7631 161.587 42.5256C161.781 43.4463 161.891 44.3906 161.917 45.3414Z" fill="#A0616A"/>
<path opacity="0.1" d="M161.917 45.3414C161.782 46.8329 160.863 48.0345 160.522 49.475C160.01 51.6431 160.896 53.9698 162.108 55.6584C163.086 57.0065 164.27 58.1009 165.592 58.8782C166.914 59.6554 168.348 60.1 169.81 60.1862C170.239 60.233 170.672 60.1746 171.083 60.0144C171.45 59.8315 171.781 59.5517 172.052 59.1946C172.965 58.0598 173.455 56.4874 173.65 54.9042C173.845 53.3209 173.769 51.7079 173.693 50.1091C173.693 49.7786 173.645 49.4508 173.55 49.142C173.425 48.8477 173.254 48.5875 173.047 48.3767C172.39 47.6303 171.666 46.9792 170.889 46.4361C170.539 46.2414 170.229 45.9481 169.985 45.5796C169.839 45.2639 169.744 44.9154 169.706 44.5541L169.468 43.0502C169.425 42.6168 169.306 42.2005 169.118 41.8311C168.697 41.1278 167.891 41.0321 167.185 40.9978L164.596 40.8721C163.791 40.833 162.73 40.5471 161.944 40.7429C161.21 40.9257 161.454 41.7631 161.587 42.5256C161.781 43.4463 161.891 44.3906 161.917 45.3414Z" fill="black"/>
<path d="M178.382 112.477C178.016 117.456 177.649 122.434 177.282 127.41C176.995 131.327 176.703 135.26 176.14 139.126C175.945 140.459 175.717 141.784 175.447 143.098C174.695 146.747 173.604 150.312 173.252 154.053C173.241 154.16 173.232 154.27 173.223 154.381C173.183 155.208 173.057 156.025 172.847 156.811C172.671 157.382 172.4 157.903 172.209 158.467C171.83 159.595 171.78 160.843 171.733 162.065C170.398 161.135 168.936 160.516 167.42 160.24C166.689 160.104 165.874 160.008 165.375 159.331C164.824 158.584 164.885 157.44 164.977 156.435C165.268 153.316 165.558 150.199 165.848 147.084C165.942 145.743 166.126 144.415 166.398 143.112C166.498 142.678 166.618 142.252 166.74 141.825C166.909 141.238 167.079 140.651 167.207 140.048C167.391 139.074 167.52 138.084 167.592 137.088C167.89 133.951 168.25 130.82 168.565 127.686L168.581 127.521C169.054 122.769 169.413 117.995 169.309 113.209C169.294 112.5 169.27 111.792 169.233 111.081C169.181 110.051 169.105 109.505 169.794 108.861C170.556 108.15 171.558 107.653 172.428 107.187C172.897 106.935 178.056 104.667 178.177 105.164C178.419 106.226 178.546 107.322 178.555 108.425C178.558 109.779 178.501 111.132 178.382 112.477Z" fill="#605D82"/>
<path opacity="0.1" d="M176.139 139.126C175.945 140.459 175.717 141.784 175.447 143.098C174.695 146.747 173.604 150.312 173.252 154.053C173.241 154.16 173.232 154.27 173.222 154.381C170.922 150.312 168.985 145.937 166.74 141.825C166.909 141.238 167.079 140.651 167.207 140.048C167.391 139.074 167.52 138.084 167.592 137.088C167.89 133.951 168.25 130.82 168.564 127.686L168.581 127.521C168.713 128.186 168.901 128.833 169.142 129.449C170.65 133.242 174.232 135.159 175.984 138.789C176.037 138.902 176.089 139.014 176.139 139.126Z" fill="black"/>
<path d="M157.474 105.774C157.55 108.817 157.944 111.831 158.336 114.836L159.146 121.035C159.589 124.427 160.051 127.889 161.347 130.928C162.317 133.201 163.715 135.141 164.979 137.18C168.087 142.194 170.422 147.873 173.369 153.034C174.226 154.534 175.45 156.156 176.912 155.843C177.872 155.637 178.569 154.648 179.323 153.885C180.212 152.986 181.284 152.328 181.984 151.201C182.683 150.074 182.82 148.201 181.872 147.399C181.529 147.164 181.165 146.979 180.788 146.849C179.318 146.157 178.367 144.381 177.762 142.584C177.157 140.788 176.79 138.856 175.984 137.185C174.232 133.555 170.649 131.638 169.141 127.844C168.297 125.718 168.216 123.269 168.152 120.902L167.987 114.868C167.969 114.208 167.955 113.522 168.172 112.918C168.749 111.312 170.49 111.162 171.9 110.959C173.501 110.726 175.051 110.121 176.47 109.174C177.282 108.631 178.075 107.938 178.51 106.93C178.906 106.01 178.961 104.931 179.007 103.89L179.496 92.9542C179.538 92.0134 179.576 91.0405 179.308 90.1586C178.636 87.9439 176.377 87.2202 174.468 87.3259C170.916 87.5225 167.636 89.4146 164.287 90.6923C163.457 91.0163 162.615 91.2883 161.763 91.5073C161.012 91.6941 160.102 91.6166 159.385 91.9159C158.11 92.4481 158.142 95.9005 157.962 97.3326C157.588 100.122 157.425 102.948 157.474 105.774Z" fill="#605D82"/>
<path d="M176.43 156.301C176.743 156.692 176.846 157.266 176.927 157.807C177.38 160.811 177.615 163.858 177.631 166.914C177.61 167.199 177.656 167.485 177.763 167.739C177.851 167.89 177.971 168.009 178.109 168.083C179.014 168.618 180.065 167.873 180.82 167.055C182.218 165.538 183.402 163.502 183.481 161.202C183.466 160.609 183.483 160.016 183.531 159.427C183.654 158.561 184.062 157.807 184.422 157.049C185.034 155.759 185.528 154.388 185.895 152.962C186.032 152.426 186.124 151.751 185.785 151.377C185.664 151.261 185.528 151.173 185.382 151.118L181.292 149.238C180.937 149.075 180.056 151.88 179.916 152.186C179.573 152.936 179.233 153.362 178.546 153.535C177.845 153.712 177.01 153.458 176.356 153.892C175.249 154.624 175.804 155.519 176.43 156.301Z" fill="#535070"/>
<path d="M170.12 158.032C170.043 157.845 169.938 157.679 169.808 157.544C169.619 157.395 169.404 157.304 169.18 157.279C168.402 157.116 167.479 157.008 166.942 157.725C166.438 158.396 166.524 159.491 166.103 160.245C165.97 160.483 165.789 160.68 165.674 160.932C165.53 161.318 165.465 161.742 165.485 162.166C165.463 163.335 165.442 164.505 165.507 165.672C165.561 166.649 165.695 167.673 166.188 168.438C166.98 169.667 168.409 169.844 169.677 169.924L170.704 169.988C170.987 170.031 171.274 169.998 171.546 169.893C171.714 169.796 171.865 169.659 171.99 169.489C172.114 169.319 172.21 169.12 172.272 168.904C172.806 167.258 171.96 165.486 171.438 163.834C170.839 161.935 170.946 159.827 170.12 158.032Z" fill="#535070"/>
<path d="M161.619 36.937C161.607 36.7702 161.627 36.6021 161.677 36.4467C161.828 36.1174 162.22 36.207 162.517 36.2995C163.708 36.6715 164.964 36.3348 166.191 36.4217C167.418 36.5086 168.8 37.2681 169.047 38.7587C169.937 37.977 170.705 37.0004 171.312 35.8769C171.652 35.246 171.949 34.5233 171.903 33.7666C171.836 32.6752 171.096 31.859 170.411 31.1668L168.37 29.1036C168.102 28.7987 167.793 28.5551 167.456 28.3841C166.985 28.1846 166.471 28.2797 165.973 28.2801C164.487 28.2812 162.903 27.4439 161.581 28.2851C161.029 28.6364 160.614 29.2385 160.213 29.8256L158.391 32.4958C158.254 32.666 158.154 32.8763 158.1 33.1073C158.048 33.4332 158.183 33.7549 158.231 34.0819C158.317 34.6785 158.109 35.3151 158.269 35.888C158.533 36.839 159.466 36.9736 160.036 37.5189C160.249 37.7221 160.582 38.4107 160.835 38.4023C161.292 38.3872 161.608 37.3765 161.619 36.937Z" fill="#3F3D56"/>
<path d="M164.71 44.8081C167.932 44.8081 170.544 41.5741 170.544 37.5846C170.544 33.5952 167.932 30.3611 164.71 30.3611C161.488 30.3611 158.876 33.5952 158.876 37.5846C158.876 41.5741 161.488 44.8081 164.71 44.8081Z" fill="#A0616A"/>
<path d="M166.077 53.3934C165.879 52.6914 165.505 52.0857 165.011 51.6642C164.516 51.2427 163.926 51.0272 163.326 51.0491C163.154 51.0887 162.976 51.0609 162.818 50.9696C162.728 50.8844 162.657 50.7737 162.609 50.6468C162.255 49.8569 161.97 49.0221 161.759 48.1568C161.666 47.7745 161.539 47.3238 161.226 47.2244C161.097 47.2034 160.965 47.2264 160.846 47.2908C160.726 47.3552 160.623 47.4587 160.547 47.5901C160.399 47.8547 160.237 48.107 160.062 48.3454C159.328 49.1577 158.027 48.4173 157.249 49.1626C157.121 49.2843 157.016 49.4403 156.883 49.551C156.749 49.6507 156.605 49.7272 156.454 49.7784C154.951 50.3863 153.476 51.1012 152.039 51.9196C152.557 55.7824 153.088 59.7124 154.302 63.3279C154.88 65.0485 155.535 66.7336 155.998 68.5067C157.023 72.4355 157.068 76.639 157.08 80.7677C157.088 83.5934 157.076 86.4795 156.338 89.1532C156.139 89.7441 155.999 90.3627 155.921 90.9953C155.876 91.6324 156.026 92.3349 156.443 92.7124C156.685 92.9082 156.961 93.0284 157.249 93.0628C158.528 93.2953 159.818 92.8737 161.078 92.5124C164.454 91.5442 167.898 90.9902 171.335 90.4377L177.094 89.5117C177.507 89.477 177.911 89.3477 178.286 89.1304C179.339 88.416 179.44 86.4531 178.785 85.2055C178.471 84.6073 178.029 84.1166 177.765 83.4825C177.501 82.8484 177.479 81.9616 177.933 81.5224C178.856 80.629 178.581 78.9714 178.625 77.5216C178.748 73.4679 178.731 69.4125 178.575 65.3556C178.528 64.5158 178.518 63.6736 178.542 62.8324C178.644 61.407 178.857 59.9971 179.177 58.622L180.927 50.0903C180.47 49.1958 179.595 48.6283 178.766 48.3706C177.936 48.113 177.073 48.0371 176.256 47.7238C174.583 47.0819 173.094 45.453 171.347 45.6048C171.214 45.6078 171.084 45.647 170.966 45.7199C170.572 45.9963 170.634 46.6994 170.609 47.2593C170.554 48.498 169.818 49.5333 169.005 50.2591C168.193 50.985 167.264 51.5143 166.518 52.3421C166.386 52.4655 166.278 52.6239 166.201 52.8058C166.125 52.9877 166.082 53.1885 166.077 53.3934Z" fill="#3F3D56"/>
<path d="M142.961 61.486C142.574 61.7968 142.163 62.0587 141.734 62.2678C141.314 62.4226 140.916 62.6612 140.558 62.9741C140.393 63.151 140.255 63.3627 140.149 63.5995C139.952 64.0331 139.852 64.5244 139.86 65.0221C139.869 65.5198 139.984 66.0057 140.196 66.429C140.408 66.8523 140.707 67.1975 141.063 67.4286C141.419 67.6597 141.819 67.7682 142.221 67.7428C142.754 67.6687 143.273 67.4773 143.752 67.1774L147.867 64.9696C148.563 64.5959 149.316 64.158 149.645 63.3112C149.683 63.2322 149.697 63.1388 149.685 63.048C149.652 62.9519 149.592 62.8738 149.516 62.828C148.588 62.0816 147.776 61.134 147.12 60.0306C146.951 59.7468 146.744 59.0767 146.506 58.9065C145.635 58.2855 143.658 60.9258 142.961 61.486Z" fill="#A0616A"/>
<path d="M186.95 59.6744L188.467 61.8201C188.792 62.2807 189.118 62.7419 189.415 63.2315C190.144 64.4755 190.729 65.8397 191.153 67.2844C191.483 68.3558 191.756 69.497 191.641 70.6347C191.565 71.2179 191.437 71.7891 191.262 72.3385C190.984 73.395 190.639 74.4229 190.231 75.4126C189.888 76.1645 189.5 76.8839 189.071 77.565C187.896 79.4925 186.611 81.3127 185.225 83.0115C184.707 83.6472 184.489 84.675 184.263 85.5343C183.847 87.1192 182.856 88.3537 181.898 89.5242C181.59 89.9268 181.25 90.2895 180.882 90.6064C180.332 91.0454 179.688 91.2723 179.034 91.2583C178.747 91.2607 178.463 91.188 178.201 91.0449C177.545 90.6593 177.212 89.7205 177.144 88.8257C177.083 88.0137 177.193 87.1959 177.463 86.4521C178.333 84.0644 180.569 83.0298 182.149 81.2876C183.076 80.266 183.784 78.9828 184.483 77.7135C184.958 76.921 185.354 76.061 185.663 75.1517C186.016 73.9859 185.879 72.6057 186.187 71.4206C186.317 70.9197 186.549 70.4673 186.689 69.9705C186.829 69.4736 186.865 68.8838 186.619 68.4538C186.435 68.1806 186.199 67.9669 185.933 67.8312C184.923 67.1969 183.793 66.3805 183.599 64.9994C183.522 64.2335 183.684 63.4601 184.051 62.8366C184.417 62.2214 184.845 61.6663 185.324 61.1848C185.766 60.7014 186.508 60.1577 186.95 59.6744Z" fill="#A0616A"/>
<path d="M141.987 64.4812C141.719 63.8112 141.384 63.1277 140.844 62.7945C140.582 62.6537 140.299 62.5802 140.013 62.5788C139.728 62.5773 139.445 62.6477 139.182 62.7859C138.658 63.0657 138.167 63.4331 137.723 63.8779L136.416 65.0713C136.119 65.3121 135.857 65.6119 135.639 65.9586C135.433 66.3791 135.296 66.8459 135.235 67.3322C135.007 68.4412 134.938 69.591 135.03 70.7297C135.237 72.5555 136.126 74.1494 137.105 75.5392C137.716 76.4076 138.471 77.284 139.401 77.3211C139.802 77.3371 140.249 77.1412 140.416 76.6888C140.474 76.5095 140.504 76.3185 140.507 76.1255C140.607 74.089 140.019 72.0998 139.332 70.2448C139.114 69.7591 138.984 69.2195 138.954 68.6646C138.949 68.5712 138.969 68.4784 139.01 68.4C139.069 68.3237 139.148 68.2759 139.233 68.265C140.172 68.035 141.79 68.9383 142.448 67.6471C142.875 66.81 142.29 65.2403 141.987 64.4812Z" fill="#A0616A"/>
<path d="M161.313 34.6641C161.301 34.4973 161.321 34.3292 161.371 34.1738C161.522 33.8444 161.914 33.9341 162.211 34.0266C163.402 34.3986 164.658 34.0618 165.885 34.1487C167.112 34.2357 168.494 34.9951 168.74 36.4858C169.631 35.704 170.399 34.7274 171.006 33.604C171.346 32.973 171.643 32.2503 171.597 31.4937C171.53 30.4023 170.79 29.5861 170.105 28.8939L168.064 26.8306C167.796 26.5257 167.487 26.2821 167.15 26.1111C166.679 25.9117 166.165 26.0067 165.667 26.0071C164.181 26.0083 162.597 25.171 161.275 26.0121C160.723 26.3634 160.307 26.9655 159.907 27.5526L158.085 30.2229C157.948 30.3931 157.848 30.6034 157.794 30.8343C157.742 31.1603 157.877 31.482 157.924 31.809C158.01 32.4055 157.803 33.0422 157.962 33.615C158.227 34.5661 159.16 34.7007 159.73 35.2459C159.943 35.4491 160.276 36.1378 160.529 36.1294C160.986 36.1142 161.301 35.1035 161.313 34.6641Z" fill="#3F3D56"/>
<path d="M148.923 54.4598C148.687 54.6479 148.481 54.8862 148.312 55.1637C148.098 55.5641 148.055 56.0696 147.871 56.4924C147.478 57.397 146.558 57.7188 145.985 58.461C145.893 58.5631 145.83 58.6976 145.803 58.8461C145.801 59.0475 145.855 59.2437 145.957 59.4003L148.724 64.7853C149.645 64.8857 150.529 64.1712 151.45 64.2661C151.794 64.3015 152.146 64.4486 152.476 64.3227C152.712 64.1931 152.934 64.0254 153.135 63.8241C153.684 63.3937 154.417 63.3436 154.878 62.7757C155.32 62.2307 155.377 61.3781 155.372 60.6052C155.379 59.934 155.324 59.2641 155.207 58.6085C154.8 56.5416 153.523 54.9554 152.723 53.1244C152.333 52.233 152.121 51.7112 151.296 52.3233C150.467 52.9385 149.703 53.7534 148.923 54.4598Z" fill="#3F3D56"/>
<path d="M182.52 51.7366C183.04 52.1546 183.509 52.663 183.912 53.246C184.334 53.9189 184.572 54.7424 184.977 55.4307C185.37 56.0978 185.904 56.6145 186.349 57.2289C187.024 58.1606 187.481 59.2973 187.93 60.4187C186.833 62.1896 185.638 63.863 184.352 65.4264C184.208 65.6352 184.02 65.7888 183.808 65.8686C183.664 65.8876 183.519 65.8621 183.385 65.7944C183.251 65.7267 183.132 65.619 183.04 65.4809C182.841 65.2221 182.7 64.903 182.509 64.6342C182.06 64.06 181.46 63.7013 180.818 63.6214C180.181 63.5452 179.54 63.5342 178.902 63.5887C178.761 63.6081 178.62 63.5786 178.492 63.5036C178.398 63.4227 178.321 63.3136 178.269 63.1864C177.52 61.6083 177.761 59.627 178.025 57.826L178.632 53.6935C178.719 52.9042 178.889 52.1323 179.136 51.3967C179.366 50.7889 179.879 49.7584 180.511 49.9403C181.147 50.1237 181.985 51.2597 182.52 51.7366Z" fill="#3F3D56"/>
<path d="M71.5316 78.8717C76.6258 78.8717 80.7555 73.7491 80.7555 67.43C80.7555 61.1109 76.6258 55.9882 71.5316 55.9882C66.4373 55.9882 62.3076 61.1109 62.3076 67.43C62.3076 73.7491 66.4373 78.8717 71.5316 78.8717Z" fill="white"/>
<path d="M71.5315 54.0383C69.3513 54.0383 67.2199 54.8388 65.4071 56.3386C63.5942 57.8385 62.1813 59.9702 61.347 62.4643C60.5126 64.9584 60.2943 67.7029 60.7196 70.3506C61.145 72.9983 62.1949 75.4304 63.7366 77.3394C65.2783 79.2483 67.2425 80.5482 69.3809 81.0749C71.5193 81.6016 73.7358 81.3313 75.7502 80.2982C77.7645 79.2651 79.4861 77.5156 80.6974 75.271C81.9088 73.0263 82.5553 70.3873 82.5553 67.6877C82.5467 64.0709 81.3826 60.6053 79.3171 58.0478C77.2516 55.4904 74.4526 54.0489 71.5315 54.0383ZM69.2685 74.9653L63.6188 67.9699L65.2035 66.0078L69.2738 71.0476L77.8649 60.4102L79.4496 62.3723L69.2685 74.9653L69.2685 74.9653Z" fill="#2F80ED"/>
</g>
<defs>
<clipPath id="clip0">
<rect width="228" height="170" fill="white"/>
</clipPath>
</defs>
</svg>
