<svg width="44" height="44" viewBox="0 0 44 44" fill="none" xmlns="http://www.w3.org/2000/svg">
<path d="M21.9999 5.5C22.2419 5.5 22.4821 5.5 22.7204 5.5C20.3652 7.68847 18.8513 10.6331 18.442 13.8219C18.0326 17.0108 18.7536 20.2423 20.4796 22.9547C22.2057 25.6671 24.8276 27.6889 27.8897 28.6687C30.9518 29.6485 34.2604 29.5243 37.2404 28.3177C36.0941 31.0759 34.2205 33.4712 31.8196 35.2481C29.4187 37.0251 26.5804 38.1169 23.6076 38.4072C20.6348 38.6975 17.6389 38.1754 14.9396 36.8966C12.2402 35.6177 9.93863 33.6301 8.28034 31.1458C6.62204 28.6614 5.66924 25.7735 5.52355 22.7901C5.37786 19.8067 6.04476 16.8397 7.45311 14.2056C8.86145 11.5715 10.9584 9.36911 13.5203 7.83335C16.0822 6.29758 19.013 5.48606 21.9999 5.48534V5.5Z" fill="#F6AD55" stroke="#F6AD55" stroke-width="2.75" stroke-linecap="round" stroke-linejoin="round"/>
</svg>
