<svg width="60" height="60" viewBox="0 0 60 60" fill="none" xmlns="http://www.w3.org/2000/svg">
<path d="M37.5 52.5V43.75C37.5 41.25 37.75 40.25 36.25 38.75C43.25 38 50 35.25 50 23.75C49.997 20.7624 48.8314 17.8933 46.75 15.75C47.7262 13.1549 47.6363 10.2791 46.5 7.75C46.5 7.75 43.75 7 37.75 11C32.6681 9.67647 27.3319 9.67647 22.25 11C16.25 7 13.5 7.75 13.5 7.75C12.3637 10.2791 12.2738 13.1549 13.25 15.75C11.1686 17.8933 10.003 20.7624 10 23.75C10 35.25 16.75 38 23.75 38.75C22.25 40.25 22.25 41.75 22.5 43.75V52.5M22.5 47.5C11.75 51 11.75 41.25 7.5 40L22.5 47.5Z" stroke="white" stroke-width="2.75" stroke-linecap="round" stroke-linejoin="round"/>
</svg>
