<svg width="532" height="378" viewBox="0 0 532 378" fill="none" xmlns="http://www.w3.org/2000/svg">
<g clip-path="url(#clip0)">
<path d="M49.2589 337.311C76.3543 337.311 98.3194 335.76 98.3194 333.848C98.3194 331.935 76.3543 330.385 49.2589 330.385C22.1636 330.385 0.198486 331.935 0.198486 333.848C0.198486 335.76 22.1636 337.311 49.2589 337.311Z" fill="#D0CDE1"/>
<path d="M198.172 377.136C268.62 377.136 325.729 374.423 325.729 371.075C325.729 367.728 268.62 365.015 198.172 365.015C127.724 365.015 70.6147 367.728 70.6147 371.075C70.6147 374.423 127.724 377.136 198.172 377.136Z" fill="#D0CDE1"/>
<path d="M264.548 126.062L266.857 122.022L255.313 119.713L254.158 125.485L255.89 130.102L264.548 126.062Z" fill="#2F80ED"/>
<path opacity="0.2" d="M264.548 126.062L266.857 122.022L255.313 119.713L254.158 125.485L255.89 130.102L264.548 126.062Z" fill="black"/>
<path d="M257.91 123.465C266.198 123.465 272.917 116.746 272.917 108.458C272.917 100.17 266.198 93.4512 257.91 93.4512C249.622 93.4512 242.904 100.17 242.904 108.458C242.904 116.746 249.622 123.465 257.91 123.465Z" fill="#FFB8B8"/>
<path d="M245.212 108.458L233.092 128.66L250.984 139.049L260.219 117.693L245.212 108.458Z" fill="#FFB8B8"/>
<path d="M244.058 132.122L228.474 125.773C228.474 125.773 204.809 129.813 202.501 137.317C200.192 144.82 200.192 205.425 200.192 205.425C200.192 205.425 194.42 220.431 202.501 221.009C202.501 221.009 200.192 224.472 202.501 225.049C204.809 225.626 228.474 225.049 237.709 227.935C246.944 230.821 265.413 233.129 265.413 230.244V225.049C265.413 225.049 269.454 221.009 267.145 214.082C264.836 207.156 261.95 192.149 261.95 192.149C261.95 192.149 279.266 154.055 277.534 149.438C275.803 144.82 254.662 130.542 254.662 130.542L244.058 132.122Z" fill="#2F80ED"/>
<path d="M208.273 205.425L208.85 210.042L216.93 200.23H214.045L208.273 205.425Z" fill="#FFB8B8"/>
<path d="M244.058 132.122L227.32 128.082C227.32 128.082 223.857 125.196 223.857 121.733C223.857 118.27 229.051 113.075 232.514 109.612C232.816 109.303 233.177 109.058 233.576 108.893C233.974 108.727 234.403 108.644 234.835 108.648C238.263 108.62 242.419 113.116 242.419 113.116L237.807 120.81L237.599 121.15L244.058 132.122Z" fill="#2F80ED"/>
<path d="M256.96 125.23L266.857 122.022C266.857 122.022 270.031 134.431 266.568 135.008C263.105 135.585 244.058 133.854 244.058 133.854L256.96 125.23Z" fill="#2F80ED"/>
<path d="M203.655 222.163L196.152 264.874C196.152 264.874 193.266 270.069 194.42 272.377C195.575 274.686 196.152 274.686 194.42 275.84C192.689 276.995 190.38 275.84 190.957 278.726C191.303 280.437 191.496 282.176 191.534 283.921L175.373 339.33C175.373 339.33 164.984 343.948 172.487 346.834C179.991 349.72 187.494 352.028 189.226 349.143C190.957 346.257 189.226 342.794 189.226 342.794L215.776 279.304C215.776 279.304 219.816 273.532 219.816 270.069C219.816 266.606 233.092 241.787 233.092 241.787C233.092 241.787 233.669 266.606 234.246 268.337C234.823 270.069 233.092 273.532 233.092 275.84C233.092 278.149 231.937 278.149 233.092 279.304C234.246 280.458 234.246 293.733 234.246 293.733C234.246 293.733 227.32 345.102 231.36 345.679C235.4 346.257 246.944 345.102 246.944 342.794C246.944 340.485 245.212 339.908 245.212 339.908L252.716 296.042C252.716 296.042 252.139 293.156 253.293 290.847C254.447 288.538 254.447 288.538 254.447 287.384C254.447 286.23 253.87 285.653 254.447 285.075C254.824 284.577 255.027 283.969 255.024 283.344C255.024 283.344 253.87 279.881 254.447 279.304C255.024 278.726 267.723 235.438 263.682 230.243C259.642 225.049 203.655 222.163 203.655 222.163Z" fill="#2F2E41"/>
<path d="M231.937 343.948L227.897 353.183C227.897 353.183 218.662 363.572 225.588 365.881C232.514 368.19 234.823 367.613 234.823 367.613C234.823 367.613 237.709 368.19 237.709 369.344C237.709 370.498 260.796 379.156 262.528 371.653C264.259 364.15 244.635 350.297 244.635 350.297V343.371L231.937 343.948Z" fill="#2F2E41"/>
<path d="M187.416 348.223L188.29 358.265C188.29 358.265 193.717 371.062 186.416 371.034C179.115 371.006 177.112 369.721 177.112 369.721C177.112 369.721 174.193 369.345 173.824 370.438C173.455 371.532 148.811 372.35 149.571 364.687C150.33 357.024 173.354 350.177 173.354 350.177L175.57 343.614L187.416 348.223Z" fill="#2F2E41"/>
<path d="M243.294 112.566C244.221 112.504 244.839 111.494 245.095 110.532C245.352 109.571 245.417 108.518 245.941 107.692C247.375 105.428 251.106 106.342 252.622 104.14C253.553 102.786 253.358 100.581 254.703 99.7189C255.553 99.1747 256.636 99.455 257.572 99.7969C261.199 101.132 264.549 103.127 267.451 105.681L268.656 104.699L270.161 107.709C270.745 107.005 271.871 107.551 272.36 108.333C272.85 109.116 273.088 110.116 273.786 110.686C274.899 111.594 276.638 110.825 277.313 109.507C277.987 108.19 277.876 106.58 277.642 105.097C277.06 101.382 275.819 97.8008 273.978 94.522L275.355 93.6956L273.574 93.4413L274.256 91.8951L272.391 91.8734L273.127 90.5517C270.62 91.4122 268.028 89.8361 265.633 88.6612C261.627 86.6958 257.121 85.7526 252.771 86.4827C250.543 86.8446 248.414 87.6667 246.52 88.8966C244.627 90.1265 243.011 91.7373 241.774 93.6264C239.877 96.6081 238.782 100.938 239.73 104.509C240.592 107.754 244.354 108.259 243.294 112.566Z" fill="#2F2E41"/>
<path d="M205.964 135.008C205.964 135.008 202.501 134.431 200.192 139.048C197.883 143.666 180.568 180.606 189.225 192.149C197.883 203.693 205.964 207.156 205.964 207.156L207.695 207.733L216.353 198.498L213.467 194.458C213.467 194.458 213.467 190.418 211.159 189.841C208.85 189.263 208.85 190.995 208.273 188.686C207.695 186.377 210.581 188.109 207.695 185.8C204.809 183.492 207.118 182.337 207.118 182.337L205.964 135.008Z" fill="#2F80ED"/>
<path d="M267.145 212.062L266.568 216.68L258.487 206.867H261.373L267.145 212.062Z" fill="#FFB8B8"/>
<path d="M266.279 147.418C266.279 147.418 274.36 143.377 276.668 147.995C278.977 152.612 294.85 187.243 286.192 198.787C277.534 210.33 269.454 213.794 269.454 213.794L267.722 214.371L259.064 205.136L261.95 201.096C261.95 201.096 261.95 197.055 264.259 196.478C266.568 195.901 266.568 197.632 267.145 195.324C267.722 193.015 264.836 194.747 267.722 192.438C270.608 190.129 268.299 188.975 268.299 188.975L266.279 147.418Z" fill="#2F80ED"/>
<path opacity="0.2" d="M211.447 157.807L205.098 183.203L212.601 192.438L209.138 180.895L211.447 157.807Z" fill="black"/>
<path opacity="0.2" d="M242.419 113.116L237.807 120.81C234.909 119.805 234.667 113.081 234.834 108.648C238.263 108.619 242.419 113.116 242.419 113.116Z" fill="black"/>
<path d="M144.358 355.357C144.458 365.628 138.387 369.273 130.856 369.346C130.681 369.348 130.507 369.348 130.334 369.345C129.985 369.341 129.639 369.329 129.297 369.308C122.495 368.893 117.177 365.175 117.084 355.623C116.988 345.738 129.499 333.14 130.438 332.209L130.439 332.208C130.475 332.173 130.493 332.155 130.493 332.155C130.493 332.155 144.257 345.087 144.358 355.357Z" fill="#D0CDE1"/>
<path d="M124.74 305.816C124.81 313.065 120.525 315.639 115.209 315.69C115.086 315.692 114.963 315.691 114.84 315.69C114.594 315.687 114.35 315.678 114.109 315.663C109.307 315.37 105.553 312.746 105.488 306.004C105.42 299.026 114.251 290.134 114.914 289.476L114.915 289.476C114.94 289.451 114.953 289.438 114.953 289.438C114.953 289.438 124.669 298.566 124.74 305.816Z" fill="#D0CDE1"/>
<path d="M115.058 317.115C134.184 317.115 149.689 316.02 149.689 314.67C149.689 313.32 134.184 312.226 115.058 312.226C95.9316 312.226 80.4268 313.32 80.4268 314.67C80.4268 316.02 95.9316 317.115 115.058 317.115Z" fill="#D0CDE1"/>
<path d="M532 161.501H303.002V278.093H532V161.501Z" fill="#3F3D56"/>
<path d="M367.738 200.76H344.546V202.693H367.738V200.76Z" fill="#2F80ED"/>
<path d="M398.658 200.76H375.467V202.693H398.658V200.76Z" fill="#2F80ED"/>
<path d="M443.59 218.637H420.4V220.569H443.59V218.637Z" fill="#2F80ED"/>
<path d="M474.996 218.637H451.805V220.569H474.996V218.637Z" fill="#2F80ED"/>
<path d="M474.995 200.76H406.871V202.693H474.995V200.76Z" fill="#2F80ED"/>
<path d="M412.669 218.637H344.546V220.569H412.669V218.637Z" fill="#2F80ED"/>
<path d="M412.669 236.513H344.546V238.446H412.669V236.513Z" fill="#2F80ED"/>
<path d="M474.996 236.513H427.647V238.446H474.996V236.513Z" fill="#2F80ED"/>
<path d="M338.028 208.919L329.869 200.761L338.028 192.602L339.66 194.234L333.133 200.761L339.66 207.287L338.028 208.919Z" fill="#2F80ED"/>
<path d="M496.975 246.605L495.343 244.973L501.869 238.445L495.343 231.919L496.975 230.287L505.133 238.445L496.975 246.605Z" fill="#2F80ED"/>
<path d="M488.385 229.898L483.553 245.841L485.762 246.511L490.594 230.568L488.385 229.898Z" fill="#2F80ED"/>
<path d="M53.5689 318.42L96.3196 254.846L53.6564 325.259L53.7456 332.413C50.6246 332.437 47.534 332.385 44.4736 332.257L46.594 240.301L46.5359 239.591L46.6141 239.454L46.8171 230.765L0 162.792L46.7618 224.262L46.9278 226.098L48.5293 156.622L8.09198 86.1495L48.6445 144.417L48.2212 0.479061L48.2221 0L48.2358 0.471157L50.9202 113.913L87.7739 67.833L51.0408 123.686L51.8451 185.831L85.7582 125.18L51.9698 194.968L52.4176 229.524L101.736 145.037L52.5675 241.579L53.5689 318.42Z" fill="#D0CDE1"/>
</g>
<defs>
<clipPath id="clip0">
<rect width="532" height="377.136" fill="white"/>
</clipPath>
</defs>
</svg>
