<svg width="60" height="60" viewBox="0 0 60 60" fill="none" xmlns="http://www.w3.org/2000/svg">
<path d="M52.5 21.625C52.5 47.25 30 55 30 55C30 55 7.5 47.25 7.5 21.625C7.5 18.5 7.75 15.875 8 13.75C8.375 10.625 10.5 8.125 13.5 7.375C17.375 6.25 23.5 5 30 5C36.5 5 42.625 6.25 46.625 7.375C49.625 8.125 51.75 10.75 52.125 13.75C52.25 15.875 52.5 18.625 52.5 21.625Z" fill="#5D4037"/>
<path d="M30 8.75C36.125 8.75 41.875 10 45.625 11C47.125 11.375 48.125 12.625 48.375 14.25C48.625 16.625 48.75 19.125 48.75 21.625C48.75 41.125 34.375 49 30 50.875C25.625 48.875 11.25 41 11.25 21.625C11.25 19.125 11.375 16.625 11.625 14.25C11.75 12.625 12.875 11.375 14.375 11C18.125 10 23.875 8.75 30 8.75ZM30 5C23.5 5 17.375 6.25 13.375 7.375C10.5 8.125 8.25 10.75 8 13.75C7.75 15.875 7.5 18.625 7.5 21.625C7.5 47.25 30 55 30 55C30 55 52.5 47.25 52.5 21.625C52.5 18.5 52.25 15.875 52 13.75C51.625 10.625 49.5 8.125 46.5 7.375C42.625 6.25 36.5 5 30 5Z" fill="#4CAF50"/>
<path d="M28.75 35H31.25V45H28.75V35Z" fill="#DCEDC8"/>
<path d="M30 12.5C30 12.5 22.5 18.75 22.5 28.75C22.5 35.25 26.625 39.375 28.75 41.25L30 37.5L31.25 41.25C33.375 39.375 37.5 35.25 37.5 28.75C37.5 18.75 30 12.5 30 12.5Z" fill="#4CAF50"/>
<path d="M30 12.5C30 12.5 22.5 18.75 22.5 28.75C22.5 35.25 26.625 39.375 28.75 41.25L30 37.5V12.5Z" fill="#81C784"/>
</svg>
