<svg width="40" height="40" viewBox="0 0 40 40" fill="none" xmlns="http://www.w3.org/2000/svg">
<rect width="40" height="40" rx="5" fill="#2C2C2C"/>
<path d="M8.888 28V13.048H13.856C15.712 13.048 17.088 13.456 17.984 14.272C18.88 15.088 19.328 16.168 19.328 17.512C19.328 18.328 19.088 19.128 18.608 19.912C18.128 20.696 17.48 21.272 16.664 21.64L19.736 28H16.232L13.376 22.048H12.344V28H8.888ZM12.344 19.288H14.024C14.584 19.288 15.024 19.144 15.344 18.856C15.68 18.552 15.848 18.144 15.848 17.632C15.848 17.168 15.68 16.768 15.344 16.432C15.024 16.08 14.584 15.904 14.024 15.904H12.344V19.288ZM25.736 28.288C24.728 28.288 23.752 28.152 22.808 27.88C21.88 27.592 21.128 27.152 20.552 26.56L22.184 23.848L22.304 23.656L22.544 23.8C22.576 23.912 22.616 24.032 22.664 24.16C22.728 24.272 22.864 24.416 23.072 24.592C23.456 24.848 23.872 25.064 24.32 25.24C24.768 25.416 25.232 25.512 25.712 25.528C26.368 25.544 26.896 25.44 27.296 25.216C27.696 24.992 27.896 24.592 27.896 24.016C27.896 23.76 27.832 23.512 27.704 23.272C27.592 23.032 27.352 22.768 26.984 22.48C26.616 22.192 26.048 21.872 25.28 21.52C24.256 21.024 23.44 20.552 22.832 20.104C22.24 19.656 21.808 19.168 21.536 18.64C21.28 18.096 21.152 17.448 21.152 16.696C21.152 15.96 21.368 15.296 21.8 14.704C22.248 14.112 22.848 13.64 23.6 13.288C24.352 12.936 25.176 12.76 26.072 12.76C27.096 12.76 27.992 12.92 28.76 13.24C29.544 13.56 30.256 14.056 30.896 14.728L28.856 16.936L28.712 17.104L28.496 16.912C28.48 16.784 28.456 16.664 28.424 16.552C28.392 16.424 28.288 16.264 28.112 16.072C27.856 15.848 27.584 15.704 27.296 15.64C27.008 15.56 26.672 15.52 26.288 15.52C25.744 15.52 25.304 15.632 24.968 15.856C24.632 16.064 24.464 16.312 24.464 16.6C24.464 16.84 24.52 17.056 24.632 17.248C24.744 17.44 24.992 17.664 25.376 17.92C25.76 18.16 26.36 18.488 27.176 18.904C28.216 19.416 29.032 19.904 29.624 20.368C30.216 20.832 30.632 21.344 30.872 21.904C31.128 22.448 31.256 23.104 31.256 23.872C31.256 24.624 31.064 25.336 30.68 26.008C30.296 26.68 29.696 27.232 28.88 27.664C28.064 28.08 27.016 28.288 25.736 28.288Z" fill="white"/>
</svg>
