<?xml version="1.0"?>
<svg xmlns="http://www.w3.org/2000/svg" id="Layer_1" enable-background="new 0 0 512.001 512.001" viewBox="0 0 512.001 512.001" width="512px" height="512px" class=""><g><g><g><path d="m99.281 362.953c-4.294-2.147-8.971-.357-12.881 4.294l-23.616 32.203-23.616-32.203c-3.074-4.4-8.703-5.28-12.882-4.294-4.672 1.103-6.44 6.44-6.44 10.735v85.874c0 6.44 4.294 10.735 10.735 10.735s10.735-4.294 10.735-10.735v-53.672l12.88 17.175c4.294 6.44 12.882 6.44 17.175 0l12.881-17.175v53.672c-.001 6.441 4.293 10.735 10.734 10.735 6.44 0 10.735-4.294 10.735-10.735v-85.874c-.001-4.295-2.147-8.588-6.44-10.735z" data-original="#000000" class="" data-old_color="#000000" fill="#F29111"/></g></g><g><g><path d="m258.148 382.274c12.881 0 19.132 7.13 21.468 10.735 5.357 8.267 8.827 9.906 14.54 7.764 7.044-2.642 7.422-6.038 6.929-9.91-2.146-17.175-19.322-30.055-42.937-30.055-23.616 0-42.937 15.029-42.937 32.203s12.931 27.371 38.693 31.664l4.244.538c17.175 2.146 21.418 6.129 21.355 11.538-.08 6.788-10.622 12.077-23.502 12.077-12.882 0-19.079-6.92-21.468-10.735-3.933-6.278-6.44-10.735-10.734-10.735-6.44 0-11.909 5.617-10.735 10.735 3.605 16.394 19.322 30.055 42.937 30.055 23.616 0 42.937-15.029 42.937-32.203 0-17.175-12.605-27.609-38.369-31.902l-2.421-.3c-19.322-2.146-21.479-8.002-21.468-10.735.017-4.293 8.587-10.734 21.468-10.734z" data-original="#000000" class="" data-old_color="#000000" fill="#F29111"/></g></g><g><g><path d="m481.419 448.827h-32.203v-75.14c0-6.44-4.294-10.735-10.735-10.735-6.44 0-10.735 4.294-10.735 10.735v85.874c0 6.44 4.294 10.735 10.735 10.735h42.937c6.44 0 10.735-4.294 10.735-10.735s-4.293-10.734-10.734-10.734z" data-original="#000000" class="" data-old_color="#000000" fill="#F29111"/></g></g><g><g><path d="m404.134 450.973c2.146-4.294 2.281-8.587 2.281-12.881l-.135-42.936h-.001c0-17.175-15.029-32.203-32.203-32.203h-21.468c-17.175 0-32.203 15.029-32.203 32.203v42.937c0 17.175 15.029 32.203 32.203 32.203h21.468c4.294 0 8.587-2.147 12.882-4.294 2.146 2.147 4.797 4.294 9.09 4.294 2.147 0 5.937-2.148 8.085-4.294 4.295-4.296 4.295-10.735.001-15.029zm-19.324-17.174v-.001l-2.146-2.146c-4.294-4.294-10.735-4.294-15.029 0s-4.294 10.735 0 15.029l2.146 2.147h-17.175c-6.44 0-10.735-4.294-10.735-10.735v-42.937c0-6.44 4.294-10.735 10.735-10.735h21.468c6.44 0 10.735 4.294 10.735 10.735v38.642z" data-original="#000000" class="" data-old_color="#000000" fill="#F29111"/></g></g><g><g><path d="m185.154 405.891c-3.895-2.807-11.884-1.029-15.029 4.294l-12.882 23.616-12.882-23.616c-2.146-4.294-8.756-6.891-15.029-4.294-4.436 1.837-7.073 8.72-4.294 15.029l19.322 38.643-19.322 38.643c-2.368 4.554.864 10.626 7.349 12.636 4.466 1.384 9.953 2.841 14.123-4.049l42.937-85.874c2.147-4.294.634-11.477-4.293-15.028z" data-original="#000000" class="" data-old_color="#000000" fill="#F29111"/></g></g><g><g><path d="m406.781 125.457c-4.047-2.916-10.379-2.779-12.609-.548-33.457 20.074-82.529 31.227-138.292 31.227s-107.064-11.152-138.292-31.227c-6.503-4.483-11.659-1.966-14.219-.122-4.047 2.916-6.709 5.367-4.697 13.334 10.94 43.306 85.829 62.625 159.435 62.625s149.68-19.102 154.544-60.53c.737-6.264-3.311-12.915-5.87-14.759z" data-original="#000000" class="" data-old_color="#000000" fill="#F29111"/></g></g><g><g><path d="m406.781 192.545c-4.047-2.916-10.379-2.779-12.609-.548-33.457 20.074-82.529 31.227-138.292 31.227s-107.064-11.152-138.292-31.227c-6.503-4.483-11.659-1.966-14.219-.122-4.047 2.916-6.709 5.367-4.697 13.334 10.94 43.306 85.829 62.625 159.435 62.625s149.68-19.101 154.544-60.529c.737-6.264-3.311-12.915-5.87-14.76z" data-original="#000000" class="" data-old_color="#000000" fill="#F29111"/></g></g><g><g><path d="m406.781 260.306c-4.047-2.916-10.379-2.779-12.609-.548-33.457 20.074-82.529 31.227-138.292 31.227s-107.064-11.152-138.292-31.227c-6.503-4.483-11.659-1.966-14.219-.122-4.047 2.916-6.709 5.367-4.697 13.334 10.94 43.306 85.829 62.625 159.435 62.625s149.68-19.102 154.544-60.53c.737-6.263-3.311-12.915-5.87-14.759z" data-original="#000000" class="" data-old_color="#000000" fill="#F29111"/></g></g><g><g><path d="m255.664 0c-75.837 0-156.135 24.536-156.135 66.915 0 42.38 80.298 66.914 156.135 66.914s156.134-24.536 156.134-66.915c0-42.38-80.298-66.914-156.134-66.914z" data-original="#000000" class="" data-old_color="#000000" fill="#F29111"/></g></g><g/><g/><g/><g/><g/><g/><g/><g/><g/><g/><g/><g/><g/><g/><g/></g> </svg>
