<svg width="30" height="30" viewBox="0 0 30 30" fill="none" xmlns="http://www.w3.org/2000/svg">
<path d="M16.25 8.75C16.913 8.75 17.5489 9.01339 18.0178 9.48223C18.4866 9.95107 18.75 10.587 18.75 11.25V26.25L12.5 22.5L6.25 26.25V11.25C6.25 10.587 6.51339 9.95107 6.98223 9.48223C7.45107 9.01339 8.08696 8.75 8.75 8.75H16.25Z" stroke="#2F80ED" stroke-width="2.75" stroke-linecap="round" stroke-linejoin="round"/>
<path d="M11.5813 5C11.801 4.61941 12.1172 4.30347 12.498 4.08402C12.8787 3.86456 13.3106 3.74935 13.75 3.75H21.25C21.9131 3.75 22.549 4.01339 23.0178 4.48224C23.4867 4.95108 23.75 5.58696 23.75 6.25V21.25L22.5 20.5" stroke="#2F80ED" stroke-width="2.75" stroke-linecap="round" stroke-linejoin="round"/>
</svg>
