<svg width="30" height="30" viewBox="0 0 30 30" fill="none" xmlns="http://www.w3.org/2000/svg">
<path d="M16.25 8.75C16.913 8.75 17.5489 9.01339 18.0178 9.48223C18.4866 9.95107 18.75 10.587 18.75 11.25V26.25L12.5 22.5L6.25 26.25V11.25C6.25 10.587 6.51339 9.95107 6.98223 9.48223C7.45107 9.01339 8.08696 8.75 8.75 8.75H16.25Z" stroke="#00C58E" stroke-width="2.75" stroke-linecap="round" stroke-linejoin="round"/>
<path d="M11.5811 5C11.8008 4.61941 12.117 4.30347 12.4977 4.08402C12.8785 3.86456 13.3103 3.74935 13.7498 3.75H21.2498C21.9128 3.75 22.5487 4.01339 23.0176 4.48224C23.4864 4.95108 23.7498 5.58696 23.7498 6.25V21.25L22.4998 20.5" stroke="#00C58E" stroke-width="2.75" stroke-linecap="round" stroke-linejoin="round"/>
</svg>
