<svg width="40" height="40" viewBox="0 0 40 40" fill="none" xmlns="http://www.w3.org/2000/svg">
<path d="M36.6668 6.68336C35.0002 7.50002 33.3668 7.83169 31.6668 8.33336C29.7985 6.22502 27.0285 6.10836 24.3668 7.10502C21.7052 8.10169 19.9618 10.5384 20.0002 13.3334V15C14.5918 15.1384 9.77516 12.675 6.66683 8.33336C6.66683 8.33336 -0.303171 20.7217 13.3335 26.6667C10.2135 28.745 7.10183 30.1467 3.3335 30C8.84683 33.005 14.8552 34.0384 20.0568 32.5284C26.0235 30.795 30.9268 26.3234 32.8085 19.625C33.3698 17.5878 33.6485 15.4831 33.6368 13.37C33.6335 12.955 36.1535 8.75002 36.6668 6.68169V6.68336Z" stroke="#00C58E" stroke-width="2.75" stroke-linecap="round" stroke-linejoin="round"/>
</svg>
