<svg width="40" height="40" viewBox="0 0 40 40" fill="none" xmlns="http://www.w3.org/2000/svg">
<path d="M36.6666 6.68336C34.9999 7.50002 33.3666 7.83169 31.6666 8.33336C29.7983 6.22502 27.0283 6.10836 24.3666 7.10502C21.7049 8.10169 19.9616 10.5384 19.9999 13.3334V15C14.5916 15.1384 9.77492 12.675 6.66659 8.33336C6.66659 8.33336 -0.303415 20.7217 13.3333 26.6667C10.2133 28.745 7.10159 30.1467 3.33325 30C8.84659 33.005 14.8549 34.0384 20.0566 32.5284C26.0233 30.795 30.9266 26.3234 32.8083 19.625C33.3696 17.5878 33.6483 15.4831 33.6366 13.37C33.6332 12.955 36.1533 8.75002 36.6666 6.68169V6.68336Z" stroke="#2F80ED" stroke-width="2.75" stroke-linecap="round" stroke-linejoin="round"/>
</svg>
