<svg width="20" height="20" viewBox="0 0 20 20" fill="none" xmlns="http://www.w3.org/2000/svg">
<path d="M7.00391 10.7493L10.0039 13.7493M10.0039 13.7493L13.0039 10.7493M10.0039 13.7493V6.24927M1.00391 9.99927C1.00391 8.81737 1.2367 7.64705 1.68899 6.55512C2.14128 5.46319 2.80422 4.47103 3.63995 3.63531C4.47567 2.79958 5.46783 2.13664 6.55976 1.68435C7.65169 1.23206 8.82201 0.999268 10.0039 0.999268C11.1858 0.999268 12.3561 1.23206 13.4481 1.68435C14.54 2.13664 15.5321 2.79958 16.3679 3.63531C17.2036 4.47103 17.8665 5.46319 18.3188 6.55512C18.7711 7.64705 19.0039 8.81737 19.0039 9.99927C19.0039 12.3862 18.0557 14.6754 16.3679 16.3632C14.68 18.0511 12.3909 18.9993 10.0039 18.9993C7.61696 18.9993 5.32777 18.0511 3.63995 16.3632C1.95212 14.6754 1.00391 12.3862 1.00391 9.99927Z" stroke="white" stroke-width="1.5" stroke-linecap="round" stroke-linejoin="round"/>
</svg>
