<svg width="30" height="30" viewBox="0 0 30 30" fill="none" xmlns="http://www.w3.org/2000/svg">
<path d="M18.75 26.2501V21.8751C18.75 20.6251 18.875 20.1251 18.125 19.3751C21.625 19.0001 25 17.6251 25 11.8751C24.9985 10.3813 24.4157 8.9467 23.375 7.87506C23.8631 6.57752 23.8182 5.1396 23.25 3.87506C23.25 3.87506 21.875 3.50006 18.875 5.50006C16.334 4.8383 13.666 4.8383 11.125 5.50006C8.125 3.50006 6.75 3.87506 6.75 3.87506C6.18185 5.1396 6.13692 6.57752 6.625 7.87506C5.58432 8.9467 5.00152 10.3813 5 11.8751C5 17.6251 8.375 19.0001 11.875 19.3751C11.125 20.1251 11.125 20.8751 11.25 21.8751V26.2501M11.25 23.7501C5.875 25.5001 5.875 20.6251 3.75 20.0001L11.25 23.7501Z" stroke="#2F80ED" stroke-width="2" stroke-linecap="round" stroke-linejoin="round"/>
</svg>
