<svg width="24" height="24" viewBox="0 0 24 24" fill="none" xmlns="http://www.w3.org/2000/svg">
<g clip-path="url(#clip0_1831_2114)">
<path d="M24.2 2H3.8C3.32261 2 2.86477 2.18964 2.52721 2.52721C2.18964 2.86477 2 3.32261 2 3.8V24.2C2 24.6774 2.18964 25.1352 2.52721 25.4728C2.86477 25.8104 3.32261 26 3.8 26H24.2C24.6774 26 25.1352 25.8104 25.4728 25.4728C25.8104 25.1352 26 24.6774 26 24.2V3.8C26 3.32261 25.8104 2.86477 25.4728 2.52721C25.1352 2.18964 24.6774 2 24.2 2ZM9.2 22.4H5.6V11.6H9.2V22.4ZM7.4 9.5C6.98742 9.48821 6.58746 9.35509 6.2501 9.11729C5.91274 8.87949 5.65294 8.54754 5.50315 8.16293C5.35337 7.77832 5.32025 7.35809 5.40793 6.95476C5.49561 6.55144 5.7002 6.18289 5.99614 5.89517C6.29207 5.60745 6.66624 5.41332 7.07188 5.33704C7.47752 5.26075 7.89664 5.30569 8.27688 5.46625C8.65712 5.62681 8.98162 5.89586 9.20983 6.23978C9.43804 6.5837 9.55983 6.98725 9.56 7.4C9.55052 7.96442 9.318 8.50214 8.91326 8.89564C8.50852 9.28914 7.96446 9.50642 7.4 9.5ZM22.4 22.4H18.8V16.712C18.8 15.008 18.08 14.396 17.144 14.396C16.8696 14.4143 16.6015 14.4866 16.3551 14.6088C16.1087 14.731 15.8888 14.9006 15.7082 15.108C15.5275 15.3154 15.3897 15.5565 15.3025 15.8173C15.2152 16.0782 15.1804 16.3537 15.2 16.628C15.194 16.6838 15.194 16.7402 15.2 16.796V22.4H11.6V11.6H15.08V13.16C15.431 12.626 15.9133 12.1911 16.4806 11.8969C17.0479 11.6028 17.6813 11.4592 18.32 11.48C20.18 11.48 22.352 12.512 22.352 15.872L22.4 22.4Z" fill="white"/>
</g>
<defs>
<clipPath id="clip0_1831_2114">
<rect width="24" height="24" fill="white"/>
</clipPath>
</defs>
</svg>
