<svg width="30" height="30" viewBox="0 0 30 30" fill="none" xmlns="http://www.w3.org/2000/svg">
<path d="M27.5 5.01252C26.25 5.62502 25.025 5.87377 23.75 6.25002C22.3487 4.66877 20.2712 4.58127 18.275 5.32877C16.2787 6.07627 14.9712 7.90377 15 10V11.25C10.9438 11.3538 7.33125 9.50627 5 6.25002C5 6.25002 -0.2275 15.5413 10 20C7.66 21.5588 5.32625 22.61 2.5 22.5C6.635 24.7538 11.1413 25.5288 15.0425 24.3963C19.5175 23.0963 23.195 19.7425 24.6062 14.7188C25.0272 13.1909 25.2363 11.6123 25.2275 10.0275C25.225 9.71627 27.115 6.56252 27.5 5.01127V5.01252Z" stroke="#2F80ED" stroke-width="2" stroke-linecap="round" stroke-linejoin="round"/>
</svg>
