<svg width="78" height="26" viewBox="0 0 78 26" fill="none" xmlns="http://www.w3.org/2000/svg">
<path fill-rule="evenodd" clip-rule="evenodd" d="M12.3102 20.5716C9.6284 20.4075 7.06027 18.7671 5.81177 16.3697C4.65314 14.1449 4.67136 11.3501 5.85557 9.14226C7.18127 6.67093 9.81092 5.16388 12.7216 5.03427C12.7216 5.03427 13.4448 4.98794 13.9275 4.71377C15.3598 3.89986 15.5737 1.49739 14.0343 0.516406C13.62 0.252362 13.1253 0.130087 12.6322 0.131606C7.76958 0.178187 3.06745 3.2171 1.09092 7.72559C-0.570206 11.5151 -0.224666 16.1107 2.0321 19.6248C3.82815 22.4212 6.75726 24.4662 10.0066 25.1732C14.4533 26.1411 19.3787 24.4963 22.3511 21.0283C25.2982 17.5894 26.1986 12.506 24.5481 8.23849C23.6019 5.79197 21.9253 3.56089 19.682 2.21864C19.5648 2.14852 19.442 2.0908 19.3154 2.04472C21.5722 3.97758 23.0029 6.84561 23.0029 10.0445C23.0029 15.8591 18.2765 20.5794 12.4545 20.5794C12.4069 20.5794 12.4021 20.5772 12.3102 20.5716Z" fill="#4192FB"/>
<path d="M28.8251 17.5362V8.13771H35.1717V9.91434H30.9406V11.7588H34.6971V13.4947H30.9406V15.7596H35.4836V17.5362H28.8251Z" fill="#F4F7FB"/>
<path d="M39.1648 15.8138C39.2642 15.8229 39.3772 15.8319 39.5038 15.8409C39.6394 15.8409 39.7976 15.8409 39.9784 15.8409C41.0362 15.8409 41.8182 15.5742 42.3245 15.0408C42.8399 14.5073 43.0975 13.7705 43.0975 12.8302C43.0975 11.8447 42.8534 11.0988 42.3652 10.5924C41.877 10.0861 41.104 9.83296 40.0462 9.83296C39.9016 9.83296 39.7524 9.83748 39.5987 9.84653C39.445 9.84653 39.3004 9.85557 39.1648 9.87365V15.8138ZM45.2809 12.8302C45.2809 13.6439 45.1543 14.3536 44.9012 14.9594C44.648 15.5652 44.2864 16.067 43.8163 16.4648C43.3552 16.8626 42.7901 17.161 42.1211 17.3599C41.4521 17.5588 40.7017 17.6583 39.8699 17.6583C39.4902 17.6583 39.0472 17.6402 38.541 17.604C38.0347 17.5769 37.5374 17.5136 37.0492 17.4141V8.25977C37.5374 8.16936 38.0437 8.11059 38.5681 8.08346C39.1015 8.0473 39.558 8.02921 39.9378 8.02921C40.7424 8.02921 41.4702 8.11963 42.1211 8.30045C42.7811 8.48128 43.3461 8.76608 43.8163 9.15486C44.2864 9.54364 44.648 10.0409 44.9012 10.6467C45.1543 11.2525 45.2809 11.9803 45.2809 12.8302Z" fill="#F4F7FB"/>
<path d="M46.8445 8.62594L48.8652 8.30045V10.4026H51.2926V12.0843H48.8652V14.5932C48.8652 15.0182 48.9375 15.3572 49.0821 15.6104C49.2358 15.8635 49.5387 15.9901 49.9907 15.9901C50.2077 15.9901 50.4292 15.972 50.6552 15.9359C50.8903 15.8907 51.1028 15.8319 51.2926 15.7596L51.5774 17.3328C51.3333 17.4322 51.0621 17.5181 50.7637 17.5904C50.4654 17.6628 50.0992 17.6989 49.6653 17.6989C49.1138 17.6989 48.6572 17.6266 48.2956 17.4819C47.9339 17.3282 47.6446 17.1203 47.4277 16.8581C47.2107 16.5869 47.057 16.2614 46.9666 15.8816C46.8852 15.5019 46.8445 15.0815 46.8445 14.6204V8.62594Z" fill="#F4F7FB"/>
<path d="M52.3342 14.0236C52.3342 13.3907 52.4291 12.8392 52.619 12.3691C52.8179 11.8899 53.0755 11.4921 53.3919 11.1756C53.7084 10.8592 54.07 10.6196 54.4768 10.4568C54.8927 10.2941 55.3176 10.2127 55.7516 10.2127C56.7642 10.2127 57.5643 10.5246 58.1519 11.1485C58.7396 11.7633 59.0334 12.6719 59.0334 13.8744C59.0334 13.992 59.0289 14.1231 59.0198 14.2677C59.0108 14.4034 59.0018 14.5254 58.9927 14.6339H54.409C54.4542 15.0498 54.6486 15.3798 54.9922 15.624C55.3357 15.8681 55.7968 15.9901 56.3754 15.9901C56.7461 15.9901 57.1077 15.9585 57.4603 15.8952C57.8219 15.8229 58.1158 15.737 58.3418 15.6375L58.613 17.2785C58.5045 17.3328 58.3599 17.387 58.179 17.4413C57.9982 17.4955 57.7948 17.5407 57.5688 17.5769C57.3518 17.6221 57.1168 17.6583 56.8636 17.6854C56.6105 17.7125 56.3573 17.7261 56.1042 17.7261C55.4623 17.7261 54.9018 17.6311 54.4226 17.4413C53.9525 17.2514 53.5592 16.9937 53.2428 16.6682C52.9354 16.3337 52.7048 15.9404 52.5512 15.4883C52.4065 15.0363 52.3342 14.548 52.3342 14.0236ZM57.0806 13.2506C57.0715 13.0788 57.0399 12.9115 56.9857 12.7488C56.9405 12.5861 56.8636 12.4414 56.7551 12.3148C56.6557 12.1882 56.5246 12.0843 56.3618 12.0029C56.2082 11.9215 56.0138 11.8808 55.7787 11.8808C55.5527 11.8808 55.3583 11.9215 55.1956 12.0029C55.0329 12.0752 54.8972 12.1747 54.7887 12.3013C54.6803 12.4278 54.5944 12.577 54.5311 12.7488C54.4768 12.9115 54.4362 13.0788 54.409 13.2506H57.0806Z" fill="#F4F7FB"/>
<path d="M63.3185 16.1257C63.5174 16.1257 63.7073 16.1212 63.8881 16.1122C64.0689 16.1031 64.2136 16.0896 64.3221 16.0715V14.539C64.2407 14.5209 64.1186 14.5028 63.9559 14.4847C63.7932 14.4667 63.644 14.4576 63.5084 14.4576C63.3185 14.4576 63.1377 14.4712 62.9659 14.4983C62.8032 14.5164 62.6586 14.5571 62.532 14.6204C62.4054 14.6837 62.306 14.7695 62.2336 14.878C62.1613 14.9865 62.1251 15.1222 62.1251 15.2849C62.1251 15.6013 62.2291 15.8229 62.4371 15.9494C62.654 16.067 62.9479 16.1257 63.3185 16.1257ZM63.1558 10.2127C63.7525 10.2127 64.2497 10.2805 64.6475 10.4161C65.0453 10.5518 65.3617 10.7461 65.5968 10.9993C65.8409 11.2525 66.0127 11.5599 66.1121 11.9215C66.2116 12.2832 66.2613 12.6855 66.2613 13.1285V17.3328C65.972 17.3961 65.5697 17.4684 65.0544 17.5498C64.539 17.6402 63.9152 17.6854 63.1829 17.6854C62.7218 17.6854 62.3014 17.6447 61.9217 17.5633C61.5511 17.4819 61.2301 17.3508 60.9589 17.17C60.6877 16.9802 60.4797 16.736 60.3351 16.4377C60.1904 16.1393 60.1181 15.7731 60.1181 15.3391C60.1181 14.9232 60.1995 14.5706 60.3622 14.2813C60.534 13.992 60.76 13.7614 61.0402 13.5896C61.3205 13.4179 61.6415 13.2958 62.0031 13.2235C62.3647 13.1421 62.7399 13.1014 63.1287 13.1014C63.3909 13.1014 63.6214 13.115 63.8203 13.1421C64.0282 13.1602 64.1955 13.1873 64.3221 13.2235V13.0336C64.3221 12.69 64.2181 12.4143 64.0101 12.2063C63.8022 11.9984 63.4406 11.8944 62.9253 11.8944C62.5817 11.8944 62.2427 11.9215 61.9082 11.9758C61.5737 12.021 61.2843 12.0888 61.0402 12.1792L60.7826 10.5518C60.9001 10.5156 61.0448 10.4794 61.2165 10.4433C61.3974 10.398 61.5917 10.3619 61.7997 10.3348C62.0076 10.2986 62.2246 10.2715 62.4506 10.2534C62.6857 10.2263 62.9207 10.2127 63.1558 10.2127Z" fill="#F4F7FB"/>
<path d="M72.0077 13.7524C72.0077 13.1014 71.9218 12.6403 71.75 12.3691C71.5873 12.0978 71.3025 11.9622 70.8956 11.9622C70.7691 11.9622 70.638 11.9712 70.5024 11.9893C70.3668 11.9984 70.2357 12.0119 70.1091 12.03V17.5362H68.0885V10.6467C68.2602 10.6015 68.4591 10.5563 68.6852 10.5111C68.9202 10.4568 69.1643 10.4116 69.4175 10.3754C69.6796 10.3302 69.9464 10.2986 70.2176 10.2805C70.4888 10.2534 70.7555 10.2398 71.0177 10.2398C71.533 10.2398 71.9489 10.3076 72.2653 10.4433C72.5908 10.5698 72.8575 10.7235 73.0654 10.9044C73.3547 10.6964 73.6847 10.5337 74.0554 10.4161C74.4351 10.2986 74.7832 10.2398 75.0996 10.2398C75.6692 10.2398 76.1348 10.3212 76.4964 10.4839C76.8671 10.6376 77.1609 10.8592 77.3779 11.1485C77.5949 11.4378 77.744 11.7814 77.8254 12.1792C77.9068 12.577 77.9475 13.02 77.9475 13.5083V17.5362H75.9268V13.7524C75.9268 13.1014 75.841 12.6403 75.6692 12.3691C75.5064 12.0978 75.2217 11.9622 74.8148 11.9622C74.7063 11.9622 74.5526 11.9893 74.3537 12.0436C74.1639 12.0978 74.0057 12.1656 73.8791 12.247C73.9424 12.455 73.9831 12.6765 74.0012 12.9115C74.0192 13.1376 74.0283 13.3817 74.0283 13.6439V17.5362H72.0077V13.7524Z" fill="#F4F7FB"/>
</svg>
