<svg width="97" height="28" viewBox="0 0 97 28" fill="none" xmlns="http://www.w3.org/2000/svg">
<g clip-path="url(#clip0_1831_2176)">
<path d="M14.7723 11.3094C14.7217 11.2504 14.7301 11.166 14.7807 11.1155L16.155 9.89287C16.2141 9.84228 16.2984 9.85073 16.349 9.90132C16.3996 9.96033 16.3911 10.0446 16.3405 10.0952L14.9662 11.3178C14.9072 11.3684 14.8229 11.3684 14.7723 11.3094Z" fill="#003E52"/>
<path d="M14.3255 10.7782C14.2496 10.7613 14.2075 10.6939 14.2159 10.6179L14.5026 9.12555C14.5195 9.04968 14.5869 9.00754 14.6628 9.01595C14.7387 9.03282 14.7808 9.10027 14.7724 9.17615L14.4857 10.6685C14.4689 10.7444 14.393 10.795 14.3255 10.7782Z" fill="#003E52"/>
<path d="M13.3979 11.0226L12.5041 9.3532C12.4704 9.28574 12.4957 9.20142 12.5632 9.16769C12.6306 9.13399 12.7149 9.15927 12.7486 9.22673L13.6424 10.8962C13.6761 10.9636 13.6508 11.048 13.5834 11.0817C13.5159 11.1154 13.4316 11.0901 13.3979 11.0226Z" fill="#003E52"/>
<path d="M10.3126 15.2983L9.98378 14.9694C9.88262 14.8682 9.83203 14.7418 9.83203 14.6069C9.83203 14.472 9.88262 14.337 9.98378 14.2443C10.085 14.1431 10.2114 14.0925 10.3463 14.0925C10.4813 14.0925 10.6162 14.1431 10.7089 14.2443L12.0327 15.5681C12.1338 15.6692 12.1844 15.7957 12.1844 15.9306C12.1844 16.0655 12.1338 16.2004 12.0327 16.2932C11.8472 16.4787 11.5436 16.4956 11.3413 16.3269C11.3413 16.3269 11.3413 16.3269 11.3328 16.3269C11.3244 16.3185 11.316 16.31 11.2991 16.3016L10.3126 15.2983Z" fill="#003E52"/>
<path d="M10.583 17.7852L10.5915 17.7936L10.583 17.7852Z" fill="#003E52"/>
<path d="M11.4838 17.5746C11.2984 17.7602 11.0032 17.777 10.8009 17.6168C10.7924 17.6084 10.7925 17.6084 10.784 17.6L10.7756 17.5915L10.7672 17.5831L10.7587 17.5746L9.43495 16.2509C9.33377 16.1497 9.2832 16.0232 9.2832 15.8883C9.2832 15.7535 9.33377 15.6185 9.43495 15.5258C9.53614 15.4246 9.6626 15.374 9.79751 15.374C9.91556 15.374 10.0336 15.4162 10.1263 15.4921C10.1263 15.4921 10.1263 15.4921 10.1348 15.5005C10.1432 15.5089 10.1517 15.5174 10.1685 15.5258L11.4923 16.8496C11.6862 17.0519 11.6862 17.3723 11.4838 17.5746Z" fill="#003E52"/>
<path d="M12.6565 15.0618C12.4541 15.2641 12.1337 15.2641 11.9314 15.0618L10.7172 13.8476C10.6245 13.7549 10.5654 13.62 10.5654 13.485C10.5654 13.3501 10.616 13.2152 10.7172 13.1225C10.8184 13.0213 10.9449 12.9707 11.0798 12.9707C11.1978 12.9707 11.3159 13.0129 11.4086 13.0888C11.417 13.0972 11.4339 13.1056 11.4423 13.1141L11.4592 13.1309L12.6565 14.3282C12.8588 14.539 12.8588 14.8678 12.6565 15.0618Z" fill="#003E52"/>
<path d="M18.0857 17.9873C18.0014 18.6366 17.563 19.8339 15.6068 20.5505C15.3876 20.6349 15.1347 20.5758 14.966 20.4156L13.5664 19.075C14.0892 19.0581 14.6035 18.9148 15.0588 18.645C16.6102 17.7428 16.7283 16.672 16.7198 16.3179L17.9002 17.473C18.0436 17.5995 18.111 17.7934 18.0857 17.9873Z" fill="#003E52"/>
<path d="M17.3022 12.5071C17.0998 12.3554 16.8047 12.3554 16.5855 12.524C16.0627 12.9203 15.7339 13.5358 15.5484 13.9827C15.54 13.9995 15.5315 14.0164 15.5231 14.0417C15.5231 14.0417 15.4135 14.1092 15.1859 14.1682C15.1015 14.185 15.0256 14.1935 14.9498 14.1935C14.309 14.1935 13.7778 13.6538 13.7525 13.6286L11.0038 10.7112C10.8183 10.5173 10.5485 10.4414 10.3124 10.5173C10.1943 10.551 10.11 10.61 10.0426 10.7028C9.89082 10.9051 9.9161 11.2087 10.11 11.3942L11.6024 12.8866C11.6193 12.895 11.6277 12.9119 11.6446 12.9287L12.8587 14.1429C13.1623 14.4464 13.1623 14.9523 12.8587 15.2559C12.7154 15.3992 12.5215 15.4751 12.3275 15.4835C12.4119 15.61 12.4625 15.7617 12.4625 15.9219C12.4625 16.1327 12.3781 16.3267 12.2348 16.4784C12.0999 16.6133 11.9144 16.6892 11.7373 16.7061C11.9987 17.018 11.9818 17.4733 11.6952 17.7685C11.5771 17.8865 11.4338 17.954 11.2904 17.9877C11.6446 18.2406 12.0071 18.4346 12.4287 18.6032C12.6901 18.7044 12.9683 18.7718 13.255 18.7971C13.8452 18.8477 14.4354 18.7128 14.9498 18.4093C16.6445 17.4228 16.4674 16.2508 16.4674 16.2424V16.2255C16.459 16.1496 16.459 16.0653 16.459 15.981C16.4337 14.2862 17.1673 13.4768 17.2769 13.3672C17.6394 12.7685 17.3865 12.5746 17.3022 12.5071Z" fill="#003E52"/>
<path d="M5.97708 23.283L6.98044 24.143L5.41217 25.9811L4.40039 25.1295L4.50155 25.0114L5.37845 25.7618L5.96866 25.062L5.14235 24.3538L5.24353 24.2357L6.06984 24.944L6.74437 24.1514L5.86747 23.401L5.97708 23.283Z" fill="#008996"/>
<path d="M4.59644 22.4478C4.71449 22.3382 4.84937 22.3045 5.00115 22.3382C5.14448 22.3719 5.29625 22.4731 5.43958 22.6418C5.5998 22.8188 5.69254 22.9875 5.73469 23.1476L5.59978 23.2657C5.54921 23.0717 5.45645 22.8947 5.32153 22.7429C5.20351 22.608 5.09388 22.5237 4.98428 22.4984C4.8831 22.4647 4.79036 22.4815 4.71449 22.549C4.64703 22.608 4.6133 22.6839 4.6133 22.7851C4.6133 22.8778 4.64703 23.0127 4.71449 23.1814C4.78191 23.3584 4.82409 23.4933 4.84095 23.5777C4.85782 23.662 4.84937 23.7379 4.83251 23.8053C4.81564 23.8727 4.7735 23.9318 4.70604 23.9908C4.60486 24.0836 4.48681 24.1088 4.35192 24.0751C4.21701 24.0414 4.0821 23.9486 3.94719 23.7969C3.82072 23.6535 3.72798 23.4849 3.66895 23.3078L3.82072 23.2572C3.87973 23.4343 3.96405 23.5861 4.06524 23.6957C4.15797 23.8053 4.25916 23.8812 4.35192 23.9065C4.44466 23.9402 4.52054 23.9233 4.58799 23.8728C4.65545 23.8137 4.68918 23.7379 4.68918 23.6451C4.68918 23.5608 4.64703 23.4174 4.57113 23.2235C4.51212 23.0633 4.46994 22.9369 4.45308 22.8525C4.43622 22.7682 4.44466 22.6923 4.46153 22.6249C4.49525 22.5574 4.5374 22.4984 4.59644 22.4478Z" fill="#008996"/>
<path d="M3.91212 20.4497C4.04703 20.6942 4.04703 20.9219 3.92056 21.1327L3.92898 21.1411L4.04703 21.0737C4.11449 21.0315 4.19881 20.9894 4.28313 20.9388L4.8902 20.6183L4.96608 20.7617L2.66425 21.9927L2.5968 21.8662L2.80759 21.7144L2.79916 21.706C2.57151 21.6892 2.39444 21.5627 2.25954 21.3182C2.1415 21.1074 2.12463 20.905 2.20895 20.7195C2.29326 20.5341 2.46189 20.3654 2.73171 20.2221C2.9931 20.0787 3.22917 20.0366 3.43154 20.0703C3.63388 20.104 3.80252 20.2474 3.91212 20.4497ZM3.78565 20.5172C3.70133 20.357 3.57487 20.2642 3.40623 20.2389C3.23761 20.2136 3.04366 20.2642 2.82445 20.3738C2.36072 20.6268 2.21738 20.9135 2.39444 21.2507C2.49562 21.4362 2.61367 21.5458 2.76543 21.5796C2.9172 21.6133 3.1027 21.5627 3.33035 21.4447L3.38094 21.4194C3.62546 21.2845 3.78565 21.1495 3.84469 21.0062C3.91212 20.8713 3.88684 20.7111 3.78565 20.5172Z" fill="#008996"/>
<path d="M2.05748 18.299C2.33573 18.2063 2.58024 18.1979 2.77417 18.2822C2.97652 18.3665 3.11985 18.5267 3.19575 18.7628C3.24635 18.9146 3.25476 19.0579 3.22104 19.1928C3.18731 19.3277 3.11143 19.4542 2.99339 19.5554C2.87534 19.665 2.73201 19.7408 2.55495 19.7999C2.2767 19.8926 2.04062 19.9011 1.83826 19.8167C1.6359 19.7324 1.501 19.5722 1.41668 19.3361C1.3408 19.1001 1.35766 18.8892 1.46727 18.7038C1.58531 18.5267 1.77924 18.3918 2.05748 18.299ZM2.50436 19.6481C2.74044 19.5722 2.90907 19.4542 3.00183 19.3108C3.10299 19.1675 3.11985 18.9989 3.05242 18.805C2.99339 18.6194 2.87534 18.493 2.70671 18.4339C2.53808 18.3749 2.34416 18.3834 2.10807 18.4593C1.87199 18.5351 1.70336 18.6532 1.61061 18.7965C1.51786 18.9398 1.501 19.1085 1.56002 19.3024C1.61904 19.4879 1.73708 19.6144 1.89728 19.6734C2.06592 19.7324 2.26827 19.724 2.50436 19.6481Z" fill="#008996"/>
<path d="M2.18373 16.5878C2.34393 16.5625 2.47883 16.5962 2.58001 16.7059C2.68962 16.8155 2.75707 16.9757 2.79923 17.1949C2.84139 17.431 2.83296 17.6249 2.78237 17.7767L2.60531 17.8104C2.66433 17.6165 2.67276 17.4225 2.63903 17.2202C2.6053 17.0431 2.55472 16.9166 2.48726 16.8323C2.41138 16.748 2.32707 16.7227 2.23432 16.7396C2.14157 16.7565 2.07412 16.807 2.02353 16.8829C1.97294 16.9672 1.93921 17.0937 1.90548 17.2708C1.87176 17.4563 1.83803 17.5912 1.8043 17.6755C1.77058 17.7514 1.72842 17.8188 1.67783 17.861C1.62724 17.9116 1.55979 17.9368 1.47547 17.9537C1.34057 17.979 1.23096 17.9369 1.12978 17.8441C1.03703 17.7429 0.969578 17.5996 0.93585 17.3972C0.902124 17.2033 0.910554 17.0178 0.952714 16.8323L1.11291 16.8661C1.07076 17.0516 1.06232 17.2202 1.08762 17.3719C1.11291 17.5153 1.15507 17.6249 1.21409 17.7008C1.27311 17.7767 1.349 17.8104 1.43331 17.7935C1.52606 17.7767 1.59351 17.7345 1.63567 17.6586C1.67783 17.5827 1.71999 17.4478 1.75371 17.237C1.78744 17.0684 1.81274 16.9419 1.84646 16.8576C1.88019 16.7733 1.92235 16.7143 1.97294 16.6637C2.04039 16.63 2.10784 16.6047 2.18373 16.5878Z" fill="#008996"/>
<path d="M0.337579 16.2847C0.227967 16.2931 0.177377 16.2594 0.168945 16.1919C0.168945 16.1582 0.177378 16.1329 0.202672 16.1076C0.227967 16.0823 0.270125 16.0738 0.320715 16.0738C0.371304 16.0738 0.413461 16.0738 0.438757 16.0907C0.472482 16.1076 0.480914 16.1329 0.489346 16.1666C0.489346 16.2425 0.438757 16.2762 0.337579 16.2847ZM2.61411 15.939L2.62254 16.0992L0.826609 16.2256L0.818177 16.0654L2.61411 15.939Z" fill="#008996"/>
<path d="M0.775708 14.5564C0.78414 14.3035 0.876886 14.118 1.03709 14C1.19729 13.8819 1.43337 13.8313 1.73691 13.8398C2.03201 13.8566 2.25967 13.9325 2.41987 14.0758C2.57164 14.2192 2.64752 14.4131 2.63909 14.6492C2.63066 14.7757 2.59693 14.8937 2.54634 14.9949C2.49575 15.0961 2.41144 15.1719 2.31026 15.231V15.2478L2.58007 15.3069L2.57164 15.408L0 15.2816L0.0084321 15.1213L0.657665 15.1551C0.758844 15.1635 0.843161 15.1635 0.927475 15.1719L1.07081 15.1804V15.1719C0.969632 15.0961 0.89375 15.0117 0.843161 14.9106C0.792569 14.8094 0.775708 14.6914 0.775708 14.5564ZM0.927475 14.5649C0.919043 14.7757 0.969635 14.9274 1.08768 15.0286C1.20572 15.1298 1.39964 15.1804 1.67789 15.1973H1.70318C1.97299 15.2141 2.17535 15.1719 2.29339 15.0792C2.41987 14.9865 2.47889 14.8431 2.49575 14.6408C2.50418 14.4468 2.44516 14.2951 2.31026 14.1854C2.17535 14.0758 1.98142 14.0168 1.72848 14.0084C1.21415 13.9915 0.944339 14.177 0.927475 14.5649Z" fill="#008996"/>
<path d="M2.76535 13.2993L2.74006 13.4595L0.202148 13.0379L0.227442 12.8777L2.76535 13.2993Z" fill="#008996"/>
<path d="M3.08547 12.0769C3.00959 12.3298 2.88313 12.4985 2.68919 12.5996C2.49526 12.6924 2.25918 12.7008 1.98094 12.6249C1.7027 12.549 1.50034 12.4142 1.37386 12.2287C1.24739 12.0431 1.21366 11.8408 1.28112 11.6047C1.34014 11.4023 1.45818 11.259 1.63524 11.1831C1.81231 11.1072 2.0231 11.0988 2.26761 11.1747L2.39409 11.2084L2.03996 12.4563C2.27604 12.5238 2.4784 12.5153 2.63017 12.4479C2.79037 12.372 2.89154 12.2371 2.95058 12.0347C2.97586 11.9335 2.99273 11.8492 3.00117 11.7649C3.00959 11.689 3.00959 11.5794 2.99273 11.4529L3.13606 11.4951C3.15292 11.6047 3.15292 11.7059 3.1445 11.7902C3.13606 11.8745 3.11078 11.9757 3.08547 12.0769ZM1.41602 11.6469C1.36543 11.8155 1.38229 11.9588 1.46661 12.0937C1.55093 12.2287 1.68583 12.3298 1.88819 12.4057L2.19173 11.3349C1.98937 11.2759 1.82074 11.2759 1.68583 11.3349C1.55093 11.3939 1.45818 11.4951 1.41602 11.6469Z" fill="#008996"/>
<path d="M3.11201 10.7364L3.15418 10.728C3.39025 10.9135 3.60103 11.1075 3.77812 11.2929L3.73595 11.3941C3.49143 11.2002 3.25534 11.04 3.03613 10.9135L3.11201 10.7364Z" fill="#008996"/>
<path d="M4.4606 9.10873C4.31727 9.32793 4.14021 9.4544 3.9294 9.48813C3.71861 9.52186 3.48254 9.46285 3.23803 9.30265C2.99351 9.15088 2.84173 8.96537 2.77428 8.74617C2.70683 8.53538 2.74055 8.32457 2.86703 8.12223C2.98507 7.94517 3.13684 7.84399 3.32232 7.81868C3.51627 7.79339 3.71861 7.8524 3.9294 7.99573L4.03903 8.07164L3.33077 9.15929C3.54155 9.29421 3.72706 9.3448 3.90411 9.31952C4.07275 9.29421 4.21608 9.19302 4.33413 9.01596C4.39314 8.93164 4.43532 8.84732 4.4606 8.7799C4.49433 8.70399 4.51961 8.61126 4.54492 8.48479L4.67138 8.56908C4.65452 8.67871 4.62924 8.77145 4.59551 8.85577C4.56178 8.93164 4.51961 9.01596 4.4606 9.10873ZM2.99351 8.21497C2.90075 8.3583 2.87547 8.51007 2.90919 8.66185C2.95134 8.81362 3.05252 8.95695 3.22116 9.08342L3.82824 8.14751C3.65115 8.03791 3.49096 7.98732 3.34763 7.99573C3.19585 8.00418 3.07781 8.08005 2.99351 8.21497Z" fill="#008996"/>
<path d="M5.42901 7.08542C5.54705 7.19502 5.60609 7.32152 5.58923 7.46485C5.57236 7.61662 5.48804 7.77682 5.34469 7.94546C5.18449 8.12252 5.03274 8.24898 4.88097 8.29957L4.74606 8.18153C4.93156 8.10565 5.09175 7.9876 5.22667 7.84427C5.34469 7.70936 5.41214 7.59131 5.42901 7.48171C5.44587 7.37211 5.42059 7.28779 5.34469 7.22033C5.27726 7.16132 5.19294 7.13601 5.10017 7.15288C5.00743 7.16974 4.88097 7.22033 4.72077 7.30465C4.55213 7.39739 4.42567 7.4564 4.34135 7.48171C4.25703 7.50699 4.18113 7.51544 4.1137 7.49858C4.04624 7.49013 3.97879 7.4564 3.91133 7.39739C3.81015 7.30465 3.768 7.19502 3.78486 7.06014C3.80173 6.92523 3.8776 6.7819 4.01251 6.63012C4.13898 6.48679 4.29076 6.36874 4.45937 6.28442L4.52682 6.42775C4.35821 6.51207 4.2233 6.61326 4.12212 6.72286C4.02938 6.83249 3.97034 6.93365 3.94506 7.03483C3.92819 7.1276 3.94506 7.21189 4.01251 7.26248C4.07997 7.32152 4.16426 7.3468 4.24858 7.33838C4.3329 7.32152 4.46781 7.27093 4.64487 7.16974C4.79665 7.08542 4.9147 7.03483 4.99902 7.00955C5.08331 6.98424 5.15921 6.97582 5.22667 6.99268C5.30254 7.0011 5.37 7.03483 5.42901 7.08542Z" fill="#008996"/>
<path d="M6.58496 4.80041L6.23926 5.07021L7.13303 6.24221L6.72832 6.54574L5.843 5.37376L5.62377 5.54237L5.47199 5.34845L5.60691 5.07021L5.52259 4.96061C5.42985 4.83414 5.37081 4.72451 5.36239 4.62333C5.35395 4.52217 5.37081 4.4294 5.42985 4.33667C5.48886 4.25235 5.56476 4.16803 5.67436 4.08371C5.75024 4.0247 5.82614 3.9741 5.90201 3.94038C5.97789 3.90665 6.03693 3.88137 6.08752 3.8645L6.21398 4.23548C6.17184 4.25235 6.13811 4.26921 6.09593 4.28607C6.05379 4.30294 6.01161 4.33667 5.96102 4.37039C5.90201 4.41254 5.87673 4.46313 5.87673 4.51372C5.87673 4.56432 5.8936 4.62333 5.93574 4.67392L6.0032 4.76668L6.3489 4.49686L6.58496 4.80041Z" fill="#008996"/>
<path d="M7.38701 3.8312C7.60625 3.71316 7.80017 3.66256 7.96036 3.69629C8.129 3.72157 8.26391 3.83962 8.37352 4.02513L8.98059 5.10437L8.67704 5.27301L8.46625 5.10437L8.45784 5.11278C8.44097 5.1971 8.42411 5.27301 8.3988 5.33202C8.37352 5.39947 8.33134 5.45006 8.28078 5.50907C8.23019 5.55967 8.15428 5.61026 8.06996 5.66085C7.97723 5.71144 7.87604 5.74517 7.7833 5.75359C7.69057 5.76203 7.5978 5.73672 7.51348 5.68613C7.42916 5.63554 7.35329 5.55125 7.28583 5.4332C7.19309 5.26456 7.17623 5.10437 7.2521 4.95259C7.328 4.80081 7.47975 4.65748 7.71585 4.51415L7.99409 4.34551L7.95194 4.27806C7.90135 4.19374 7.85076 4.14317 7.7833 4.12631C7.71585 4.10945 7.64839 4.12631 7.56407 4.16846C7.4882 4.2106 7.41232 4.26964 7.35329 4.32865C7.29428 4.39611 7.23524 4.46356 7.17623 4.53944L6.86426 4.32023C6.92327 4.22747 6.99917 4.13473 7.09191 4.05041C7.18465 3.96609 7.27741 3.89021 7.38701 3.8312ZM8.129 4.59847L7.96036 4.69966C7.81703 4.78395 7.73271 4.86827 7.70743 4.94417C7.68212 5.02005 7.68212 5.09592 7.73271 5.18024C7.76644 5.2477 7.81703 5.28142 7.87604 5.28987C7.93508 5.29829 7.99409 5.28142 8.0531 5.2477C8.14587 5.1971 8.21332 5.12123 8.24705 5.02849C8.28078 4.93573 8.27233 4.83454 8.21332 4.73339L8.129 4.59847Z" fill="#008996"/>
<path d="M9.005 2.33081L9.38442 3.41847C9.40973 3.48593 9.4266 3.55339 9.44346 3.62084C9.46032 3.6883 9.47719 3.75575 9.49405 3.82321H9.50247C9.51933 3.76417 9.5362 3.70516 9.55306 3.65457C9.56993 3.59556 9.59521 3.54497 9.62052 3.48593L9.92404 2.78612L10.4637 2.60062L10.0337 3.60398L11.1129 4.33752L10.5648 4.53147L9.81444 4.00027L9.66266 4.23636L9.84817 4.7844L9.36756 4.95304L8.52441 2.51631L9.005 2.33081Z" fill="#008996"/>
<path d="M11.9903 3.81425C12.0408 3.80583 12.0999 3.78896 12.142 3.7721C12.1926 3.75524 12.2432 3.72995 12.2854 3.70464L12.3528 4.07562C12.3022 4.10935 12.2432 4.14308 12.1673 4.16839C12.0914 4.20212 12.0071 4.21898 11.9144 4.23585C11.8048 4.25271 11.7036 4.25271 11.6108 4.23585C11.5181 4.21898 11.4422 4.16839 11.3747 4.09249C11.3073 4.01661 11.2651 3.89857 11.2314 3.73837L11.0712 2.86149L10.8351 2.90365L10.793 2.69286L11.0375 2.47363L11.1134 2.06049L11.4338 2.00146L11.5012 2.38932L12.0071 2.29657L12.0746 2.66756L11.5687 2.76031L11.7289 3.63719C11.7457 3.70464 11.771 3.75524 11.8132 3.78052C11.8722 3.82269 11.9228 3.83111 11.9903 3.81425Z" fill="#008996"/>
<path d="M12.7399 1.5122C12.8158 1.50377 12.8832 1.52063 12.9338 1.54593C12.9928 1.57966 13.0181 1.63868 13.0266 1.73143C13.035 1.82417 13.0097 1.89163 12.9591 1.93378C12.9085 1.97594 12.8411 1.9928 12.7736 2.00124C12.6977 2.00967 12.6303 1.9928 12.5797 1.95908C12.5207 1.92535 12.4954 1.86633 12.4869 1.77358C12.4785 1.68084 12.5038 1.61338 12.5544 1.57123C12.605 1.5375 12.664 1.52063 12.7399 1.5122ZM13.0519 2.22046L13.1868 4.06697L12.6809 4.1007L12.546 2.25418L13.0519 2.22046Z" fill="#008996"/>
<path d="M14.2914 1.47868L14.2577 2.07732C14.2577 2.14478 14.2493 2.21223 14.2409 2.27968C14.2324 2.34713 14.224 2.39772 14.2156 2.43988H14.2324C14.283 2.364 14.3589 2.30498 14.4432 2.25439C14.5275 2.2038 14.6371 2.18693 14.772 2.19537C14.9828 2.2038 15.143 2.29655 15.2611 2.46518C15.3791 2.63381 15.4297 2.87833 15.4128 3.1903C15.4044 3.40108 15.3623 3.57814 15.2948 3.71305C15.2273 3.85638 15.1346 3.95757 15.025 4.0166C14.9154 4.08403 14.7889 4.10934 14.6456 4.10089C14.5107 4.09248 14.4011 4.05875 14.3252 4.00816C14.2493 3.95757 14.1903 3.89856 14.1481 3.8311H14.1144L14.0216 4.03347L13.6338 4.00816L13.7855 1.43652L14.2914 1.47868ZM14.595 2.59165C14.5107 2.58322 14.4348 2.60008 14.3842 2.63381C14.3336 2.66754 14.2914 2.71813 14.2577 2.79401C14.224 2.8699 14.2156 2.9542 14.1987 3.06383V3.11442C14.1903 3.29148 14.2071 3.43481 14.2577 3.52755C14.3083 3.62873 14.4011 3.67932 14.536 3.68777C14.6371 3.69619 14.7214 3.65404 14.7889 3.56128C14.8564 3.46854 14.8985 3.33363 14.907 3.14815C14.9154 2.97106 14.8985 2.82774 14.8395 2.73499C14.7805 2.65067 14.6962 2.60008 14.595 2.59165Z" fill="#008996"/>
<path d="M16.1967 4.31181L15.6992 4.21062L16.1967 1.68115L16.6941 1.78233L16.1967 4.31181Z" fill="#008996"/>
<path d="M17.9681 2.84431C18.1283 2.8949 18.2632 2.97922 18.3559 3.08038C18.4487 3.18156 18.5161 3.29961 18.533 3.44294C18.5583 3.5863 18.5414 3.73805 18.4824 3.90669L18.4065 4.14278L17.2767 3.76336C17.2345 3.89827 17.2429 4.01629 17.2935 4.12592C17.3441 4.22707 17.4369 4.30298 17.5718 4.34512C17.6814 4.37885 17.791 4.40416 17.8922 4.41258C17.9934 4.42103 18.103 4.42103 18.2126 4.40416L18.0861 4.77514C17.9849 4.792 17.8837 4.792 17.7826 4.77514C17.6814 4.76672 17.5634 4.733 17.4284 4.69082C17.2514 4.63181 17.1081 4.54749 16.99 4.43789C16.872 4.32826 16.8045 4.19338 16.7708 4.03315C16.737 3.87296 16.7539 3.6959 16.8214 3.49353C16.8888 3.29119 16.9816 3.13097 17.0996 3.01295C17.2177 2.90332 17.3441 2.82744 17.4959 2.80215C17.6477 2.77685 17.7994 2.79372 17.9681 2.84431ZM17.8585 3.19001C17.7657 3.15628 17.6814 3.1647 17.5971 3.19843C17.5128 3.2406 17.4453 3.31647 17.3947 3.44294L18.0692 3.67059C18.0945 3.60316 18.103 3.52726 18.0945 3.46825C18.0861 3.4008 18.0692 3.3502 18.0271 3.29961C17.9849 3.24902 17.9343 3.21529 17.8585 3.19001Z" fill="#008996"/>
<path d="M18.5162 4.95252C18.5668 4.85137 18.6258 4.82606 18.7017 4.85978C18.786 4.90196 18.8029 4.96939 18.7523 5.06215C18.7017 5.16334 18.6427 5.18862 18.5584 5.14647C18.4825 5.12116 18.4656 5.05371 18.5162 4.95252Z" fill="#008996"/>
<path d="M19.7556 5.81235C19.5364 5.67743 19.4099 5.50879 19.3677 5.28956C19.3256 5.07878 19.3846 4.84271 19.5364 4.59819C19.6882 4.34523 19.8736 4.18504 20.0929 4.11758C20.3121 4.05013 20.5313 4.09227 20.7505 4.22719C20.8854 4.31151 20.995 4.41269 21.0878 4.53074L20.9697 4.63192C20.8601 4.50543 20.7589 4.41269 20.6662 4.35368C20.4807 4.23563 20.2952 4.21032 20.135 4.26936C19.9664 4.32837 19.8146 4.46328 19.6797 4.68249C19.5532 4.8933 19.5027 5.07878 19.5279 5.25583C19.5532 5.43292 19.6544 5.57625 19.8315 5.67743C19.9748 5.76175 20.1181 5.81235 20.2699 5.83763L20.194 5.96409C20.0591 5.96409 19.9158 5.90508 19.7556 5.81235Z" fill="#008996"/>
<path d="M22.1671 6.4868C21.9815 6.71445 21.7792 6.84095 21.56 6.87467C21.3407 6.9084 21.1384 6.84936 20.9529 6.68917C20.8349 6.58798 20.7505 6.46994 20.7084 6.33505C20.6662 6.20014 20.6662 6.05681 20.7084 5.90504C20.7505 5.75326 20.8349 5.60993 20.9529 5.4666C21.1384 5.23895 21.3407 5.11246 21.56 5.07873C21.7708 5.045 21.9731 5.10404 22.1671 5.26423C22.3525 5.42443 22.4537 5.60993 22.4537 5.82916C22.4453 6.04837 22.3525 6.2676 22.1671 6.4868ZM21.0794 5.5762C20.9192 5.76171 20.8349 5.94718 20.8349 6.12427C20.8264 6.30133 20.9023 6.45307 21.0541 6.57957C21.2058 6.70603 21.3661 6.75663 21.5431 6.71445C21.7117 6.68075 21.8804 6.5627 22.0406 6.3772C22.2008 6.18328 22.2851 6.00622 22.2851 5.82916C22.2851 5.65208 22.2176 5.50033 22.0659 5.37383C21.9141 5.24737 21.7539 5.19678 21.5853 5.23895C21.4082 5.27265 21.2396 5.38228 21.0794 5.5762Z" fill="#008996"/>
<path d="M23.2623 9.20235L24.1898 8.47723C24.3247 8.36763 24.409 8.26644 24.4259 8.15684C24.4427 8.04721 24.4174 7.94606 24.3247 7.83642C24.2151 7.69309 24.0886 7.61722 23.9537 7.60878C23.8188 7.60036 23.667 7.66781 23.4984 7.79428L22.6637 8.4435L22.5625 8.30862L23.5321 7.54977C23.7682 7.36426 23.8019 7.16189 23.6333 6.94269C23.5153 6.79091 23.3888 6.71504 23.2539 6.71504C23.1105 6.71504 22.9503 6.79091 22.7564 6.93424L21.9723 7.54132L21.8711 7.41485L23.2876 6.3103L23.3719 6.41993L23.1948 6.59699L23.2033 6.60541C23.3045 6.58854 23.4056 6.60541 23.4984 6.64758C23.5911 6.68973 23.6755 6.75719 23.7429 6.84151C23.92 7.06916 23.9453 7.27152 23.8272 7.46545V7.47386C23.9453 7.457 24.0549 7.47386 24.1561 7.51604C24.2573 7.55818 24.35 7.63409 24.4259 7.72682C24.5439 7.8786 24.5945 8.03035 24.5692 8.17371C24.5439 8.31703 24.4427 8.46037 24.2657 8.59528L23.3382 9.3204L23.2623 9.20235Z" fill="#008996"/>
<path d="M26.542 10.0452L26.601 10.1885L23.4223 11.4617L23.3633 11.3184L26.542 10.0452Z" fill="#008996"/>
<path d="M26.2133 14.3789C25.9688 14.421 25.758 14.4042 25.5893 14.3367C25.4207 14.2608 25.3195 14.1428 25.2942 13.9741C25.2774 13.8814 25.2942 13.7971 25.3448 13.7212C25.3954 13.6537 25.4629 13.6031 25.5641 13.5779V13.5694C25.446 13.5441 25.3532 13.4851 25.2858 13.4092C25.2184 13.3333 25.1678 13.2322 25.1509 13.1141C25.1256 12.9539 25.1509 12.819 25.2436 12.7094C25.3364 12.5998 25.4713 12.5323 25.6652 12.4986C25.8844 12.4564 26.0784 12.4902 26.2386 12.5998C26.3988 12.7094 26.4999 12.8612 26.5421 13.072C26.5674 13.2237 26.5758 13.3839 26.559 13.5526L25.8001 13.6537L25.7495 13.6622C25.6399 13.679 25.5556 13.7128 25.505 13.7634C25.4544 13.814 25.4376 13.8814 25.4544 13.9657C25.4713 14.0753 25.5556 14.1596 25.6905 14.2102C25.8338 14.2608 26.0025 14.2693 26.2048 14.2271C26.4156 14.1934 26.5927 14.1175 26.736 13.9994C26.8794 13.8898 26.9805 13.7381 27.0396 13.5694C27.0986 13.3924 27.107 13.2069 27.0733 13.0045C27.0311 12.7516 26.9384 12.5408 26.795 12.3722C26.6517 12.2035 26.4747 12.077 26.2554 12.0096C26.0362 11.9421 25.8001 11.9337 25.5472 11.9759C25.193 12.0349 24.9401 12.1782 24.7799 12.389C24.6197 12.6082 24.5691 12.878 24.6281 13.2153C24.645 13.3165 24.6703 13.4177 24.7125 13.5188C24.7462 13.62 24.8136 13.7381 24.8895 13.873L24.7293 13.8982C24.6028 13.6959 24.5185 13.4767 24.4764 13.249C24.4089 12.8696 24.4679 12.5576 24.645 12.3047C24.8221 12.0517 25.1087 11.8915 25.4966 11.8241C25.7748 11.7735 26.0362 11.7904 26.2807 11.8662C26.5252 11.9421 26.7276 12.0855 26.8878 12.2794C27.048 12.4733 27.1492 12.7094 27.1998 12.9792C27.2419 13.2153 27.2251 13.4261 27.166 13.6285C27.0986 13.8224 26.989 13.991 26.8204 14.1175C26.6517 14.2439 26.4494 14.3367 26.2133 14.3789ZM25.6905 12.6673C25.5387 12.6925 25.4207 12.7431 25.3533 12.819C25.2858 12.8949 25.2605 12.9961 25.2858 13.1226C25.3364 13.4008 25.5472 13.5188 25.9266 13.4683L26.4072 13.4092C26.4241 13.3165 26.4156 13.2069 26.3988 13.0888C26.3735 12.9286 26.2891 12.8106 26.1627 12.7347C26.0362 12.6588 25.876 12.6419 25.6905 12.6673Z" fill="#008996"/>
<path d="M26.4329 15.9811L26.4414 15.5427L24.9658 15.5174L24.9742 15.0115L26.4498 15.0368L26.4582 14.7585H26.7027L26.8376 15.0368H26.9725C27.1327 15.0368 27.2508 15.0705 27.3435 15.1211C27.4278 15.1801 27.4869 15.256 27.529 15.3488C27.5627 15.4499 27.5796 15.5595 27.5796 15.6945C27.5796 15.7956 27.5712 15.8799 27.5543 15.9643C27.5375 16.0486 27.5206 16.1076 27.4953 16.1582L27.1243 16.0233C27.1412 15.9811 27.1496 15.939 27.158 15.8968C27.1664 15.8546 27.1749 15.8041 27.1749 15.745C27.1749 15.6776 27.158 15.6186 27.1159 15.5933C27.0737 15.5595 27.0231 15.5427 26.9557 15.5427H26.8376L26.8292 15.9811H26.4329Z" fill="#008996"/>
<path d="M26.7197 17.204C26.686 17.4485 26.6017 17.634 26.4752 17.7436C26.3487 17.8617 26.1801 17.8954 25.9609 17.8701L24.7383 17.6846L24.7889 17.3389L25.0503 17.2799V17.263C24.9912 17.204 24.9491 17.1365 24.9153 17.0775C24.8816 17.0185 24.8647 16.951 24.8479 16.8752C24.8395 16.7993 24.8395 16.715 24.8563 16.6138C24.8732 16.5042 24.9069 16.4114 24.9659 16.3356C25.0165 16.2596 25.0924 16.2006 25.1852 16.1585C25.2779 16.1248 25.3875 16.1163 25.5224 16.1332C25.7163 16.1585 25.8513 16.2512 25.9187 16.403C25.9862 16.5548 26.0114 16.7655 25.9777 17.0438L25.9356 17.3642L26.0199 17.3726C26.1126 17.3895 26.1885 17.3726 26.2391 17.3305C26.2897 17.2883 26.3234 17.2209 26.3403 17.1281C26.3571 17.0438 26.3571 16.951 26.3403 16.8583C26.3319 16.7655 26.3066 16.6813 26.2813 16.5885L26.6438 16.4704C26.6776 16.5716 26.7028 16.6897 26.7197 16.8161C26.745 16.951 26.7366 17.0775 26.7197 17.204ZM25.6573 17.3136L25.6826 17.1197C25.6995 16.9595 25.6911 16.8414 25.6489 16.774C25.6067 16.7065 25.5393 16.6644 25.455 16.6475C25.3791 16.6391 25.32 16.6475 25.2779 16.6897C25.2357 16.7318 25.2104 16.7824 25.202 16.8583C25.1851 16.9679 25.202 17.0606 25.2526 17.145C25.3032 17.2293 25.3875 17.2799 25.5056 17.2967L25.6573 17.3136Z" fill="#008996"/>
<path d="M26.9136 19.3961L25.826 19.0252C25.7585 18.9998 25.691 18.9746 25.632 18.9492C25.5646 18.924 25.5055 18.8902 25.4381 18.865V18.8734C25.4718 18.924 25.5055 18.9661 25.5393 19.0167C25.573 19.0673 25.6067 19.1179 25.632 19.1685L25.9946 19.843L25.8091 20.3826L25.2863 19.4299L24.0469 19.8346L24.2324 19.2865L25.1177 19.0252L25.025 18.7638L24.4769 18.5783L24.6371 18.0977L27.0738 18.924L26.9136 19.3961Z" fill="#008996"/>
<path d="M23.9036 20.8455C23.8783 20.8961 23.8615 20.9467 23.8446 20.9973C23.8277 21.0479 23.8193 21.0985 23.8109 21.1575L23.4736 20.9804C23.4736 20.9214 23.4905 20.854 23.5158 20.7781C23.5411 20.7022 23.5748 20.6179 23.617 20.5336C23.6676 20.4324 23.7266 20.3565 23.8025 20.2975C23.8783 20.2385 23.9627 20.2047 24.0638 20.1963C24.165 20.1963 24.2915 20.23 24.4264 20.2975L25.219 20.7106L25.3286 20.4998L25.5141 20.601L25.5394 20.9299L25.8176 21.2418L25.6658 21.5285L25.3201 21.3346L25.084 21.7983L24.7468 21.6212L24.9829 21.1575L24.1903 20.7444C24.1313 20.7106 24.0723 20.7022 24.0217 20.7275C23.9711 20.7528 23.9373 20.7865 23.9036 20.8455Z" fill="#008996"/>
<path d="M24.5108 22.6581L22.9678 21.6379L23.246 21.2163L24.789 22.2365L24.5108 22.6581ZM25.2612 22.852C25.219 22.9111 25.1684 22.9617 25.1094 22.9869C25.0504 23.0123 24.9829 22.9954 24.8986 22.9448C24.8227 22.8942 24.7806 22.8352 24.7806 22.7677C24.7806 22.7003 24.7974 22.6412 24.8396 22.5738C24.8817 22.5063 24.9323 22.4642 24.9913 22.4389C25.0504 22.4136 25.1178 22.4305 25.1937 22.4811C25.2696 22.5316 25.3118 22.5907 25.3118 22.6581C25.3202 22.7256 25.3033 22.7846 25.2612 22.852Z" fill="#008996"/>
<path d="M24.3258 24.1008L23.879 23.7045C23.8284 23.6624 23.7778 23.6118 23.7272 23.5612C23.6766 23.5106 23.6429 23.4769 23.6176 23.4432L23.6007 23.46C23.626 23.5443 23.6344 23.6371 23.6176 23.7383C23.6007 23.8394 23.5501 23.9322 23.4658 24.0334C23.3309 24.1851 23.1539 24.261 22.9515 24.2526C22.7407 24.2441 22.5215 24.1345 22.2854 23.9238C22.1252 23.7804 22.0156 23.6455 21.9481 23.5022C21.8807 23.3588 21.8554 23.2324 21.8722 23.0975C21.8891 22.971 21.9397 22.8529 22.0409 22.7433C22.1336 22.6422 22.2179 22.5747 22.3107 22.5494C22.395 22.5241 22.4793 22.5072 22.5636 22.5157L22.5889 22.4904L22.4877 22.2965L22.7407 22.0098L24.6715 23.7129L24.3258 24.1008ZM23.2635 23.6455C23.3225 23.5781 23.3562 23.5106 23.3646 23.4516C23.3731 23.3926 23.3562 23.3251 23.3141 23.2576C23.2719 23.1902 23.2129 23.1227 23.1285 23.0469L23.0864 23.0131C22.9515 22.8951 22.8334 22.8192 22.7238 22.8023C22.6142 22.777 22.5215 22.8192 22.4287 22.9288C22.3613 23.0047 22.3444 23.0975 22.3697 23.2071C22.4034 23.3167 22.4877 23.4347 22.6227 23.5528C22.7576 23.6708 22.884 23.7383 22.9936 23.7551C23.1033 23.7635 23.196 23.7298 23.2635 23.6455Z" fill="#008996"/>
<path d="M20.9277 23.8564L21.3071 23.5276L22.9934 25.4753L22.6225 25.8041L20.9277 23.8564Z" fill="#008996"/>
<path d="M20.9946 26.1494C20.8512 26.2421 20.7079 26.3011 20.573 26.3096C20.4296 26.3264 20.3032 26.2927 20.1767 26.2337C20.0502 26.1662 19.9406 26.0566 19.8394 25.9049L19.7045 25.7025L20.6995 25.0448C20.6151 24.9268 20.5224 24.8593 20.4044 24.834C20.2947 24.8087 20.1767 24.8425 20.0587 24.9183C19.9575 24.9858 19.8732 25.0533 19.8057 25.1291C19.7382 25.205 19.6708 25.2893 19.6118 25.3905L19.3926 25.0617C19.4431 24.9774 19.5022 24.893 19.5781 24.8172C19.6455 24.7413 19.7467 24.6654 19.8647 24.5895C20.0165 24.4883 20.1767 24.4209 20.3285 24.404C20.4887 24.3787 20.6404 24.404 20.7838 24.4799C20.9271 24.5558 21.062 24.6738 21.1801 24.8509C21.2981 25.028 21.3656 25.205 21.3909 25.3652C21.4077 25.5254 21.3824 25.6688 21.315 25.8037C21.2475 25.9386 21.1379 26.0566 20.9946 26.1494ZM20.7922 25.8543C20.8765 25.8037 20.9271 25.7278 20.944 25.6435C20.9608 25.5592 20.9355 25.4495 20.8765 25.3315L20.2863 25.7278C20.3285 25.7868 20.3791 25.8374 20.4296 25.8711C20.4802 25.9049 20.5393 25.9217 20.6067 25.9217C20.6657 25.9217 20.7248 25.8964 20.7922 25.8543Z" fill="#008996"/>
</g>
<g clip-path="url(#clip1_1831_2176)">
<path d="M38.2032 20.4244V11.4974H36.5801V10.6047H38.2032V9.41447C38.2032 8.41357 38.4601 7.64261 38.9741 7.10158C39.4881 6.56055 40.1914 6.29004 41.1112 6.29004C41.517 6.29004 41.9092 6.34414 42.2609 6.43882L42.1797 7.33152C41.8822 7.26389 41.544 7.22331 41.1923 7.22331C40.5972 7.22331 40.1238 7.41267 39.7992 7.77786C39.4611 8.15658 39.2987 8.68409 39.2987 9.36037V10.5777H41.6387V11.4704H39.2987V20.3973H38.2032V20.4244Z" fill="white"/>
<path d="M49.037 20.4244C48.9288 20.1134 48.8612 19.6535 48.8341 19.0584C48.4554 19.5588 47.9685 19.9375 47.3734 20.208C46.7782 20.4786 46.156 20.6138 45.5068 20.6138C44.56 20.6138 43.8026 20.3568 43.221 19.8293C42.6394 19.3018 42.3418 18.6391 42.3418 17.8275C42.3418 16.8672 42.734 16.1097 43.532 15.5552C44.3301 15.0007 45.4392 14.7166 46.8594 14.7166H48.8341V13.6075C48.8341 12.9042 48.6177 12.3496 48.1849 11.9574C47.7521 11.5516 47.1164 11.3487 46.2913 11.3487C45.5339 11.3487 44.9117 11.5381 44.4112 11.9303C43.9108 12.3226 43.6673 12.7824 43.6673 13.3234L42.5853 13.3099C42.5853 12.5254 42.9505 11.8492 43.6673 11.2811C44.3977 10.713 45.2904 10.429 46.3454 10.429C47.441 10.429 48.3066 10.6995 48.9288 11.254C49.5645 11.7951 49.8891 12.566 49.9027 13.5399V18.1792C49.9027 19.126 49.9973 19.8429 50.2003 20.3162V20.4244H49.037ZM45.615 19.6399C46.3454 19.6399 46.9946 19.4641 47.5627 19.1124C48.1308 18.7608 48.5501 18.2874 48.8071 17.7058V15.5417H46.8729C45.7908 15.5552 44.9388 15.7581 44.3301 16.1368C43.7214 16.5155 43.4103 17.043 43.4103 17.7193C43.4103 18.2739 43.6132 18.7202 44.019 19.0854C44.4383 19.4641 44.9658 19.6399 45.615 19.6399Z" fill="white"/>
<path d="M54.0012 15.474L52.7568 16.6778V20.4244H51.6748V6.49292H52.7568V15.4064L53.7848 14.2972L57.5449 10.6047H58.911L54.7451 14.7436L59.2762 20.4244H57.9778L54.0012 15.474Z" fill="white"/>
<path d="M62.901 8.22412V10.6046H64.727V11.9031H62.901V18.0032C62.901 18.3954 62.9822 18.693 63.1445 18.8824C63.3068 19.0853 63.5909 19.1799 63.9831 19.1799C64.1724 19.1799 64.443 19.1393 64.7811 19.0717V20.4243C64.3348 20.546 63.9155 20.6001 63.4962 20.6001C62.7523 20.6001 62.1842 20.3702 61.8054 19.9238C61.4267 19.464 61.2374 18.8283 61.2374 17.9897V11.9031H59.4385V10.6046H61.2239V8.22412H62.901Z" fill="white"/>
<path d="M66.3232 8.00779C66.3232 7.73727 66.4044 7.50734 66.5667 7.31797C66.729 7.12861 66.986 7.03394 67.3106 7.03394C67.6352 7.03394 67.8787 7.12861 68.0545 7.31797C68.2168 7.50734 68.3115 7.73727 68.3115 8.00779C68.3115 8.2783 68.2304 8.50824 68.0545 8.68407C67.8787 8.85991 67.6352 8.95459 67.3106 8.95459C66.986 8.95459 66.7425 8.85991 66.5667 8.68407C66.4179 8.50824 66.3232 8.2783 66.3232 8.00779ZM68.1492 20.4244H66.472V10.6047H68.1492V20.4244Z" fill="white"/>
<path d="M78.7667 15.6228C78.7667 17.1241 78.4284 18.3279 77.7387 19.2341C77.0489 20.1404 76.1292 20.6002 74.966 20.6002C73.7216 20.6002 72.7613 20.1674 72.085 19.2882L72.0038 20.4244H70.4619V6.49292H72.1391V11.6868C72.8154 10.8482 73.7487 10.4289 74.9389 10.4289C76.1292 10.4289 77.0625 10.8752 77.7523 11.7815C78.4422 12.6877 78.7667 13.9185 78.7667 15.4875V15.6228ZM77.0895 15.4334C77.0895 14.2972 76.8731 13.4045 76.4267 12.7824C75.9804 12.1602 75.3447 11.8491 74.5196 11.8491C73.4105 11.8491 72.6125 12.3631 72.1391 13.391V17.6381C72.6531 18.666 73.4511 19.18 74.5467 19.18C75.3447 19.18 75.9804 18.8689 76.4267 18.2467C76.8596 17.6246 77.0895 16.6778 77.0895 15.4334Z" fill="white"/>
<path d="M81.9593 20.4244H80.2822V6.49292H81.9593V20.4244Z" fill="white"/>
<path d="M87.9778 20.6001C86.6524 20.6001 85.5703 20.1673 84.7316 19.2881C83.8932 18.409 83.4736 17.2458 83.4736 15.785V15.4739C83.4736 14.5001 83.6632 13.6344 84.0282 12.8634C84.407 12.0925 84.9211 11.4973 85.5836 11.0645C86.2466 10.6317 86.977 10.4153 87.7615 10.4153C89.0328 10.4153 90.0336 10.8346 90.737 11.6732C91.4403 12.5118 91.792 13.7155 91.792 15.2845V15.9879H85.1374C85.1645 16.9617 85.4486 17.7327 85.9895 18.3278C86.5307 18.923 87.2203 19.2205 88.0591 19.2205C88.6541 19.2205 89.1545 19.0988 89.5603 18.8553C89.9661 18.6118 90.3315 18.2873 90.6424 17.895L91.6703 18.693C90.8453 19.9644 89.6145 20.6001 87.9778 20.6001ZM87.7615 11.8084C87.0853 11.8084 86.517 12.0519 86.0574 12.5523C85.5974 13.0393 85.3132 13.7426 85.2053 14.6218H90.1149V14.5001C90.0607 13.6479 89.8307 12.9852 89.4253 12.5118C89.0195 12.0384 88.4649 11.8084 87.7615 11.8084Z" fill="white"/>
<path d="M95.8226 18.7066C95.6739 18.4361 95.4576 18.2332 95.1868 18.0844C94.9164 17.9356 94.6326 17.8545 94.3347 17.8545C94.0239 17.8545 93.7397 17.9356 93.4693 18.0844C93.1989 18.2332 92.9959 18.4496 92.8472 18.7201C92.6984 18.9906 92.6172 19.2747 92.6172 19.5722C92.6172 19.8698 92.6847 20.1538 92.8334 20.4244C92.9822 20.6814 93.1851 20.8977 93.4555 21.0601C93.7264 21.2224 94.0101 21.29 94.3214 21.29C94.6326 21.29 94.9301 21.2089 95.2005 21.0465C95.4709 20.8842 95.6739 20.6814 95.8226 20.4108C95.9714 20.1539 96.0393 19.8698 96.0393 19.5722C96.0526 19.2612 95.9714 18.9636 95.8226 18.7066ZM95.6334 20.3162C95.498 20.5461 95.3089 20.7354 95.0789 20.8707C94.8489 21.0059 94.5918 21.0736 94.3214 21.0736C94.0509 21.0736 93.7939 21.0059 93.5639 20.8707C93.3339 20.7354 93.1447 20.5461 93.0093 20.3162C92.8743 20.0862 92.8064 19.8292 92.8064 19.5587C92.8064 19.2882 92.8743 19.0447 93.0093 18.8148C93.1447 18.5849 93.3339 18.3955 93.5639 18.2602C93.7939 18.125 94.0509 18.0574 94.3076 18.0574C94.5784 18.0574 94.8351 18.125 95.0651 18.2738C95.2951 18.409 95.4847 18.5984 95.6064 18.8283C95.7414 19.0583 95.7955 19.3017 95.7955 19.5722C95.8364 19.8292 95.7684 20.0862 95.6334 20.3162Z" fill="white"/>
<path d="M94.8487 19.4506C94.9029 19.3559 94.9299 19.2477 94.9299 19.1259C94.9299 18.9366 94.8758 18.7878 94.7541 18.6932C94.6324 18.5984 94.4699 18.5579 94.2537 18.5579H93.7666V20.5597H93.9966V19.7346H94.3754L94.8487 20.5597H95.1191L94.5783 19.667C94.7133 19.6129 94.7945 19.5453 94.8487 19.4506ZM94.267 19.5588H94.0099V18.7472H94.267C94.5645 18.7472 94.7133 18.8825 94.7133 19.1395C94.7133 19.2747 94.6728 19.3829 94.5916 19.4506C94.5103 19.5317 94.4024 19.5588 94.267 19.5588Z" fill="white"/>
</g>
<defs>
<clipPath id="clip0_1831_2176">
<rect width="27.58" height="27.58" fill="white"/>
</clipPath>
<clipPath id="clip1_1831_2176">
<rect width="59.5833" height="15" fill="white" transform="translate(36.5801 6.29004)"/>
</clipPath>
</defs>
</svg>
