<svg width="132" height="27" viewBox="0 0 132 27" fill="none" xmlns="http://www.w3.org/2000/svg">
<g clip-path="url(#clip0_0_1)">
<path fill-rule="evenodd" clip-rule="evenodd" d="M13.5 0C6.04125 0 0 6.04125 0 13.5C0 19.4738 3.86437 24.5194 9.23062 26.3081C9.90562 26.4263 10.1587 26.0213 10.1587 25.6669C10.1587 25.3463 10.1419 24.2831 10.1419 23.1525C6.75 23.7769 5.8725 22.3256 5.6025 21.5663C5.45062 21.1781 4.7925 19.98 4.21875 19.6594C3.74625 19.4063 3.07125 18.7819 4.20188 18.765C5.265 18.7481 6.02438 19.7438 6.2775 20.1488C7.4925 22.1906 9.43313 21.6169 10.2094 21.2625C10.3275 20.385 10.6819 19.7944 11.07 19.4569C8.06625 19.1194 4.9275 17.955 4.9275 12.7913C4.9275 11.3231 5.45063 10.1081 6.31125 9.16313C6.17625 8.82563 5.70375 7.44188 6.44625 5.58563C6.44625 5.58563 7.57688 5.23125 10.1587 6.96938C11.2387 6.66563 12.3863 6.51375 13.5338 6.51375C14.6813 6.51375 15.8288 6.66563 16.9088 6.96938C19.4906 5.21438 20.6213 5.58563 20.6213 5.58563C21.3638 7.44188 20.8913 8.82563 20.7563 9.16313C21.6169 10.1081 22.14 11.3063 22.14 12.7913C22.14 17.9719 18.9844 19.1194 15.9806 19.4569C16.47 19.8788 16.8919 20.6888 16.8919 21.9544C16.8919 23.76 16.875 25.2113 16.875 25.6669C16.875 26.0213 17.1281 26.4431 17.8031 26.3081C20.4831 25.4034 22.8119 23.681 24.4617 21.3834C26.1115 19.0857 26.9993 16.3286 27 13.5C27 6.04125 20.9588 0 13.5 0Z" fill="white"/>
</g>
<path d="M41.7614 13.0526L40.6065 13.2571C40.5582 13.1094 40.4815 12.9687 40.3764 12.8352C40.2741 12.7017 40.1349 12.5923 39.9588 12.5071C39.7827 12.4219 39.5625 12.3793 39.2983 12.3793C38.9375 12.3793 38.6364 12.4602 38.3949 12.6222C38.1534 12.7812 38.0327 12.9872 38.0327 13.2401C38.0327 13.4588 38.1136 13.6349 38.2756 13.7685C38.4375 13.902 38.6989 14.0114 39.0597 14.0966L40.0994 14.3352C40.7017 14.4744 41.1506 14.6889 41.446 14.9787C41.7415 15.2685 41.8892 15.6449 41.8892 16.108C41.8892 16.5 41.7756 16.8494 41.5483 17.1562C41.3239 17.4602 41.0099 17.6989 40.6065 17.8722C40.206 18.0455 39.7415 18.1321 39.2131 18.1321C38.4801 18.1321 37.8821 17.9759 37.419 17.6634C36.956 17.348 36.6719 16.9006 36.5668 16.321L37.7983 16.1335C37.875 16.4545 38.0327 16.6974 38.2713 16.8622C38.5099 17.0241 38.821 17.1051 39.2045 17.1051C39.6222 17.1051 39.956 17.0185 40.206 16.8452C40.456 16.669 40.581 16.4545 40.581 16.2017C40.581 15.9972 40.5043 15.8253 40.3509 15.6861C40.2003 15.5469 39.9688 15.4418 39.6562 15.3707L38.5483 15.1278C37.9375 14.9886 37.4858 14.767 37.1932 14.4631C36.9034 14.1591 36.7585 13.7741 36.7585 13.3082C36.7585 12.9219 36.8665 12.5838 37.0824 12.294C37.2983 12.0043 37.5966 11.7784 37.9773 11.6165C38.358 11.4517 38.794 11.3693 39.2855 11.3693C39.9929 11.3693 40.5497 11.5227 40.956 11.8295C41.3622 12.1335 41.6307 12.5412 41.7614 13.0526ZM45.315 18.1449C44.9002 18.1449 44.5252 18.0682 44.19 17.9148C43.8547 17.7585 43.5891 17.5327 43.3931 17.2372C43.1999 16.9418 43.1033 16.5795 43.1033 16.1506C43.1033 15.7812 43.1743 15.4773 43.3164 15.2386C43.4584 15 43.6502 14.8111 43.8917 14.6719C44.1331 14.5327 44.403 14.4276 44.7013 14.3565C44.9996 14.2855 45.3036 14.2315 45.6133 14.1946C46.0053 14.1491 46.3235 14.1122 46.5678 14.0838C46.8121 14.0526 46.9897 14.0028 47.1005 13.9347C47.2113 13.8665 47.2667 13.7557 47.2667 13.6023V13.5724C47.2667 13.2003 47.1615 12.9119 46.9513 12.7074C46.7439 12.5028 46.4343 12.4006 46.0223 12.4006C45.5934 12.4006 45.2553 12.4957 45.0081 12.6861C44.7638 12.8736 44.5948 13.0824 44.501 13.3125L43.3036 13.0398C43.4456 12.642 43.653 12.321 43.9258 12.0767C44.2013 11.8295 44.5181 11.6506 44.876 11.5398C45.234 11.4261 45.6104 11.3693 46.0053 11.3693C46.2667 11.3693 46.5437 11.4006 46.8363 11.4631C47.1317 11.5227 47.4073 11.6335 47.663 11.7955C47.9215 11.9574 48.1331 12.1889 48.2979 12.4901C48.4627 12.7884 48.5451 13.1761 48.5451 13.6534V18H47.3008V17.1051H47.2496C47.1672 17.2699 47.0437 17.4318 46.8789 17.5909C46.7141 17.75 46.5025 17.8821 46.2439 17.9872C45.9854 18.0923 45.6758 18.1449 45.315 18.1449ZM45.5919 17.1222C45.9442 17.1222 46.2454 17.0526 46.4954 16.9134C46.7482 16.7741 46.94 16.5923 47.0706 16.3679C47.2042 16.1406 47.2709 15.8977 47.2709 15.6392V14.7955C47.2255 14.8409 47.1374 14.8835 47.0067 14.9233C46.8789 14.9602 46.7326 14.9929 46.5678 15.0213C46.403 15.0469 46.2425 15.071 46.0863 15.0938C45.93 15.1136 45.7993 15.1307 45.6942 15.1449C45.4471 15.1761 45.2212 15.2287 45.0167 15.3026C44.815 15.3764 44.653 15.483 44.5309 15.6222C44.4115 15.7585 44.3519 15.9403 44.3519 16.1676C44.3519 16.483 44.4684 16.7216 44.7013 16.8835C44.9343 17.0426 45.2312 17.1222 45.5919 17.1222ZM50.3622 18V11.4545H51.5852V12.5199H51.6661C51.8025 12.1591 52.0255 11.8778 52.3352 11.6761C52.6448 11.4716 53.0156 11.3693 53.4474 11.3693C53.8849 11.3693 54.2514 11.4716 54.5468 11.6761C54.8451 11.8807 55.0653 12.1619 55.2073 12.5199H55.2755C55.4318 12.1705 55.6803 11.892 56.0212 11.6847C56.3622 11.4744 56.7684 11.3693 57.24 11.3693C57.8337 11.3693 58.3181 11.5554 58.6931 11.9276C59.071 12.2997 59.2599 12.8608 59.2599 13.6108V18H57.9857V13.7301C57.9857 13.2869 57.865 12.9659 57.6235 12.767C57.382 12.5682 57.0937 12.4688 56.7585 12.4688C56.3437 12.4688 56.0212 12.5966 55.7911 12.8523C55.561 13.1051 55.446 13.4304 55.446 13.8281V18H54.1761V13.6491C54.1761 13.294 54.0653 13.0085 53.8437 12.7926C53.6221 12.5767 53.3338 12.4688 52.9786 12.4688C52.7372 12.4688 52.5141 12.5327 52.3096 12.6605C52.1079 12.7855 51.9445 12.9602 51.8195 13.1847C51.6974 13.4091 51.6363 13.669 51.6363 13.9645V18H50.3622ZM64.9442 13.7599V14.8636H61.0748V13.7599H64.9442ZM69.7921 18.1193C69.4029 18.1136 69.0194 18.0426 68.6416 17.9062C68.2666 17.7699 67.9257 17.5426 67.6188 17.2244C67.312 16.9062 67.0663 16.4787 66.8816 15.9418C66.6998 15.4048 66.6089 14.7344 66.6089 13.9304C66.6089 13.169 66.6842 12.4929 66.8348 11.902C66.9882 11.3111 67.2083 10.8125 67.4953 10.4062C67.7822 9.99716 68.1288 9.68608 68.535 9.47301C68.9413 9.25994 69.3973 9.15341 69.9029 9.15341C70.4228 9.15341 70.8845 9.25568 71.2879 9.46023C71.6913 9.66477 72.018 9.94744 72.268 10.3082C72.5208 10.669 72.6813 11.0795 72.7495 11.5398H71.4498C71.3617 11.1761 71.187 10.8793 70.9257 10.6491C70.6643 10.419 70.3234 10.304 69.9029 10.304C69.2637 10.304 68.7652 10.5824 68.4072 11.1392C68.0521 11.696 67.8731 12.4702 67.8703 13.4616H67.9342C68.0848 13.2145 68.2694 13.0043 68.4882 12.831C68.7098 12.6548 68.9569 12.5199 69.2296 12.4261C69.5052 12.3295 69.795 12.2812 70.099 12.2812C70.6046 12.2812 71.062 12.4048 71.4711 12.652C71.8831 12.8963 72.2112 13.2344 72.4555 13.6662C72.6998 14.098 72.822 14.5923 72.822 15.1491C72.822 15.706 72.6956 16.2102 72.4427 16.6619C72.1927 17.1136 71.8404 17.4716 71.3859 17.7358C70.9313 17.9972 70.4001 18.125 69.7921 18.1193ZM69.7879 17.0114C70.1231 17.0114 70.4228 16.929 70.687 16.7642C70.9512 16.5994 71.16 16.3778 71.3135 16.0994C71.4669 15.821 71.5436 15.5099 71.5436 15.1662C71.5436 14.831 71.4683 14.5256 71.3177 14.25C71.17 13.9744 70.9654 13.7557 70.7041 13.5938C70.4456 13.4318 70.1501 13.3509 69.8177 13.3509C69.5649 13.3509 69.3305 13.3991 69.1146 13.4957C68.9015 13.5923 68.714 13.7259 68.5521 13.8963C68.3902 14.0668 68.2623 14.2628 68.1686 14.4844C68.0777 14.7031 68.0322 14.9347 68.0322 15.179C68.0322 15.5057 68.1075 15.8082 68.2581 16.0866C68.4115 16.3651 68.6203 16.5895 68.8845 16.7599C69.1515 16.9276 69.4527 17.0114 69.7879 17.0114ZM74.4942 18V17.0455L77.4473 13.9858C77.7626 13.6534 78.0226 13.3622 78.2271 13.1122C78.4345 12.8594 78.5893 12.6193 78.6916 12.392C78.7939 12.1648 78.845 11.9233 78.845 11.6676C78.845 11.3778 78.7768 11.1278 78.6405 10.9176C78.5041 10.7045 78.318 10.5412 78.0822 10.4276C77.8464 10.3111 77.5808 10.2528 77.2854 10.2528C76.9729 10.2528 76.7001 10.3168 76.4672 10.4446C76.2342 10.5724 76.0553 10.7528 75.9303 10.9858C75.8053 11.2187 75.7428 11.4915 75.7428 11.804H74.4857C74.4857 11.2727 74.6078 10.8082 74.8521 10.4105C75.0964 10.0128 75.4317 9.70455 75.8578 9.4858C76.2839 9.2642 76.7683 9.15341 77.3109 9.15341C77.8592 9.15341 78.3422 9.26278 78.7598 9.48153C79.1803 9.69744 79.5084 9.9929 79.7442 10.3679C79.98 10.7401 80.0979 11.1605 80.0979 11.6293C80.0979 11.9531 80.0368 12.2699 79.9146 12.5795C79.7953 12.8892 79.5865 13.2344 79.2882 13.6151C78.9899 13.9929 78.5751 14.4517 78.0439 14.9915L76.3095 16.8068V16.8707H80.2385V18H74.4942ZM85.2846 9.27273V18H83.9636V10.5938H83.9125L81.8244 11.9574V10.696L84.002 9.27273H85.2846ZM91.1063 8.86364L88.2938 19.3125H87.1561L89.9686 8.86364H91.1063ZM95.3641 11.4545V12.4773H91.7888V11.4545H95.3641ZM92.7476 9.88636H94.0218V16.0781C94.0218 16.3253 94.0587 16.5114 94.1326 16.6364C94.2064 16.7585 94.3016 16.8423 94.4181 16.8878C94.5374 16.9304 94.6667 16.9517 94.8059 16.9517C94.9082 16.9517 94.9976 16.9446 95.0743 16.9304C95.1511 16.9162 95.2107 16.9048 95.2533 16.8963L95.4834 17.9489C95.4096 17.9773 95.3045 18.0057 95.1681 18.0341C95.0317 18.0653 94.8613 18.0824 94.6567 18.0852C94.3215 18.0909 94.009 18.0312 93.7192 17.9062C93.4295 17.7812 93.1951 17.5881 93.0161 17.3267C92.8371 17.0653 92.7476 16.7372 92.7476 16.3423V9.88636ZM98.7984 18.1449C98.3836 18.1449 98.0086 18.0682 97.6734 17.9148C97.3382 17.7585 97.0725 17.5327 96.8765 17.2372C96.6833 16.9418 96.5867 16.5795 96.5867 16.1506C96.5867 15.7812 96.6578 15.4773 96.7998 15.2386C96.9419 15 97.1336 14.8111 97.3751 14.6719C97.6166 14.5327 97.8865 14.4276 98.1848 14.3565C98.4831 14.2855 98.787 14.2315 99.0967 14.1946C99.4887 14.1491 99.8069 14.1122 100.051 14.0838C100.296 14.0526 100.473 14.0028 100.584 13.9347C100.695 13.8665 100.75 13.7557 100.75 13.6023V13.5724C100.75 13.2003 100.645 12.9119 100.435 12.7074C100.227 12.5028 99.9177 12.4006 99.5058 12.4006C99.0768 12.4006 98.7387 12.4957 98.4916 12.6861C98.2473 12.8736 98.0782 13.0824 97.9845 13.3125L96.787 13.0398C96.9291 12.642 97.1365 12.321 97.4092 12.0767C97.6848 11.8295 98.0015 11.6506 98.3595 11.5398C98.7174 11.4261 99.0939 11.3693 99.4887 11.3693C99.7501 11.3693 100.027 11.4006 100.32 11.4631C100.615 11.5227 100.891 11.6335 101.146 11.7955C101.405 11.9574 101.617 12.1889 101.781 12.4901C101.946 12.7884 102.029 13.1761 102.029 13.6534V18H100.784V17.1051H100.733C100.651 17.2699 100.527 17.4318 100.362 17.5909C100.198 17.75 99.9859 17.8821 99.7274 17.9872C99.4689 18.0923 99.1592 18.1449 98.7984 18.1449ZM99.0754 17.1222C99.4277 17.1222 99.7288 17.0526 99.9788 16.9134C100.232 16.7741 100.423 16.5923 100.554 16.3679C100.688 16.1406 100.754 15.8977 100.754 15.6392V14.7955C100.709 14.8409 100.621 14.8835 100.49 14.9233C100.362 14.9602 100.216 14.9929 100.051 15.0213C99.8865 15.0469 99.726 15.071 99.5697 15.0938C99.4135 15.1136 99.2828 15.1307 99.1777 15.1449C98.9305 15.1761 98.7046 15.2287 98.5001 15.3026C98.2984 15.3764 98.1365 15.483 98.0143 15.6222C97.895 15.7585 97.8353 15.9403 97.8353 16.1676C97.8353 16.483 97.9518 16.7216 98.1848 16.8835C98.4177 17.0426 98.7146 17.1222 99.0754 17.1222ZM108.75 13.0526L107.596 13.2571C107.547 13.1094 107.471 12.9687 107.365 12.8352C107.263 12.7017 107.124 12.5923 106.948 12.5071C106.772 12.4219 106.552 12.3793 106.287 12.3793C105.927 12.3793 105.625 12.4602 105.384 12.6222C105.142 12.7812 105.022 12.9872 105.022 13.2401C105.022 13.4588 105.103 13.6349 105.265 13.7685C105.427 13.902 105.688 14.0114 106.049 14.0966L107.088 14.3352C107.691 14.4744 108.14 14.6889 108.435 14.9787C108.731 15.2685 108.878 15.6449 108.878 16.108C108.878 16.5 108.765 16.8494 108.537 17.1562C108.313 17.4602 107.999 17.6989 107.596 17.8722C107.195 18.0455 106.731 18.1321 106.202 18.1321C105.469 18.1321 104.871 17.9759 104.408 17.6634C103.945 17.348 103.661 16.9006 103.556 16.321L104.787 16.1335C104.864 16.4545 105.022 16.6974 105.26 16.8622C105.499 17.0241 105.81 17.1051 106.194 17.1051C106.611 17.1051 106.945 17.0185 107.195 16.8452C107.445 16.669 107.57 16.4545 107.57 16.2017C107.57 15.9972 107.493 15.8253 107.34 15.6861C107.189 15.5469 106.958 15.4418 106.645 15.3707L105.537 15.1278C104.927 14.9886 104.475 14.767 104.182 14.4631C103.892 14.1591 103.748 13.7741 103.748 13.3082C103.748 12.9219 103.856 12.5838 104.071 12.294C104.287 12.0043 104.586 11.7784 104.966 11.6165C105.347 11.4517 105.783 11.3693 106.275 11.3693C106.982 11.3693 107.539 11.5227 107.945 11.8295C108.351 12.1335 108.62 12.5412 108.75 13.0526ZM111.571 15.7798L111.563 14.2244H111.784L114.392 11.4545H115.918L112.943 14.608H112.743L111.571 15.7798ZM110.399 18V9.27273H111.673V18H110.399ZM114.533 18L112.189 14.8892L113.067 13.9986L116.097 18H114.533ZM120.61 13.7599V14.8636H116.741V13.7599H120.61ZM126.575 15.2855V11.4545H127.853V18H126.6V16.8665H126.532C126.381 17.2159 126.14 17.5071 125.808 17.7401C125.478 17.9702 125.067 18.0852 124.576 18.0852C124.156 18.0852 123.783 17.9929 123.46 17.8082C123.138 17.6207 122.886 17.3438 122.701 16.9773C122.519 16.6108 122.428 16.1577 122.428 15.6179V11.4545H123.702V15.4645C123.702 15.9105 123.826 16.2656 124.073 16.5298C124.32 16.794 124.641 16.9261 125.036 16.9261C125.275 16.9261 125.512 16.8665 125.748 16.7472C125.986 16.6278 126.184 16.4474 126.34 16.206C126.499 15.9645 126.577 15.6577 126.575 15.2855ZM129.685 18V11.4545H130.959V18H129.685ZM130.328 10.4446C130.107 10.4446 129.917 10.3707 129.757 10.223C129.601 10.0724 129.523 9.89347 129.523 9.68608C129.523 9.47585 129.601 9.29687 129.757 9.14915C129.917 8.99858 130.107 8.9233 130.328 8.9233C130.55 8.9233 130.739 8.99858 130.895 9.14915C131.054 9.29687 131.134 9.47585 131.134 9.68608C131.134 9.89347 131.054 10.0724 130.895 10.223C130.739 10.3707 130.55 10.4446 130.328 10.4446Z" fill="white"/>
<defs>
<clipPath id="clip0_0_1">
<rect width="27" height="27" fill="white"/>
</clipPath>
</defs>
</svg>
