<svg width="39" height="18" viewBox="0 0 39 18" fill="none" xmlns="http://www.w3.org/2000/svg">
<path d="M7.35409 1.16C9.14609 1.16 10.5541 1.592 11.5781 2.456C12.6021 3.32 13.1141 4.48 13.1141 5.936C13.1141 7.488 12.6021 8.68 11.5781 9.512C10.5541 10.328 9.15409 10.736 7.37809 10.736L7.04209 10.928H3.63409V17H0.370093V1.16H7.35409ZM6.97009 8.408C7.89809 8.408 8.58609 8.224 9.03409 7.856C9.49809 7.472 9.73009 6.888 9.73009 6.104C9.73009 5.32 9.49809 4.744 9.03409 4.376C8.58609 3.992 7.89809 3.8 6.97009 3.8H3.63409V8.408H6.97009ZM8.91409 9.104L14.0501 17H10.3301L6.08209 10.064L8.91409 9.104ZM23.9066 0.92C25.3466 0.92 26.6106 1.168 27.6986 1.664C28.7866 2.16 29.7146 2.896 30.4826 3.872L28.6346 6.008C27.9786 5.176 27.2586 4.568 26.4746 4.184C25.7066 3.784 24.8106 3.584 23.7866 3.584C23.1146 3.584 22.5546 3.672 22.1066 3.848C21.6746 4.024 21.3546 4.256 21.1466 4.544C20.9546 4.832 20.8586 5.152 20.8586 5.504C20.8586 5.936 21.0266 6.304 21.3626 6.608C21.6986 6.896 22.2746 7.136 23.0906 7.328L26.0426 8C27.6106 8.352 28.7306 8.88 29.4026 9.584C30.0906 10.272 30.4346 11.168 30.4346 12.272C30.4346 13.312 30.1626 14.208 29.6186 14.96C29.0746 15.696 28.3146 16.264 27.3386 16.664C26.3626 17.048 25.2426 17.24 23.9786 17.24C22.8746 17.24 21.8586 17.112 20.9306 16.856C20.0186 16.584 19.2026 16.216 18.4826 15.752C17.7626 15.288 17.1626 14.752 16.6826 14.144L18.5546 11.912C18.9226 12.424 19.3786 12.88 19.9226 13.28C20.4666 13.68 21.0826 14 21.7706 14.24C22.4746 14.464 23.2106 14.576 23.9786 14.576C24.6346 14.576 25.1866 14.504 25.6346 14.36C26.0986 14.2 26.4426 13.984 26.6666 13.712C26.9066 13.424 27.0266 13.08 27.0266 12.68C27.0266 12.264 26.8826 11.912 26.5946 11.624C26.3226 11.32 25.8106 11.088 25.0586 10.928L21.8426 10.208C20.9146 9.984 20.1146 9.696 19.4426 9.344C18.7866 8.976 18.2826 8.512 17.9306 7.952C17.5946 7.376 17.4266 6.696 17.4266 5.912C17.4266 4.968 17.6826 4.12 18.1946 3.368C18.7066 2.616 19.4426 2.024 20.4026 1.592C21.3786 1.144 22.5466 0.92 23.9066 0.92Z" fill="#E3E4E6"/>
<path d="M36.3279 13.328C36.9679 13.328 37.4719 13.504 37.8399 13.856C38.2239 14.208 38.4159 14.68 38.4159 15.272C38.4159 15.88 38.2239 16.36 37.8399 16.712C37.4719 17.048 36.9679 17.216 36.3279 17.216C35.6879 17.216 35.1759 17.048 34.7919 16.712C34.4239 16.36 34.2399 15.88 34.2399 15.272C34.2399 14.68 34.4239 14.208 34.7919 13.856C35.1759 13.504 35.6879 13.328 36.3279 13.328Z" fill="#146EF5"/>
</svg>