<svg width="49" height="25" viewBox="0 0 49 25" fill="none" xmlns="http://www.w3.org/2000/svg">
<path d="M0.452728 24V0.727272H9.63455C11.3921 0.727272 12.8921 1.04167 14.1345 1.67045C15.3845 2.29167 16.3353 3.17424 16.9868 4.31818C17.6459 5.45454 17.9755 6.79167 17.9755 8.32955C17.9755 9.875 17.6421 11.2045 16.9755 12.3182C16.3088 13.4242 15.3429 14.2727 14.0777 14.8636C12.8202 15.4545 11.2974 15.75 9.50955 15.75H3.36182V11.7955H8.71409C9.65349 11.7955 10.4338 11.6667 11.055 11.4091C11.6762 11.1515 12.1383 10.7652 12.4414 10.25C12.752 9.73485 12.9073 9.0947 12.9073 8.32955C12.9073 7.55682 12.752 6.9053 12.4414 6.375C12.1383 5.8447 11.6724 5.44318 11.0436 5.17045C10.4224 4.89015 9.63833 4.75 8.69136 4.75H5.37318V24H0.452728ZM13.0209 13.4091L18.805 24H13.3732L7.71409 13.4091H13.0209ZM34.3977 7.42045C34.3068 6.50379 33.9167 5.79167 33.2273 5.28409C32.5379 4.77651 31.6023 4.52273 30.4205 4.52273C29.6174 4.52273 28.9394 4.63636 28.3864 4.86364C27.8333 5.08333 27.4091 5.39015 27.1136 5.78409C26.8258 6.17803 26.6818 6.625 26.6818 7.125C26.6667 7.54167 26.7538 7.9053 26.9432 8.21591C27.1402 8.52652 27.4091 8.79545 27.75 9.02273C28.0909 9.24242 28.4848 9.43561 28.9318 9.60227C29.3788 9.76136 29.8561 9.89773 30.3636 10.0114L32.4545 10.5114C33.4697 10.7386 34.4015 11.0417 35.25 11.4205C36.0985 11.7992 36.8333 12.2652 37.4545 12.8182C38.0758 13.3712 38.5568 14.0227 38.8977 14.7727C39.2462 15.5227 39.4242 16.3826 39.4318 17.3523C39.4242 18.7765 39.0606 20.0114 38.3409 21.0568C37.6288 22.0947 36.5985 22.9015 35.25 23.4773C33.9091 24.0455 32.2917 24.3295 30.3977 24.3295C28.5189 24.3295 26.8826 24.0417 25.4886 23.4659C24.1023 22.8902 23.0189 22.0379 22.2386 20.9091C21.4659 19.7727 21.0606 18.3674 21.0227 16.6932H25.7841C25.8371 17.4735 26.0606 18.125 26.4545 18.6477C26.8561 19.1629 27.3902 19.553 28.0568 19.8182C28.7311 20.0758 29.4924 20.2045 30.3409 20.2045C31.1742 20.2045 31.8977 20.0833 32.5114 19.8409C33.1326 19.5985 33.6136 19.2614 33.9545 18.8295C34.2955 18.3977 34.4659 17.9015 34.4659 17.3409C34.4659 16.8182 34.3106 16.3788 34 16.0227C33.697 15.6667 33.25 15.3636 32.6591 15.1136C32.0758 14.8636 31.3598 14.6364 30.5114 14.4318L27.9773 13.7955C26.0152 13.3182 24.4659 12.572 23.3295 11.5568C22.1932 10.5417 21.6288 9.17424 21.6364 7.45454C21.6288 6.04545 22.0038 4.81439 22.7614 3.76136C23.5265 2.70833 24.5758 1.88636 25.9091 1.29545C27.2424 0.704545 28.7576 0.40909 30.4545 0.40909C32.1818 0.40909 33.6894 0.704545 34.9773 1.29545C36.2727 1.88636 37.2803 2.70833 38 3.76136C38.7197 4.81439 39.0909 6.03409 39.1136 7.42045H34.3977Z" fill="white"/>
<path d="M45.8001 24.2955C45.0501 24.2955 44.4062 24.0303 43.8683 23.5C43.338 22.9621 43.0728 22.3182 43.0728 21.5682C43.0728 20.8258 43.338 20.1894 43.8683 19.6591C44.4062 19.1288 45.0501 18.8636 45.8001 18.8636C46.5274 18.8636 47.1638 19.1288 47.7092 19.6591C48.2547 20.1894 48.5274 20.8258 48.5274 21.5682C48.5274 22.0682 48.3986 22.5265 48.141 22.9432C47.891 23.3523 47.5615 23.6818 47.1524 23.9318C46.7433 24.1742 46.2925 24.2955 45.8001 24.2955Z" fill="#0066FF"/>
</svg>
