<svg width="100" height="100" viewBox="0 0 100 100" fill="none" xmlns="http://www.w3.org/2000/svg">
<path fill-rule="evenodd" clip-rule="evenodd" d="M49.9998 6.90332L87.3228 28.4517V71.5486L49.9998 93.097L12.6768 71.5486V28.4517L49.9998 6.90332ZM16.8645 30.8695V62.5253L44.2793 15.0416L16.8645 30.8695ZM49.9998 13.5088L18.3973 68.2459H81.6023L49.9998 13.5088ZM77.4146 72.4336H22.585L49.9998 88.2615L77.4146 72.4336ZM83.1351 62.5253L55.7203 15.0416L83.1351 30.8695V62.5253Z" fill="white"/>
<path d="M49.9997 18.141C54.8708 18.141 58.8197 14.1921 58.8197 9.32098C58.8197 4.44982 54.8708 0.500977 49.9997 0.500977C45.1285 0.500977 41.1797 4.44982 41.1797 9.32098C41.1797 14.1921 45.1285 18.141 49.9997 18.141Z" fill="white"/>
<path d="M85.2292 38.4803C90.1003 38.4803 94.0492 34.5315 94.0492 29.6603C94.0492 24.7892 90.1003 20.8403 85.2292 20.8403C80.358 20.8403 76.4092 24.7892 76.4092 29.6603C76.4092 34.5315 80.358 38.4803 85.2292 38.4803Z" fill="white"/>
<path d="M85.2292 79.1595C90.1003 79.1595 94.0492 75.2107 94.0492 70.3395C94.0492 65.4684 90.1003 61.5195 85.2292 61.5195C80.358 61.5195 76.4092 65.4684 76.4092 70.3395C76.4092 75.2107 80.358 79.1595 85.2292 79.1595Z" fill="white"/>
<path d="M49.9997 99.4989C54.8708 99.4989 58.8197 95.55 58.8197 90.6789C58.8197 85.8077 54.8708 81.8589 49.9997 81.8589C45.1285 81.8589 41.1797 85.8077 41.1797 90.6789C41.1797 95.55 45.1285 99.4989 49.9997 99.4989Z" fill="white"/>
<path d="M14.7663 79.1595C19.6374 79.1595 23.5863 75.2107 23.5863 70.3395C23.5863 65.4684 19.6374 61.5195 14.7663 61.5195C9.89514 61.5195 5.94629 65.4684 5.94629 70.3395C5.94629 75.2107 9.89514 79.1595 14.7663 79.1595Z" fill="white"/>
<path d="M14.7663 38.4803C19.6374 38.4803 23.5863 34.5315 23.5863 29.6603C23.5863 24.7892 19.6374 20.8403 14.7663 20.8403C9.89514 20.8403 5.94629 24.7892 5.94629 29.6603C5.94629 34.5315 9.89514 38.4803 14.7663 38.4803Z" fill="white"/>
</svg>
