<svg width="80" height="80" viewBox="0 0 80 80" fill="none" xmlns="http://www.w3.org/2000/svg">
<path d="M0 0H80V80H0V0Z" fill="#F4F7FB"/>
<path d="M21.0349 66.8538L27.1571 63.1488C28.3382 65.2429 29.4126 67.0147 31.9897 67.0147C34.4601 67.0147 36.0175 66.0484 36.0175 62.2897V36.7277H43.5355V62.3959C43.5355 70.1826 38.9712 73.7269 32.312 73.7269C26.2979 73.7269 22.8069 70.6121 21.0348 66.8532" fill="#151B28"/>
<path d="M47.619 66.0483L53.7404 62.504C55.3519 65.1356 57.4462 67.0687 61.1514 67.0687C64.2664 67.0687 66.2528 65.5112 66.2528 63.3632C66.2528 60.7855 64.2123 59.8725 60.7754 58.3694L58.8964 57.5633C53.4723 55.2546 49.8742 52.3548 49.8742 46.2328C49.8742 40.5942 54.1702 36.2979 60.883 36.2979C65.6625 36.2979 69.0993 37.9628 71.5693 42.3126L65.7158 46.0715C64.4269 43.7625 63.0311 42.8498 60.8832 42.8498C58.6814 42.8498 57.2851 44.246 57.2851 46.0715C57.2851 48.327 58.6814 49.2401 61.9031 50.6364L63.7825 51.4419C70.173 54.1808 73.771 56.9729 73.771 63.2557C73.771 70.0225 68.4547 73.7275 61.3126 73.7275C54.3316 73.7275 49.8204 70.3982 47.619 66.0483Z" fill="#151B28"/>
</svg>
