<svg width="152" height="40" viewBox="0 0 152 40" fill="none" xmlns="http://www.w3.org/2000/svg">
<path d="M11.7826 4.20523C10.2388 2.37357 8.90939 0.5133 8.63781 0.126934C8.60921 0.0983138 8.56632 0.0983138 8.53774 0.126934C8.26614 0.5133 6.93677 2.37357 5.39297 4.20523C-7.8579 21.1051 7.47996 32.5101 7.47996 32.5101L7.6086 32.596C7.72295 34.356 8.00884 36.8889 8.00884 36.8889H9.15239C9.15239 36.8889 9.43829 34.3703 9.55264 32.596L9.68128 32.4958C9.69557 32.5101 25.0335 21.1051 11.7826 4.20523ZM8.58062 32.2525C8.58062 32.2525 7.8945 31.6658 7.70866 31.3654V31.3366L8.53774 12.9342C8.53774 12.877 8.62351 12.877 8.62351 12.9342L9.45257 31.3366V31.3654C9.26675 31.6658 8.58062 32.2525 8.58062 32.2525Z" fill="#F4F7FB"/>
<path d="M37.2845 28.4973L30.8931 12.8868L30.8788 12.8437H25.906V13.893H26.7085C26.9521 13.893 27.1814 13.9936 27.3534 14.1661C27.5253 14.3386 27.6113 14.5687 27.6113 14.813L27.4681 30.5241C27.4681 31.0127 27.0669 31.4152 26.5795 31.4296L25.7627 31.4439V32.4789H30.6065V31.4439L30.1049 31.4296C29.6177 31.4152 29.2163 31.0127 29.2163 30.5241V15.7185L36.1812 32.4789C36.2813 32.7232 36.5106 32.8814 36.7687 32.8814C37.0266 32.8814 37.2559 32.7232 37.3562 32.4789L44.1633 16.0922L44.2636 30.5241C44.2636 31.0272 43.8623 31.4296 43.3608 31.4439H42.8448V32.4789H48.5198V31.4439H47.7459C47.2587 31.4439 46.8574 31.0272 46.8431 30.5384L46.8001 14.8273C46.8001 14.3242 47.2013 13.9218 47.6886 13.9074L48.5198 13.893V12.8437H43.676L37.2845 28.4973ZM81.8494 31.1704C81.6913 31.0121 81.6051 30.7962 81.6051 30.537V22.819C81.6051 21.3504 81.1742 20.1984 80.312 19.3777C79.4644 18.5569 78.2861 18.1394 76.8207 18.1394C74.766 18.1394 73.1425 18.9745 72.0074 20.616C71.993 20.6448 71.95 20.6592 71.9069 20.6592C71.8637 20.6592 71.835 20.6303 71.835 20.5873L71.3033 18.5281H70.4125L68.1281 19.8384V20.5583H68.7172C68.9901 20.5583 69.22 20.6303 69.3781 20.7745C69.5361 20.9184 69.6223 21.1344 69.6223 21.4367V30.5225C69.6223 30.7817 69.5361 30.9977 69.3781 31.1561C69.22 31.3144 69.0046 31.4009 68.7459 31.4009H68.1711V32.452H73.4297V31.4009H72.8551C72.5965 31.4009 72.3809 31.3144 72.2229 31.1561C72.0649 30.9977 71.9786 30.7817 71.9786 30.5225V24.5038C71.9786 23.7406 72.1511 22.9775 72.4672 22.2286C72.7976 21.4944 73.286 20.8752 73.9327 20.4C74.5792 19.9249 75.3551 19.6944 76.2459 19.6944C77.2516 19.6944 78.0132 20.0112 78.4872 20.6448C78.9614 21.2784 79.2057 22.0991 79.2057 23.0782V30.5082C79.2057 30.7672 79.1194 30.9832 78.9614 31.1417C78.8034 31.3001 78.5879 31.3864 78.3292 31.3864H77.7546V32.4375H83.0132V31.3864H82.4385C82.223 31.4153 82.0218 31.3289 81.8494 31.1704ZM129.894 14.019C128.44 13.245 126.815 12.8437 125.063 12.8437H118.222V13.89H118.892C119.149 13.89 119.377 13.9904 119.605 14.2197C119.818 14.4347 119.932 14.6784 119.932 14.9363V30.3593C119.932 30.6173 119.818 30.861 119.605 31.076C119.391 31.2909 119.149 31.4056 118.892 31.4056H118.222V32.452H125.063C126.815 32.452 128.44 32.0507 129.894 31.2766C131.347 30.5026 132.53 29.3559 133.385 27.894C134.24 26.432 134.682 24.6689 134.682 22.6622C134.682 20.6555 134.24 18.9068 133.385 17.4305C132.516 15.9398 131.347 14.8074 129.894 14.019ZM131.931 22.6335C131.931 24.4683 131.604 26.0162 130.962 27.2632C130.321 28.5103 129.466 29.4419 128.411 30.044C127.357 30.646 126.188 30.947 124.934 30.947H123.552C123.295 30.947 123.067 30.8467 122.839 30.6173C122.626 30.4023 122.512 30.1587 122.512 29.9006V15.3521C122.512 15.0941 122.611 14.8648 122.839 14.6354C123.053 14.4204 123.295 14.3057 123.552 14.3057H124.934C126.188 14.3057 127.357 14.6067 128.411 15.2087C129.466 15.8107 130.321 16.7425 130.962 17.9894C131.604 19.2507 131.931 20.8131 131.931 22.6335ZM150.851 23.6799C150.218 22.9488 148.997 22.3325 147.562 22.0028C149.544 21.0138 150.563 19.6234 150.563 17.8318C150.563 16.8571 150.305 15.9827 149.787 15.2373C149.271 14.4921 148.538 13.89 147.605 13.4744C146.67 13.0587 145.578 12.8437 144.343 12.8437H136.6V13.89H137.218C137.476 13.89 137.706 13.9904 137.936 14.2197C138.151 14.4347 138.266 14.6784 138.266 14.9363V30.3593C138.266 30.6173 138.151 30.861 137.936 31.076C137.72 31.2909 137.476 31.4056 137.218 31.4056H136.542V32.452H144.947C146.225 32.452 147.417 32.237 148.495 31.8069C149.573 31.377 150.434 30.7463 151.053 29.9149C151.684 29.0837 152 28.0659 152 26.8905C151.986 25.6292 151.612 24.5541 150.851 23.6799ZM141.211 30.6316C140.996 30.4166 140.881 30.173 140.881 29.9149V22.9918H144.875C146.282 22.9918 147.36 23.3502 148.107 24.0668C148.854 24.7836 149.228 25.7152 149.228 26.8619C149.228 27.5499 149.054 28.2236 148.74 28.8399C148.409 29.4707 147.919 29.9723 147.26 30.3593C146.613 30.7464 145.808 30.947 144.875 30.947H141.93C141.671 30.947 141.441 30.8467 141.211 30.6316ZM140.895 21.5154V15.3664C140.895 15.1084 140.996 14.8791 141.226 14.6497C141.441 14.4347 141.685 14.32 141.944 14.32H143.84C145.204 14.32 146.211 14.6641 146.843 15.3234C147.474 15.9971 147.791 16.8571 147.791 17.9178C147.791 19.0071 147.489 19.8815 146.9 20.5407C146.311 21.1858 145.42 21.5154 144.243 21.5154H140.895ZM61.8304 19.0537C60.7326 18.4537 59.5066 18.1394 58.1808 18.1394C56.8899 18.1394 55.68 18.4238 54.6171 19.0058L54.5312 19.0537C53.4334 19.6535 52.5638 20.5249 51.9223 21.6248C51.2808 22.7247 50.9529 24.0104 50.9529 25.4388C50.9529 26.8672 51.2808 28.1529 51.9223 29.2528C52.5638 30.3528 53.4334 31.2241 54.5312 31.8241C55.629 32.4239 56.855 32.7382 58.1808 32.7382C59.4717 32.7382 60.6816 32.4538 61.7445 31.8719L61.8304 31.8241C62.9281 31.2241 63.7978 30.3528 64.4393 29.2528C65.0808 28.1529 65.4087 26.8672 65.4087 25.4388C65.4087 24.0104 65.0808 22.7247 64.4393 21.6248C63.7978 20.5249 62.9281 19.6535 61.8304 19.0537ZM62.8854 25.4388C62.8854 27.1958 62.4577 28.6242 61.6022 29.6527C60.7612 30.6812 59.6065 31.2098 58.1808 31.2098C56.7807 31.2098 55.6417 30.6999 54.8047 29.7073L54.7594 29.6527C53.9039 28.6242 53.4762 27.1958 53.4762 25.4388C53.4762 23.7137 53.8885 22.3054 54.7131 21.2814L54.7594 21.2249C55.6004 20.1964 56.7553 19.6678 58.1808 19.6678C59.6065 19.6678 60.7612 20.1964 61.6022 21.2249C62.4577 22.2534 62.8854 23.6818 62.8854 25.4388ZM112.354 19.0537C111.256 18.4537 110.03 18.1394 108.704 18.1394C107.413 18.1394 106.204 18.4238 105.141 19.0058L105.055 19.0537C103.957 19.6535 103.087 20.5249 102.446 21.6248C101.804 22.7247 101.476 24.0104 101.476 25.4388C101.476 26.8672 101.804 28.1529 102.446 29.2528C103.087 30.3528 103.957 31.2241 105.055 31.8241C106.153 32.4239 107.379 32.7382 108.704 32.7382C109.995 32.7382 111.205 32.4538 112.268 31.8719L112.354 31.8241C113.452 31.2241 114.321 30.3528 114.963 29.2528C115.604 28.1529 115.932 26.8672 115.932 25.4388C115.932 24.0104 115.604 22.7247 114.963 21.6248C114.321 20.5249 113.437 19.6535 112.354 19.0537ZM113.409 25.4388C113.409 27.1958 112.981 28.6242 112.126 29.6527C111.285 30.6812 110.13 31.2098 108.704 31.2098C107.304 31.2098 106.165 30.6999 105.328 29.7073L105.283 29.6527C104.427 28.6242 104 27.1958 104 25.4388C104 23.6997 104.412 22.3049 105.237 21.2814L105.283 21.2249C106.124 20.1964 107.279 19.6678 108.704 19.6678C110.13 19.6678 111.285 20.1964 112.126 21.2249C112.967 22.2534 113.409 23.6818 113.409 25.4388ZM91.9786 18.1394C90.8299 18.1394 89.7819 18.3833 88.8343 18.8712C87.8866 19.3591 87.1401 20.0193 86.6088 20.8659C86.0777 21.6982 85.8049 22.6311 85.8049 23.6212C85.8049 24.5109 86.0058 25.3289 86.4222 26.0608C86.8242 26.764 87.3698 27.3523 88.059 27.8402L86.0058 30.6243C85.7473 30.9686 85.7187 31.4278 85.9053 31.8009C86.1063 32.1883 86.4796 32.4181 86.9104 32.4181H87.499C86.9486 32.7894 86.5037 33.2265 86.1896 33.7422L86.1494 33.81C85.7761 34.427 85.5895 35.0728 85.5895 35.7329C85.5895 36.945 86.1157 37.9495 87.1546 38.7055L87.2118 38.7465C88.2744 39.5071 89.7674 39.8945 91.6483 39.8945C92.9549 39.8945 94.2039 39.6793 95.3382 39.2631C96.454 38.8589 97.3665 38.2649 98.0495 37.4948L98.1091 37.4263C98.8127 36.6227 99.1717 35.6468 99.1717 34.5275C99.1717 33.3508 98.7409 32.5184 97.7359 31.7149C96.8745 31.0403 95.5248 30.6817 93.845 30.6817H88.102C88.0934 30.6817 88.0848 30.6765 88.0793 30.6723L88.0733 30.6672L88.0708 30.6612C88.0674 30.652 88.063 30.6345 88.0733 30.6243L89.5665 28.6152C89.9685 28.8017 90.3418 28.9165 90.672 28.9882C91.0165 29.06 91.4042 29.0887 91.8349 29.0887C93.041 29.0887 94.1322 28.8448 95.0797 28.3569C96.0274 27.8689 96.7884 27.2088 97.334 26.3621C97.8794 25.5298 98.1522 24.5971 98.1522 23.6069C98.1522 22.5449 97.6354 20.6076 96.2283 19.6174C96.2283 19.6088 96.2335 19.6054 96.2377 19.604L96.2428 19.6031L99.3296 19.9475V18.5268H94.3906C93.6152 18.2829 92.8113 18.1394 91.9786 18.1394ZM93.7014 27.1227C93.1558 27.4096 92.5671 27.5675 91.9786 27.5675C91.0167 27.5675 90.1695 27.2232 89.4516 26.5487C88.7338 25.8742 88.3748 24.884 88.3748 23.6212C88.3748 22.3584 88.7338 21.3682 89.4516 20.6937C90.1695 20.0193 91.0167 19.6748 91.9786 19.6748C92.5565 19.6748 93.1079 19.8067 93.6331 20.0828L93.7014 20.1197C94.247 20.4068 94.6921 20.8516 95.0511 21.44C95.3956 22.0284 95.5822 22.7602 95.5822 23.6212C95.5822 24.4966 95.4099 25.2284 95.0511 25.8025C94.7065 26.3909 94.247 26.8357 93.7014 27.1227ZM89.8105 32.4036H93.7014C94.7783 32.4036 95.4674 32.6189 95.9269 33.0782C96.3863 33.5373 96.616 34.1543 96.616 34.872C96.616 35.9195 96.1997 36.7805 95.367 37.4263C94.5341 38.0721 93.4143 38.4022 92.036 38.4022C90.8299 38.4022 89.8249 38.1295 89.0926 37.6128C88.3604 37.0963 87.9871 36.3069 87.9871 35.3025C87.9871 34.671 88.1594 34.0826 88.5041 33.5661C88.8486 33.0494 89.2649 32.6763 89.8105 32.4036Z" fill="#F4F7FB"/>
</svg>
