<svg width="80" height="82" viewBox="0 0 80 82" fill="none" xmlns="http://www.w3.org/2000/svg">
<path fill-rule="evenodd" clip-rule="evenodd" d="M67.4286 53.7613C67.7666 53.5748 68.0476 53.3062 68.2434 52.9823C68.4392 52.6585 68.5429 52.2909 68.5442 51.9163L68.5842 39.5587C68.5854 39.1841 68.6891 38.8165 68.8849 38.4927C69.0808 38.1688 69.3617 37.9002 69.6997 37.7137L76.6708 33.8656C77.0087 33.6792 77.3916 33.5814 77.7813 33.582C78.1709 33.5826 78.5535 33.6817 78.8907 33.8692C79.2279 34.0568 79.5079 34.3262 79.7025 34.6505C79.8972 34.9749 79.9997 35.3427 79.9997 35.7171V58.1838C79.9997 58.5594 79.8965 58.9283 79.7006 59.2534C79.5048 59.5785 79.2232 59.8481 78.8842 60.0352L52.5753 74.556C52.2393 74.7414 51.8586 74.8391 51.4711 74.8395C51.0837 74.8399 50.7028 74.7429 50.3664 74.5582L29.7197 63.2105C29.3796 63.0239 29.0969 62.7541 28.9002 62.4286C28.7035 62.1031 28.5999 61.7334 28.5997 61.357V50.0286C28.5997 50.0158 28.6153 50.0073 28.6286 50.0137C28.6397 50.0201 28.6553 50.0137 28.6553 49.9987V49.9859C28.6553 49.9774 28.6597 49.9688 28.6686 49.9646L45.6731 40.5773C45.6886 40.5687 45.682 40.5452 45.6642 40.5452C45.6595 40.5452 45.6549 40.5434 45.6516 40.5402C45.6483 40.537 45.6464 40.5327 45.6464 40.5281L45.6797 29.4218C45.6813 29.0463 45.5797 28.677 45.3853 28.3512C45.1909 28.0254 44.9105 27.7546 44.5725 27.5661C44.2344 27.3777 43.8506 27.2783 43.4597 27.2779C43.0689 27.2776 42.6849 27.3762 42.3464 27.564L29.7086 34.5618C29.3713 34.7484 28.9889 34.8467 28.5997 34.8467C28.2105 34.8467 27.8281 34.7484 27.4908 34.5618L14.8131 27.5469C14.4753 27.3601 14.0923 27.2618 13.7026 27.2621C13.3128 27.2624 12.93 27.3611 12.5925 27.5485C12.2551 27.7358 11.9748 28.0052 11.7799 28.3295C11.5849 28.6538 11.4822 29.0217 11.482 29.3962V49.4691C11.4822 49.8433 11.3802 50.2109 11.1861 50.5352C10.992 50.8595 10.7126 51.1292 10.3759 51.3171C10.0393 51.505 9.65714 51.6046 9.2678 51.606C8.87846 51.6073 8.49559 51.5104 8.15751 51.3248L1.12196 47.4597C0.781181 47.2727 0.498034 47.0022 0.301309 46.6759C0.104583 46.3496 0.00129823 45.979 0.00195625 45.6019L0.0641785 10.517C0.0650253 10.143 0.168094 9.77571 0.363068 9.45199C0.558043 9.12826 0.838083 8.85943 1.17516 8.67239C1.51224 8.48535 1.89453 8.38668 2.28376 8.38623C2.673 8.38579 3.05553 8.4836 3.39307 8.66987L27.4931 21.9714C27.8298 22.1572 28.2114 22.255 28.5997 22.255C28.9881 22.255 29.3696 22.1572 29.7064 21.9714L53.7997 8.66987C54.1378 8.48333 54.5209 8.38551 54.9107 8.38624C55.3005 8.38696 55.6833 8.4862 56.0205 8.674C56.3578 8.86179 56.6377 9.13154 56.8322 9.45615C57.0267 9.78077 57.1289 10.1488 57.1286 10.5234V45.6168C57.1288 45.9923 57.0259 46.3611 56.8305 46.6861C56.635 47.0111 56.3538 47.2809 56.0153 47.4683L43.3975 54.4511C43.0586 54.6388 42.7773 54.9092 42.5819 55.2349C42.3866 55.5606 42.2842 55.9301 42.2851 56.306C42.286 56.6819 42.3902 57.051 42.5871 57.3758C42.784 57.7006 43.0666 57.9698 43.4064 58.156L50.3664 61.9635C50.7028 62.1475 51.0833 62.2439 51.4703 62.2431C51.8574 62.2424 52.2375 62.1445 52.5731 61.9592L67.4286 53.7613ZM68.8886 22.281C68.8889 22.6587 68.9935 23.0295 69.1915 23.3556C69.3896 23.6818 69.6742 23.9516 70.0162 24.1377C70.3582 24.3237 70.7454 24.4193 71.1384 24.4146C71.5313 24.4099 71.916 24.3052 72.2531 24.1111L78.9197 20.2673C79.2488 20.0778 79.5213 19.8097 79.7105 19.489C79.8998 19.1683 79.9994 18.8059 79.9997 18.4373V10.6046C79.999 10.2271 79.8942 9.85656 79.696 9.53069C79.4977 9.20482 79.2132 8.93527 78.8712 8.7495C78.5293 8.56372 78.1422 8.46836 77.7494 8.47313C77.3567 8.4779 76.9722 8.58262 76.6353 8.77664L69.9686 12.6204C69.6395 12.8099 69.3671 13.078 69.1778 13.3987C68.9886 13.7194 68.8889 14.0818 68.8886 14.4504V22.2831V22.281Z" fill="white"/>
</svg>
