<svg width="81" height="80" viewBox="0 0 81 80" fill="none" xmlns="http://www.w3.org/2000/svg">
<path d="M47.6049 0.156738C47.0264 0.156738 46.4893 0.280703 45.9934 0.44598C47.0471 1.14842 47.6256 2.07813 47.9148 3.1318C47.9355 3.27642 47.9768 3.37972 47.9975 3.52434C48.0182 3.6483 48.0388 3.77226 48.0388 3.89622C48.1215 5.71431 47.5636 5.94157 47.1711 7.0159C46.5719 8.40013 46.7372 9.88766 47.4603 11.0859C47.5223 11.2306 47.6049 11.3958 47.7082 11.5405C46.9231 6.31345 51.2824 5.52837 52.0882 3.89622C52.1501 2.47067 50.9725 1.52031 50.0428 0.859181C49.1544 0.32202 48.3487 0.156738 47.6049 0.156738ZM54.1748 1.33437C54.0922 1.80955 54.1542 1.68559 54.1336 1.93351C54.1129 2.09879 54.1129 2.30539 54.0923 2.47067C54.051 2.63595 54.0096 2.80123 53.9476 2.96652C53.9064 3.1318 53.8443 3.29708 53.7824 3.46236C53.6997 3.62765 53.6377 3.77226 53.5551 3.93754C53.4931 4.02022 53.4518 4.10282 53.3898 4.18546C53.3485 4.24744 53.3071 4.30942 53.2659 4.3714C53.1626 4.51603 53.0593 4.66065 52.956 4.78461C52.832 4.90857 52.7287 5.05318 52.5841 5.15649C52.5841 5.17718 52.5841 5.17718 52.5841 5.17718C52.4601 5.28048 52.3361 5.40444 52.1915 5.50774C51.7577 5.8383 51.2618 6.08622 50.8073 6.39612C50.6627 6.49942 50.5181 6.58207 50.3941 6.70603C50.2495 6.80933 50.1255 6.91262 50.0016 7.03659C49.8569 7.16055 49.7536 7.28451 49.6297 7.42913C49.5264 7.5531 49.4024 7.69771 49.3198 7.84234C49.2165 7.98695 49.1132 8.13158 49.0305 8.27619C48.9479 8.44147 48.8859 8.5861 48.8033 8.75138C48.7413 8.91665 48.6793 9.06128 48.638 9.22656C48.576 9.4125 48.5347 9.57778 48.4934 9.74307C48.4727 9.82574 48.4727 9.929 48.4521 10.0116C48.4314 10.0943 48.4314 10.1769 48.4108 10.2596C48.4108 10.4248 48.3901 10.6108 48.3901 10.7761C48.3901 10.9 48.3901 11.024 48.4108 11.148C48.4108 11.3132 48.4315 11.4785 48.4728 11.6645C48.4935 11.8297 48.5347 11.995 48.5761 12.1603C48.6381 12.3256 48.6794 12.4909 48.7414 12.6561C48.7826 12.7594 48.8447 12.8627 48.886 12.9454L44.1341 11.1066C43.3284 10.8794 42.5433 10.6728 41.7376 10.4868C41.3037 10.3835 40.8699 10.2802 40.436 10.1769C39.1964 9.92901 37.9361 9.74307 36.6758 9.61911C36.6346 9.61911 36.6139 9.59842 36.5725 9.59842C35.3329 9.47446 34.114 9.41248 32.8744 9.41248C31.9653 9.41248 31.0563 9.45377 30.1679 9.51578C28.9076 9.59845 27.6474 9.7637 26.3871 9.9703C26.0772 10.0116 25.7673 10.0736 25.4574 10.1356C24.8169 10.2595 24.1971 10.4042 23.598 10.5488C23.2881 10.6315 22.9782 10.7141 22.6683 10.7967C22.3584 10.9207 22.0691 11.0653 21.7799 11.1892C21.5526 11.2925 21.3254 11.3958 21.0981 11.4992C21.0568 11.5198 21.0154 11.5198 20.9948 11.5404C20.7882 11.6437 20.6023 11.7264 20.4163 11.8297C20.3543 11.8504 20.313 11.871 20.2717 11.8917C20.0444 11.995 19.8172 12.1189 19.6312 12.2222C19.4866 12.2842 19.342 12.3668 19.218 12.4288C19.1561 12.4701 19.0734 12.5115 19.0321 12.5321C18.8462 12.6354 18.6602 12.7387 18.4949 12.842C18.309 12.9453 18.1437 13.0486 17.9991 13.1519C17.8545 13.2552 17.7098 13.3379 17.5859 13.4412C17.5652 13.4619 17.5446 13.4619 17.5239 13.4825C17.3999 13.5651 17.2553 13.6684 17.1314 13.7717C17.1314 13.7717 17.1107 13.7924 17.0901 13.813C16.9868 13.8957 16.8835 13.9783 16.7802 14.0609C16.7389 14.0816 16.6975 14.1229 16.6562 14.1436C16.5529 14.2263 16.4496 14.3295 16.3463 14.4122C16.3256 14.4535 16.2843 14.4741 16.2636 14.4948C16.1397 14.6188 16.0157 14.7221 15.8918 14.8461C15.8711 14.8461 15.8711 14.8667 15.8505 14.8873C15.7265 14.9906 15.6025 15.1146 15.4786 15.2386C15.4579 15.2593 15.4579 15.2799 15.4373 15.2799C15.334 15.3832 15.2307 15.4865 15.1274 15.6104C15.0861 15.6517 15.0241 15.6931 14.9828 15.7344C14.8795 15.8583 14.7555 15.9823 14.6316 16.1063C14.6109 16.1475 14.5696 16.1682 14.5489 16.2096C14.3836 16.3748 14.239 16.5401 14.0737 16.7054C14.053 16.7261 14.0324 16.7467 14.0117 16.7674C13.6812 17.1186 13.3299 17.4698 12.9581 17.7797C12.5862 18.1103 12.1936 18.4202 11.8011 18.6888C11.3879 18.978 10.9953 19.2259 10.5615 19.4739C10.1483 19.7011 9.71441 19.9077 9.25989 20.0937C8.82603 20.2796 8.37151 20.4449 7.91699 20.5895C7.04925 20.7754 6.16087 21.1267 5.39645 21.1886C5.23117 21.1886 5.04522 21.2299 4.87994 21.2506C4.694 21.2919 4.52872 21.3333 4.36345 21.3746C4.19817 21.4366 4.03288 21.4986 3.8676 21.5605C3.70232 21.6225 3.53704 21.7052 3.37176 21.7878C3.22714 21.8911 3.06186 21.9737 2.91723 22.077C2.77262 22.1803 2.62799 22.3043 2.50403 22.4283C2.35941 22.5316 2.21479 22.6762 2.09083 22.8001C1.96687 22.9448 1.8429 23.0687 1.73961 23.2133C1.63631 23.3786 1.51235 23.5232 1.4297 23.6885C1.3264 23.8332 1.22311 23.9984 1.14046 24.1637C1.05779 24.3497 0.975182 24.5149 0.913201 24.7009C0.85122 24.8662 0.789239 25.0521 0.727259 25.238C0.685971 25.4033 0.644585 25.5686 0.623961 25.7339C0.623961 25.7546 0.603269 25.7752 0.603269 25.7959C0.56198 25.9818 0.56198 26.2297 0.541288 26.3537C0.520596 26.4983 0.5 26.6223 0.5 26.7669C0.5 26.8496 0.5 26.9528 0.520692 27.0355C0.541384 27.1801 0.56198 27.3041 0.603365 27.428C0.644653 27.552 0.686039 27.6759 0.747981 27.7999C0.747981 27.8206 0.747981 27.8206 0.747981 27.8206C0.809962 27.9446 0.892606 28.0685 0.975241 28.1925C1.05791 28.3164 1.14053 28.4404 1.24383 28.5644C1.34713 28.6677 1.47109 28.7916 1.59505 28.8949C1.71901 29.0189 1.84297 29.1222 1.98759 29.2255C2.48343 29.6593 2.6074 29.804 3.24786 30.1345C3.35116 30.1965 3.45446 30.2378 3.57843 30.2998C3.59912 30.2998 3.61971 30.3205 3.64041 30.3205C3.64041 30.3618 3.64041 30.3825 3.6611 30.4238C3.68179 30.5891 3.72308 30.7544 3.7644 30.9196C3.80569 31.1056 3.86771 31.2709 3.92969 31.4155C3.99167 31.5394 4.03299 31.6634 4.09497 31.7874C4.11566 31.8287 4.13626 31.87 4.15695 31.8907C4.23962 32.0559 4.32223 32.2006 4.40486 32.3452C4.50817 32.4898 4.61147 32.6344 4.71477 32.7791C4.81806 32.903 4.94203 33.0476 5.06599 33.1716C5.18995 33.2956 5.31391 33.3989 5.45854 33.5228C5.45854 33.5228 5.47923 33.5435 5.49982 33.5435C5.62379 33.6468 5.74775 33.7501 5.87171 33.8328C6.01632 33.9361 6.16095 34.0187 6.32623 34.1013C6.47085 34.184 6.63613 34.2666 6.80141 34.3286C6.92537 34.3906 7.06999 34.4319 7.21461 34.4732C7.23531 34.4939 7.2559 34.494 7.29729 34.5145C7.37996 34.5352 7.48322 34.5558 7.56586 34.5765C7.50388 35.6921 7.48319 36.7458 7.64854 37.1177C7.83447 37.5309 8.74352 36.2706 9.65257 34.8244C9.52861 36.25 9.44596 37.9234 9.65257 38.4193C9.87983 38.9358 11.1194 37.3243 12.1938 35.5475C26.8418 32.1593 40.2089 42.2827 41.6138 56.5795C41.3452 54.3482 38.5974 53.1086 37.3371 53.4185C36.7173 54.9474 35.6637 56.9101 33.9695 58.129C34.1142 56.7655 34.0522 55.3606 33.7629 53.997C33.3084 55.8977 32.42 57.6745 31.2011 59.2034C29.2384 59.348 27.2756 58.3976 26.2426 56.9721C26.16 56.9101 26.1393 56.7861 26.0774 56.7035C26.0154 56.5589 25.9534 56.4143 25.9121 56.2696C25.8501 56.125 25.8088 55.9804 25.7881 55.8358C25.7674 55.6911 25.7674 55.5465 25.7674 55.3812C25.7674 55.2779 25.7674 55.1746 25.7674 55.0714C25.7881 54.9267 25.8294 54.7821 25.8707 54.6375C25.912 54.4929 25.9534 54.3482 26.0153 54.2036C26.098 54.059 26.16 53.9144 26.2633 53.7698C26.6145 52.7781 26.6145 51.9723 25.974 51.4971C25.8501 51.4145 25.7261 51.3525 25.5815 51.2905C25.4988 51.2698 25.3955 51.2286 25.3129 51.2079C25.2509 51.1872 25.2096 51.1666 25.1476 51.1459C25.003 51.1046 24.8584 51.0632 24.7138 51.0426C24.5691 51.0013 24.4245 50.9806 24.2799 50.9806C24.1353 50.9599 23.97 50.9393 23.8254 50.9393C23.7221 50.9393 23.6188 50.96 23.5155 50.96C23.3502 50.96 23.2056 50.9807 23.0609 51.022C22.9163 51.0427 22.7717 51.0633 22.6271 51.1046C22.4825 51.1459 22.3378 51.1873 22.1932 51.2493C22.0486 51.3113 21.9246 51.3732 21.78 51.4352C21.6561 51.4972 21.5321 51.5798 21.3875 51.6418C16.5737 54.7822 19.4454 62.1372 22.7304 64.2652C21.4908 64.4924 20.2305 64.761 19.8793 65.0296C19.8586 65.0503 19.838 65.0709 19.838 65.0709C20.7264 65.608 21.6561 66.0625 22.6271 66.4551C23.9494 66.8889 25.3542 67.2815 25.9741 67.4468V67.4675C27.6888 67.8187 29.4243 67.9426 31.1804 67.8394C40.3328 67.1989 47.8325 60.2364 49.196 51.0633C49.2373 51.2493 49.2787 51.4145 49.32 51.6005C49.382 51.9724 49.4646 52.3649 49.5059 52.7575C49.5059 52.7575 49.5059 52.7575 49.5059 52.7782C49.5472 52.9641 49.5679 53.1501 49.5886 53.3153C49.5886 53.3566 49.5886 53.3773 49.5886 53.398C49.6093 53.584 49.6299 53.7699 49.6299 53.9352C49.6506 54.1624 49.6712 54.3897 49.6712 54.617C49.6712 54.7203 49.6712 54.8236 49.6712 54.9475C49.6712 55.0508 49.6919 55.1748 49.6919 55.2781C49.6919 55.4021 49.6712 55.526 49.6712 55.65C49.6712 55.7533 49.6712 55.8566 49.6712 55.9392C49.6712 56.0838 49.6505 56.2078 49.6505 56.3524C49.6505 56.4351 49.6505 56.5177 49.6298 56.621C49.6298 56.7656 49.6091 56.9102 49.6091 57.0755C49.5884 57.1375 49.5884 57.1995 49.5884 57.2615C49.5677 57.4267 49.5471 57.5714 49.5264 57.7366C49.5264 57.7986 49.5264 57.8606 49.5057 57.9226C49.485 58.1292 49.4437 58.3151 49.423 58.5217V58.5424V58.5631C49.3818 58.7491 49.3404 58.9557 49.2991 59.1416C49.2991 59.1623 49.2991 59.1829 49.2991 59.2036C49.2578 59.3895 49.2164 59.5755 49.1751 59.7614C49.1751 59.7821 49.1544 59.8234 49.1544 59.8441C49.1131 60.03 49.0718 60.216 49.0098 60.4019C49.0098 60.4226 49.0098 60.4432 49.0098 60.4639C48.9478 60.6705 48.8859 60.8564 48.8445 61.0424C48.8238 61.063 48.8238 61.0837 48.8238 61.0837C48.7619 61.2903 48.6999 61.4969 48.6379 61.7035C48.5552 61.9101 48.4933 62.096 48.4107 62.3026C48.328 62.5092 48.266 62.7158 48.1834 62.9017C48.1007 63.1084 48.0181 63.2943 47.9355 63.5009H47.9147C47.8321 63.6868 47.7495 63.8934 47.6462 64.0794C47.6255 64.1414 47.6049 64.1827 47.5842 64.224C47.5635 64.2447 47.5635 64.2653 47.5429 64.286C46.2 66.9924 44.2166 69.3684 41.7374 71.2278C41.5721 71.3311 41.4068 71.455 41.2416 71.579C41.2003 71.6203 41.1383 71.641 41.0969 71.6823C40.9523 71.7856 40.8077 71.8889 40.6424 71.9922L40.7044 72.1162H40.7251C41.0143 72.0749 41.3036 72.0335 41.5928 71.9922H41.6135C42.1507 71.9095 42.6878 71.8063 43.225 71.703C43.3696 71.6822 43.5349 71.641 43.6795 71.5996C43.7828 71.5789 43.8654 71.5584 43.9687 71.5377C44.1134 71.517 44.258 71.4757 44.4026 71.455C44.5266 71.4137 44.6505 71.393 44.7745 71.3517C46.8405 70.8559 48.8445 70.1741 50.7659 69.3683C47.481 73.8516 43.0804 77.4671 37.936 79.843C40.3119 79.6777 42.6878 79.2852 44.9811 78.6241C53.3071 76.1655 60.3109 70.5666 64.5049 63.0257C63.6578 67.7982 61.7571 72.3434 58.9473 76.3101C60.9514 74.9879 62.7901 73.459 64.4636 71.7236C69.0915 66.8891 72.1285 60.7531 73.1615 54.1625C73.8639 57.4268 74.0705 60.7944 73.7606 64.1207C88.6773 43.3159 75.0003 21.7467 69.2774 16.0652C69.2567 16.0239 69.2361 16.0032 69.2361 15.9619C69.2154 15.9826 69.2154 15.9826 69.2154 16.0032C69.2154 15.9825 69.2154 15.9825 69.1947 15.9619C69.1947 16.2098 69.174 16.4578 69.1534 16.7057C69.0914 17.1809 69.0295 17.6354 68.9468 18.0899C68.8435 18.5444 68.7196 18.9989 68.5956 19.4535C68.451 19.8873 68.2857 20.3419 68.0998 20.7757C67.9138 21.1889 67.7072 21.6228 67.4799 22.036C67.2527 22.4285 67.0048 22.8417 66.7362 23.2136C66.4676 23.6062 66.1784 23.978 65.8891 24.3293C65.5792 24.7011 65.2487 25.0317 64.9181 25.3623C64.7115 25.5482 64.5256 25.7135 64.3189 25.8788C64.1537 26.0234 64.009 26.1474 63.8438 26.292C63.4719 26.5812 63.1 26.8498 62.6868 27.0977C62.2943 27.3456 61.8811 27.5936 61.4679 27.8002C61.034 28.0068 60.6001 28.1927 60.1663 28.3786C59.7324 28.5439 59.2779 28.6885 58.8233 28.8125C58.3688 28.9365 57.8937 29.0398 57.4391 29.1224C56.964 29.2051 56.4888 29.2464 56.0342 29.2877C55.7037 29.3084 55.3731 29.329 55.0426 29.329C54.5674 29.329 54.0922 29.2877 53.6377 29.2463C53.1625 29.205 52.6873 29.143 52.2328 29.0397C51.7576 28.957 51.3031 28.8331 50.8485 28.6885H50.8279C51.2824 28.6472 51.7369 28.6058 52.1914 28.5232C52.6666 28.4405 53.1211 28.3373 53.5757 28.2133C54.0302 28.0893 54.4847 27.9447 54.9186 27.7794C55.3731 27.6141 55.807 27.4076 56.2202 27.2009C56.654 26.9943 57.0466 26.7671 57.4598 26.5192C57.8523 26.2506 58.2448 25.982 58.6167 25.6928C58.9886 25.4035 59.3398 25.0936 59.6704 24.7631C60.0216 24.4531 60.3315 24.1019 60.6414 23.7507C60.9513 23.3788 61.2406 23.0069 61.5091 22.6351C61.5504 22.5731 61.5918 22.4904 61.6331 22.4285C61.8397 22.0979 62.0463 21.7673 62.2322 21.4368C62.4595 21.0236 62.6661 20.6104 62.8521 20.1765C63.038 19.7426 63.2033 19.3088 63.3479 18.8543C63.4925 18.4204 63.5958 17.9659 63.6991 17.5114C63.7818 17.0362 63.8644 16.5816 63.9057 16.1271C63.947 15.6519 63.9884 15.1768 63.9884 14.7222C63.9884 14.3917 63.9677 14.0611 63.9471 13.7306C63.9058 13.2554 63.8438 12.8008 63.7818 12.3463C63.6992 11.8711 63.5959 11.4166 63.4719 10.9621C63.3273 10.5282 63.1827 10.0737 63.0174 9.63985C62.8521 9.20599 62.6455 8.77212 62.4389 8.35892C62.2117 7.94571 61.9844 7.53251 61.7365 7.13998C61.4679 6.74744 61.1993 6.37555 60.9101 6.00367C60.6002 5.65244 60.2903 5.30122 59.9597 4.95C59.7944 4.78472 59.6085 4.59878 59.4225 4.4335C58.4928 3.71039 57.5218 3.02861 56.5508 2.40881C56.4062 2.32614 56.2822 2.26418 56.1376 2.2022C55.4558 1.76834 54.8153 1.54108 54.1749 1.33448L54.1748 1.33437Z" fill="#F4F7FB"/>
</svg>
