<svg width="180" height="38" viewBox="0 0 180 38" fill="none" xmlns="http://www.w3.org/2000/svg">
<path d="M151.011 0.870578V6.6575H138.574V37.1017H132.355V6.6575H119.658V0.870578H151.011ZM152.409 33.6501C152.847 33.6501 153.231 33.8079 153.555 34.1234C153.884 34.439 154.048 34.8169 154.053 35.257C154.048 35.5559 153.972 35.8299 153.82 36.0749C153.665 36.3241 153.467 36.5192 153.218 36.6604C152.973 36.8057 152.704 36.8804 152.409 36.8804C151.954 36.8804 151.566 36.7227 151.242 36.4071C150.918 36.0916 150.757 35.7095 150.761 35.257C150.757 34.8169 150.918 34.439 151.242 34.1234C151.566 33.8079 151.954 33.6501 152.409 33.6501ZM29.1503 37.1017L6.21873 8.59985V37.0866H0V0.855469H7.7734L36.7442 36.8303L36.7421 0.870578H68.0948V6.6575H42.9634V15.9669H63.1741V21.7538H42.9634V31.3148H68.0948V37.1017H29.1503ZM88.0259 21.6984L92.1015 26.7658L83.7503 37.1445H75.5886L88.0259 21.6984ZM83.7503 0.885689L94.2725 13.9533L104.762 0.925908L112.901 0.913331L98.3472 19.0137L112.924 37.1168H104.762L75.6119 0.885689H83.7503ZM163.023 21.6173H165.779V32.2342C165.775 33.21 165.564 34.0445 165.151 34.7463C164.734 35.448 164.157 35.9835 163.415 36.3614C162.678 36.735 161.814 36.9261 160.832 36.9261C159.935 36.9261 159.13 36.7641 158.414 36.4486C157.697 36.133 157.129 35.6597 156.711 35.0369C156.29 34.4141 156.083 33.6376 156.083 32.7076H158.844C158.848 33.1145 158.94 33.4674 159.117 33.7622C159.294 34.057 159.538 34.2811 159.851 34.4389C160.166 34.5967 160.529 34.6756 160.937 34.6756C161.38 34.6756 161.759 34.5843 162.067 34.3974C162.374 34.2147 162.61 33.9407 162.775 33.5753C162.935 33.2141 163.019 32.7657 163.023 32.2342V21.6173ZM177.118 25.7694C177.051 25.1258 176.755 24.6234 176.241 24.2663C175.723 23.9051 175.053 23.7266 174.231 23.7266C173.654 23.7266 173.157 23.8138 172.744 23.984C172.331 24.1584 172.011 24.3909 171.792 24.6857C171.573 24.9805 171.463 25.3168 171.455 25.6947C171.455 26.0102 171.53 26.2843 171.678 26.5126C171.826 26.7451 172.023 26.9403 172.281 27.0981C172.533 27.26 172.816 27.3929 173.123 27.5008C173.435 27.6088 173.747 27.7001 174.059 27.7749L175.495 28.1278C176.073 28.2607 176.633 28.4392 177.168 28.6676C177.703 28.8918 178.188 29.1783 178.613 29.5229C179.039 29.8675 179.376 30.2827 179.625 30.7685C179.873 31.2543 180 31.8231 180 32.4792C180 33.3636 179.772 34.14 179.313 34.8126C178.854 35.4811 178.192 36.0043 177.324 36.3822C176.46 36.7559 175.415 36.9468 174.185 36.9468C172.997 36.9468 171.96 36.7642 171.088 36.3988C170.212 36.0376 169.529 35.5061 169.036 34.8085C168.543 34.111 168.278 33.2598 168.24 32.2591H170.97C171.008 32.7823 171.177 33.2183 171.463 33.5712C171.754 33.92 172.133 34.1774 172.597 34.3518C173.065 34.522 173.587 34.6092 174.164 34.6092C174.767 34.6092 175.298 34.5178 175.757 34.3393C176.212 34.1608 176.57 33.9117 176.827 33.5878C177.088 33.2681 177.219 32.8903 177.223 32.4584C177.219 32.064 177.101 31.7359 176.873 31.4785C176.642 31.2211 176.321 31.0052 175.913 30.8308C175.5 30.6564 175.019 30.4986 174.472 30.3616L172.727 29.9215C171.467 29.6018 170.469 29.116 169.74 28.4641C169.007 27.8122 168.644 26.9486 168.644 25.8649C168.644 24.9764 168.888 24.1958 169.382 23.5273C169.87 22.8588 170.54 22.3398 171.387 21.9702C172.239 21.5966 173.199 21.4138 174.269 21.4138C175.357 21.4138 176.309 21.5966 177.131 21.9702C177.952 22.3398 178.597 22.8547 179.064 23.5107C179.532 24.1667 179.777 24.9182 179.789 25.7694H177.118Z" fill="#F4F7FB"/>
</svg>
