<svg width="105" height="64" viewBox="0 0 105 64" fill="none" xmlns="http://www.w3.org/2000/svg">
<path d="M51.6858 63.8417C51.3332 63.8417 51.0041 63.7477 50.6985 63.5832L47.5719 61.726C47.1017 61.4674 47.3368 61.3734 47.4778 61.3264C48.1126 61.1148 48.2301 61.0678 48.8883 60.6917C48.9589 60.6446 49.0529 60.6681 49.1234 60.7152L51.5212 62.1492C51.6153 62.1962 51.7328 62.1962 51.8033 62.1492L61.1831 56.7188C61.2771 56.6718 61.3241 56.5777 61.3241 56.4602V45.6229C61.3241 45.5054 61.2771 45.4114 61.1831 45.3643L51.8033 39.9575C51.7093 39.9105 51.5918 39.9105 51.5212 39.9575L42.1415 45.3643C42.0475 45.4114 42.0005 45.5289 42.0005 45.6229V56.4602C42.0005 56.5542 42.0475 56.6718 42.1415 56.7188L44.7039 58.1998C46.0909 58.905 46.9607 58.0823 46.9607 57.2595V46.5633C46.9607 46.4222 47.0782 46.2812 47.2428 46.2812H48.4417C48.5827 46.2812 48.7238 46.3987 48.7238 46.5633V57.2595C48.7238 59.1166 47.7129 60.198 45.9498 60.198C45.4091 60.198 44.986 60.198 43.7871 59.6103L41.3187 58.1998C40.7075 57.8472 40.3314 57.1889 40.3314 56.4837V45.6464C40.3314 44.9412 40.7075 44.283 41.3187 43.9304L50.6985 38.5C51.2862 38.1709 52.0854 38.1709 52.6731 38.5L62.0529 43.9304C62.6641 44.283 63.0402 44.9412 63.0402 45.6464V56.4837C63.0402 57.1889 62.6641 57.8472 62.0529 58.1998L52.6731 63.6302C52.3675 63.7712 52.0149 63.8417 51.6858 63.8417ZM54.5773 56.3897C50.4634 56.3897 49.6171 54.509 49.6171 52.9105C49.6171 52.7694 49.7346 52.6284 49.8992 52.6284H51.1216C51.2627 52.6284 51.3802 52.7224 51.3802 52.8634C51.5683 54.1094 52.1089 54.7206 54.6008 54.7206C56.5755 54.7206 57.4218 54.2739 57.4218 53.2161C57.4218 52.6049 57.1867 52.1582 54.1071 51.8526C51.5448 51.594 49.9462 51.0298 49.9462 48.9846C49.9462 47.0804 51.5448 45.9521 54.2247 45.9521C57.2337 45.9521 58.7147 46.9864 58.9028 49.2432C58.9028 49.3137 58.8793 49.3842 58.8323 49.4548C58.7853 49.5018 58.7147 49.5488 58.6442 49.5488H57.4218C57.3042 49.5488 57.1867 49.4548 57.1632 49.3372C56.8811 48.0443 56.1524 47.6211 54.2247 47.6211C52.0619 47.6211 51.8033 48.3734 51.8033 48.9376C51.8033 49.6193 52.1089 49.8309 55.024 50.207C57.9155 50.5832 59.2789 51.1238 59.2789 53.1455C59.2554 55.2143 57.5628 56.3897 54.5773 56.3897Z" fill="#F4F7FB"/>
<path d="M22.5827 21.4566C22.5827 21.0334 22.3476 20.6338 21.9715 20.4222L12.0041 14.6862C11.8395 14.5922 11.6514 14.5452 11.4634 14.5217H11.3693C11.1813 14.5217 10.9932 14.5922 10.8287 14.6862L0.861212 20.4222C0.485081 20.6338 0.25 21.0334 0.25 21.4566L0.273508 36.8779C0.273508 37.0895 0.391049 37.3011 0.579114 37.3951C0.767179 37.5126 1.00226 37.5126 1.16682 37.3951L7.09087 34.0099C7.467 33.7983 7.70208 33.3987 7.70208 32.9756V25.7586C7.70208 25.3354 7.93716 24.9358 8.31329 24.7242L10.8287 23.2667C11.0167 23.1492 11.2283 23.1021 11.4399 23.1021C11.6514 23.1021 11.863 23.1492 12.0276 23.2667L14.5429 24.7242C14.9191 24.9358 15.1542 25.3354 15.1542 25.7586V32.9756C15.1542 33.3987 15.3892 33.7983 15.7654 34.0099L21.6894 37.3951C21.8775 37.5126 22.1126 37.5126 22.3006 37.3951C22.4887 37.3011 22.6062 37.0895 22.6062 36.8779L22.5827 21.4566Z" fill="#F4F7FB"/>
<path d="M70.4923 0.228728C70.3043 0.134695 70.0692 0.134695 69.9046 0.228728C69.7165 0.346268 69.599 0.534333 69.599 0.745907V16.0262C69.599 16.1672 69.5285 16.3083 69.3874 16.4023C69.2464 16.4729 69.1053 16.4729 68.9643 16.4023L66.4724 14.9683C66.0963 14.7568 65.6496 14.7568 65.2735 14.9683L55.3061 20.7278C54.9299 20.9394 54.6948 21.339 54.6948 21.7622V33.2577C54.6948 33.6808 54.9299 34.0804 55.3061 34.292L65.2735 40.0515C65.6496 40.2631 66.0963 40.2631 66.4724 40.0515L76.4399 34.292C76.816 34.0804 77.0511 33.6808 77.0511 33.2577V4.60124C77.0511 4.15459 76.816 3.75495 76.4399 3.54337L70.4923 0.228728ZM69.5755 29.4729C69.5755 29.5904 69.5285 29.6844 69.4344 29.7314L66.0258 31.7061C65.9317 31.7531 65.8142 31.7531 65.7202 31.7061L62.3115 29.7314C62.2175 29.6844 62.1704 29.5669 62.1704 29.4729V25.5235C62.1704 25.4059 62.2175 25.3119 62.3115 25.2649L65.7202 23.2902C65.8142 23.2432 65.9317 23.2432 66.0258 23.2902L69.4344 25.2649C69.5285 25.3119 69.5755 25.4294 69.5755 25.5235V29.4729Z" fill="#F4F7FB"/>
<path d="M103.662 25.4294C104.038 25.2179 104.25 24.8182 104.25 24.3951V21.5976C104.25 21.1745 104.015 20.7748 103.662 20.5633L93.7654 14.8273C93.3892 14.6157 92.9426 14.6157 92.5665 14.8273L82.599 20.5868C82.2229 20.7983 81.9878 21.198 81.9878 21.6211V33.1166C81.9878 33.5398 82.2229 33.9394 82.599 34.151L92.4959 39.7929C92.8721 40.0045 93.3187 40.0045 93.6713 39.7929L99.6659 36.4548C99.854 36.3607 99.9715 36.1492 99.9715 35.9376C99.9715 35.726 99.854 35.5144 99.6659 35.4204L89.6514 29.6609C89.4634 29.5434 89.3458 29.3553 89.3458 29.1437V25.547C89.3458 25.3354 89.4634 25.1238 89.6514 25.0298L92.778 23.2432C92.9661 23.1257 93.2012 23.1257 93.3892 23.2432L96.5158 25.0298C96.7039 25.1474 96.8214 25.3354 96.8214 25.547V28.368C96.8214 28.5795 96.939 28.7911 97.127 28.8851C97.3151 29.0027 97.5502 29.0027 97.7382 28.8851L103.662 25.4294Z" fill="#F4F7FB"/>
<path d="M93.0131 24.8888C93.0836 24.8417 93.1777 24.8417 93.2482 24.8888L95.1524 25.9936C95.2229 26.0407 95.2699 26.1112 95.2699 26.2052V28.415C95.2699 28.509 95.2229 28.5795 95.1524 28.6266L93.2482 29.7314C93.1777 29.7785 93.0836 29.7785 93.0131 29.7314L91.109 28.6266C91.0384 28.5795 90.9914 28.509 90.9914 28.415V26.2052C90.9914 26.1112 91.0384 26.0407 91.109 25.9936L93.0131 24.8888Z" fill="#F4F7FB"/>
<path d="M49.6818 33.5901C49.7158 33.5217 49.7433 33.4501 49.7635 33.3764L49.7346 33.3282C49.6909 33.6342 49.505 33.8995 49.2524 34.0675C49.4324 33.9479 49.5801 33.7797 49.6818 33.5901Z" fill="#F4F7FB"/>
<path d="M27.5665 21.6211C27.5665 21.198 27.778 20.7983 28.1542 20.5868L28.1639 20.5811L28.1578 20.5699L28.1071 20.5868C27.731 20.7983 27.4724 21.198 27.4724 21.6211V33.0696C27.4724 33.2615 27.5304 33.4485 27.6267 33.6154C27.6697 33.6882 27.7206 33.7572 27.778 33.8219L27.8022 33.7804C27.6539 33.5771 27.5665 33.3277 27.5665 33.0696V21.6211Z" fill="#F4F7FB"/>
<path d="M28.1542 20.5868C27.778 20.7983 27.5665 21.198 27.5665 21.6211V33.0696C27.5665 33.3277 27.6539 33.5771 27.8022 33.7804C27.8048 33.7839 27.8073 33.7873 27.8099 33.7908C27.9034 33.9163 28.0203 34.0237 28.1542 34.104L38.0511 39.8164C38.2343 39.9195 38.4342 39.9723 38.6346 39.975C38.6866 39.9743 38.7395 39.9702 38.7933 39.9626C38.8044 39.9611 38.8156 39.9594 38.8268 39.9575C38.882 39.9496 38.9344 39.9391 38.9851 39.926L38.9976 39.9227C39.0109 39.9191 39.024 39.9153 39.0371 39.9114C39.1099 39.8868 39.1811 39.8552 39.25 39.8164L49.1469 34.104C49.4557 33.9303 49.6535 33.6299 49.7145 33.2938C49.7172 33.2791 49.7196 33.2643 49.7217 33.2495L49.7514 33.3001C49.7872 33.2337 49.8051 33.1517 49.8051 33.0696V21.6211C49.8051 21.459 49.7655 21.2969 49.6966 21.1488C49.6362 21.0208 49.5526 20.9026 49.4513 20.8007L49.4351 20.8302L49.4286 20.8226C49.3473 20.7301 49.2524 20.65 49.1469 20.5868L44.1981 17.7303L39.2265 14.8743C39.1325 14.8273 39.0149 14.7803 38.9209 14.7568L38.9043 14.7852L38.8925 14.8053L38.8857 14.7936L38.8504 14.7332C38.8592 14.7347 38.868 14.7363 38.8766 14.7379L38.876 14.737C38.5981 14.6839 38.3081 14.7297 38.0511 14.8743L28.1818 20.5708L28.1639 20.5811L28.1542 20.5868Z" fill="#F4F7FB"/>
</svg>
