<svg width="80" height="72" viewBox="0 0 80 72" fill="none" xmlns="http://www.w3.org/2000/svg">
<path d="M65.7761 23.481C64.9462 23.1954 64.0862 22.9251 63.2008 22.6695C63.3463 22.0755 63.4799 21.4893 63.5986 20.913C65.5481 11.4502 64.2735 3.82683 59.921 1.31691C55.7476 -1.08977 48.9223 1.41958 42.029 7.41856C41.3662 7.99542 40.7015 8.60617 40.037 9.24625C39.5943 8.82276 39.1523 8.4135 38.7114 8.02205C31.4871 1.60755 24.2458 -1.09561 19.8977 1.42157C15.7282 3.83524 14.4935 11.0019 16.2483 19.9699C16.4177 20.8361 16.6158 21.7207 16.8398 22.6201C15.815 22.911 14.8256 23.2211 13.8789 23.5511C5.40916 26.504 0 31.132 0 35.9324C0 40.8903 5.80674 45.8631 14.6286 48.8784C15.3248 49.1164 16.0472 49.3414 16.7917 49.555C16.55 50.5277 16.3398 51.4809 16.1634 52.4106C14.4902 61.223 15.7969 68.2203 19.9552 70.6188C24.2504 73.0957 31.4589 70.5497 38.4782 64.414C39.033 63.929 39.5897 63.4147 40.1475 62.8755C40.8705 63.5717 41.5923 64.2306 42.3103 64.8486C49.1093 70.6994 55.8244 73.0619 59.9789 70.6568C64.2698 68.1728 65.6643 60.656 63.8538 51.5105C63.7155 50.8121 63.5546 50.0985 63.3739 49.3723C63.8802 49.2226 64.3771 49.0681 64.8617 48.9075C74.0329 45.8688 80 40.9565 80 35.9324C80 31.1146 74.4164 26.4554 65.7761 23.481ZM63.7869 45.6635C63.3494 45.8083 62.9006 45.9483 62.4432 46.084C61.4308 42.8787 60.0643 39.4704 58.3921 35.949C59.9878 32.5115 61.3015 29.1468 62.2856 25.9623C63.1039 26.1991 63.8982 26.4489 64.6636 26.7125C72.0667 29.261 76.5824 33.029 76.5824 35.9324C76.5824 39.025 71.7056 43.0397 63.7869 45.6635ZM60.5012 52.1743C61.3017 56.2183 61.4161 59.8745 60.8858 62.7327C60.4093 65.301 59.4511 67.0134 58.2664 67.6992C55.7452 69.1585 50.3537 67.2616 44.5391 62.258C43.8725 61.6844 43.2011 61.0719 42.5276 60.4237C44.7818 57.9584 47.0346 55.0923 49.2334 51.9093C53.1008 51.5661 56.7547 51.005 60.0681 50.2391C60.2313 50.8974 60.3763 51.543 60.5012 52.1743ZM27.2738 67.447C24.8106 68.3169 22.8488 68.3418 21.6629 67.658C19.1394 66.2026 18.0904 60.5843 19.5213 53.048C19.6852 52.1849 19.8803 51.2984 20.1052 50.3921C23.3823 51.1168 27.0094 51.6383 30.886 51.9525C33.0996 55.0672 35.4176 57.9302 37.7535 60.437C37.2432 60.9297 36.7348 61.3987 36.2293 61.8407C33.1254 64.5538 30.015 66.4788 27.2738 67.447ZM15.7339 45.6446C11.8331 44.3113 8.61158 42.5784 6.40339 40.6875C4.41921 38.9883 3.41743 37.3013 3.41743 35.9324C3.41743 33.0193 7.76046 29.3037 15.0039 26.7783C15.8827 26.4718 16.8028 26.183 17.7576 25.9118C18.7586 29.1681 20.0718 32.5728 21.6566 36.0155C20.0513 39.5094 18.7195 42.9683 17.7086 46.2629C17.0279 46.0672 16.3685 45.8613 15.7339 45.6446ZM19.6022 19.3136C18.0988 11.63 19.0973 5.83381 21.6099 4.37934C24.2863 2.8299 30.2045 5.03908 36.4422 10.5777C36.8409 10.9317 37.2412 11.3022 37.6426 11.6855C35.3182 14.1814 33.0215 17.0228 30.8275 20.1191C27.0651 20.4679 23.4635 21.0281 20.1522 21.7782C19.944 20.9408 19.7596 20.118 19.6022 19.3136ZM54.1106 27.8346C53.319 26.4673 52.5063 25.1323 51.6779 23.8337C54.2304 24.1564 56.6759 24.5848 58.9725 25.1089C58.283 27.3187 57.4236 29.6291 56.412 31.9976C55.6864 30.6199 54.9188 29.2308 54.1106 27.8346ZM40.0382 14.128C41.6145 15.8358 43.1932 17.7425 44.7459 19.8113C43.1812 19.7374 41.5971 19.6989 40 19.6989C38.4179 19.6989 36.8456 19.7365 35.2906 19.8091C36.8449 17.7596 38.4372 15.8554 40.0382 14.128ZM25.8756 27.8582C25.0849 29.2294 24.3316 30.6109 23.6173 31.9951C22.6221 29.6348 21.7707 27.3138 21.0752 25.0728C23.3577 24.562 25.7917 24.1443 28.328 23.8278C27.4878 25.1383 26.6685 26.4834 25.8756 27.8582ZM28.401 48.2808C25.7806 47.9884 23.31 47.5923 21.028 47.0956C21.7346 44.8145 22.6048 42.444 23.6211 40.0329C24.3373 41.416 25.0935 42.7981 25.8891 44.1723C26.6995 45.5722 27.5392 46.9435 28.401 48.2808ZM40.1327 57.9777C38.5129 56.2301 36.8973 54.2969 35.3193 52.2174C36.8511 52.2775 38.4128 52.3083 40 52.3083C41.6306 52.3083 43.2426 52.2715 44.8292 52.2009C43.2713 54.3178 41.6984 56.254 40.1327 57.9777ZM56.4447 39.91C57.5139 42.3472 58.4153 44.7053 59.131 46.9475C56.8115 47.4767 54.3071 47.9029 51.6685 48.2196C52.4989 46.9035 53.3187 45.5456 54.1243 44.1488C54.9392 42.7356 55.713 41.3203 56.4447 39.91ZM51.1639 42.4414C49.9134 44.6097 48.6295 46.6797 47.3261 48.6335C44.9522 48.8033 42.4997 48.8907 40 48.8907C37.5104 48.8907 35.0888 48.8134 32.7569 48.662C31.401 46.6825 30.0892 44.6065 28.8466 42.4601C27.6073 40.3196 26.467 38.1609 25.4334 36.0144C26.4667 33.8629 27.6043 31.7019 28.8365 29.5652L28.8362 29.5656C30.0717 27.4232 31.3719 25.3573 32.7153 23.3902C35.0945 23.2103 37.5342 23.1165 39.9999 23.1165C42.4766 23.1165 44.9196 23.211 47.2981 23.3924C48.621 25.3452 49.9124 27.4044 51.1527 29.5471C52.4071 31.7138 53.5594 33.8605 54.6014 35.9658C53.5625 38.1074 52.4128 40.2757 51.1639 42.4414ZM58.214 4.27767C60.8929 5.82256 61.9347 12.0531 60.2515 20.2232C60.1442 20.7445 60.0233 21.2755 59.892 21.8137C56.573 21.0478 52.9688 20.478 49.1954 20.124C46.9972 16.9936 44.7192 14.1478 42.4327 11.684C43.0475 11.0926 43.6614 10.5287 44.2727 9.99655C50.1788 4.85666 55.6989 2.82734 58.214 4.27767ZM40 28.7887C43.9453 28.7887 47.1437 31.9869 47.1437 35.9324C47.1437 39.8777 43.9453 43.0761 40 43.0761C36.0547 43.0761 32.8563 39.8777 32.8563 35.9324C32.8563 31.9869 36.0547 28.7887 40 28.7887Z" fill="#F4F7FB"/>
</svg>
