<svg width="168" height="22" viewBox="0 0 168 22" fill="none" xmlns="http://www.w3.org/2000/svg">
<path d="M17.3572 0.585449C12.7286 0.585449 9.83576 2.89975 8.67862 7.52834C10.4143 5.21404 12.4393 4.34618 14.7536 4.92476C16.0741 5.25487 17.0179 6.21279 18.0625 7.27319C19.7643 9.00056 21.7339 10.9998 26.0358 10.9998C30.6644 10.9998 33.5573 8.68549 34.7145 4.0569C32.9787 6.37119 30.9537 7.23905 28.6394 6.66048C27.319 6.33037 26.3752 5.37244 25.3306 4.31205C23.6288 2.58468 21.6592 0.585449 17.3572 0.585449ZM8.67862 10.9998C4.05002 10.9998 1.15715 13.3141 0 17.9427C1.73572 15.6284 3.76073 14.7605 6.07503 15.3391C7.39547 15.6692 8.33925 16.6271 9.3839 17.6875C11.0857 19.4149 13.0553 21.4141 17.3572 21.4141C21.9858 21.4141 24.8787 19.0998 26.0358 14.4712C24.3001 16.7855 22.2751 17.6534 19.9608 17.0748C18.6404 16.7447 17.6966 15.7868 16.6519 14.7264C14.9502 12.999 12.9806 10.9998 8.67862 10.9998Z" fill="#F4F7FB"/>
<path d="M52.0691 9.36178H49.04V15.2247C49.04 16.7881 50.066 16.7637 52.0691 16.666V19.0355C48.014 19.5241 46.4017 18.4004 46.4017 15.2247V9.36178H44.1542V6.82119H46.4017V3.54004L49.04 2.75832V6.82119H52.0691V9.36178ZM63.6162 6.82119H66.2545V19.0355H63.6162V17.2767C62.6879 18.5714 61.2466 19.3531 59.3412 19.3531C56.0189 19.3531 53.2584 16.5438 53.2584 12.9284C53.2584 9.28849 56.0189 6.50362 59.3412 6.50362C61.2466 6.50362 62.6879 7.28534 63.6162 8.55563V6.82119ZM59.7564 16.837C61.955 16.837 63.6162 15.2002 63.6162 12.9284C63.6162 10.6565 61.955 9.01978 59.7564 9.01978C57.5579 9.01978 55.8967 10.6565 55.8967 12.9284C55.8967 15.2002 57.5579 16.837 59.7564 16.837ZM70.6516 4.98904C69.7234 4.98904 68.9661 4.20732 68.9661 3.30346C68.9661 2.37517 69.7234 1.61788 70.6516 1.61788C71.5799 1.61788 72.3372 2.37517 72.3372 3.30346C72.3372 4.20732 71.5799 4.98904 70.6516 4.98904ZM69.3325 19.0355V6.82119H71.9708V19.0355H69.3325ZM75.0244 19.0355V1.2026H77.6627V19.0355H75.0244ZM94.7872 6.82119H97.5721L93.7368 19.0355H91.1473L88.6067 10.8031L86.0417 19.0355H83.4523L79.617 6.82119H82.4018L84.7714 15.2491L87.3364 6.82119H89.8526L92.3932 15.2491L94.7872 6.82119ZM100.846 4.98904C99.9172 4.98904 99.1599 4.20732 99.1599 3.30346C99.1599 2.37517 99.9172 1.61788 100.846 1.61788C101.774 1.61788 102.531 2.37517 102.531 3.30346C102.531 4.20732 101.774 4.98904 100.846 4.98904ZM99.5264 19.0355V6.82119H102.165V19.0355H99.5264ZM111.643 6.50362C114.379 6.50362 116.333 8.3602 116.333 11.5359V19.0355H113.695V11.8046C113.695 9.94807 112.62 8.97092 110.959 8.97092C109.225 8.97092 107.857 9.99693 107.857 12.4887V19.0355H105.218V6.82119H107.857V8.38463C108.663 7.11434 109.982 6.50362 111.643 6.50362ZM128.841 1.93546H131.479V19.0355H128.841V17.2767C127.913 18.5714 126.471 19.3531 124.566 19.3531C121.243 19.3531 118.483 16.5438 118.483 12.9284C118.483 9.28849 121.243 6.50362 124.566 6.50362C126.471 6.50362 127.913 7.28534 128.841 8.55563V1.93546ZM124.981 16.837C127.18 16.837 128.841 15.2002 128.841 12.9284C128.841 10.6565 127.18 9.01978 124.981 9.01978C122.782 9.01978 121.121 10.6565 121.121 12.9284C121.121 15.2002 122.782 16.837 124.981 16.837ZM140.322 19.3531C136.634 19.3531 133.873 16.5438 133.873 12.9284C133.873 9.28849 136.634 6.50362 140.322 6.50362C142.716 6.50362 144.793 7.74949 145.77 9.65492L143.498 10.9741C142.961 9.82592 141.764 9.09306 140.298 9.09306C138.148 9.09306 136.511 10.7298 136.511 12.9284C136.511 15.127 138.148 16.7637 140.298 16.7637C141.764 16.7637 142.961 16.0064 143.547 14.8827L145.819 16.1774C144.793 18.1073 142.716 19.3531 140.322 19.3531ZM150.167 10.1924C150.167 12.4154 156.738 11.0718 156.738 15.5911C156.738 18.034 154.613 19.3531 151.975 19.3531C149.532 19.3531 147.773 18.2538 146.991 16.495L149.263 15.1758C149.654 16.2751 150.631 16.9347 151.975 16.9347C153.147 16.9347 154.051 16.5438 154.051 15.5667C154.051 13.3925 147.48 14.6139 147.48 10.2412C147.48 7.94491 149.459 6.50362 151.95 6.50362C153.953 6.50362 155.615 7.43191 156.47 9.04421L154.247 10.2901C153.807 9.33735 152.952 8.89763 151.95 8.89763C150.998 8.89763 150.167 9.31292 150.167 10.1924ZM161.429 10.1924C161.429 12.4154 168 11.0718 168 15.5911C168 18.034 165.875 19.3531 163.236 19.3531C160.794 19.3531 159.035 18.2538 158.253 16.495L160.525 15.1758C160.916 16.2751 161.893 16.9347 163.236 16.9347C164.409 16.9347 165.313 16.5438 165.313 15.5667C165.313 13.3925 158.742 14.6139 158.742 10.2412C158.742 7.94491 160.72 6.50362 163.212 6.50362C165.215 6.50362 166.876 7.43191 167.731 9.04421L165.508 10.2901C165.069 9.33735 164.214 8.89763 163.212 8.89763C162.259 8.89763 161.429 9.31292 161.429 10.1924Z" fill="#F4F7FB"/>
</svg>
