<svg width="153" height="50" viewBox="0 0 153 50" fill="none" xmlns="http://www.w3.org/2000/svg">
<path d="M6.05729 0.834658L147.443 0.834473C150.374 0.834473 152.75 3.21063 152.75 6.14176V43.8577C152.75 46.7888 150.374 49.1649 147.443 49.1649L6.05729 49.1651C3.12615 49.1651 0.75 46.789 0.75 43.8578V6.14195C0.75 3.21081 3.12615 0.834658 6.05729 0.834658Z" fill="#F4F7FB"/>
<path d="M19.9046 18.3809H26.5108V15.1403H9.49846V18.3809H16.0886V38.1456H19.9046V18.3809ZM32.6004 40.7759L40.0433 21.7132H36.2735L32.1494 33.6835C32.0516 34.0505 31.9748 34.3491 31.9194 34.5798L31.8594 34.8388H31.7788C31.693 34.4721 31.6245 34.1856 31.5737 33.9795L31.4888 33.6514L27.558 21.7132H23.4176L29.9745 38.1122L28.8629 40.808C28.1755 42.1771 27.1337 42.8619 25.7375 42.8619C25.2542 42.8619 24.7172 42.7656 24.1266 42.5731V45.6699C24.6528 45.8089 25.3079 45.8785 26.0919 45.8785C28.8844 45.8785 31.0539 44.1776 32.6004 40.7759ZM51.7621 21.3266C53.8543 21.3266 55.4851 22.0589 56.6547 23.5235C57.8241 24.9881 58.4089 26.9552 58.4089 29.4247C58.4089 32.1615 57.7491 34.353 56.4293 35.9995C55.1097 37.6459 53.3072 38.469 51.0217 38.469C48.9188 38.469 47.2987 37.5496 46.1614 35.7109H46.097V45.6852H42.3632V21.7115H46.097V24.598H46.1614C47.4381 22.4169 49.305 21.3266 51.7621 21.3266ZM50.4582 24.4197C49.1289 24.4197 48.0596 24.8876 47.2504 25.8233C46.4409 26.7591 46.0363 27.9287 46.0363 29.3322V31.3579C46.0363 32.5487 46.4195 33.559 47.186 34.3884C47.9525 35.2177 48.9253 35.6324 50.1044 35.6324C51.4874 35.6324 52.5727 35.0981 53.3607 34.0294C54.1485 32.9609 54.5425 31.4696 54.5425 29.5555C54.5425 27.95 54.1754 26.6926 53.4409 25.7834C52.7067 24.8742 51.7124 24.4197 50.4582 24.4197ZM68.2078 21.3266C70.4415 21.3266 72.17 22.0488 73.3931 23.4933C74.6163 24.9378 75.2279 26.9441 75.2279 29.512V30.9405H64.0914C64.1342 32.46 64.5995 33.6315 65.4876 34.4555C66.3757 35.2794 67.5962 35.6914 69.1491 35.6914C70.8937 35.6914 72.4944 35.1671 73.9516 34.1185V37.1198C72.4625 38.0615 70.4946 38.5322 68.0483 38.5322C65.6444 38.5322 63.7591 37.7858 62.3923 36.2932C61.0255 34.8005 60.3421 32.7007 60.3421 29.9936C60.3421 27.4363 61.0948 25.3525 62.5998 23.7422C64.1048 22.1318 65.9742 21.3266 68.2078 21.3266ZM84.2657 14.7536C85.6404 14.7536 87.0151 14.9835 88.3899 15.4431V17.1107C87.0366 16.5014 85.5921 16.1967 84.0564 16.1967C82.4883 16.1967 81.2451 16.5922 80.3268 17.3833C79.4085 18.1743 78.9494 19.1791 78.9494 20.3977C78.9494 21.5735 79.2635 22.5088 79.8918 23.2036C80.5201 23.8984 81.8761 24.8445 83.9597 26.0417C86.1183 27.2602 87.5549 28.3426 88.269 29.2886C88.9834 30.2347 89.3404 31.3223 89.3404 32.5514C89.3404 34.3153 88.7255 35.753 87.4958 36.8646C86.266 37.9764 84.5288 38.5322 82.2842 38.5322C81.4894 38.5322 80.5739 38.4093 79.5375 38.1634C78.5011 37.9177 77.7088 37.6343 77.1611 37.3137V35.5017C78.8152 36.5493 80.4905 37.073 82.1875 37.073C83.9918 37.073 85.3613 36.7017 86.2956 35.9587C87.2299 35.2158 87.6972 34.1763 87.6972 32.8401C87.6972 31.6643 87.383 30.7263 86.7548 30.0261C86.1489 29.351 84.8615 28.4399 82.8924 27.2925L82.6708 27.1641C80.3295 25.8064 78.8473 24.6707 78.2244 23.7568C77.6015 22.8428 77.2901 21.7873 77.2901 20.59C77.2901 18.9653 77.9236 17.5864 79.191 16.4533C80.4584 15.3202 82.15 14.7536 84.2657 14.7536ZM68.2647 24.0331C67.2043 24.0331 66.3055 24.4252 65.5686 25.2091C64.8317 25.9932 64.3783 27.0188 64.2086 28.2862H71.7481C71.7375 26.9438 71.4247 25.8992 70.8098 25.1528C70.1946 24.4064 69.3463 24.0331 68.2647 24.0331ZM98.7952 38.5322C100.499 38.5322 101.965 38.1584 103.195 37.4108V35.8729C101.965 36.7487 100.521 37.1865 98.86 37.1865C97.0482 37.1865 95.5898 36.5404 94.4845 35.2481C93.3791 33.9557 92.8264 32.247 92.8264 30.1216C92.8264 27.9216 93.4303 26.1301 94.6382 24.7468C95.8459 23.3638 97.4203 22.6723 99.3613 22.6723C100.774 22.6723 102.073 23.0354 103.26 23.7617V22.0956C102.073 21.5829 100.849 21.3266 99.5878 21.3266C97.1506 21.3266 95.1557 22.1569 93.603 23.8177C92.05 25.4786 91.2737 27.6119 91.2737 30.2179C91.2737 32.6957 91.9638 34.7008 93.3441 36.2333C94.7244 37.7659 96.5415 38.5322 98.7952 38.5322ZM112.926 23.1954C112.435 22.8409 111.858 22.6638 111.197 22.6638C109.905 22.6638 108.822 23.335 107.946 24.6774C107.071 26.0201 106.634 27.9264 106.634 30.3967V38.1456H105.193V21.6489H106.634V25.3057H106.698C107.071 24.0491 107.664 23.0719 108.475 22.3738C109.286 21.6757 110.225 21.3266 111.293 21.3266C111.901 21.3266 112.445 21.4233 112.926 21.6166V23.1954ZM116.792 21.7132V38.1456H115.246V21.7132H116.792ZM116.099 15.1403C116.436 15.1403 116.733 15.2505 116.989 15.471C117.244 15.6914 117.372 15.989 117.372 16.3638C117.372 16.7165 117.247 17.0197 116.997 17.2732C116.747 17.5267 116.447 17.6535 116.099 17.6535C115.773 17.6535 115.484 17.5322 115.234 17.2897C114.984 17.0472 114.859 16.7386 114.859 16.3638C114.859 16.0001 114.987 15.7052 115.242 15.4792C115.498 15.2533 115.784 15.1403 116.099 15.1403ZM127.945 21.3266C130.028 21.3266 131.654 22.045 132.824 23.4819C133.993 24.9189 134.578 26.8715 134.578 29.3392C134.578 32.085 133.907 34.3045 132.567 35.9978C131.227 37.6911 129.457 38.5378 127.257 38.5378C124.8 38.5378 122.985 37.432 121.81 35.2206H121.746V45.6852H120.272V21.7272H121.746V25.1085H121.81C122.397 23.9013 123.238 22.9692 124.333 22.3121C125.428 21.655 126.632 21.3266 127.945 21.3266ZM127.886 22.6798C125.955 22.6798 124.461 23.3199 123.404 24.6003C122.347 25.8805 121.818 27.3849 121.818 29.1132V31.1777C121.818 32.8207 122.342 34.2316 123.388 35.4107C124.434 36.5896 125.809 37.179 127.513 37.179C129.207 37.179 130.582 36.4616 131.639 35.0265C132.696 33.5915 133.224 31.7059 133.224 29.3694C133.224 27.3209 132.739 25.6939 131.768 24.4882C130.798 23.2826 129.503 22.6798 127.886 22.6798ZM141.706 38.5322C142.375 38.5322 143.092 38.3509 143.857 37.9882V36.612C143.156 37.0067 142.503 37.2041 141.897 37.2041C141.048 37.2041 140.445 36.9507 140.089 36.444C139.733 35.9373 139.555 35.1186 139.555 33.9876V23.1703H143.857V21.8261H139.555V17.0735C139.321 17.1589 139.077 17.2389 138.822 17.3135C138.567 17.3989 138.323 17.4842 138.089 17.5696V21.8261H135.158V23.1703H138.089V34.1796C138.089 37.0814 139.295 38.5322 141.706 38.5322Z" fill="#151B28"/>
</svg>
