<svg width="48" height="48" viewBox="0 0 48 48" fill="none" xmlns="http://www.w3.org/2000/svg">
<g clip-path="url(#clip0_603_499)">
<path fill-rule="evenodd" clip-rule="evenodd" d="M47.867 14.9731C47.867 14.4013 47.867 13.8296 47.8644 13.2578C47.8617 12.7765 47.8564 12.2952 47.8431 11.8138C47.8152 10.7648 47.7527 9.7077 47.5665 8.67058C47.3777 7.61751 47.0679 6.63756 46.5813 5.68022C45.6168 3.78797 44.078 2.24965 42.1855 1.28576C41.2295 0.799114 40.2495 0.490637 39.1978 0.300499C38.1607 0.114349 37.1023 0.051856 36.0532 0.0239335C35.5719 0.0106371 35.0905 0.00531856 34.6092 0.00265928C34.0375 0 33.4657 0 32.894 0H14.9731C14.4013 0 13.8296 0 13.2578 0.00265928C12.7765 0.00531856 12.2952 0.0106371 11.8138 0.0239335C10.7648 0.0531856 9.70637 0.114349 8.66925 0.301828C7.61618 0.490637 6.63756 0.800443 5.68155 1.28709C3.78901 2.25098 2.25022 3.7893 1.28576 5.68155C0.799114 6.63889 0.489307 7.61884 0.300499 8.67191C0.114349 9.70903 0.051856 10.7674 0.0239335 11.8152C0.0106371 12.2965 0.00531856 12.7778 0.00265928 13.2592C0 13.8296 0 14.4013 0 14.9731V32.8926C0 33.4644 0 34.0361 0.00265928 34.6079C0.00531856 35.0892 0.0106371 35.5705 0.0239335 36.0519C0.051856 37.1009 0.114349 38.158 0.300499 39.1951C0.489307 40.2482 0.799114 41.2281 1.28576 42.1855C2.25022 44.0777 3.78901 45.6161 5.68155 46.5799C6.63756 47.0666 7.61751 47.3751 8.66925 47.5652C9.70637 47.7514 10.7648 47.8139 11.8138 47.8418C12.2952 47.8551 12.7765 47.8604 13.2578 47.863C13.8296 47.867 14.4013 47.8657 14.9731 47.8657H32.8926C33.4644 47.8657 34.0361 47.8657 34.6079 47.863C35.0892 47.8604 35.5705 47.8551 36.0519 47.8418C37.1009 47.8139 38.1593 47.7514 39.1965 47.5652C40.2495 47.3764 41.2281 47.0666 42.1842 46.5799C44.0767 45.6161 45.6155 44.0777 46.5799 42.1855C47.0666 41.2281 47.3764 40.2482 47.5652 39.1951C47.7514 38.158 47.8139 37.0996 47.8418 36.0519C47.8551 35.5705 47.8604 35.0892 47.863 34.6079C47.867 34.0361 47.8657 33.4644 47.8657 32.8926V14.9731H47.867Z" fill="url(#paint0_linear_603_499)"/>
<path fill-rule="evenodd" clip-rule="evenodd" d="M33.8394 7.31298C33.7237 7.32362 32.6959 7.50578 32.5723 7.53104L18.3451 10.4017L18.3398 10.4031C17.9688 10.4815 17.6776 10.6131 17.4529 10.802C17.1817 11.0293 17.0314 11.3511 16.9743 11.7261C16.9623 11.8058 16.9424 11.968 16.9424 12.2074V30.0139C16.9424 30.4301 16.9091 30.8343 16.6272 31.1787C16.3453 31.5231 15.997 31.6268 15.5888 31.7092L14.6594 31.8967C13.484 32.1334 12.7194 32.2943 12.0267 32.5628C11.3645 32.8195 10.8686 33.1466 10.4737 33.5614C9.6905 34.3818 9.37272 35.4947 9.48175 36.5371C9.57482 37.4267 9.97504 38.2776 10.6625 38.9065C11.1265 39.332 11.7062 39.6551 12.3897 39.7921C13.0984 39.9344 13.8536 39.8852 14.9572 39.6618C15.5449 39.5434 16.0954 39.3586 16.6193 39.0488C17.1378 38.743 17.5819 38.3348 17.9289 37.8375C18.2773 37.3389 18.502 36.7844 18.6257 36.1954C18.7533 35.5878 18.7839 35.0386 18.7839 34.4323V18.9885C18.7839 18.1615 19.0179 17.9434 19.6854 17.7812C19.6854 17.7812 31.5112 15.3959 32.063 15.2882C32.8329 15.1406 33.1959 15.36 33.1959 16.167V26.7098C33.1959 27.1273 33.1919 27.5501 32.9073 27.8958C32.6255 28.2402 32.2771 28.3439 31.8689 28.4263L30.9395 28.6138C29.7641 28.8505 28.9995 29.0114 28.3068 29.28C27.6446 29.5366 27.1487 29.8637 26.7538 30.2785C25.9706 31.0989 25.6249 32.2118 25.7339 33.2543C25.827 34.1438 26.2552 34.9948 26.9426 35.6237C27.4066 36.0492 27.9863 36.3629 28.6698 36.5012C29.3785 36.6435 30.1337 36.593 31.2373 36.3709C31.825 36.2526 32.3755 36.0757 32.8994 35.7659C33.4179 35.4601 33.862 35.0519 34.2091 34.5546C34.5574 34.056 34.7821 33.5016 34.9058 32.9125C35.0334 32.3049 35.0388 31.7557 35.0388 31.1494V8.57082C35.0414 7.75176 34.6093 7.2465 33.8394 7.31298Z" fill="white"/>
</g>
<defs>
<linearGradient id="paint0_linear_603_499" x1="23.9335" y1="47.6816" x2="23.9335" y2="1.03167" gradientUnits="userSpaceOnUse">
<stop stop-color="#FA233B"/>
<stop offset="1" stop-color="#FB5C74"/>
</linearGradient>
<clipPath id="clip0_603_499">
<rect width="48" height="48" fill="white"/>
</clipPath>
</defs>
</svg>
