<svg width="28" height="28" viewBox="0 0 28 28" fill="none" xmlns="http://www.w3.org/2000/svg">
<g clip-path="url(#clip0_530_467)">
<path fill-rule="evenodd" clip-rule="evenodd" d="M27.9224 8.73429C27.9224 8.40078 27.9224 8.06726 27.9209 7.73374C27.9193 7.45296 27.9162 7.17219 27.9085 6.89141C27.8922 6.27945 27.8557 5.66283 27.7471 5.05784C27.637 4.44355 27.4563 3.87191 27.1724 3.31346C26.6098 2.20965 25.7122 1.3123 24.6082 0.750028C24.0505 0.46615 23.4789 0.286205 22.8654 0.175291C22.2604 0.0667036 21.643 0.0302493 21.031 0.0139612C20.7502 0.00620499 20.4695 0.00310249 20.1887 0.00155125C19.8552 0 19.5217 0 19.1881 0H8.73429C8.40078 0 8.06726 0 7.73374 0.00155125C7.45296 0.00310249 7.17219 0.00620499 6.89141 0.0139612C6.27945 0.0310249 5.66205 0.0667036 5.05706 0.176066C4.44277 0.286205 3.87191 0.466925 3.31424 0.750803C2.21026 1.31307 1.31263 2.21043 0.750028 3.31424C0.46615 3.87269 0.285429 4.44432 0.175291 5.05861C0.0667036 5.6636 0.0302493 6.281 0.0139612 6.89219C0.00620499 7.17296 0.00310249 7.45374 0.00155125 7.73452C0 8.06726 0 8.40078 0 8.73429V19.1874C0 19.5209 0 19.8544 0.00155125 20.1879C0.00310249 20.4687 0.00620499 20.7495 0.0139612 21.0302C0.0302493 21.6422 0.0667036 22.2588 0.175291 22.8638C0.285429 23.4781 0.46615 24.0497 0.750028 24.6082C1.31263 25.712 2.21026 26.6094 3.31424 27.1716C3.87191 27.4555 4.44355 27.6355 5.05706 27.7464C5.66205 27.855 6.27945 27.8914 6.89141 27.9077C7.17219 27.9155 7.45296 27.9186 7.73374 27.9201C8.06726 27.9224 8.40078 27.9217 8.73429 27.9217H19.1874C19.5209 27.9217 19.8544 27.9217 20.1879 27.9201C20.4687 27.9186 20.7495 27.9155 21.0302 27.9077C21.6422 27.8914 22.2596 27.855 22.8646 27.7464C23.4789 27.6362 24.0498 27.4555 24.6074 27.1716C25.7114 26.6094 26.609 25.712 27.1716 24.6082C27.4555 24.0497 27.6362 23.4781 27.7464 22.8638C27.855 22.2588 27.8914 21.6414 27.9077 21.0302C27.9155 20.7495 27.9186 20.4687 27.9201 20.1879C27.9224 19.8544 27.9217 19.5209 27.9217 19.1874V8.73429H27.9224Z" fill="url(#paint0_linear_530_467)"/>
<path fill-rule="evenodd" clip-rule="evenodd" d="M19.7403 4.26586C19.6728 4.27207 19.0733 4.37833 19.0011 4.39307L10.702 6.06764L10.6989 6.06841C10.4825 6.11417 10.3126 6.19096 10.1815 6.3011C10.0233 6.43373 9.93566 6.62143 9.90231 6.84016C9.89533 6.88669 9.88369 6.98132 9.88369 7.12093V17.5081C9.88369 17.7508 9.8643 17.9866 9.69987 18.1875C9.53544 18.3884 9.33222 18.4489 9.09411 18.497L8.55195 18.6064C7.8663 18.7444 7.42031 18.8383 7.01621 18.9949C6.62995 19.1446 6.34065 19.3354 6.11028 19.5774C5.65344 20.056 5.46807 20.7052 5.53167 21.3133C5.58596 21.8322 5.81943 22.3286 6.22042 22.6954C6.49112 22.9436 6.82929 23.1321 7.22796 23.212C7.64137 23.295 8.08192 23.2663 8.72569 23.136C9.06851 23.067 9.38962 22.9592 9.69522 22.7784C9.99771 22.6 10.2568 22.3619 10.4592 22.0718C10.6624 21.781 10.7935 21.4576 10.8656 21.114C10.9401 20.7595 10.9579 20.4392 10.9579 20.0855V11.0766C10.9579 10.5942 11.0944 10.467 11.4838 10.3723C11.4838 10.3723 18.3822 8.98088 18.7041 8.91805C19.1532 8.83196 19.3649 8.95993 19.3649 9.43074V15.5807C19.3649 15.8242 19.3626 16.0708 19.1966 16.2725C19.0322 16.4734 18.829 16.5339 18.5908 16.582L18.0487 16.6913C17.363 16.8294 16.917 16.9233 16.5129 17.0799C16.1267 17.2296 15.8374 17.4204 15.607 17.6624C15.1502 18.141 14.9485 18.7902 15.0121 19.3983C15.0664 19.9172 15.3162 20.4136 15.7172 20.7804C15.9878 21.0286 16.326 21.2117 16.7247 21.2923C17.1381 21.3753 17.5787 21.3459 18.2224 21.2163C18.5652 21.1473 18.8864 21.0441 19.1919 20.8634C19.4944 20.685 19.7535 20.4469 19.9559 20.1568C20.1591 19.866 20.2902 19.5425 20.3624 19.1989C20.4368 18.8445 20.4399 18.5241 20.4399 18.1705V4.9996C20.4415 4.52182 20.1894 4.22708 19.7403 4.26586Z" fill="white"/>
</g>
<defs>
<linearGradient id="paint0_linear_530_467" x1="13.9612" y1="27.8142" x2="13.9612" y2="0.601806" gradientUnits="userSpaceOnUse">
<stop stop-color="#FA233B"/>
<stop offset="1" stop-color="#FB5C74"/>
</linearGradient>
<clipPath id="clip0_530_467">
<rect width="28" height="28" fill="white"/>
</clipPath>
</defs>
</svg>
