<svg width="47" height="28" viewBox="0 0 47 28" fill="none" xmlns="http://www.w3.org/2000/svg">
<g clip-path="url(#clip0_566_289)">
<path d="M13.2312 10.1537L13.5389 11.5384C13.5389 11.9999 13.6928 12.3076 14.0005 12.7691V13.0768L13.8466 13.5384L12.7697 14.1537L12.462 14.3076L12.0005 14.1537L11.3851 13.3845L10.9235 12.4614C9.69276 13.8461 8.1543 14.6153 6.46199 14.6153C5.07737 14.6153 4.00045 14.1537 3.38507 13.3845C2.61584 12.7691 2.1543 11.6922 2.1543 10.4614C2.1543 9.23067 2.61584 8.15375 3.53891 7.38452C4.46199 6.46144 5.69276 6.15375 7.38507 6.15375C8.52937 6.14749 9.66883 6.30287 10.7697 6.61529V5.53836C10.7697 4.30759 10.462 3.53836 10.0005 3.07682C9.53891 2.46144 8.76968 2.30759 7.53891 2.30759L5.84661 2.46144C5.10634 2.65044 4.38528 2.90796 3.69276 3.23067H3.38507C3.23122 3.23067 3.07737 3.07682 3.07737 2.76913V1.9999L3.23122 1.53836C3.23122 1.38452 3.38507 1.23067 3.69276 1.23067L5.53891 0.461439L8.00045 0.153747C9.84661 0.153747 11.0774 0.615285 12.0005 1.38452C12.7697 2.30759 13.2312 3.53836 13.2312 5.23067V10.1537ZM7.07737 12.6153L8.61584 12.3076C9.23122 12.1537 9.69276 11.6922 10.1543 11.2307L10.6158 10.3076L10.7697 8.92298V8.30759C9.8102 8.0942 8.8295 7.99097 7.84661 7.9999C6.92353 7.9999 6.1543 8.15375 5.53891 8.61529C5.07737 8.92298 4.92353 9.53836 4.92353 10.3076C4.92353 11.0768 5.07737 11.5384 5.38507 11.9999C5.84661 12.3076 6.30814 12.6153 7.07737 12.6153ZM19.3851 14.1537L18.7697 13.9999L18.462 13.5384L14.9235 1.53836L14.7697 0.922978L15.0774 0.615285H16.6158L17.2312 0.769132L17.5389 1.38452L20.1543 11.5384L22.462 1.38452L22.7697 0.769132L23.3851 0.615285H24.6158L25.2312 0.769132L25.5389 1.38452L28.0005 11.6922L30.6158 1.38452L30.9235 0.769132L31.5389 0.615285H32.9235C33.2312 0.615285 33.3851 0.769132 33.3851 0.922978V1.23067L33.2312 1.53836L29.5389 13.5384L29.2312 14.1537L28.6158 14.3076H27.2312L26.6158 14.1537L26.462 13.5384L24.0005 3.53836L21.6928 13.3845L21.3851 13.9999L20.7697 14.1537H19.3851ZM39.2312 14.6153C37.797 14.6044 36.3813 14.2898 35.0774 13.6922L34.6158 13.2307L34.462 12.923V12.1537C34.462 11.8461 34.6158 11.6922 34.7697 11.6922H35.0774L35.5389 11.8461C36.6475 12.3595 37.8557 12.6222 39.0774 12.6153C40.0005 12.6153 40.7697 12.3076 41.2312 11.9999C41.8466 11.6922 42.0005 11.2307 42.0005 10.6153L41.6928 9.53836L40.1543 8.76913L37.8466 7.9999C36.7697 7.69221 35.8466 7.07682 35.3851 6.46144C35.0861 6.0698 34.8686 5.62228 34.7453 5.14526C34.6219 4.66824 34.5953 4.17136 34.667 3.6839C34.7387 3.19644 34.9072 2.72825 35.1627 2.30693C35.4181 1.88561 35.7553 1.51967 36.1543 1.23067L37.6928 0.461439C38.6809 0.122848 39.734 0.0175367 40.7697 0.153747C41.3932 0.272844 42.0096 0.426934 42.6158 0.615285L43.2312 0.922978L43.6928 1.23067L43.8466 1.84605V2.46144C43.8466 2.92298 43.6928 3.07682 43.5389 3.07682L42.9235 2.76913C42.0005 2.46144 41.0774 2.30759 40.0005 2.30759C39.0774 2.30759 38.3081 2.30759 37.8466 2.61529C37.3851 2.92298 37.2312 3.38452 37.2312 3.9999C37.2312 4.46144 37.3851 4.76913 37.6928 5.07682C38.0005 5.38452 38.462 5.69221 39.3851 5.9999L41.5389 6.61529C42.6158 7.07682 43.3851 7.53836 43.8466 8.15375C44.3081 8.76913 44.6158 9.53836 44.6158 10.3076L44.1543 12.1537L43.0774 13.3845C42.6158 13.8461 42.0005 14.1537 41.3851 14.3076L39.2312 14.6153Z" fill="var(--black)"/>
<path d="M42.1534 22.1538C35.8776 26.3453 28.381 28.3191 20.8548 27.7616C13.3286 27.2041 6.20467 24.1473 0.614963 19.0768C-0.000421866 18.6153 0.461117 18.1538 0.922655 18.4614C7.0349 21.9239 13.8569 23.9454 20.8687 24.372C27.8806 24.7986 34.8973 23.619 41.3842 20.923C42.1534 20.6153 42.9227 21.5384 42.1534 22.1538Z" fill="#FF9900"/>
<path d="M44.1532 19.6924C43.5378 18.9232 39.8455 19.2309 38.3071 19.5385C37.6917 19.5385 37.6917 19.077 38.1532 18.7693C41.0763 16.7693 45.8455 17.3847 46.3071 18.0001C46.9224 18.7693 46.1532 23.5385 43.5378 25.8462C43.0763 26.1539 42.6147 26.0001 42.7686 25.5385C43.5378 24.0001 44.7686 20.4616 44.1532 19.6924Z" fill="#FF9900"/>
</g>
<defs>
<clipPath id="clip0_566_289">
<rect width="46.7692" height="28" fill="white"/>
</clipPath>
</defs>
</svg>
