<svg width="41" height="24" viewBox="0 0 41 24" fill="none" xmlns="http://www.w3.org/2000/svg">
<path d="M11.3402 8.70325L11.6039 9.89006C11.6039 10.2857 11.7358 10.5494 11.9995 10.945V11.2087L11.8677 11.6043L10.9446 12.1318L10.6809 12.2637L10.2853 12.1318L9.75779 11.4725L9.36219 10.6813C8.30724 11.8681 6.98856 12.5274 5.53801 12.5274C4.3512 12.5274 3.42812 12.1318 2.90065 11.4725C2.24131 10.945 1.8457 10.0219 1.8457 8.96698C1.8457 7.91204 2.24131 6.98896 3.03252 6.32962C3.82373 5.53841 4.87867 5.27468 6.32922 5.27468C7.31005 5.26931 8.28673 5.4025 9.23032 5.67028V4.7472C9.23032 3.69226 8.96658 3.03292 8.57098 2.63731C8.17537 2.10984 7.51603 1.97797 6.46109 1.97797L5.01054 2.10984C4.37602 2.27184 3.75797 2.49258 3.16438 2.76918H2.90065C2.76878 2.76918 2.63691 2.63731 2.63691 2.37358V1.71424L2.76878 1.31863C2.76878 1.18676 2.90065 1.05489 3.16438 1.05489L4.7468 0.395554L6.85669 0.131818C8.43911 0.131818 9.49406 0.527422 10.2853 1.18676C10.9446 1.97797 11.3402 3.03292 11.3402 4.48347V8.70325ZM6.06548 10.8131L7.38416 10.5494C7.91164 10.4175 8.30724 10.0219 8.70285 9.62632L9.09845 8.83511L9.23032 7.6483V7.12083C8.4079 6.93792 7.5673 6.84944 6.72482 6.85709C5.93362 6.85709 5.27427 6.98896 4.7468 7.38457C4.3512 7.6483 4.21933 8.17577 4.21933 8.83511C4.21933 9.49446 4.3512 9.89006 4.61493 10.2857C5.01054 10.5494 5.40614 10.8131 6.06548 10.8131ZM16.6149 12.1318L16.0875 11.9999L15.8237 11.6043L12.7908 1.31863L12.6589 0.791159L12.9226 0.527422H14.2413L14.7688 0.65929L15.0325 1.18676L17.2743 9.89006L19.2523 1.18676L19.516 0.65929L20.0435 0.527422H21.0985L21.6259 0.65929L21.8897 1.18676L23.9996 10.0219L26.2413 1.18676L26.505 0.65929L27.0325 0.527422H28.2193C28.4831 0.527422 28.6149 0.65929 28.6149 0.791159V1.05489L28.4831 1.31863L25.3182 11.6043L25.0545 12.1318L24.527 12.2637H23.3402L22.8127 12.1318L22.6809 11.6043L20.571 3.03292L18.593 11.4725L18.3292 11.9999L17.8017 12.1318H16.6149ZM33.6259 12.5274C32.3965 12.5181 31.1831 12.2485 30.0655 11.7362L29.6699 11.3406L29.538 11.0769V10.4175C29.538 10.1538 29.6699 10.0219 29.8017 10.0219H30.0655L30.4611 10.1538C31.4113 10.5939 32.4469 10.819 33.4941 10.8131C34.2853 10.8131 34.9446 10.5494 35.3402 10.2857C35.8677 10.0219 35.9996 9.62632 35.9996 9.09885L35.7358 8.17577L34.4171 7.51643L32.4391 6.85709C31.516 6.59336 30.7248 6.06588 30.3292 5.53841C30.073 5.20272 29.8865 4.81913 29.7808 4.41026C29.6751 4.00138 29.6523 3.57549 29.7138 3.15766C29.7752 2.73984 29.9196 2.33854 30.1386 1.9774C30.3575 1.61627 30.6465 1.30261 30.9886 1.05489L32.3072 0.395554C33.1542 0.105333 34.0569 0.0150663 34.9446 0.131818C35.4791 0.233902 36.0074 0.365978 36.527 0.527422L37.0545 0.791159L37.4501 1.05489L37.582 1.58237V2.10984C37.582 2.50544 37.4501 2.63731 37.3182 2.63731L36.7908 2.37358C35.9996 2.10984 35.2083 1.97797 34.2853 1.97797C33.4941 1.97797 32.8347 1.97797 32.4391 2.24171C32.0435 2.50544 31.9116 2.90105 31.9116 3.42852C31.9116 3.82413 32.0435 4.08786 32.3072 4.3516C32.571 4.61533 32.9666 4.87907 33.7578 5.14281L35.6039 5.67028C36.527 6.06588 37.1864 6.46149 37.582 6.98896C37.9776 7.51643 38.2413 8.17577 38.2413 8.83511L37.8457 10.4175L36.9226 11.4725C36.527 11.8681 35.9996 12.1318 35.4721 12.2637L33.6259 12.5274Z" fill="white"/>
<path d="M36.1321 18.989C30.7528 22.5817 24.3272 24.2736 17.8761 23.7958C11.4251 23.3179 5.31884 20.6977 0.527669 16.3516C0.000196432 15.956 0.395801 15.5604 0.791405 15.8242C6.03047 18.792 11.8779 20.5247 17.888 20.8904C23.8982 21.256 29.9125 20.2449 35.4727 17.9341C36.1321 17.6703 36.7914 18.4615 36.1321 18.989Z" fill="#FF9900"/>
<path d="M37.8467 16.879C37.3193 16.2197 34.1544 16.4834 32.8357 16.7472C32.3083 16.7472 32.3083 16.3515 32.7039 16.0878C35.2094 14.3735 39.2973 14.901 39.6929 15.4285C40.2204 16.0878 39.561 20.1757 37.3193 22.1537C36.9236 22.4175 36.528 22.2856 36.6599 21.89C37.3193 20.5713 38.3742 17.5384 37.8467 16.879Z" fill="#FF9900"/>
</svg>
