<svg width="29" height="28" viewBox="0 0 29 28" fill="none" xmlns="http://www.w3.org/2000/svg">
<g clip-path="url(#clip0_524_336)">
<path d="M28.0469 14C28.0469 6.26801 21.7789 0 14.0469 0C6.31489 0 0.046875 6.26801 0.046875 14C0.046875 21.732 6.31489 28 14.0469 28C21.7789 28 28.0469 21.732 28.0469 14Z" fill="url(#paint0_linear_524_336)"/>
<path d="M7.62536 14.5977L17.1685 5.12018C17.3467 4.94325 17.6337 5.15864 17.5133 5.37926L13.9614 11.8892C13.8821 12.0343 13.9872 12.2115 14.1526 12.2115H20.2908C20.4886 12.2115 20.584 12.4537 20.4394 12.5887L9.68308 22.6275C9.49024 22.8075 9.20316 22.5538 9.35798 22.3403L14.4498 15.316C14.5542 15.172 14.4514 14.9702 14.2735 14.9702H7.77898C7.58439 14.9702 7.48732 14.7347 7.62536 14.5977Z" fill="white"/>
</g>
<defs>
<linearGradient id="paint0_linear_524_336" x1="14.0469" y1="0" x2="14.0469" y2="28" gradientUnits="userSpaceOnUse">
<stop stop-color="#7BCBD4"/>
<stop offset="1" stop-color="#29C6B7"/>
</linearGradient>
<clipPath id="clip0_524_336">
<rect width="28" height="28" fill="white" transform="translate(0.046875)"/>
</clipPath>
</defs>
</svg>
