<svg width="31" height="30" viewBox="0 0 31 30" fill="none" xmlns="http://www.w3.org/2000/svg">
<g clip-path="url(#clip0_454_646)">
<path d="M9.25757 11.3166L14.9494 8.03045C15.0918 7.94818 15.2674 7.94818 15.4099 8.03045L21.1018 11.3166C21.2441 11.3989 21.332 11.5508 21.332 11.7154V18.2877C21.332 18.4521 21.2441 18.6042 21.1018 18.6865L15.4099 21.9727C15.2674 22.055 15.0918 22.055 14.9494 21.9727L9.25757 18.6865C9.11513 18.6043 9.02734 18.4522 9.02734 18.2877V11.7154C9.02746 11.5508 9.11525 11.3989 9.25757 11.3166Z" fill="#8080F2"/>
<path d="M29.9356 14.4629L23.1277 2.61912C22.8804 2.19088 22.4236 1.875 21.9291 1.875H8.31322C7.81863 1.875 7.36169 2.19088 7.1144 2.61912L0.306563 14.4368C0.0592706 14.8651 0.0592706 15.4057 0.306563 15.8341L7.1144 27.5808C7.36169 28.009 7.81863 28.2279 8.31322 28.2279H21.929C22.4235 28.2279 22.8804 28.0156 23.1276 27.5872L29.9354 15.8214C30.183 15.3932 30.183 14.8911 29.9356 14.4629ZM24.2983 20.1582C24.2983 20.3323 24.1935 20.4934 24.0425 20.5805L15.3708 25.5837C15.22 25.6708 15.0311 25.6708 14.8802 25.5837L6.20182 20.5805C6.051 20.4934 5.94547 20.3324 5.94547 20.1582V10.1517C5.94547 9.97747 6.04947 9.81653 6.20041 9.72935L14.8718 4.72618C15.0226 4.639 15.2113 4.639 15.3621 4.72618L24.0411 9.72935C24.1921 9.81653 24.2983 9.97747 24.2983 10.1517V20.1582Z" fill="#4B32C3"/>
</g>
<defs>
<clipPath id="clip0_454_646">
<rect width="30" height="30" fill="white" transform="translate(0.121094)"/>
</clipPath>
</defs>
</svg>
