<svg width="20" height="28" viewBox="0 0 20 28" fill="none" xmlns="http://www.w3.org/2000/svg">
<g clip-path="url(#clip0_524_450)">
<mask id="mask0_524_450" style="mask-type:luminance" maskUnits="userSpaceOnUse" x="0" y="0" width="19" height="28">
<path d="M18.8874 0H0.220703V28H18.8874V0Z" fill="white"/>
</mask>
<g mask="url(#mask0_524_450)">
<path d="M4.88736 28.0001C7.46336 28.0001 9.55405 25.9094 9.55405 23.3334V18.6667H4.88736C2.31137 18.6667 0.220703 20.7574 0.220703 23.3334C0.220703 25.9094 2.31137 28.0001 4.88736 28.0001Z" fill="#0ACF83"/>
<path d="M0.220703 13.9999C0.220703 11.4239 2.31137 9.33325 4.88736 9.33325H9.55405V18.6666H4.88736C2.31137 18.6666 0.220703 16.5759 0.220703 13.9999Z" fill="#A259FF"/>
<path d="M0.220703 4.66666C0.220703 2.09067 2.31137 0 4.88736 0H9.55405V9.33335H4.88736C2.31137 9.33335 0.220703 7.24266 0.220703 4.66666Z" fill="#F24E1E"/>
<path d="M9.55469 0H14.2214C16.7974 0 18.888 2.09067 18.888 4.66666C18.888 7.24266 16.7974 9.33335 14.2214 9.33335H9.55469V0Z" fill="#FF7262"/>
<path d="M18.888 13.9999C18.888 16.5759 16.7974 18.6666 14.2214 18.6666C11.6454 18.6666 9.55469 16.5759 9.55469 13.9999C9.55469 11.4239 11.6454 9.33325 14.2214 9.33325C16.7974 9.33325 18.888 11.4239 18.888 13.9999Z" fill="#1ABCFE"/>
</g>
</g>
<defs>
<clipPath id="clip0_524_450">
<rect width="18.9" height="28" fill="white" transform="translate(0.220703)"/>
</clipPath>
</defs>
</svg>
