<svg width="16" height="16" viewBox="0 0 16 16" fill="none" xmlns="http://www.w3.org/2000/svg">
<path fill-rule="evenodd" clip-rule="evenodd" d="M8.00006 0.375C3.68587 0.375 0.1875 3.87272 0.1875 8.18756C0.1875 11.6394 2.42604 14.5678 5.53021 15.6009C5.92066 15.6732 6.064 15.4314 6.064 15.2251C6.064 15.0388 6.05676 14.4233 6.05339 13.7705C3.87993 14.2431 3.4213 12.8487 3.4213 12.8487C3.06592 11.9457 2.55386 11.7056 2.55386 11.7056C1.84502 11.2207 2.60729 11.2307 2.60729 11.2307C3.39181 11.2858 3.80489 12.0358 3.80489 12.0358C4.50169 13.2301 5.63254 12.8848 6.07836 12.6852C6.14848 12.1803 6.35095 11.8356 6.57438 11.6405C4.8391 11.443 3.01494 10.7731 3.01494 7.77952C3.01494 6.92657 3.32013 6.22964 3.8199 5.68252C3.73878 5.48574 3.47137 4.69114 3.89558 3.61501C3.89558 3.61501 4.55163 3.40504 6.04459 4.41583C6.66778 4.24273 7.33612 4.15592 8.00006 4.15294C8.66401 4.15592 9.33286 4.24273 9.95722 4.41583C11.4484 3.40504 12.1035 3.61501 12.1035 3.61501C12.5288 4.69114 12.2612 5.48574 12.1801 5.68252C12.681 6.22964 12.9842 6.92657 12.9842 7.77952C12.9842 10.7802 11.1565 11.4409 9.41683 11.6343C9.69705 11.8768 9.94674 12.3522 9.94674 13.0811C9.94674 14.1264 9.93768 14.9677 9.93768 15.2251C9.93768 15.433 10.0783 15.6766 10.4743 15.5998C13.5768 14.5656 15.8125 11.6382 15.8125 8.18756C15.8125 3.87272 12.3146 0.375 8.00006 0.375ZM3.11356 11.5042C3.09635 11.543 3.03529 11.5546 2.97966 11.528C2.92299 11.5025 2.89117 11.4496 2.90954 11.4106C2.92636 11.3707 2.98755 11.3595 3.04409 11.3863C3.10088 11.4118 3.13322 11.4652 3.11356 11.5042ZM3.49785 11.8471C3.46059 11.8816 3.38775 11.8656 3.33833 11.811C3.28723 11.7565 3.27766 11.6837 3.31544 11.6486C3.35386 11.6141 3.4245 11.6302 3.47573 11.6847C3.52683 11.7398 3.53679 11.8121 3.49785 11.8471ZM3.76149 12.2858C3.71362 12.319 3.63535 12.2879 3.58697 12.2184C3.5391 12.1489 3.5391 12.0656 3.588 12.0322C3.63652 11.9988 3.71362 12.0289 3.76265 12.0978C3.81039 12.1684 3.81039 12.2518 3.76149 12.2858ZM4.20736 12.7939C4.16454 12.8411 4.07333 12.8284 4.00657 12.764C3.93826 12.701 3.91925 12.6116 3.9622 12.5644C4.00554 12.517 4.09726 12.5304 4.16454 12.5943C4.23233 12.6571 4.25303 12.7472 4.20736 12.7939ZM4.7836 12.9654C4.76471 13.0266 4.67687 13.0544 4.58838 13.0284C4.50002 13.0017 4.44219 12.93 4.46004 12.8681C4.47841 12.8066 4.56664 12.7776 4.65578 12.8054C4.74401 12.832 4.80197 12.9032 4.7836 12.9654ZM5.43939 13.0382C5.44159 13.1026 5.36655 13.156 5.27366 13.1572C5.18025 13.1593 5.1047 13.1071 5.10367 13.0437C5.10367 12.9787 5.17702 12.9258 5.27043 12.9242C5.36332 12.9224 5.43939 12.9741 5.43939 13.0382ZM6.08363 13.0135C6.09475 13.0764 6.0302 13.1409 5.93795 13.1581C5.84726 13.1747 5.7633 13.1359 5.75179 13.0735C5.74053 13.0091 5.80625 12.9445 5.89681 12.9278C5.98918 12.9118 6.07185 12.9496 6.08363 13.0135Z" fill="white"/>
</svg>
