<svg width="29" height="28" viewBox="0 0 29 28" fill="none" xmlns="http://www.w3.org/2000/svg">
<g clip-path="url(#clip0_524_447)">
<path d="M14.4572 0C6.5406 0 0.121094 6.41838 0.121094 14.3361C0.121094 20.6702 4.22881 26.044 9.92501 27.9396C10.6415 28.0724 10.9046 27.6286 10.9046 27.2499C10.9046 26.9081 10.8911 25.7788 10.8851 24.581C6.89676 25.4481 6.05519 22.8894 6.05519 22.8894C5.40301 21.2324 4.46333 20.7917 4.46333 20.7917C3.16268 19.902 4.56145 19.9203 4.56145 19.9203C6.00098 20.0213 6.759 21.3976 6.759 21.3976C8.0377 23.5892 10.1128 22.9556 10.9309 22.5893C11.0596 21.6628 11.4311 21.0302 11.8411 20.6723C8.65684 20.3099 5.30949 19.0805 5.30949 13.5874C5.30949 12.0222 5.86949 10.7433 6.78655 9.7393C6.6377 9.37821 6.14703 7.92019 6.92543 5.94541C6.92543 5.94541 8.12932 5.56013 10.8689 7.41496C12.0125 7.09733 13.2389 6.93806 14.4572 6.93258C15.6755 6.93806 16.903 7.09722 18.0486 7.41496C20.7849 5.56024 21.9871 5.94552 21.9871 5.94552C22.7674 7.92008 22.2765 9.37832 22.1276 9.7393C23.0468 10.7433 23.603 12.0222 23.603 13.5874C23.603 19.0936 20.2493 20.306 17.0569 20.661C17.5711 21.1058 18.0293 21.9783 18.0293 23.3158C18.0293 25.2339 18.0128 26.7777 18.0128 27.2499C18.0128 27.6315 18.2708 28.0785 18.9975 27.9376C24.6905 26.04 28.7931 20.6681 28.7931 14.3362C28.7931 6.41838 22.3745 0 14.4572 0ZM5.49049 20.4221C5.4589 20.4933 5.34679 20.5147 5.24476 20.4658C5.14071 20.4191 5.08236 20.322 5.11596 20.2505C5.14687 20.1771 5.25921 20.1566 5.36292 20.2058C5.46708 20.2526 5.52644 20.3506 5.49049 20.4221ZM6.19564 21.0513C6.12732 21.1147 5.99359 21.0852 5.90287 20.9851C5.80913 20.8852 5.79154 20.7515 5.86087 20.6872C5.93143 20.6238 6.06101 20.6535 6.15498 20.7534C6.24884 20.8545 6.26698 20.9872 6.19564 21.0513ZM6.67948 21.8564C6.59156 21.9174 6.44797 21.8602 6.35916 21.7327C6.27135 21.6052 6.27135 21.4524 6.36106 21.3911C6.4501 21.3298 6.59156 21.3849 6.68149 21.5115C6.76908 21.6411 6.76908 21.794 6.67937 21.8565L6.67948 21.8564ZM7.49753 22.7888C7.41901 22.8754 7.25157 22.8521 7.12905 22.7339C7.00372 22.6183 6.96889 22.4543 7.04773 22.3676C7.12725 22.2807 7.29559 22.3051 7.41901 22.4225C7.54333 22.5379 7.58141 22.7031 7.49753 22.7888ZM8.55503 23.1035C8.52031 23.2158 8.35903 23.2669 8.19674 23.2192C8.03457 23.17 7.9285 23.0385 7.96121 22.9251C7.99492 22.8119 8.15687 22.7588 8.32039 22.8099C8.48234 22.8588 8.58874 22.9892 8.55503 23.1035ZM9.75836 23.2371C9.76239 23.3552 9.62474 23.4532 9.45428 23.4555C9.28292 23.4593 9.14415 23.3636 9.14225 23.2472C9.14225 23.1279 9.27687 23.0308 9.44834 23.0279C9.61881 23.0245 9.75836 23.1195 9.75836 23.2371ZM10.9405 23.1917C10.9609 23.3071 10.8425 23.4256 10.6732 23.4572C10.5069 23.4875 10.3527 23.4163 10.3316 23.3019C10.311 23.1837 10.4316 23.0652 10.5977 23.0346C10.7673 23.0051 10.9189 23.0745 10.9405 23.1917Z" fill="#24292F"/>
</g>
<defs>
<clipPath id="clip0_524_447">
<rect width="28.672" height="28" fill="white" transform="translate(0.121094)"/>
</clipPath>
</defs>
</svg>
