<svg width="48" height="48" viewBox="0 0 48 48" fill="none" xmlns="http://www.w3.org/2000/svg">
<path fill-rule="evenodd" clip-rule="evenodd" d="M24.0002 1.125C11.0576 1.125 0.5625 11.6182 0.5625 24.5627C0.5625 34.9181 7.27811 43.7035 16.5906 46.8027C17.762 47.0196 18.192 46.2942 18.192 45.6752C18.192 45.1163 18.1703 43.27 18.1602 41.3116C11.6398 42.7294 10.2639 38.5462 10.2639 38.5462C9.19775 35.8371 7.66157 35.1168 7.66157 35.1168C5.53507 33.6621 7.82187 33.692 7.82187 33.692C10.1754 33.8574 11.4147 36.1073 11.4147 36.1073C13.5051 39.6904 16.8976 38.6545 18.2351 38.0556C18.4454 36.5408 19.0528 35.5069 19.7231 34.9216C14.5173 34.3289 9.04483 32.3192 9.04483 23.3386C9.04483 20.7797 9.9604 18.6889 11.4597 17.0476C11.2164 16.4572 10.4141 14.0734 11.6867 10.845C11.6867 10.845 13.6549 10.2151 18.1338 13.2475C20.0034 12.7282 22.0084 12.4678 24.0002 12.4588C25.992 12.4678 27.9986 12.7282 29.8716 13.2475C34.3451 10.2151 36.3105 10.845 36.3105 10.845C37.5863 14.0734 36.7836 16.4572 36.5403 17.0476C38.0431 18.6889 38.9525 20.7797 38.9525 23.3386C38.9525 32.3406 33.4695 34.3227 28.2505 34.9029C29.0911 35.6303 29.8402 37.0566 29.8402 39.2433C29.8402 42.3793 29.813 44.9032 29.813 45.6752C29.813 46.2989 30.2349 47.0297 31.423 46.7995C40.7304 43.6969 47.4375 34.9146 47.4375 24.5627C47.4375 11.6182 36.9439 1.125 24.0002 1.125ZM9.34068 34.5125C9.28906 34.6289 9.10587 34.6639 8.93898 34.5839C8.76898 34.5074 8.6735 34.3487 8.72862 34.2319C8.77907 34.1119 8.96265 34.0786 9.13226 34.1589C9.30264 34.2354 9.39967 34.3957 9.34068 34.5125ZM10.4936 35.5412C10.3818 35.6448 10.1633 35.5967 10.015 35.4329C9.8617 35.2695 9.83298 35.051 9.94631 34.9458C10.0616 34.8422 10.2735 34.8907 10.4272 35.0541C10.5805 35.2194 10.6104 35.4364 10.4936 35.5412ZM11.2845 36.8574C11.1409 36.9571 10.9061 36.8636 10.7609 36.6552C10.6173 36.4467 10.6173 36.1968 10.764 36.0966C10.9095 35.9965 11.1409 36.0866 11.288 36.2934C11.4312 36.5053 11.4312 36.7553 11.2845 36.8574ZM12.6221 38.3817C12.4936 38.5233 12.22 38.4853 12.0197 38.292C11.8148 38.103 11.7577 37.8348 11.8866 37.6932C12.0166 37.5511 12.2918 37.5911 12.4936 37.7828C12.697 37.9714 12.7591 38.2416 12.6221 38.3817ZM14.3508 38.8963C14.2941 39.0799 14.0306 39.1633 13.7651 39.0853C13.5 39.005 13.3266 38.7899 13.3801 38.6044C13.4352 38.4197 13.6999 38.3327 13.9673 38.4162C14.232 38.4961 14.4059 38.7096 14.3508 38.8963ZM16.3182 39.1146C16.3248 39.3078 16.0997 39.4681 15.821 39.4716C15.5408 39.4778 15.3141 39.3214 15.311 39.1312C15.311 38.936 15.5311 38.7773 15.8113 38.7726C16.09 38.7672 16.3182 38.9224 16.3182 39.1146ZM18.2509 39.0405C18.2843 39.2291 18.0906 39.4228 17.8139 39.4744C17.5418 39.5241 17.2899 39.4076 17.2554 39.2206C17.2216 39.0273 17.4188 38.8336 17.6904 38.7835C17.9676 38.7354 18.2156 38.8487 18.2509 39.0405Z" fill="white"/>
</svg>
