<svg width="29" height="28" viewBox="0 0 29 28" fill="none" xmlns="http://www.w3.org/2000/svg">
<path fill-rule="evenodd" clip-rule="evenodd" d="M14.9856 1.93286L25.436 7.96642V20.0336L14.9856 26.0671L4.53516 20.0336V7.96642L14.9856 1.93286ZM5.70771 8.6434V17.507L13.3839 4.21159L5.70771 8.6434ZM14.9856 3.78241L6.1369 19.1088H23.8343L14.9856 3.78241ZM22.6617 20.2814H7.30945L14.9856 24.7132L22.6617 20.2814ZM24.2635 17.507L16.5873 4.21159L24.2635 8.6434V17.507Z" fill="#E10098"/>
<path d="M14.9872 5.07934C16.3511 5.07934 17.4568 3.97366 17.4568 2.60974C17.4568 1.24581 16.3511 0.140137 14.9872 0.140137C13.6233 0.140137 12.5176 1.24581 12.5176 2.60974C12.5176 3.97366 13.6233 5.07934 14.9872 5.07934Z" fill="#E10098"/>
<path d="M24.8505 10.7746C26.2144 10.7746 27.3201 9.66897 27.3201 8.30505C27.3201 6.94113 26.2144 5.83545 24.8505 5.83545C23.4865 5.83545 22.3809 6.94113 22.3809 8.30505C22.3809 9.66897 23.4865 10.7746 24.8505 10.7746Z" fill="#E10098"/>
<path d="M24.8505 22.1648C26.2144 22.1648 27.3201 21.0591 27.3201 19.6952C27.3201 18.3313 26.2144 17.2256 24.8505 17.2256C23.4865 17.2256 22.3809 18.3313 22.3809 19.6952C22.3809 21.0591 23.4865 22.1648 24.8505 22.1648Z" fill="#E10098"/>
<path d="M14.9872 27.8599C16.3511 27.8599 17.4568 26.7542 17.4568 25.3903C17.4568 24.0263 16.3511 22.9207 14.9872 22.9207C13.6233 22.9207 12.5176 24.0263 12.5176 25.3903C12.5176 26.7542 13.6233 27.8599 14.9872 27.8599Z" fill="#E10098"/>
<path d="M5.11999 22.1648C6.48391 22.1648 7.58959 21.0591 7.58959 19.6952C7.58959 18.3313 6.48391 17.2256 5.11999 17.2256C3.75607 17.2256 2.65039 18.3313 2.65039 19.6952C2.65039 21.0591 3.75607 22.1648 5.11999 22.1648Z" fill="#E10098"/>
<path d="M5.11999 10.7746C6.48391 10.7746 7.58959 9.66897 7.58959 8.30505C7.58959 6.94113 6.48391 5.83545 5.11999 5.83545C3.75607 5.83545 2.65039 6.94113 2.65039 8.30505C2.65039 9.66897 3.75607 10.7746 5.11999 10.7746Z" fill="#E10098"/>
</svg>
