<svg width="28" height="28" viewBox="0 0 28 28" fill="none" xmlns="http://www.w3.org/2000/svg">
<title>Instagram</title>
<g clip-path="url(#clip0_531_270)">
<path d="M14 2.52262C17.7381 2.52262 18.1809 2.53684 19.6571 2.60411C21.0221 2.66645 21.7634 2.8945 22.2568 3.08623C22.9102 3.3402 23.3766 3.64361 23.8665 4.1335C24.3565 4.62339 24.6598 5.08977 24.9138 5.74317C25.1055 6.23656 25.3335 6.97791 25.3959 8.3428C25.4632 9.81914 25.4774 10.2619 25.4774 14C25.4774 17.7382 25.4632 18.181 25.3959 19.6572C25.3335 21.0222 25.1055 21.7634 24.9138 22.2568C24.6598 22.9102 24.3564 23.3767 23.8665 23.8666C23.3766 24.3565 22.9102 24.6599 22.2568 24.9138C21.7634 25.1055 21.0221 25.3337 19.6571 25.3959C18.1811 25.4633 17.7383 25.4775 14 25.4775C10.2616 25.4775 9.81881 25.4633 8.3428 25.3959C6.9778 25.3335 6.23656 25.1055 5.74317 24.9138C5.08977 24.6599 4.62328 24.3565 4.13339 23.8666C3.6435 23.3766 3.34009 22.9102 3.08623 22.2568C2.8945 21.7635 2.66634 21.0222 2.60411 19.6572C2.53673 18.181 2.52252 17.7382 2.52252 14C2.52252 10.2619 2.53673 9.81914 2.60411 8.34291C2.66645 6.97791 2.8945 6.23656 3.08623 5.74317C3.34009 5.08977 3.6435 4.62339 4.13339 4.1335C4.62339 3.6435 5.08977 3.3402 5.74317 3.08623C6.23645 2.8945 6.9778 2.66645 8.3428 2.60411C9.81903 2.53684 10.2618 2.52262 14 2.52262ZM14 0C10.1978 0 9.72103 0.0160781 8.22784 0.0842187C6.73761 0.15225 5.71987 0.388937 4.82945 0.735C3.90873 1.09277 3.12802 1.5715 2.3497 2.34981C1.57139 3.12812 1.09277 3.90884 0.735 4.82945C0.388828 5.71998 0.15225 6.73772 0.0842187 8.22784C0.0160781 9.72103 0 10.1978 0 14C0 17.8022 0.0160781 18.279 0.0842187 19.7722C0.15225 21.2624 0.388828 22.2801 0.735 23.1705C1.09266 24.0912 1.57139 24.872 2.3497 25.6503C3.12802 26.4286 3.90873 26.9072 4.82945 27.265C5.71998 27.6112 6.73761 27.8477 8.22773 27.9158C9.72103 27.9839 10.1978 28 14 28C17.8022 28 18.279 27.9839 19.7722 27.9158C21.2623 27.8477 22.28 27.6112 23.1704 27.265C24.0912 26.9073 24.8719 26.4286 25.6502 25.6503C26.4285 24.872 26.9072 24.0913 27.265 23.1705C27.6111 22.28 27.8477 21.2624 27.9158 19.7723C27.9839 18.279 28 17.8022 28 14C28 10.1978 27.9839 9.72103 27.9158 8.22784C27.8477 6.73772 27.6111 5.71998 27.265 4.82956C26.9072 3.90884 26.4285 3.12812 25.6502 2.34981C24.8719 1.5715 24.0912 1.09266 23.1705 0.735C22.28 0.388937 21.2623 0.15225 19.7722 0.0842187C18.279 0.0160781 17.8022 0 14 0ZM14 6.81078C10.0295 6.81078 6.81078 10.0297 6.81078 14C6.81078 17.9705 10.0295 21.1892 14 21.1892C17.9704 21.1892 21.1892 17.9705 21.1892 14C21.1892 10.0296 17.9704 6.81078 14 6.81078ZM14 18.6667C11.4227 18.6667 9.3333 16.5773 9.3333 14C9.3333 11.4227 11.4227 9.3333 14 9.3333C16.5773 9.3333 18.6667 11.4227 18.6667 14C18.6667 16.5773 16.5773 18.6667 14 18.6667ZM23.1532 6.52673C23.1532 7.45467 22.4011 8.20673 21.4732 8.20673C20.5453 8.20673 19.7932 7.45467 19.7932 6.52673C19.7932 5.59891 20.5453 4.84673 21.4732 4.84673C22.4011 4.84673 23.1532 5.59891 23.1532 6.52673Z" fill="black"/>
</g>
<defs>
<clipPath id="clip0_531_270">
<rect width="28" height="28" fill="white"/>
</clipPath>
</defs>
</svg>
