<svg width="48" height="48" viewBox="0 0 48 48" fill="none" xmlns="http://www.w3.org/2000/svg">
<g clip-path="url(#clip0_603_481)">
<path d="M24 4.3245C30.4082 4.3245 31.1672 4.34888 33.6979 4.46419C36.0379 4.57106 37.3088 4.962 38.1546 5.29069C39.2747 5.72606 40.0742 6.24619 40.914 7.086C41.754 7.92581 42.2739 8.72531 42.7093 9.84544C43.038 10.6912 43.4289 11.9621 43.5358 14.3019C43.6511 16.8328 43.6755 17.5918 43.6755 24C43.6755 30.4084 43.6511 31.1674 43.5358 33.6981C43.4289 36.0381 43.038 37.3088 42.7093 38.1546C42.2739 39.2747 41.7538 40.0744 40.914 40.9142C40.0742 41.754 39.2747 42.2741 38.1546 42.7093C37.3088 43.038 36.0379 43.4291 33.6979 43.5358C31.1676 43.6513 30.4086 43.6757 24 43.6757C17.5912 43.6757 16.8323 43.6513 14.3019 43.5358C11.9619 43.4289 10.6912 43.038 9.84544 42.7093C8.72531 42.2741 7.92562 41.754 7.08581 40.9142C6.246 40.0742 5.72587 39.2747 5.29069 38.1546C4.962 37.3089 4.57088 36.0381 4.46419 33.6981C4.34869 31.1674 4.32431 30.4084 4.32431 24C4.32431 17.5918 4.34869 16.8328 4.46419 14.3021C4.57106 11.9621 4.962 10.6912 5.29069 9.84544C5.72587 8.72531 6.246 7.92581 7.08581 7.086C7.92581 6.246 8.72531 5.72606 9.84544 5.29069C10.6911 4.962 11.9619 4.57106 14.3019 4.46419C16.8326 4.34888 17.5916 4.3245 24 4.3245ZM24 0C17.4819 0 16.6646 0.0275625 14.1049 0.144375C11.5502 0.261 9.8055 0.66675 8.27906 1.26C6.70069 1.87331 5.36231 2.694 4.02806 4.02825C2.69381 5.3625 1.87331 6.70087 1.26 8.27906C0.666562 9.80569 0.261 11.5504 0.144375 14.1049C0.0275625 16.6646 0 17.4819 0 24C0 30.5181 0.0275625 31.3354 0.144375 33.8951C0.261 36.4498 0.666562 38.1945 1.26 39.7209C1.87312 41.2991 2.69381 42.6377 4.02806 43.9719C5.36231 45.3062 6.70069 46.1267 8.27906 46.74C9.80569 47.3334 11.5502 47.739 14.1047 47.8556C16.6646 47.9724 17.4819 48 24 48C30.5181 48 31.3354 47.9724 33.8951 47.8556C36.4496 47.739 38.1943 47.3334 39.7207 46.74C41.2991 46.1269 42.6375 45.3062 43.9718 43.9719C45.306 42.6377 46.1267 41.2993 46.74 39.7209C47.3332 38.1943 47.739 36.4498 47.8556 33.8953C47.9724 31.3354 48 30.5181 48 24C48 17.4819 47.9724 16.6646 47.8556 14.1049C47.739 11.5504 47.3332 9.80569 46.74 8.27925C46.1267 6.70087 45.306 5.3625 43.9718 4.02825C42.6375 2.694 41.2991 1.87312 39.7209 1.26C38.1943 0.66675 36.4496 0.261 33.8951 0.144375C31.3354 0.0275625 30.5181 0 24 0ZM24 11.6756C17.1934 11.6756 11.6756 17.1938 11.6756 24C11.6756 30.8066 17.1934 36.3244 24 36.3244C30.8064 36.3244 36.3244 30.8066 36.3244 24C36.3244 17.1936 30.8064 11.6756 24 11.6756ZM24 32.0001C19.5818 32.0001 15.9999 28.4182 15.9999 24C15.9999 19.5818 19.5818 15.9999 24 15.9999C28.4182 15.9999 32.0001 19.5818 32.0001 24C32.0001 28.4182 28.4182 32.0001 24 32.0001ZM39.6911 11.1887C39.6911 12.7794 38.4019 14.0687 36.8111 14.0687C35.2206 14.0687 33.9311 12.7794 33.9311 11.1887C33.9311 9.59813 35.2206 8.30869 36.8111 8.30869C38.4019 8.30869 39.6911 9.59813 39.6911 11.1887Z" fill="white"/>
</g>
<defs>
<clipPath id="clip0_603_481">
<rect width="48" height="48" fill="white"/>
</clipPath>
</defs>
</svg>
