<svg width="26" height="28" viewBox="0 0 26 28" fill="none" xmlns="http://www.w3.org/2000/svg">
<g clip-path="url(#clip0_454_638)">
<path d="M23.8013 13.7528C23.8038 13.3884 23.7288 13.0278 23.5814 12.6946C23.4339 12.3615 23.2174 12.0634 22.9462 11.8202C22.6749 11.577 22.3551 11.3942 22.0079 11.2839C21.6606 11.1736 21.294 11.1383 20.9321 11.1803L24.4939 0.59375H9.25716L12.819 11.1803C12.4649 11.153 12.109 11.1993 11.7737 11.3163C11.4384 11.4333 11.1309 11.6184 10.8707 11.8601C10.6104 12.1017 10.4031 12.3946 10.2616 12.7204C10.1201 13.0461 10.0476 13.3976 10.0487 13.7528C10.0487 14.94 10.8402 15.9294 11.9285 16.2263C10.6197 18.4454 8.59656 20.1546 6.19002 21.0743C4.60699 20.2828 3.91441 18.4029 4.50805 16.8199L4.80487 16.3252C5.37695 16.188 5.8847 15.8588 6.24348 15.3925C6.60226 14.9263 6.79039 14.3511 6.7765 13.763C6.76261 13.1749 6.54754 12.6092 6.16715 12.1604C5.78676 11.7117 5.26403 11.4068 4.68611 11.2967C4.10819 11.1866 3.51 11.278 2.99126 11.5555C2.47252 11.833 2.06459 12.28 1.83546 12.8218C1.60633 13.3637 1.56985 13.9677 1.73211 14.5332C1.89437 15.0987 2.24556 15.5915 2.72713 15.9294C2.03455 17.3146 1.14409 18.8976 0.847269 20.6786C0.451509 22.7563 0.847269 25.0319 2.62819 26.3181C6.98154 29.2863 11.6317 24.5372 16.4798 23.251C18.2607 22.8552 20.2395 22.9542 21.8225 21.9648C23.0098 21.3711 23.8013 20.1839 23.9992 18.8976C24.1971 17.7104 23.9003 16.4241 23.1088 15.4347C23.5045 14.94 23.8013 14.3464 23.8013 13.7528Z" fill="#99425B"/>
<path d="M23.4071 18.7986C23.2092 19.8869 22.5166 20.8763 21.5272 21.47C20.5378 21.9647 19.4495 22.1625 18.2622 22.3604L16.3823 22.6572C14.7003 23.053 13.0184 23.8445 11.4353 24.636C8.26925 26.2191 5.59787 27.6042 3.02543 25.8233C1.14557 24.5371 1.24451 22.0636 1.44239 20.7774C1.64027 19.5901 2.23391 18.4028 2.72861 17.3145L3.02543 16.8198L3.81695 17.0177C3.32225 18.7986 4.11377 20.6784 5.89469 21.6678L6.19151 21.7668L6.38939 21.6678C7.87349 21.1731 9.15971 20.3816 10.248 19.2933C11.0396 18.6007 11.6332 17.8092 12.2268 16.9187C13.0788 17.0317 13.941 16.8042 14.6263 16.2856C15.3117 15.767 15.7649 14.999 15.8876 14.1484H17.9654C18.0401 14.6968 18.2531 15.2171 18.5842 15.6606C18.9153 16.104 19.3537 16.456 19.8582 16.6836C20.3627 16.9111 20.9167 17.0066 21.4683 16.9612C22.0198 16.9158 22.5508 16.731 23.0113 16.424C23.4071 17.1166 23.506 18.0071 23.4071 18.7986ZM4.21271 11.7739C4.73752 11.7739 5.24084 11.9823 5.61193 12.3534C5.98303 12.7245 6.19151 13.2278 6.19151 13.7527C6.19151 14.2775 5.98303 14.7808 5.61193 15.1519C5.24084 15.523 4.73752 15.7314 4.21271 15.7314C3.6879 15.7314 3.18459 15.523 2.81349 15.1519C2.44239 14.7808 2.23391 14.2775 2.23391 13.7527C2.23391 13.2278 2.44239 12.7245 2.81349 12.3534C3.18459 11.9823 3.6879 11.7739 4.21271 11.7739ZM10.7427 13.7527C10.7427 13.2278 10.9512 12.7245 11.3223 12.3534C11.6934 11.9823 12.1967 11.7739 12.7215 11.7739C13.2464 11.7739 13.7497 11.9823 14.1208 12.3534C14.4919 12.7245 14.7003 13.2278 14.7003 13.7527C14.7003 14.2775 14.4919 14.7808 14.1208 15.1519C13.7497 15.523 13.2464 15.7314 12.7215 15.7314C12.1967 15.7314 11.6934 15.523 11.3223 15.1519C10.9512 14.7808 10.7427 14.2775 10.7427 13.7527ZM18.9548 11.3781C18.4601 11.7739 18.1632 12.3675 18.0643 12.8622H15.7887C15.6897 12.2686 15.294 11.7739 14.7993 11.3781L16.877 7.22262L18.9548 11.3781ZM10.1491 1.28622H23.6049L20.4389 10.5866L20.0431 10.6855L16.877 4.35336L13.7109 10.6855L13.3152 10.5866L10.1491 1.28622ZM23.1102 13.7527C23.1102 14.2775 22.9018 14.7808 22.5307 15.1519C22.1596 15.523 21.6563 15.7314 21.1314 15.7314C20.7401 15.7314 20.3575 15.6154 20.0321 15.398C19.7067 15.1805 19.453 14.8715 19.3033 14.5099C19.1535 14.1483 19.1143 13.7505 19.1907 13.3666C19.267 12.9828 19.4555 12.6302 19.7322 12.3534C20.009 12.0767 20.3615 11.8882 20.7454 11.8119C21.1292 11.7355 21.5271 11.7747 21.8887 11.9245C22.2503 12.0742 22.5593 12.3279 22.7768 12.6533C22.9942 12.9787 23.1102 13.3613 23.1102 13.7527ZM24.3965 13.7527C24.3965 12.1696 23.2092 10.8834 21.7251 10.5866L25.3859 0H8.36819L12.029 10.5866C11.3969 10.7216 10.8192 11.0411 10.3689 11.5047C9.9186 11.9683 9.61602 12.5551 9.49947 13.1908C9.38293 13.8265 9.45767 14.4825 9.71422 15.0757C9.97077 15.6688 10.3976 16.1725 10.9406 16.523C9.78586 18.2223 8.17366 19.5601 6.29045 20.3816C5.10317 19.5901 4.60847 18.3039 5.10317 17.1166L5.20211 17.0177L5.30105 16.8198C5.97278 16.5923 6.55216 16.1522 6.95158 15.5661C7.351 14.9801 7.54873 14.2799 7.51488 13.5715C7.48103 12.8631 7.21743 12.185 6.76395 11.6397C6.31047 11.0944 5.69177 10.7116 5.0014 10.5491C4.31104 10.3867 3.58655 10.4535 2.9375 10.7393C2.28845 11.0252 1.75013 11.5147 1.40395 12.1336C1.05777 12.7526 0.922546 13.4675 1.01874 14.1702C1.11493 14.8728 1.43729 15.5251 1.93709 16.0283L1.54133 16.8198C1.04663 17.9081 0.452995 19.1943 0.156175 20.5795C-0.239585 23.3498 0.452995 25.6254 2.33285 26.8127C3.42119 27.6042 4.50953 27.9011 5.69681 27.9011C7.77455 27.9011 9.95123 26.8127 12.029 25.8233C13.5131 25.0318 15.0961 24.2403 16.6791 23.9435L18.4601 23.5477C19.7463 23.4488 21.0325 23.2509 22.1208 22.5583C22.7206 22.222 23.2454 21.7667 23.6628 21.2203C24.0803 20.6738 24.3817 20.0479 24.5484 19.3808C24.7152 18.7136 24.7439 18.0195 24.6327 17.3409C24.5215 16.6623 24.2727 16.0136 23.9018 15.4346C24.1986 14.9399 24.3965 14.3463 24.3965 13.7527Z" fill="white"/>
</g>
<defs>
<clipPath id="clip0_454_638">
<rect width="25.3286" height="28" fill="white" transform="translate(0.0566406)"/>
</clipPath>
</defs>
</svg>
