<svg width="49" height="49" viewBox="0 0 49 49" fill="none" xmlns="http://www.w3.org/2000/svg">
<path d="M41.7503 41.7509H34.4901V30.3808C34.4901 27.6695 34.4416 24.1792 30.714 24.1792C26.9326 24.1792 26.354 27.1334 26.354 30.1834V41.7501H19.0939V18.3687H26.0636V21.564H26.1612C26.8587 20.3714 27.8666 19.3902 29.0776 18.7251C30.2886 18.06 31.6574 17.7358 33.0381 17.787C40.3967 17.787 41.7534 22.6273 41.7534 28.9242L41.7503 41.7509ZM10.9017 15.1728C8.57481 15.1732 6.68812 13.287 6.68773 10.9601C6.68735 8.63319 8.57328 6.74649 10.9002 6.74611C13.2271 6.74554 15.1138 8.63165 15.1142 10.9586C15.1144 12.076 14.6707 13.1478 13.8807 13.9381C13.0907 14.7284 12.0192 15.1725 10.9017 15.1728ZM14.5319 41.7511H7.26406V18.3687H14.5318V41.7509L14.5319 41.7511ZM45.3698 0.00344419H3.61586C1.64246 -0.0187589 0.0241172 1.56207 0 3.53546V45.4636C0.0233516 47.4379 1.6415 49.0203 3.61566 48.9996H45.3698C47.3482 49.0241 48.9726 47.4418 49 45.4636V3.53221C48.9719 1.55498 47.3472 -0.0256496 45.3698 0.000190284" fill="#0A66C2"/>
</svg>
