<svg width="14" height="28" viewBox="0 0 14 28" fill="none" xmlns="http://www.w3.org/2000/svg">
<g clip-path="url(#clip0_524_340)">
<path d="M8.95705 3.11661C7.7835 1.72421 6.7729 0.309979 6.56644 0.0163104C6.56153 0.0111565 6.55563 0.00705321 6.54909 0.00424947C6.54255 0.00144573 6.53551 0 6.52839 0C6.52128 0 6.51424 0.00144573 6.5077 0.00424947C6.50115 0.00705321 6.49525 0.0111565 6.49035 0.0163104C6.28389 0.31003 5.27329 1.72421 4.09969 3.11661C-5.97353 15.9638 5.68625 24.6338 5.68625 24.6338L5.78402 24.699C5.87093 26.037 6.0883 27.9626 6.0883 27.9626H6.95763C6.95763 27.9626 7.17489 26.0479 7.26185 24.6991L7.35967 24.6229C7.37054 24.6338 19.0303 15.9638 8.95705 3.11661ZM6.52294 24.4379C6.52294 24.4379 6.00134 23.992 5.86007 23.7636V23.7417L6.49035 9.75235C6.49035 9.70885 6.55558 9.70885 6.55558 9.75235L7.18581 23.7417V23.7636C7.04453 23.992 6.52294 24.438 6.52294 24.438V24.4379Z" fill="#01EC64"/>
</g>
<defs>
<clipPath id="clip0_524_340">
<rect width="13.0565" height="28" fill="white"/>
</clipPath>
</defs>
</svg>
