<svg width="29" height="28" viewBox="0 0 29 28" fill="none" xmlns="http://www.w3.org/2000/svg">
<g clip-path="url(#clip0_524_351)">
<path fill-rule="evenodd" clip-rule="evenodd" d="M16.7944 0.459985C16.5972 0.459985 16.4109 0.503803 16.2466 0.569531C16.6081 0.799578 16.8053 1.11726 16.9039 1.47876C16.9039 1.53354 16.9258 1.5664 16.9368 1.62117L16.9477 1.74167C16.9806 2.36609 16.7834 2.44277 16.6519 2.81523C16.4438 3.28628 16.4986 3.80114 16.7505 4.20646C16.7724 4.26124 16.7944 4.31601 16.8382 4.35983C16.5643 2.57423 18.0541 2.30036 18.339 1.74167C18.3609 1.25967 17.9555 0.931033 17.6379 0.700986C17.3854 0.541957 17.0927 0.458344 16.7944 0.459985ZM19.062 0.87626C19.0291 1.04058 19.062 0.996761 19.051 1.0844L19.0291 1.27063L18.9853 1.43495L18.9305 1.61022L18.8429 1.77454L18.7881 1.85122L18.7443 1.91695C18.7114 1.97172 18.6785 2.02649 18.6347 2.05936C18.6019 2.10318 18.569 2.15795 18.5252 2.19081L18.3828 2.30036C18.2294 2.42086 18.0541 2.5085 17.9117 2.61804C17.857 2.65091 17.8022 2.67282 17.7693 2.72759C17.7145 2.7495 17.6707 2.79332 17.6269 2.83714L17.5064 2.96859L17.3969 3.111L17.2983 3.25341L17.2216 3.41773L17.1668 3.58205C17.1462 3.63972 17.128 3.69819 17.112 3.75732L17.1011 3.85592L17.0901 3.9326L17.0792 4.11883V4.23933L17.112 4.4146C17.112 4.48033 17.123 4.52415 17.1449 4.58988L17.1997 4.75419L17.2435 4.86374L15.6222 4.22837L14.8006 4.00928L14.3624 3.89973C13.9349 3.81628 13.5035 3.75413 13.0698 3.71351H13.026C11.8617 3.58813 10.6856 3.625 9.53144 3.82305L9.2028 3.88878C8.98371 3.92164 8.77557 3.97642 8.57839 4.02024L8.24975 4.10787L7.95398 4.23933L7.71298 4.34887L7.68011 4.35983L7.48293 4.46937L7.42816 4.48033L7.20906 4.58988L7.07761 4.66656L7.01188 4.69942L6.82565 4.80897L6.65038 4.91851L6.50797 5.0171L6.49701 5.02806L6.3546 5.13761L6.24506 5.22524L6.20124 5.25811L6.09169 5.34574C6.09169 5.36765 6.08074 5.36765 6.06978 5.37861L5.93833 5.48815V5.51006C5.88356 5.54293 5.83974 5.58675 5.80687 5.63056L5.78496 5.64152L5.67542 5.75106C5.67542 5.77297 5.64255 5.78393 5.6316 5.80584L5.52205 5.92634L5.47823 5.9592L5.32487 6.13448L5.30296 6.15639C5.0749 6.40571 4.81741 6.62642 4.53614 6.81366C4.12683 7.09301 3.68074 7.31421 3.21063 7.47094C2.91485 7.52571 2.60812 7.64621 2.34521 7.66812L2.16994 7.69003L1.99467 7.73385L1.81939 7.79958L1.65507 7.87626L1.50171 7.97485C1.44694 8.00772 1.39216 8.05153 1.3593 8.09535C1.30453 8.12822 1.24975 8.18299 1.21689 8.22681L1.09639 8.36922L0.986842 8.52258L0.88825 8.6869L0.811568 8.87313L0.74584 9.05936L0.712976 9.22368V9.24559L0.658203 9.44277V9.67282C0.667542 9.76439 0.693529 9.85349 0.734885 9.93573L0.811568 10.0672L0.899205 10.1986C0.979973 10.2795 1.06798 10.3529 1.16212 10.4177C1.32643 10.5711 1.37025 10.6259 1.58935 10.7354L1.69889 10.7902H1.7208V10.834C1.74326 10.9513 1.78006 11.0653 1.83035 11.1736L1.88512 11.3051L1.89607 11.3379C1.95573 11.4439 2.02157 11.5464 2.09326 11.6446L2.2028 11.7761L2.34521 11.8966H2.35617C2.52685 12.0482 2.72881 12.1604 2.94772 12.2252L2.98058 12.2362L3.06822 12.2581C3.04631 12.6415 3.03535 13.003 3.10108 13.1345C3.15586 13.2659 3.47354 12.8387 3.78027 12.3457C3.73645 12.8277 3.71454 13.4083 3.78027 13.5727C3.85695 13.7479 4.28418 13.2002 4.65664 12.5867C5.79935 12.3096 6.98839 12.2819 8.14276 12.5056C9.29713 12.7294 10.3897 13.1992 11.3461 13.8833C12.3026 14.5673 13.1003 15.4495 13.6851 16.4696C14.2699 17.4897 14.6279 18.6239 14.7349 19.7949C14.6472 19.0281 13.7052 18.6118 13.267 18.7104C13.0479 19.2362 12.6973 19.9154 12.1167 20.3317C12.1605 19.8606 12.1386 19.3786 12.04 18.9076C11.8867 19.5648 11.58 20.1673 11.1637 20.6932C10.8394 20.7152 10.5147 20.6567 10.2184 20.5229C9.92218 20.3891 9.66361 20.1842 9.46571 19.9263L9.41094 19.8387L9.35617 19.6853L9.31235 19.5429V19.28C9.31235 19.2252 9.3233 19.1705 9.34521 19.1267C9.34521 19.0828 9.36712 19.0281 9.38903 18.9842L9.47667 18.8309C9.58622 18.5022 9.58622 18.2174 9.36712 18.0641L9.24662 17.9874L9.14803 17.9545L9.09326 17.9326L8.93989 17.8997C8.89359 17.8862 8.84571 17.8788 8.79748 17.8778L8.64412 17.8669H8.53457L8.38121 17.8888L8.22784 17.9216L8.08543 17.9655L7.94302 18.0312L7.80061 18.1079C6.15742 19.1814 7.14334 21.701 8.26071 22.4349C7.84443 22.5116 7.40625 22.5993 7.28575 22.6869L7.27479 22.7088C7.92483 23.0964 8.63608 23.3705 9.37808 23.5195C10.2713 23.6936 11.1906 23.6851 12.0804 23.4942C12.9703 23.3034 13.8122 22.9342 14.5554 22.409C15.2987 21.8838 15.9278 21.2135 16.4049 20.4385C16.8819 19.6635 17.197 18.7999 17.3311 17.8997L17.3749 18.086C17.3969 18.2174 17.4297 18.3489 17.4407 18.4913L17.4626 18.6775V18.7104L17.4845 18.8856L17.4954 19.1267V19.7182L17.4845 19.8058V19.9702C17.4626 19.9921 17.4626 20.014 17.4626 20.0249C17.4626 20.0907 17.4626 20.1345 17.4407 20.1892V20.255C17.4407 20.3317 17.4188 20.3864 17.4078 20.4631V20.4741L17.364 20.6713V20.6932C17.364 20.7589 17.3421 20.8246 17.3202 20.8903V20.9123L17.2654 21.1094V21.1313L17.2106 21.3285V21.3395L17.1449 21.5586L17.0682 21.7558L16.9806 21.9639L16.9039 22.172C16.8601 22.2268 16.8382 22.3035 16.7944 22.3692L16.7834 22.413C16.7834 22.413 16.7834 22.4349 16.7615 22.4349C16.295 23.3712 15.616 24.1852 14.7787 24.8121L14.6034 24.9326C14.6034 24.9545 14.5706 24.9545 14.5596 24.9764L14.4062 25.086L14.4282 25.1188L14.7239 25.075H14.7349C14.9733 25.0369 15.2107 24.9931 15.4469 24.9436L15.5455 24.9216L15.6879 24.8888L15.8194 24.8559C16.5205 24.6916 17.2106 24.4506 17.8679 24.1767C16.7505 25.7104 15.2388 26.9482 13.4751 27.7698C15.3521 27.6427 17.1677 27.0491 18.7573 26.0429C20.3469 25.0367 21.6603 23.6498 22.5784 22.0077C22.2826 23.6509 21.6363 25.1955 20.6723 26.5539C21.968 25.6996 23.071 24.584 23.9105 23.2785C24.7499 21.9731 25.3074 20.5067 25.5471 18.9733C25.7881 20.0907 25.8538 21.2409 25.7443 22.3802C30.8601 15.2597 26.1825 7.86531 24.2106 5.91538L24.1997 5.88252V5.89347L24.1887 5.88252L24.1668 6.13448C24.1488 6.29201 24.1269 6.44908 24.1011 6.60552L23.9806 7.07657C23.8768 7.37862 23.7486 7.67171 23.5972 7.95294C23.3166 8.45206 22.9494 8.8972 22.5127 9.2675L22.3483 9.42086C22.1001 9.62487 21.8279 9.79777 21.5377 9.93573L21.0995 10.1329C20.7945 10.2475 20.4789 10.3319 20.1574 10.3849L19.6754 10.4506C19.2389 10.4738 18.8013 10.4444 18.3718 10.363L17.9008 10.2425C18.7037 10.1713 19.4796 9.91639 20.1684 9.49754L20.5627 9.21272L20.9242 8.89504L21.2529 8.54449C21.3624 8.42399 21.461 8.29254 21.5487 8.16108C21.5706 8.15013 21.5815 8.11726 21.5925 8.09535L21.8006 7.75576C21.9568 7.47691 22.0853 7.18338 22.184 6.87939C22.2278 6.72603 22.2717 6.56171 22.2936 6.40834C22.3264 6.24402 22.3593 6.09066 22.3703 5.93729L22.4031 5.45529L22.3922 5.1157L22.3264 4.64465C22.3045 4.48033 22.2717 4.31601 22.2169 4.16264C22.1731 4.02023 22.1293 3.86687 22.0635 3.71351C22.0087 3.56014 21.943 3.41773 21.8663 3.27532L21.6253 2.85905C21.4403 2.59489 21.2391 2.34245 21.0228 2.10318C20.6462 1.71107 20.2006 1.3917 19.7083 1.16108C19.5001 1.01867 19.2811 0.941988 19.062 0.87626Z" fill="#E0234E"/>
</g>
<defs>
<clipPath id="clip0_524_351">
<rect width="28.9859" height="28" fill="white"/>
</clipPath>
</defs>
</svg>
