<svg width="25" height="24" viewBox="0 0 25 24" fill="none" xmlns="http://www.w3.org/2000/svg">
<g clip-path="url(#clip0_454_505)">
<path fill-rule="evenodd" clip-rule="evenodd" d="M14.456 0.394368C14.287 0.394368 14.1273 0.431927 13.9865 0.488265C14.2964 0.685448 14.4654 0.957749 14.5499 1.26761C14.5499 1.31456 14.5687 1.34273 14.5781 1.38967L14.5874 1.49296C14.6156 2.02817 14.4466 2.0939 14.3339 2.41315C14.1555 2.8169 14.2025 3.25822 14.4184 3.60564C14.4372 3.65258 14.456 3.69953 14.4935 3.73709C14.2588 2.20658 15.5358 1.97183 15.7799 1.49296C15.7987 1.07981 15.4513 0.798124 15.179 0.600941C14.9626 0.46463 14.7117 0.392962 14.456 0.394368ZM16.3996 0.751176C16.3715 0.892021 16.3996 0.854462 16.3903 0.92958L16.3715 1.0892L16.3339 1.23005L16.287 1.38028L16.2119 1.52113L16.1649 1.58686L16.1273 1.64319C16.0992 1.69014 16.071 1.73709 16.0335 1.76526C16.0053 1.80282 15.9771 1.84977 15.9396 1.87794L15.8175 1.97183C15.686 2.07512 15.5358 2.15024 15.4137 2.24413C15.3668 2.2723 15.3198 2.29108 15.2917 2.33803C15.2447 2.35681 15.2072 2.39437 15.1696 2.43193L15.0663 2.5446L14.9724 2.66667L14.8879 2.78873L14.8222 2.92958L14.7752 3.07042C14.7576 3.11986 14.7419 3.16998 14.7283 3.22066L14.7189 3.30517L14.7095 3.37089L14.7001 3.53052V3.63381L14.7283 3.78404C14.7283 3.84038 14.7377 3.87794 14.7565 3.93427L14.8034 4.07512L14.841 4.16902L13.4513 3.62442L12.7471 3.43662L12.3715 3.34273C12.005 3.27119 11.6352 3.21792 11.2635 3.1831H11.2259C10.228 3.07564 9.21991 3.10724 8.23063 3.277L7.94894 3.33334C7.76115 3.3615 7.58275 3.40845 7.41373 3.44601L7.13204 3.52113L6.87852 3.63381L6.67195 3.7277L6.64378 3.73709L6.47477 3.83099L6.42782 3.84038L6.24002 3.93427L6.12735 4L6.07101 4.02817L5.91138 4.12207L5.76115 4.21596L5.63908 4.30047L5.62969 4.30986L5.50763 4.40376L5.41373 4.47888L5.37617 4.50704L5.28228 4.58216C5.28228 4.60094 5.27289 4.60094 5.2635 4.61033L5.15082 4.70423V4.72301C5.10387 4.75118 5.06631 4.78873 5.03815 4.82629L5.01937 4.83568L4.92547 4.92958C4.92547 4.94836 4.8973 4.95775 4.88791 4.97653L4.79401 5.07981L4.75646 5.10798L4.625 5.25822L4.60622 5.277C4.41074 5.4907 4.19003 5.67988 3.94894 5.84038C3.59811 6.07982 3.21575 6.26942 2.81279 6.40376C2.55927 6.45071 2.29636 6.55399 2.07101 6.57277L1.92077 6.59155L1.77054 6.62911L1.62031 6.68545L1.47946 6.75118L1.348 6.83568C1.30106 6.86385 1.25411 6.90141 1.22594 6.93897C1.17899 6.96714 1.13204 7.01409 1.10387 7.05165L1.00059 7.17371L0.90669 7.30517L0.822183 7.44601L0.756455 7.60564L0.700117 7.76526L0.671948 7.90611V7.92488L0.625 8.0939V8.29108C0.633005 8.36958 0.655279 8.44594 0.690728 8.51643L0.756455 8.62911L0.831573 8.74179C0.900803 8.81113 0.976235 8.87399 1.05692 8.92958C1.19777 9.06103 1.23533 9.10798 1.42312 9.20188L1.51702 9.24883H1.5358V9.28639C1.55505 9.38689 1.58659 9.48465 1.62969 9.57747L1.67664 9.69014L1.68603 9.71831C1.73716 9.80919 1.7936 9.89698 1.85505 9.98122L1.94894 10.0939L2.07101 10.1972H2.0804C2.22669 10.3272 2.3998 10.4233 2.58744 10.4789L2.61561 10.4883L2.69073 10.507C2.67195 10.8357 2.66256 11.1455 2.7189 11.2582C2.76584 11.3709 3.03815 11.0047 3.30106 10.5822C3.2635 10.9953 3.24472 11.493 3.30106 11.6338C3.36678 11.784 3.73298 11.3146 4.05223 10.7887C5.0317 10.5511 6.05087 10.5274 7.04034 10.7192C8.0298 10.911 8.96631 11.3137 9.78609 11.9001C10.6059 12.4864 11.2897 13.2425 11.7909 14.1169C12.2921 14.9913 12.5991 15.9634 12.6907 16.9671C12.6156 16.3099 11.8081 15.9531 11.4325 16.0376C11.2447 16.4883 10.9442 17.0704 10.4466 17.4272C10.4842 17.0235 10.4654 16.6103 10.3809 16.2066C10.2494 16.77 9.9865 17.2864 9.62969 17.7371C9.35172 17.756 9.07339 17.7059 8.81947 17.5912C8.56555 17.4765 8.34392 17.3008 8.1743 17.0798L8.12735 17.0047L8.0804 16.8732L8.04284 16.7512V16.5258C8.04284 16.4789 8.05223 16.4319 8.07101 16.3944C8.07101 16.3568 8.08979 16.3099 8.10857 16.2723L8.18369 16.1408C8.27758 15.8592 8.27758 15.615 8.08979 15.4836L7.9865 15.4178L7.902 15.3897L7.85505 15.3709L7.72359 15.3427C7.68391 15.3311 7.64286 15.3248 7.60153 15.3239L7.47007 15.3146H7.37617L7.24472 15.3333L7.11326 15.3615L6.9912 15.3991L6.86913 15.4554L6.74707 15.5211C5.33861 16.4413 6.18369 18.6009 7.14143 19.23C6.78462 19.2958 6.40904 19.3709 6.30575 19.446L6.29636 19.4648C6.85354 19.797 7.46318 20.0319 8.09918 20.1596C8.86481 20.3089 9.65276 20.3016 10.4155 20.138C11.1782 19.9744 11.8999 19.658 12.5369 19.2078C13.174 18.7577 13.7132 18.1831 14.1221 17.5188C14.531 16.8545 14.8011 16.1143 14.9161 15.3427L14.9536 15.5023C14.9724 15.615 15.0006 15.7277 15.01 15.8498L15.0288 16.0094V16.0376L15.0475 16.1878L15.0569 16.3944V16.9014L15.0475 16.9765V17.1174C15.0288 17.1362 15.0288 17.1549 15.0288 17.1643C15.0288 17.2207 15.0288 17.2582 15.01 17.3052V17.3615C15.01 17.4272 14.9912 17.4742 14.9818 17.5399V17.5493L14.9442 17.7183V17.7371C14.9442 17.7934 14.9255 17.8498 14.9067 17.9061V17.9249L14.8597 18.0939V18.1127L14.8128 18.2817V18.2911L14.7565 18.4789L14.6907 18.6479L14.6156 18.8263L14.5499 19.0047C14.5123 19.0516 14.4935 19.1174 14.456 19.1737L14.4466 19.2113C14.4466 19.2113 14.4466 19.23 14.4278 19.23C14.028 20.0325 13.446 20.7303 12.7283 21.2676L12.5781 21.3709C12.5781 21.3897 12.5499 21.3897 12.5405 21.4085L12.409 21.5023L12.4278 21.5305L12.6813 21.493H12.6907C12.895 21.4603 13.0985 21.4227 13.3011 21.3803L13.3856 21.3615L13.5076 21.3333L13.6203 21.3052C14.2212 21.1643 14.8128 20.9577 15.3762 20.723C14.4184 22.0376 13.1227 23.0986 11.6109 23.8028C13.2198 23.6938 14.776 23.185 16.1385 22.3226C17.501 21.4602 18.6268 20.2713 19.4137 18.8639C19.1602 20.2723 18.6062 21.5962 17.7799 22.7606C18.8906 22.0283 19.836 21.0721 20.5555 19.9531C21.2751 18.8342 21.7529 17.5773 21.9583 16.2629C22.1649 17.2207 22.2212 18.2066 22.1273 19.1831C26.5123 13.0798 22.5029 6.74179 20.8128 5.07042L20.8034 5.04226V5.05165L20.794 5.04226L20.7752 5.25822C20.7598 5.39325 20.741 5.52788 20.7189 5.66197L20.6156 6.06573C20.5266 6.32463 20.4167 6.57585 20.287 6.8169C20.0465 7.24472 19.7317 7.62627 19.3574 7.94366L19.2165 8.07512C19.0038 8.24998 18.7704 8.39818 18.5217 8.51643L18.1461 8.68545C17.8847 8.78366 17.6142 8.85599 17.3386 8.90141L16.9255 8.95775C16.5513 8.97765 16.1762 8.95243 15.8081 8.88263L15.4043 8.77934C16.0926 8.71832 16.7576 8.49986 17.348 8.14085L17.686 7.89672L17.9959 7.62441L18.2776 7.32395C18.3715 7.22066 18.456 7.10798 18.5311 6.99531C18.5499 6.98592 18.5593 6.95775 18.5687 6.93897L18.7471 6.64789C18.881 6.40888 18.991 6.15728 19.0757 5.89672C19.1133 5.76526 19.1508 5.62442 19.1696 5.49296C19.1978 5.35211 19.2259 5.22066 19.2353 5.0892L19.2635 4.67606L19.2541 4.38498L19.1978 3.98122C19.179 3.84038 19.1508 3.69953 19.1039 3.56808C19.0663 3.44601 19.0288 3.31456 18.9724 3.1831C18.9255 3.05165 18.8691 2.92958 18.8034 2.80751L18.5968 2.45071C18.4382 2.22429 18.2658 2.00791 18.0804 1.80282C17.7576 1.46673 17.3756 1.19298 16.9536 0.995307C16.7752 0.873242 16.5874 0.807514 16.3996 0.751176Z" fill="#E0234E"/>
</g>
<defs>
<clipPath id="clip0_454_505">
<rect width="24.8451" height="24" fill="white" transform="translate(0.0625)"/>
</clipPath>
</defs>
</svg>
