<svg width="25" height="24" viewBox="0 0 25 24" fill="none" xmlns="http://www.w3.org/2000/svg">
<g clip-path="url(#clip0_454_497)">
<mask id="mask0_454_497" style="mask-type:alpha" maskUnits="userSpaceOnUse" x="0" y="0" width="25" height="24">
<path d="M12.0625 24C18.6899 24 24.0625 18.6274 24.0625 12C24.0625 5.37258 18.6899 0 12.0625 0C5.43508 0 0.0625 5.37258 0.0625 12C0.0625 18.6274 5.43508 24 12.0625 24Z" fill="black"/>
</mask>
<g mask="url(#mask0_454_497)">
<path d="M12.0629 23.6C18.4694 23.6 23.6629 18.4065 23.6629 12C23.6629 5.59352 18.4694 0.400024 12.0629 0.400024C5.65639 0.400024 0.462891 5.59352 0.462891 12C0.462891 18.4065 5.65639 23.6 12.0629 23.6Z" fill="black" stroke="white"/>
<path d="M19.9981 21.0027L9.28261 7.20001H7.26367V16.796H8.87882V9.25116L18.7302 21.9793C19.1747 21.6819 19.5982 21.3553 19.9981 21.0027Z" fill="url(#paint0_linear_454_497)"/>
<path d="M16.9965 7.20001H15.3965V16.8H16.9965V7.20001Z" fill="url(#paint1_linear_454_497)"/>
</g>
</g>
<defs>
<linearGradient id="paint0_linear_454_497" x1="14.597" y1="15.5333" x2="19.3303" y2="21.4" gradientUnits="userSpaceOnUse">
<stop stop-color="white"/>
<stop offset="1" stop-color="white" stop-opacity="0"/>
</linearGradient>
<linearGradient id="paint1_linear_454_497" x1="16.1965" y1="7.20001" x2="16.1697" y2="14.25" gradientUnits="userSpaceOnUse">
<stop stop-color="white"/>
<stop offset="1" stop-color="white" stop-opacity="0"/>
</linearGradient>
<clipPath id="clip0_454_497">
<rect width="24" height="24" fill="white" transform="translate(0.0625)"/>
</clipPath>
</defs>
</svg>
