<svg width="28" height="28" viewBox="0 0 28 28" fill="none" xmlns="http://www.w3.org/2000/svg">
<g clip-path="url(#clip0_524_343)">
<mask id="mask0_524_343" style="mask-type:alpha" maskUnits="userSpaceOnUse" x="0" y="0" width="28" height="28">
<path d="M14 28C21.732 28 28 21.732 28 14C28 6.26801 21.732 0 14 0C6.26801 0 0 6.26801 0 14C0 21.732 6.26801 28 14 28Z" fill="black"/>
</mask>
<g mask="url(#mask0_524_343)">
<path d="M14.0001 27.5332C21.4744 27.5332 27.5335 21.4741 27.5335 13.9999C27.5335 6.52563 21.4744 0.466553 14.0001 0.466553C6.52588 0.466553 0.466797 6.52563 0.466797 13.9999C0.466797 21.4741 6.52588 27.5332 14.0001 27.5332Z" fill="black" stroke="white"/>
<path d="M23.2572 24.503L10.7558 8.3999H8.40039V19.5952H10.2847V10.7929L21.778 25.6425C22.2966 25.2954 22.7907 24.9145 23.2572 24.503Z" fill="url(#paint0_linear_524_343)"/>
<path d="M19.7553 8.3999H17.8887V19.5999H19.7553V8.3999Z" fill="url(#paint1_linear_524_343)"/>
</g>
</g>
<defs>
<linearGradient id="paint0_linear_524_343" x1="16.9559" y1="18.1221" x2="22.4782" y2="24.9666" gradientUnits="userSpaceOnUse">
<stop stop-color="white"/>
<stop offset="1" stop-color="white" stop-opacity="0"/>
</linearGradient>
<linearGradient id="paint1_linear_524_343" x1="18.822" y1="8.3999" x2="18.7907" y2="16.6249" gradientUnits="userSpaceOnUse">
<stop stop-color="white"/>
<stop offset="1" stop-color="white" stop-opacity="0"/>
</linearGradient>
<clipPath id="clip0_524_343">
<rect width="28" height="28" fill="white"/>
</clipPath>
</defs>
</svg>
