<svg width="37" height="28" viewBox="0 0 37 28" fill="none" xmlns="http://www.w3.org/2000/svg">
<title>PlayStation</title>
<path fill-rule="evenodd" clip-rule="evenodd" d="M36.1286 21.4301C35.4166 22.3242 33.672 22.962 33.672 22.962L20.6942 27.6012V24.1799L30.245 20.7932C31.3288 20.4067 31.4953 19.8604 30.6143 19.5736C29.735 19.286 28.1428 19.3685 27.0581 19.7566L20.6942 21.9872V18.4365L21.061 18.3129C21.061 18.3129 22.9 17.6652 25.4858 17.3801C28.0716 17.0966 31.2378 17.4188 33.7234 18.3566C36.5244 19.2374 36.8399 20.5361 36.1286 21.4301ZM21.9296 15.6044V6.85497C21.9296 5.82743 21.7392 4.88146 20.7704 4.61366C20.0286 4.37716 19.5682 5.06274 19.5682 6.08946V28L13.6307 26.1245V0C16.1553 0.466393 19.8331 1.56892 21.8104 2.23226C26.8387 3.95032 28.5435 6.08864 28.5435 10.9067C28.5435 15.6027 25.6307 17.3826 21.9296 15.6044ZM2.73617 23.8222C-0.139406 23.0164 -0.617979 21.337 0.692715 20.3696C1.90405 19.4764 3.96407 18.804 3.96407 18.804L12.4774 15.7914V19.2259L6.35114 21.4079C5.26897 21.7943 5.10254 22.3415 5.98186 22.6283C6.862 22.915 8.45504 22.8334 9.53886 22.4461L12.4774 21.3848V24.4576C12.2911 24.4905 12.0832 24.5235 11.8912 24.5556C8.95182 25.0335 5.82123 24.8341 2.73617 23.8222Z" fill="black"/>
</svg>
