<svg width="24" height="24" viewBox="0 0 24 24" fill="none" xmlns="http://www.w3.org/2000/svg">
<g clip-path="url(#clip0_454_512)">
<path d="M23.9082 14.3636C23.7263 13.9091 23.3627 13.6363 22.9082 13.5454L22.1809 13.6363L20.9082 13.8182C21.9991 12 22.9082 9.90907 23.3627 7.90907C24.1809 4.81817 23.8173 3.36362 23.2718 2.72726C22.6085 1.86632 21.7539 1.17165 20.7756 0.698275C19.7972 0.224901 18.7222 -0.0141753 17.6354 -1.61789e-05C16.3627 -1.61789e-05 15.1809 0.272711 14.6354 0.454529L12.9082 0.272711C11.8173 0.272711 10.7263 0.545438 9.90816 0.999984L7.81725 0.454529C5.72634 0.181802 3.99907 0.454529 2.81725 1.27271C1.36271 2.36362 0.635432 4.1818 0.726341 6.72726C1.1339 9.77639 1.99173 12.7482 3.2718 15.5454C3.90816 16.8182 4.54452 17.5454 5.36271 17.7273C5.81725 17.9091 6.54452 18 7.36271 17.3636L7.81725 17.7273L8.63543 18C9.63543 18.2727 10.6354 18.1818 11.4536 17.9091C11.456 18.2121 11.456 18.5151 11.4536 18.8182C11.4502 19.8356 11.6035 20.8474 11.9082 21.8182C11.9991 22.1818 12.2718 22.8182 12.7263 23.2727C13.2718 23.8182 13.9082 24 14.5445 24L15.3627 23.9091C16.2718 23.7273 17.2718 23.3636 17.9991 22.3636C18.7263 21.3636 18.9991 19.9091 19.09 17.5454V17.3636L19.1809 17.1818L19.2718 17.2727H19.3627C20.2718 17.2727 21.3627 17.0909 22.09 16.7273C22.5445 16.5454 24.2718 15.6363 23.9082 14.3636Z" fill="black"/>
<path d="M22.3624 14.6364C19.6351 15.1818 19.4533 14.2728 19.4533 14.2728C22.3624 10 23.5442 4.63639 22.4533 3.36367C19.6351 -0.272699 14.8169 1.45457 14.726 1.45457L12.9078 1.27276C11.6351 1.27276 10.726 1.63639 9.99874 2.18185C9.99874 2.18185 1.36238 -1.45452 1.72601 6.63639C1.81692 8.36367 4.27147 19.6364 7.08965 16.2728L9.08965 13.9091C9.6351 14.2728 10.1806 14.4546 10.8169 14.3637H10.9078V14.8182C10.1806 15.6364 10.3624 15.7273 8.90783 16.0909C7.45329 16.3637 8.27147 16.9091 8.90783 17.0909C9.5442 17.2728 11.1806 17.4546 12.1806 16V16.1818C12.4533 16.3637 12.6351 17.6364 12.6351 18.8182C12.5442 19.9091 12.5442 20.7273 12.8169 21.2728C12.9987 21.9091 13.2715 23.2728 15.1806 22.9091C16.726 22.5455 17.6351 21.6364 17.726 20.1818C17.8169 19.0909 17.9987 19.2728 17.9987 18.3637L18.0896 17.9091C18.2715 16.4546 18.1806 16 19.1806 16.1818L19.3624 16.2728C20.0896 16.2728 21.0896 16.0909 21.6351 15.8182C22.8169 15.2728 23.5442 14.3637 22.3624 14.6364Z" fill="#336791"/>
<path d="M10.5446 7.45454H9.99911L9.9082 7.63636L9.99911 7.90909C10.09 8.09091 10.2718 8.18182 10.4537 8.18182H10.5446C10.8173 8.18182 11.09 8 11.09 7.81818C11.1809 7.63636 10.8173 7.45454 10.5446 7.45454ZM18.6355 7.45454C18.6355 7.27272 18.2718 7.18182 17.9991 7.27272C17.7264 7.27272 17.4537 7.36363 17.4537 7.54545C17.5446 7.72727 17.7264 7.90909 17.9991 7.90909H18.09L18.4537 7.72727L18.6355 7.45454Z" fill="white"/>
<path d="M23.2726 14.5455C23.1817 14.2727 22.818 14.0909 22.2726 14.2727C20.6362 14.5455 20.0907 14.3637 19.818 14.1818C21.0907 12.2727 22.1817 9.90911 22.7271 7.72729C22.9998 6.72729 23.1817 5.72729 23.1817 5.00002C23.1817 4.09093 22.9998 3.45456 22.7271 3.09093C22.1157 2.30487 21.3283 1.67329 20.4283 1.24698C19.5283 0.820665 18.5408 0.611526 17.5453 0.636382C16.0907 0.636382 14.818 1.00002 14.5453 1.18184C14.0907 1.00002 13.4544 0.909109 12.9089 0.909109C11.7271 0.909109 10.818 1.18184 9.99984 1.72729C9.6362 1.54547 8.72711 1.27275 7.6362 1.09093C5.72711 0.8182 4.27257 1.00002 3.18166 1.8182C1.90893 2.72729 1.27257 4.36366 1.45439 6.63638C1.45439 7.36366 1.90893 9.8182 2.6362 12.0909C3.54529 15.0909 4.54529 16.7273 5.54529 17.0909L5.99984 17.1818C6.36348 17.1818 6.81802 17 7.27257 16.3637L9.18166 14.3637C9.54529 14.5455 9.99984 14.6364 10.4544 14.6364V14.7273L10.2726 15C9.90893 15.4546 9.81802 15.4546 8.81802 15.7273C8.54529 15.7273 7.72711 15.9091 7.72711 16.4546C7.72711 17.0909 8.6362 17.3637 8.72711 17.3637L9.81802 17.4546C10.6362 17.4546 11.3635 17.1818 11.9998 16.7273C11.9089 18.8182 11.9998 20.9091 12.2726 21.5455C12.5453 22.0909 12.9998 23.3637 14.6362 23.3637L15.4544 23.2727C17.0907 22.9091 17.818 22.1818 18.0907 20.5455L18.6362 16.4546L19.6362 16.5455C20.3635 16.5455 21.1817 16.3637 21.7271 16.0909C22.3635 15.8182 23.4544 15.1818 23.2726 14.5455ZM19.2726 7.00002L19.1817 7.90911L18.9998 9.00002L19.0907 10.2727C19.1817 11.0909 19.3635 12 18.9089 12.8182L18.7271 12.4546L18.4544 11.9091C17.818 10.8182 16.4544 8.36366 17.1817 7.36366C17.3635 7.09093 17.9089 6.8182 19.2726 7.00002ZM17.6362 1.36365C19.5453 1.36365 21.0907 2.09093 22.1817 3.45456C22.9998 4.54547 22.0907 9.36366 19.4544 13.5455L19.3635 13.4546C19.9998 12.2727 19.9089 11.1818 19.818 10.1818L19.7271 9.00002L19.818 8.00002C19.9024 7.52007 19.9329 7.03219 19.9089 6.54547C19.9089 6.09093 19.3635 4.72729 18.2726 3.45456C17.7271 2.8182 16.818 2.00002 15.7271 1.54547L17.6362 1.36365ZM6.81802 16C6.27257 16.6364 5.90893 16.5455 5.72711 16.4546C4.99984 16.1818 3.99984 14.5455 3.27257 11.8182C2.54529 9.54547 2.09075 7.27275 2.09075 6.63638C1.99984 4.54547 2.45439 3.09093 3.54529 2.36365C5.36348 1.09093 8.27257 1.8182 9.36348 2.18184V2.27275C7.45439 4.18184 7.45439 7.45456 7.45439 7.72729V8.00002C7.54529 8.63638 7.6362 9.63638 7.45439 10.8182C7.36606 11.3834 7.4195 11.9618 7.60991 12.5013C7.80032 13.0408 8.12173 13.5245 8.54529 13.9091L6.81802 16ZM8.81802 13.2727C8.27257 12.6364 7.99984 11.8182 8.09075 10.9091C8.27257 9.63638 8.18166 8.54547 8.18166 8.00002V7.8182C8.45439 7.54547 9.72711 6.8182 10.6362 7.09093C11.0907 7.18184 11.3635 7.45456 11.4544 7.90911C11.9998 10.4546 11.5453 11.5455 11.0907 12.4546L10.9089 12.9091L10.818 13.0909L10.5453 14C9.90893 14 9.27257 13.7273 8.81802 13.2727ZM8.90893 16.7273L8.45439 16.5455L8.99984 16.3637C10.1817 16.0909 10.3635 15.9091 10.7271 15.4546L11.0907 15C11.3635 14.7273 11.4544 14.8182 11.6362 14.9091C11.7271 14.9091 11.9089 15.0909 11.9998 15.3637L11.9089 15.7273C11.0907 16.9091 9.81802 16.9091 8.90893 16.7273ZM15.2726 22.6364C13.818 22.9091 13.2726 22.1818 12.9089 21.2727C12.5852 19.2596 12.4937 17.2159 12.6362 15.1818C12.4544 14.7273 12.1817 14.3637 11.9089 14.2727C11.7271 14.1818 11.4544 14.0909 11.1817 14.1818L11.4544 13.2727L11.5453 13.1818L11.7271 12.7273C12.1817 11.8182 12.7271 10.5455 12.0907 7.8182C11.9089 6.72729 11.0907 6.27275 9.99984 6.36366C9.3577 6.45362 8.73974 6.6699 8.18166 7.00002C8.27257 5.90911 8.6362 4.00002 9.81802 2.72729C10.6362 2.00002 11.6362 1.54547 12.9089 1.63638C15.3635 1.63638 16.9089 2.90911 17.818 4.00002C18.5453 4.90911 18.9998 5.8182 19.1817 6.27275C17.9089 6.18184 17.0907 6.36366 16.6362 7.00002C15.7271 8.36366 17.1817 11 17.818 12.1818L18.0907 12.7273L18.818 13.9091L18.9998 14.0909C18.6362 14.2727 17.9998 14.4546 17.9998 15.7273L17.4544 20.3637C17.1817 21.8182 16.7271 22.2727 15.2726 22.6364ZM21.4544 15.5455C21.0907 15.7273 20.4544 15.8182 19.818 15.8182C19.0907 15.9091 18.818 15.8182 18.7271 15.7273C18.6362 14.9091 18.9998 14.8182 19.2726 14.7273H19.4544L19.5453 14.8182C20.0907 15.1818 20.9998 15.1818 22.3635 14.9091H22.4544L21.4544 15.5455Z" fill="white"/>
</g>
<defs>
<clipPath id="clip0_454_512">
<rect width="23.2727" height="24" fill="white" transform="translate(0.726562)"/>
</clipPath>
</defs>
</svg>
