<svg width="29" height="28" viewBox="0 0 29 28" fill="none" xmlns="http://www.w3.org/2000/svg">
<g clip-path="url(#clip0_524_426)">
<path d="M27.9656 15.7777C28.9455 8.10709 23.5283 1.0943 15.8717 0.114516C8.21517 -0.865375 1.17437 4.55175 0.194594 12.2083C-0.785297 19.8649 4.63183 26.8917 12.2884 27.8855C19.959 28.8654 26.9718 23.4482 27.9656 15.7777Z" fill="#FF6C37"/>
<path d="M19.1332 8.98885L13.2262 14.8959L11.5605 13.2301C17.3695 7.42117 17.9435 7.92506 19.1332 8.98885Z" fill="white"/>
<path d="M13.2259 15.0359C13.1839 15.0359 13.1559 15.0219 13.128 14.9939L11.4483 13.3282C11.435 13.3156 11.4244 13.3004 11.4172 13.2835C11.41 13.2667 11.4062 13.2486 11.4062 13.2302C11.4062 13.2119 11.41 13.1938 11.4172 13.1769C11.4244 13.1601 11.435 13.1449 11.4483 13.1322C17.3553 7.22532 17.9712 7.78521 19.217 8.90499C19.2448 8.93299 19.2588 8.96099 19.2588 9.00299C19.2588 9.04499 19.2448 9.07299 19.217 9.10099L13.3099 14.9939C13.2959 15.0219 13.2539 15.0359 13.2259 15.0359ZM11.7563 13.2302L13.2259 14.7L18.923 9.00299C17.8872 8.07921 17.1872 7.7991 11.7563 13.2302Z" fill="#FF6C37"/>
<path d="M14.9203 16.5894L13.3105 14.9797L19.2176 9.07275C20.7991 10.6685 18.4337 13.258 14.9202 16.5894H14.9203Z" fill="white"/>
<path d="M14.9194 16.7295C14.8774 16.7295 14.8494 16.7155 14.8214 16.6875L13.2116 15.0777C13.1836 15.0497 13.1836 15.0217 13.1836 14.9797C13.1836 14.9377 13.1976 14.9097 13.2256 14.8818L19.1326 8.97482C19.1452 8.96156 19.1604 8.951 19.1773 8.94379C19.1941 8.93658 19.2122 8.93286 19.2306 8.93286C19.2489 8.93286 19.267 8.93658 19.2838 8.94379C19.3007 8.951 19.3159 8.96156 19.3285 8.97482C19.5072 9.14021 19.6484 9.34197 19.7426 9.56653C19.8367 9.79108 19.8817 10.0332 19.8744 10.2766C19.8464 11.8304 18.0828 13.8039 15.0313 16.6875C14.9894 16.7155 14.9474 16.7295 14.9194 16.7295ZM13.5056 14.9797C14.4014 15.8896 14.7794 16.2535 14.9194 16.3935C17.2709 14.1539 19.5525 11.8584 19.5665 10.2766C19.5805 9.91271 19.4405 9.54871 19.2026 9.26882L13.5056 14.9797Z" fill="#FF6C37"/>
<path d="M11.5889 13.2721L12.7787 14.4619C12.8067 14.4899 12.8067 14.5179 12.7787 14.5459C12.7647 14.5599 12.7647 14.5599 12.7507 14.5599L10.2871 15.0918C10.1611 15.1058 10.0492 15.0218 10.0212 14.8959C10.0072 14.8259 10.0352 14.7559 10.0772 14.7139L11.5049 13.2861C11.5329 13.2581 11.5749 13.2441 11.5889 13.2721Z" fill="white"/>
<path d="M10.2447 15.2318C10.0347 15.2318 9.88086 15.0638 9.88086 14.8539C9.88086 14.7559 9.92286 14.6579 9.99286 14.5879L11.4205 13.1602C11.5045 13.0902 11.6165 13.0902 11.7005 13.1602L12.8903 14.3499C12.9743 14.4199 12.9743 14.5459 12.8903 14.6299C12.8623 14.6579 12.8343 14.6719 12.7923 14.6859L10.3288 15.2178C10.3008 15.2178 10.2727 15.2318 10.2447 15.2318ZM11.5465 13.4261L10.1747 14.7979C10.1467 14.8259 10.1329 14.8679 10.1607 14.9099C10.1747 14.9518 10.2167 14.9658 10.2587 14.9518L12.5683 14.4479L11.5465 13.4261Z" fill="#FF6C37"/>
<path d="M22.2556 5.71347C21.3597 4.84558 19.9179 4.87358 19.0501 5.78347C18.1823 6.69325 18.2103 8.12104 19.1201 8.98882C19.4793 9.33584 19.9431 9.55425 20.4394 9.60996C20.9357 9.66568 21.4365 9.55557 21.8636 9.29682L20.2678 7.70104L22.2556 5.71347Z" fill="white"/>
<path d="M20.6869 9.75873C19.3571 9.75873 18.2793 8.68095 18.2793 7.35117C18.2793 6.02138 19.3571 4.9436 20.6869 4.9436C21.3027 4.9436 21.9046 5.1816 22.3526 5.61549C22.3805 5.64349 22.3945 5.67149 22.3945 5.71349C22.3945 5.75549 22.3805 5.78349 22.3525 5.81138L20.4629 7.70106L21.9466 9.18484C22.0026 9.24084 22.0026 9.32484 21.9466 9.38084L21.9186 9.40884C21.5548 9.63273 21.1207 9.75873 20.6869 9.75873ZM20.6869 5.23749C19.5111 5.23749 18.5593 6.18938 18.5733 7.36517C18.5733 8.54095 19.5251 9.49273 20.7009 9.47873C21.0229 9.47873 21.3447 9.40873 21.6387 9.25484L20.169 7.79906C20.141 7.77106 20.127 7.74306 20.127 7.70106C20.127 7.65906 20.141 7.63106 20.169 7.60317L22.0446 5.72738C21.6666 5.40549 21.1907 5.23749 20.6869 5.23749Z" fill="#FF6C37"/>
<path d="M22.2971 5.75554L22.2693 5.72754L20.2676 7.7011L21.8492 9.28288C22.0032 9.18488 22.1573 9.07288 22.2831 8.94688C22.4952 8.73917 22.6639 8.49143 22.7796 8.21802C22.8952 7.94461 22.9554 7.65098 22.9567 7.35413C22.958 7.05729 22.9004 6.76314 22.7871 6.48873C22.6739 6.21432 22.5074 5.96511 22.2971 5.75554Z" fill="white"/>
<path d="M21.8626 9.43679C21.8206 9.43679 21.7926 9.42279 21.7646 9.39479L20.169 7.79901C20.141 7.77101 20.127 7.74301 20.127 7.70101C20.127 7.65901 20.141 7.63101 20.169 7.60312L22.1566 5.61545C22.1693 5.60219 22.1845 5.59163 22.2013 5.58442C22.2181 5.57721 22.2363 5.57349 22.2546 5.57349C22.2729 5.57349 22.291 5.57721 22.3078 5.58442C22.3247 5.59163 22.3399 5.60219 22.3525 5.61545L22.3945 5.64345C23.3324 6.58123 23.3324 8.09301 22.4085 9.04479C22.2685 9.18479 22.1146 9.31079 21.9466 9.40879C21.9046 9.42279 21.8766 9.43679 21.8626 9.43679ZM20.4628 7.70101L21.8766 9.11479C21.9886 9.04479 22.1006 8.94679 22.1846 8.86279C22.9824 8.06501 23.0244 6.76323 22.2546 5.92334L20.4628 7.70101Z" fill="#FF6C37"/>
<path d="M19.3717 9.24095C19.2102 9.07962 18.9912 8.98901 18.7629 8.98901C18.5345 8.98901 18.3155 9.07962 18.154 9.24095L12.877 14.518L13.7588 15.3999L19.3437 10.5007C19.7077 10.1927 19.7357 9.64684 19.4277 9.28295C19.3997 9.26895 19.3857 9.25495 19.3717 9.24095Z" fill="white"/>
<path d="M13.7446 15.5396C13.7026 15.5396 13.6746 15.5256 13.6466 15.4977L12.7647 14.6158C12.7514 14.6032 12.7408 14.588 12.7336 14.5712C12.7264 14.5543 12.7227 14.5362 12.7227 14.5178C12.7227 14.4995 12.7264 14.4814 12.7336 14.4645C12.7408 14.4477 12.7514 14.4325 12.7647 14.4198L18.0417 9.14282C18.1343 9.04966 18.2445 8.97574 18.3658 8.92529C18.4871 8.87485 18.6172 8.84888 18.7486 8.84888C18.88 8.84888 19.0101 8.87485 19.1314 8.92529C19.2527 8.97574 19.3628 9.04966 19.4555 9.14282C19.5486 9.23547 19.6226 9.34561 19.673 9.46693C19.7234 9.58824 19.7494 9.71833 19.7494 9.84971C19.7494 9.9811 19.7234 10.1112 19.673 10.2325C19.6226 10.3538 19.5486 10.464 19.4555 10.5566L19.4135 10.5986L13.8285 15.4977C13.8145 15.5256 13.7865 15.5396 13.7446 15.5396ZM13.0727 14.5178L13.7585 15.2037L19.2455 10.3886C19.5535 10.1366 19.5815 9.67471 19.3295 9.36682C19.0776 9.05882 18.6157 9.03082 18.3077 9.28282C18.2937 9.29682 18.2797 9.31082 18.2517 9.32482L13.0727 14.5178Z" fill="#FF6C37"/>
<path d="M8.83042 20.5228C8.77442 20.5508 8.74642 20.6068 8.76042 20.6628L8.99831 21.6705C9.05431 21.8105 8.97031 21.9785 8.81642 22.0205C8.70442 22.0625 8.57842 22.0205 8.50842 21.9365L6.96875 20.4108L11.9938 15.3857L13.7295 15.4137L14.9053 16.5895C14.6253 16.8274 12.9317 18.4652 8.83042 20.5228Z" fill="white"/>
<path d="M8.71909 22.1605C8.60709 22.1605 8.49509 22.1186 8.42509 22.0346L6.89931 20.5089C6.87142 20.4809 6.85742 20.4529 6.85742 20.4109C6.85742 20.369 6.87142 20.3409 6.89942 20.313L11.9245 15.2878C11.9525 15.2598 11.9945 15.2458 12.0224 15.2458L13.7582 15.2738C13.8001 15.2738 13.8282 15.2878 13.8561 15.3158L15.0319 16.4916C15.0599 16.5196 15.0739 16.5616 15.0739 16.6036C15.0739 16.6456 15.0599 16.6736 15.0179 16.7016L14.92 16.7855C13.4362 18.0873 11.4205 19.3891 8.91509 20.6349L9.15298 21.6286C9.19498 21.8106 9.11098 22.0066 8.94298 22.1046C8.85909 22.1466 8.78909 22.1605 8.71909 22.1605ZM7.17931 20.4109L8.62109 21.8386C8.66309 21.9086 8.74709 21.9366 8.81709 21.8946C8.88709 21.8526 8.91509 21.7686 8.87309 21.6986L8.63509 20.6909C8.60709 20.5649 8.66309 20.4529 8.77509 20.3969C11.2527 19.1511 13.2542 17.8634 14.724 16.5895L13.6882 15.5537L12.0784 15.5257L7.17931 20.4109Z" fill="#FF6C37"/>
<path d="M5.7802 21.6148L6.98398 20.4109L8.77554 22.2026L5.92009 22.0067C5.7942 21.9927 5.71009 21.8807 5.7242 21.7547C5.7242 21.6987 5.7382 21.6428 5.7802 21.6148Z" fill="white"/>
<path d="M8.77478 22.3284L5.90521 22.1325C5.69521 22.1185 5.55532 21.9365 5.56932 21.7265C5.58332 21.6425 5.61132 21.5587 5.68132 21.5027L6.8851 20.2989C6.89774 20.2856 6.91294 20.275 6.92979 20.2678C6.94664 20.2606 6.96478 20.2569 6.9831 20.2569C7.00143 20.2569 7.01957 20.2606 7.03642 20.2678C7.05326 20.275 7.06847 20.2856 7.0811 20.2989L8.87267 22.0904C8.91478 22.1325 8.92867 22.1885 8.90078 22.2444C8.87278 22.3004 8.83078 22.3284 8.77478 22.3284ZM6.9831 20.6069L5.87732 21.7127C5.83532 21.7405 5.83532 21.8105 5.87732 21.8385C5.89121 21.8525 5.90521 21.8665 5.93321 21.8665L8.41078 22.0345L6.9831 20.6068V20.6069ZM11.5042 16.0296C11.4202 16.0296 11.3642 15.9596 11.3642 15.8896C11.3642 15.8476 11.3782 15.8196 11.4062 15.7916L12.764 14.4339C12.7766 14.4206 12.7919 14.41 12.8087 14.4028C12.8255 14.3956 12.8437 14.3918 12.862 14.3918C12.8803 14.3918 12.8985 14.3956 12.9153 14.4028C12.9322 14.41 12.9474 14.4206 12.96 14.4339L13.8418 15.3158C13.8838 15.3578 13.8978 15.3998 13.8838 15.4558C13.8698 15.4978 13.8278 15.5396 13.7719 15.5536L11.5322 16.0296H11.5042ZM12.862 14.7279L11.9382 15.6516L13.4499 15.3298L12.862 14.7279Z" fill="#FF6C37"/>
<path d="M13.7302 15.4138L12.1905 15.7497C12.0785 15.7777 11.9665 15.7077 11.9386 15.5957C11.9246 15.5257 11.9386 15.4557 11.9945 15.3998L12.8484 14.5459L13.7302 15.4138Z" fill="white"/>
<path d="M12.1625 15.8897C12.1164 15.8901 12.0707 15.8814 12.028 15.864C11.9854 15.8466 11.9466 15.8208 11.914 15.7882C11.8814 15.7556 11.8556 15.7168 11.8382 15.6742C11.8208 15.6315 11.812 15.5858 11.8125 15.5397C11.8125 15.4418 11.8546 15.3578 11.9106 15.2878L12.7644 14.4339C12.777 14.4206 12.7922 14.41 12.8091 14.4028C12.8259 14.3956 12.8441 14.3919 12.8624 14.3919C12.8807 14.3919 12.8989 14.3956 12.9157 14.4028C12.9326 14.41 12.9478 14.4206 12.9604 14.4339L13.8422 15.3158C13.8842 15.3578 13.8982 15.3998 13.8842 15.4558C13.8702 15.4978 13.8282 15.5397 13.7723 15.5537L12.2325 15.8897H12.1625ZM12.8624 14.7279L12.1066 15.4837C12.0785 15.5118 12.0785 15.5397 12.0925 15.5677C12.1065 15.5957 12.1345 15.6097 12.1765 15.6097L13.4643 15.3297L12.8624 14.7279ZM22.3107 7.09921C22.2827 7.01532 22.1848 6.97332 22.1007 7.00132C22.0168 7.02921 21.9748 7.12721 22.0028 7.21132C22.0028 7.22521 22.0168 7.23921 22.0168 7.25321C22.1008 7.42121 22.0728 7.6311 21.9608 7.7851C21.9048 7.8551 21.9188 7.9531 21.9748 8.0091C22.0448 8.0651 22.1428 8.0511 22.1988 7.9811C22.4088 7.7151 22.4507 7.37921 22.3107 7.09921Z" fill="#FF6C37"/>
</g>
<defs>
<clipPath id="clip0_524_426">
<rect width="28" height="28" fill="white" transform="translate(0.0800781)"/>
</clipPath>
</defs>
</svg>
