<svg width="28" height="28" viewBox="0 0 28 28" fill="none" xmlns="http://www.w3.org/2000/svg">
<g clip-path="url(#clip0_524_358)">
<path d="M27.0914 16.7575C26.8793 16.2272 26.4551 15.9091 25.9248 15.803L25.0763 15.9091L23.5914 16.1212C24.8641 14 25.9248 11.5606 26.4551 9.22723C27.4096 5.62117 26.9854 3.9242 26.349 3.18178C25.5752 2.17735 24.5781 1.3669 23.4367 0.814634C22.2954 0.262364 21.0411 -0.0165582 19.7732 -3.92205e-05C18.2884 -3.92205e-05 16.9096 0.318143 16.2732 0.530264L14.2581 0.318143C12.9854 0.318143 11.7126 0.636324 10.7581 1.16663L8.31869 0.530264C5.8793 0.212082 3.86415 0.530264 2.48536 1.48481C0.78839 2.75754 -0.0600946 4.87875 0.045966 7.84845C0.521453 11.4058 1.52225 14.8728 3.01566 18.1363C3.75809 19.6212 4.50051 20.4697 5.45506 20.6818C5.98536 20.8939 6.83384 21 7.78839 20.2575L8.31869 20.6818L9.27324 21C10.4399 21.3181 11.6066 21.2121 12.5611 20.8939C12.5639 21.2474 12.5639 21.601 12.5611 21.9545C12.5572 23.1415 12.736 24.322 13.0914 25.4545C13.1975 25.8787 13.5157 26.6212 14.046 27.1515C14.6823 27.7878 15.4248 28 16.1672 28L17.1217 27.8939C18.1823 27.6818 19.349 27.2575 20.1975 26.0909C21.046 24.9242 21.3641 23.2272 21.4702 20.4697V20.2575L21.5763 20.0454L21.6823 20.1515H21.7884C22.849 20.1515 24.1217 19.9394 24.9702 19.5151C25.5005 19.303 27.5157 18.2424 27.0914 16.7575Z" fill="black"/>
<path d="M25.29 17.0758C22.1081 17.7122 21.896 16.6516 21.896 16.6516C25.29 11.6667 26.6687 5.40916 25.396 3.92431C22.1081 -0.318118 16.4869 1.69703 16.3809 1.69703L14.2597 1.48491C12.7748 1.48491 11.7142 1.90916 10.8657 2.54552C10.8657 2.54552 0.78996 -1.69691 1.2142 7.74249C1.32026 9.75764 4.1839 22.9092 7.47178 18.9849L9.80511 16.2273C10.4415 16.6516 11.0778 16.8637 11.8203 16.7576H11.9263V17.2879C11.0778 18.2425 11.29 18.3485 9.59299 18.7728C7.89602 19.091 8.85057 19.7273 9.59299 19.9395C10.3354 20.1516 12.2445 20.3637 13.4112 18.6667V18.8789C13.7294 19.091 13.9415 20.5758 13.9415 21.9546C13.8354 23.2273 13.8354 24.1819 14.1536 24.8182C14.3657 25.5607 14.6839 27.1516 16.9112 26.7273C18.7142 26.3031 19.7748 25.2425 19.8809 23.5455C19.9869 22.2728 20.1991 22.4849 20.1991 21.4243L20.3051 20.894C20.5172 19.197 20.4112 18.6667 21.5778 18.8789L21.79 18.9849C22.6384 18.9849 23.8051 18.7728 24.4415 18.4546C25.8203 17.8182 26.6687 16.7576 25.29 17.0758Z" fill="#336791"/>
<path d="M11.5022 8.69709H10.8658L10.7598 8.90921L10.8658 9.22739C10.9719 9.43951 11.184 9.54557 11.3961 9.54557H11.5022C11.8204 9.54557 12.1386 9.33345 12.1386 9.12133C12.2446 8.90921 11.8204 8.69709 11.5022 8.69709ZM20.9416 8.69709C20.9416 8.48497 20.5173 8.37891 20.1992 8.48497C19.881 8.48497 19.5628 8.59103 19.5628 8.80315C19.6689 9.01527 19.881 9.22739 20.1992 9.22739H20.3052L20.7295 9.01527L20.9416 8.69709Z" fill="white"/>
<path d="M26.3496 16.9696C26.2435 16.6514 25.8193 16.4393 25.1829 16.6514C23.2738 16.9696 22.6375 16.7575 22.3193 16.5453C23.8041 14.3181 25.0768 11.5605 25.7132 9.01503C26.0314 7.84836 26.2435 6.6817 26.2435 5.83321C26.2435 4.77261 26.0314 4.03018 25.7132 3.60594C24.9999 2.68888 24.0813 1.95203 23.0313 1.45466C21.9813 0.9573 20.8292 0.713305 19.6678 0.742303C17.9708 0.742303 16.4859 1.16655 16.1678 1.37867C15.6375 1.16655 14.895 1.06049 14.2587 1.06049C12.8799 1.06049 11.8193 1.37867 10.8647 2.01503C10.4405 1.80291 9.37987 1.48473 8.10715 1.27261C5.87987 0.954425 4.1829 1.16655 2.91018 2.12109C1.42533 3.1817 0.682904 5.09079 0.895025 7.7423C0.895025 8.59079 1.42533 11.4544 2.27381 14.1059C3.33442 17.6059 4.50109 19.515 5.66775 19.9393L6.19806 20.0453C6.6223 20.0453 7.1526 19.8332 7.6829 19.0908L9.91018 16.7575C10.3344 16.9696 10.8647 17.0756 11.395 17.0756V17.1817L11.1829 17.4999C10.7587 18.0302 10.6526 18.0302 9.48593 18.3484C9.16775 18.3484 8.21321 18.5605 8.21321 19.1968C8.21321 19.9393 9.27381 20.2575 9.37987 20.2575L10.6526 20.3635C11.6071 20.3635 12.4556 20.0453 13.1981 19.515C13.092 21.9544 13.1981 24.3938 13.5162 25.1362C13.8344 25.7726 14.3647 27.2575 16.2738 27.2575L17.2284 27.1514C19.1375 26.7272 19.9859 25.8787 20.3041 23.9696L20.9405 19.1968L22.1071 19.3029C22.9556 19.3029 23.9102 19.0908 24.5465 18.7726C25.289 18.4544 26.5617 17.712 26.3496 16.9696ZM21.6829 8.16655L21.5768 9.22715L21.3647 10.4999L21.4708 11.9847C21.5768 12.9393 21.789 13.9999 21.2587 14.9544L21.0465 14.5302L20.7284 13.8938C19.9859 12.6211 18.395 9.75746 19.2435 8.59079C19.4556 8.27261 20.092 7.95443 21.6829 8.16655ZM19.7738 1.59079C22.0011 1.59079 23.8041 2.43927 25.0768 4.03018C26.0314 5.30291 24.9708 10.9241 21.895 15.8029L21.789 15.6968C22.5314 14.3181 22.4253 13.0453 22.3193 11.8787L22.2132 10.4999L22.3193 9.33321C22.4177 8.77327 22.4533 8.20408 22.4253 7.63624C22.4253 7.10594 21.789 5.51503 20.5162 4.03018C19.8799 3.28776 18.8193 2.33321 17.5465 1.80291L19.7738 1.59079ZM7.1526 18.6665C6.51624 19.409 6.092 19.3029 5.87987 19.1968C5.03139 18.8787 3.86472 16.9696 3.01624 13.7878C2.16775 11.1362 1.63745 8.48473 1.63745 7.7423C1.53139 5.30291 2.06169 3.60594 3.33442 2.75746C5.45563 1.27261 8.84957 2.12109 10.1223 2.54533V2.65139C7.89503 4.87867 7.89503 8.69685 7.89503 9.01503V9.33321C8.00109 10.0756 8.10715 11.2423 7.89503 12.6211C7.79198 13.2805 7.85433 13.9553 8.07647 14.5847C8.29861 15.2141 8.6736 15.7785 9.16775 16.2272L7.1526 18.6665ZM9.48593 15.4847C8.84957 14.7423 8.53139 13.7878 8.63745 12.7272C8.84957 11.2423 8.74351 9.96958 8.74351 9.33321V9.12109C9.06169 8.80291 10.5465 7.95443 11.6071 8.27261C12.1375 8.37867 12.4556 8.69685 12.5617 9.22715C13.1981 12.1968 12.6678 13.4696 12.1375 14.5302L11.9253 15.0605L11.8193 15.2726L11.5011 16.3332C10.7587 16.3332 10.0162 16.015 9.48593 15.4847ZM9.592 19.515L9.06169 19.3029L9.69806 19.0908C11.0768 18.7726 11.289 18.5605 11.7132 18.0302L12.1375 17.4999C12.4556 17.1817 12.5617 17.2878 12.7738 17.3938C12.8799 17.3938 13.092 17.6059 13.1981 17.9241L13.092 18.3484C12.1375 19.7272 10.6526 19.7272 9.592 19.515ZM17.0162 26.409C15.3193 26.7272 14.6829 25.8787 14.2587 24.8181C13.881 22.4694 13.7742 20.0851 13.9405 17.712C13.7284 17.1817 13.4102 16.7575 13.092 16.6514C12.8799 16.5453 12.5617 16.4393 12.2435 16.5453L12.5617 15.4847L12.6678 15.3787L12.8799 14.8484C13.4102 13.7878 14.0465 12.3029 13.3041 9.12109C13.092 7.84836 12.1375 7.31806 10.8647 7.42412C10.1156 7.52908 9.39461 7.78141 8.74351 8.16655C8.84957 6.89382 9.27381 4.66655 10.6526 3.1817C11.6071 2.33321 12.7738 1.80291 14.2587 1.90897C17.1223 1.90897 18.9253 3.39382 19.9859 4.66655C20.8344 5.72715 21.3647 6.78776 21.5768 7.31806C20.092 7.212 19.1375 7.42412 18.6071 8.16655C17.5465 9.75746 19.2435 12.8332 19.9859 14.212L20.3041 14.8484L21.1526 16.2272L21.3647 16.4393C20.9405 16.6514 20.1981 16.8635 20.1981 18.3484L19.5617 23.7575C19.2435 25.4544 18.7132 25.9847 17.0162 26.409ZM24.2284 18.1362C23.8041 18.3484 23.0617 18.4544 22.3193 18.4544C21.4708 18.5605 21.1526 18.4544 21.0465 18.3484C20.9405 17.3938 21.3647 17.2878 21.6829 17.1817H21.895L22.0011 17.2878C22.6375 17.712 23.6981 17.712 25.289 17.3938H25.395L24.2284 18.1362Z" fill="white"/>
</g>
<defs>
<clipPath id="clip0_524_358">
<rect width="27.1515" height="28" fill="white" transform="translate(0.046875)"/>
</clipPath>
</defs>
</svg>
