<svg width="21" height="24" viewBox="0 0 21 24" fill="none" xmlns="http://www.w3.org/2000/svg">
<g clip-path="url(#clip0_454_510)">
<path d="M20.597 18.2337L12.3663 0.754759C12.264 0.539691 12.1055 0.356272 11.9075 0.223913C11.7095 0.0915529 11.4794 0.0151754 11.2416 0.00286224C11.0033 -0.013106 10.7652 0.0365651 10.5532 0.146474C10.3412 0.256382 10.1633 0.422321 10.0391 0.626243L1.11206 15.085C0.976318 15.3033 0.905628 15.5558 0.908275 15.8129C0.910921 16.0699 0.986794 16.3209 1.127 16.5364L5.49144 23.2952C5.65655 23.5489 5.89927 23.7424 6.18338 23.8469C6.46749 23.9514 6.77777 23.9612 7.06793 23.875L19.7337 20.1285C19.9244 20.0727 20.1009 19.9767 20.2513 19.8468C20.4017 19.717 20.5224 19.5564 20.6054 19.3758C20.6872 19.1962 20.7289 19.0009 20.7275 18.8036C20.7262 18.6063 20.6818 18.4116 20.5976 18.2331L20.597 18.2337ZM18.7542 18.9834L8.00664 22.1614C7.67877 22.259 7.36406 21.9748 7.43226 21.6439L11.2721 3.25804C11.3439 2.91406 11.8189 2.85956 11.9691 3.17791L19.0773 18.2726C19.1087 18.3398 19.1252 18.4131 19.1255 18.4874C19.1259 18.5616 19.1102 18.635 19.0794 18.7026C19.0486 18.7701 19.0036 18.8302 18.9474 18.8787C18.8911 18.9272 18.825 18.9628 18.7537 18.9833L18.7542 18.9834Z" fill="black"/>
</g>
<defs>
<clipPath id="clip0_454_510">
<rect width="19.8194" height="24" fill="white" transform="translate(0.908203)"/>
</clipPath>
</defs>
</svg>
