<svg width="24" height="28" viewBox="0 0 24 28" fill="none" xmlns="http://www.w3.org/2000/svg">
<g clip-path="url(#clip0_524_356)">
<path d="M22.9702 21.2728L13.3678 0.880623C13.2484 0.629711 13.0635 0.415722 12.8325 0.261303C12.6015 0.106883 12.3331 0.0177758 12.0556 0.00341049C11.7776 -0.0152192 11.4999 0.0427305 11.2525 0.170957C11.0051 0.299184 10.7977 0.492779 10.6527 0.730688L0.23783 17.5992C0.0794677 17.8539 -0.00300389 18.1485 8.36192e-05 18.4484C0.00317113 18.7483 0.0916898 19.0411 0.255263 19.2925L5.34711 27.1778C5.53974 27.4738 5.82291 27.6996 6.15437 27.8215C6.48584 27.9434 6.84783 27.9549 7.18635 27.8542L21.963 23.4833C22.1855 23.4183 22.3915 23.3062 22.5669 23.1547C22.7424 23.0032 22.8833 22.8158 22.9801 22.6052C23.0755 22.3957 23.1241 22.1678 23.1225 21.9376C23.121 21.7074 23.0692 21.4802 22.9709 21.272L22.9702 21.2728ZM20.8204 22.1473L8.28151 25.8551C7.89899 25.9689 7.53183 25.6373 7.6114 25.2513L12.0912 3.80111C12.175 3.39981 12.7292 3.33622 12.9044 3.70763L21.1973 21.3181C21.2339 21.3966 21.2531 21.482 21.2536 21.5687C21.254 21.6553 21.2356 21.7409 21.1997 21.8198C21.1638 21.8986 21.1113 21.9687 21.0457 22.0252C20.9801 22.0818 20.903 22.1234 20.8197 22.1473L20.8204 22.1473Z" fill="black"/>
</g>
<defs>
<clipPath id="clip0_524_356">
<rect width="23.1226" height="28" fill="white"/>
</clipPath>
</defs>
</svg>
