<svg width="62" height="48" viewBox="0 0 62 48" fill="none" xmlns="http://www.w3.org/2000/svg">
<path fill-rule="evenodd" clip-rule="evenodd" d="M61.4486 36.7374C60.2375 38.27 57.2703 39.3634 57.2703 39.3634L35.1974 47.3163V41.4512L51.4416 35.6454C53.285 34.9829 53.568 34.0464 52.0697 33.5548C50.5741 33.0618 47.866 33.2031 46.0212 33.8684L35.1974 37.6923V31.6054L35.8212 31.3935C35.8212 31.3935 38.949 30.2832 43.3469 29.7945C47.7449 29.3085 53.1301 29.8609 57.3576 31.4684C62.1218 32.9785 62.6583 35.2047 61.4486 36.7374ZM37.2985 26.7503V11.7514C37.2985 9.98988 36.9746 8.36822 35.3269 7.90912C34.0651 7.50371 33.2821 8.67899 33.2821 10.4391V48L23.1836 44.7849V0C27.4773 0.79953 33.7328 2.68958 37.0957 3.82672C45.648 6.77198 48.5476 10.4377 48.5476 18.6971C48.5476 26.7475 43.5934 29.7987 37.2985 26.7503ZM4.65376 40.8381C-0.237105 39.4566 -1.05108 36.5778 1.17819 34.9194C3.23846 33.3881 6.7422 32.2354 6.7422 32.2354L21.2219 27.071V32.9587L10.8022 36.6992C8.96161 37.3617 8.67855 38.2997 10.1741 38.7913C11.6711 39.2829 14.3806 39.143 16.224 38.4791L21.2219 36.6597V41.9273C20.905 41.9838 20.5515 42.0403 20.2248 42.0953C15.2255 42.9147 9.90091 42.5728 4.65376 40.8381Z" fill="#0070D1"/>
</svg>
