<svg width="27" height="24" viewBox="0 0 27 24" fill="none" xmlns="http://www.w3.org/2000/svg">
<g clip-path="url(#clip0_567_298)">
<path d="M22.1561 7.77093C21.8693 7.67254 21.5801 7.58138 21.2887 7.49756C21.3377 7.29756 21.3827 7.09998 21.4227 6.90588C22.0794 3.7184 21.6501 1.15051 20.1839 0.305034C18.7781 -0.505492 16.4791 0.339666 14.1572 2.3604C13.9283 2.55991 13.7046 2.76517 13.4861 2.97598C13.3399 2.8358 13.191 2.69834 13.0397 2.56367C10.6062 0.403034 8.16705 -0.507597 6.70242 0.340297C5.29789 1.15335 4.882 3.56735 5.47316 6.58819C5.53197 6.88738 5.59838 7.18502 5.67232 7.48082C5.32705 7.57893 4.99389 7.68335 4.67505 7.79451C1.822 8.78924 0 10.3481 0 11.965C0 13.635 1.956 15.3101 4.92758 16.3258C5.16849 16.4078 5.41141 16.4838 5.65611 16.5537C5.57663 16.8723 5.50608 17.193 5.44453 17.5156C4.88095 20.484 5.32105 22.8409 6.72179 23.6488C8.16853 24.4831 10.5967 23.6257 12.9611 21.5588C13.1528 21.3908 13.3403 21.218 13.5234 21.0406C13.76 21.2689 14.0029 21.4905 14.2518 21.7052C16.5421 23.676 18.804 24.4718 20.2034 23.6617C21.6487 22.8249 22.1185 20.2929 21.5086 17.2124C21.4606 16.9711 21.4067 16.7309 21.3471 16.4922C21.5176 16.4417 21.6849 16.3897 21.8481 16.3356C24.9374 15.3121 26.9474 13.6573 26.9474 11.965C26.9474 10.3422 25.0665 8.77282 22.1561 7.77093ZM21.4861 15.2429C21.3387 15.2917 21.1876 15.3387 21.0335 15.3845C20.6924 14.3048 20.2322 13.1568 19.6689 11.9706C20.2064 10.8127 20.6489 9.67935 20.9804 8.60672C21.2561 8.68651 21.5236 8.77061 21.7815 8.85935C24.2752 9.71788 25.7962 10.987 25.7962 11.965C25.7962 13.0067 24.1535 14.359 21.4861 15.2429ZM20.3794 17.436C20.6491 18.7981 20.6875 20.0297 20.5088 20.9925C20.3484 21.8577 20.0257 22.4344 19.6265 22.6655C18.7774 23.157 16.9613 22.5181 15.0026 20.8326C14.7711 20.633 14.5451 20.4269 14.3251 20.2147C15.0844 19.3843 15.8433 18.4189 16.5839 17.3467C17.8866 17.2311 19.1174 17.0421 20.2335 16.7841C20.2884 17.0059 20.3373 17.2234 20.3794 17.436ZM9.18695 22.5805C8.35726 22.8735 7.69642 22.8819 7.29695 22.6516C6.44695 22.1614 6.09358 20.2688 6.57558 17.7303C6.63288 17.4303 6.69848 17.132 6.77232 16.8357C7.87611 17.0799 9.09789 17.2555 10.4037 17.3614C11.1494 18.4105 11.9301 19.3748 12.7169 20.2192C12.5497 20.381 12.3786 20.5387 12.2036 20.6921C11.158 21.606 10.1103 22.2544 9.18695 22.5805ZM5.3 15.2365C3.986 14.7874 2.90084 14.2037 2.15705 13.5667C1.48863 12.9944 1.15126 12.4261 1.15126 11.965C1.15126 10.9838 2.61411 9.73219 5.054 8.88156C5.35011 8.7784 5.66 8.68103 5.98158 8.58967C6.31884 9.68651 6.76116 10.8333 7.29495 11.993C6.75421 13.1699 6.30558 14.335 5.96505 15.4448C5.7417 15.3808 5.51994 15.3114 5.3 15.2365ZM6.60295 6.36703C6.09653 3.77893 6.43284 1.82661 7.27926 1.33661C8.18074 0.814718 10.1742 1.55882 12.2754 3.42451C12.4124 3.54644 12.5472 3.67085 12.6797 3.79767C11.8967 4.6384 11.1232 5.59556 10.3841 6.63851C9.11674 6.75598 7.90358 6.94461 6.78821 7.19735C6.71949 6.92221 6.65772 6.64528 6.60295 6.36703ZM18.2268 9.23735C17.9634 8.78229 17.6902 8.33296 17.4074 7.88967C18.2672 7.9984 19.0909 8.14272 19.8645 8.31914C19.6323 9.06356 19.3428 9.84177 19.0021 10.6397C18.753 10.1671 18.4946 9.69958 18.2268 9.23735ZM13.4866 4.6204C14.0176 5.19567 14.5494 5.83788 15.0724 6.53472C14.0114 6.48461 12.9485 6.4844 11.8875 6.53409C12.4111 5.84367 12.9474 5.2023 13.4866 4.6204ZM8.716 9.24524C8.45162 9.70375 8.19797 10.1684 7.95526 10.6387C7.6201 9.84367 7.33326 9.06188 7.09905 8.30693C7.86789 8.13493 8.68779 7.9943 9.54211 7.88756C9.25615 8.33356 8.98071 8.78632 8.716 9.24524ZM9.56663 16.1244C8.684 16.0259 7.85179 15.8925 7.08316 15.7251C7.32105 14.9567 7.61421 14.1583 7.95663 13.3462C8.2003 13.8169 8.455 14.2818 8.72053 14.7405C8.99358 15.2121 9.27632 15.674 9.56663 16.1244ZM13.5184 19.3907C12.9727 18.8021 12.4285 18.1508 11.8971 17.4504C12.4131 17.4706 12.9391 17.4809 13.4737 17.4809C14.0229 17.4809 14.5659 17.4686 15.1003 17.4448C14.5756 18.1579 14.0458 18.8101 13.5184 19.3907ZM19.0129 13.3047C19.3732 14.1258 19.6767 14.92 19.9178 15.6752C19.1365 15.8536 18.2929 15.9971 17.4041 16.1038C17.6889 15.6522 17.9647 15.1951 18.2314 14.7326C18.5025 14.2625 18.763 13.7864 19.0129 13.3047ZM17.2342 14.1575C16.826 14.8665 16.3949 15.5622 15.9415 16.2432C15.1202 16.3014 14.297 16.3303 13.4737 16.3299C12.6351 16.3299 11.8194 16.3038 11.0339 16.2528C10.5687 15.5733 10.1293 14.8765 9.71674 14.1638C9.30613 13.4548 8.92269 12.7306 8.56705 11.9925C8.92179 11.2543 9.30416 10.5297 9.71337 9.82019L9.71326 9.8203C10.1223 9.11064 10.5582 8.41677 11.0199 7.74019C11.8213 7.67956 12.6431 7.64798 13.4736 7.64798C14.3079 7.64798 15.1308 7.67988 15.932 7.74093C16.3891 8.41649 16.8221 9.10798 17.2304 9.81409C17.641 10.522 18.0284 11.2431 18.3921 11.9762C18.0322 12.7168 17.6459 13.4443 17.2342 14.1575ZM19.6089 1.3023C20.5113 1.82272 20.8622 3.92135 20.2953 6.67346C20.2591 6.84903 20.2184 7.02788 20.1742 7.20924C19.0561 6.95114 17.8421 6.75924 16.5711 6.63998C15.8306 5.58556 15.0634 4.62693 14.2932 3.79703C14.495 3.60246 14.7017 3.41292 14.9129 3.22861C16.9024 1.49735 18.7618 0.813771 19.6089 1.3023ZM13.4737 9.55872C14.8026 9.55872 15.88 10.6361 15.88 11.965C15.88 13.294 14.8026 14.3714 13.4737 14.3714C12.1447 14.3714 11.0674 13.294 11.0674 11.965C11.0674 10.6361 12.1447 9.55872 13.4737 9.55872Z" fill="#00D8FF"/>
</g>
<defs>
<clipPath id="clip0_567_298">
<rect width="26.9474" height="24" fill="white"/>
</clipPath>
</defs>
</svg>
