<svg width="33" height="28" viewBox="0 0 33 28" fill="none" xmlns="http://www.w3.org/2000/svg">
<g clip-path="url(#clip0_524_373)">
<path d="M20.2215 17.3479L19.6128 18.3827C19.5258 18.5359 19.4003 18.6636 19.2487 18.7533C19.097 18.843 18.9246 18.8915 18.7485 18.894H14.1711C13.8059 18.894 13.4772 18.6992 13.2946 18.3827L12.6859 17.3479H20.2215ZM21.8893 14.4383L20.8424 16.2644H12.065L11.0059 14.4383H21.8772H21.8893ZM20.8789 11.6018L21.8893 13.367H11.018L12.0406 11.6018H20.8789ZM18.7485 8.92355C19.1137 8.92355 19.4424 9.10616 19.625 9.41051L20.258 10.5183H12.6615L13.2946 9.42268C13.3826 9.26773 13.51 9.13882 13.664 9.04902C13.8179 8.95922 13.9929 8.91173 14.1711 8.91138H18.7485V8.92355Z" fill="#00435B"/>
<path d="M7.49904 8.43658C6.99991 5.96527 6.89035 4.07832 7.21904 2.71484C7.37093 1.96323 7.75402 1.27793 8.3147 0.754837C8.89538 0.25307 9.64134 -0.015822 10.4086 5.48816e-05C11.7477 5.48816e-05 13.1599 0.608751 14.6695 1.77745C15.2782 2.25223 15.9112 2.8244 16.5808 3.48179L16.7512 3.29919C18.6382 1.63136 20.2208 0.596577 21.5721 0.194837C22.3756 -0.0486408 23.1182 -0.0729886 23.8121 0.158316C24.5425 0.401794 25.1147 0.913098 25.5164 1.61919C26.186 2.77571 26.3686 4.29745 26.1251 6.19658C26.0034 6.96353 25.833 7.80353 25.5895 8.71658C25.6869 8.71658 25.7721 8.74092 25.8695 8.77745C28.2434 9.55658 29.9234 10.4088 30.946 11.3827C31.5547 11.9548 31.9443 12.6001 32.0903 13.3061C32.2486 14.0488 32.0903 14.8035 31.6886 15.5096C31.019 16.6661 29.7895 17.5792 28.0364 18.3096C27.3303 18.6018 26.5269 18.8696 25.6382 19.1131L25.7356 19.3931C26.2347 21.8644 26.3443 23.7392 26.0156 25.1148C25.8637 25.8664 25.4806 26.5517 24.9199 27.0748C24.3361 27.5794 23.5853 27.8485 22.8138 27.8296C21.4747 27.8296 20.0625 27.2209 18.553 26.0522C17.9443 25.5653 17.2869 24.9931 16.6173 24.3235C16.5564 24.4331 16.4712 24.5305 16.3738 24.6157C14.499 26.2957 12.9164 27.3183 11.5651 27.7201C10.7617 27.9635 10.019 27.9879 9.32513 27.7566C8.5947 27.5131 8.02252 27.0018 7.62078 26.2957C6.95122 25.1392 6.76861 23.6174 7.01209 21.7183C7.13383 20.927 7.31643 20.0505 7.57209 19.1009C7.4747 19.1009 7.36513 19.0766 7.26774 19.0401C4.89383 18.2487 3.21383 17.4088 2.19122 16.4348C1.58252 15.8627 1.19296 15.2174 1.04687 14.5114C0.888609 13.7566 1.04687 13.014 1.44861 12.3079C2.11817 11.1392 3.34774 10.2261 5.10078 9.50788C5.83122 9.20353 6.65904 8.92353 7.58426 8.68006L7.49904 8.43658Z" fill="#002B3B"/>
<path d="M24.0682 19.6366C24.3117 19.6001 24.5308 19.7583 24.5917 19.9775V20.0018L24.6161 20.1235C25.4317 24.4209 24.8595 26.5757 22.8874 26.5757C20.9639 26.5757 18.5047 24.7375 15.5343 21.0731C15.4822 21.0076 15.4495 20.9288 15.4397 20.8457C15.4299 20.7625 15.4434 20.6783 15.4788 20.6025C15.5142 20.5266 15.5701 20.4621 15.6401 20.4162C15.7101 20.3703 15.7915 20.3449 15.8752 20.3427H16.0456C18.7401 20.359 21.4301 20.1226 24.0804 19.6366H24.0682ZM10.5552 16.3983H10.5674L10.6526 16.5444C12.0011 18.8966 13.5661 21.1178 15.3274 23.1792C15.4023 23.2675 15.4402 23.3813 15.4334 23.4969C15.4266 23.6126 15.3756 23.7211 15.2908 23.8001V23.8122L15.1691 23.8975C11.8578 26.7461 9.69083 27.3061 8.69257 25.6018C7.71866 23.934 8.08388 20.8905 9.76388 16.4714C9.79553 16.3962 9.84703 16.331 9.91286 16.2827C9.97868 16.2345 10.0564 16.2051 10.1376 16.1976C10.2189 16.1901 10.3006 16.2048 10.3742 16.2402C10.4477 16.2755 10.5103 16.3302 10.5552 16.3983ZM25.7604 10.0679H25.7726L25.8943 10.1044C29.9969 11.5288 31.5674 13.0992 30.5813 14.8157C29.6074 16.4835 26.8074 17.7009 22.1813 18.4679C22.0962 18.4844 22.0082 18.4761 21.9278 18.4439C21.8474 18.4117 21.778 18.3569 21.7279 18.2863C21.6778 18.2156 21.6491 18.132 21.6453 18.0454C21.6415 17.9589 21.6627 17.8731 21.7065 17.7983C23.1074 15.4266 24.2813 12.928 25.2126 10.3357C25.2513 10.2309 25.3275 10.1443 25.4265 10.0925C25.5254 10.0408 25.6401 10.0277 25.7482 10.0557H25.7604V10.0679ZM11.2734 9.33745C11.4804 9.45919 11.5534 9.73919 11.4317 9.94615C10.0308 12.3178 8.85693 14.8165 7.92562 17.4088C7.88682 17.5162 7.80866 17.6049 7.70695 17.6569C7.60525 17.7088 7.48759 17.7202 7.37779 17.6888H7.36562L7.24388 17.6401C3.14127 16.2157 1.57083 14.6453 2.55692 12.9409C3.53083 11.2609 6.33083 10.0435 10.9569 9.28876C11.0787 9.26441 11.1761 9.28875 11.2613 9.33745H11.2734ZM24.4334 2.3131C25.4074 3.98093 25.0421 7.02441 23.3621 11.4435C23.3305 11.5187 23.279 11.5839 23.2132 11.6322C23.1473 11.6804 23.0696 11.7098 22.9884 11.7173C22.9071 11.7248 22.8254 11.7101 22.7518 11.6747C22.6783 11.6394 22.6157 11.5847 22.5708 11.5166H22.5587L22.4734 11.3705C21.125 9.0183 19.5599 6.79708 17.7987 4.73571C17.7238 4.64737 17.6858 4.53358 17.6926 4.41796C17.6994 4.30234 17.7504 4.19379 17.8352 4.11484V4.10267L17.9569 4.01745C21.2682 1.16876 23.4352 0.608755 24.4334 2.3131ZM10.4091 1.29049C12.3447 1.29049 14.7917 3.11658 17.7621 6.78093C17.8137 6.84566 17.8464 6.92335 17.8567 7.00546C17.867 7.08757 17.8545 7.17093 17.8206 7.24639C17.7866 7.32186 17.7325 7.38651 17.6642 7.43325C17.5959 7.47999 17.5161 7.50702 17.4334 7.51136H17.263C14.5686 7.49503 11.8785 7.73142 9.22822 8.21745C8.98475 8.25397 8.76562 8.10789 8.71692 7.87658V7.86441L8.69257 7.73049C7.87692 3.4331 8.44909 1.27832 10.4091 1.27832V1.29049Z" fill="#FF4154"/>
<path d="M14.5367 8.97213H18.3836C18.9436 8.97213 19.4671 9.26431 19.7471 9.75127L21.6706 13.1234C21.9506 13.6104 21.9506 14.1947 21.6706 14.6817L19.7471 18.0417C19.4671 18.5287 18.9436 18.833 18.3836 18.833H14.5367C13.9767 18.833 13.4532 18.5287 13.1732 18.0417L11.2497 14.6817C10.9697 14.1947 10.9697 13.5982 11.2497 13.1234L13.161 9.73909C13.441 9.25214 13.9645 8.95996 14.5245 8.95996L14.5367 8.97213ZM17.7871 9.98257C18.3471 9.98257 18.8584 10.2869 19.1384 10.7739L20.4897 13.1234C20.7697 13.6104 20.7697 14.1947 20.4897 14.6817L19.1506 17.0313C18.8584 17.5182 18.3471 17.8226 17.7871 17.8226H15.1088C14.5488 17.8226 14.0254 17.5182 13.7454 17.0313L12.4062 14.6817C12.1262 14.1947 12.1262 13.5982 12.4062 13.1234L13.7454 10.7739C14.0254 10.2869 14.5488 9.98257 15.1088 9.98257H17.7871ZM17.1541 11.0904H15.7419C15.1819 11.0904 14.6584 11.3947 14.3784 11.8817L13.6723 13.1234C13.3923 13.6104 13.3923 14.1947 13.6723 14.6817L14.3784 15.9234C14.6584 16.4104 15.1819 16.7026 15.7419 16.7026H17.1541C17.7141 16.7026 18.2254 16.4104 18.5054 15.9234L19.2236 14.6817C19.5036 14.1947 19.5036 13.5982 19.2236 13.1234L18.5175 11.8817C18.2375 11.3947 17.7262 11.0904 17.1662 11.0904H17.1541ZM16.5454 12.1617C17.1054 12.1617 17.6167 12.4539 17.8967 12.9408L18.0062 13.1234C18.2862 13.6104 18.2862 14.1947 18.0062 14.6817L17.8967 14.8643C17.6167 15.3513 17.1054 15.6434 16.5454 15.6434H16.3506C15.7906 15.6434 15.2671 15.3513 14.9871 14.8643L14.8897 14.6817C14.6097 14.1947 14.6097 13.5982 14.8897 13.1234L14.9871 12.9408C15.2671 12.4539 15.7906 12.1617 16.3506 12.1617H16.5454ZM16.448 13.2087C16.2639 13.2087 16.0874 13.2818 15.9573 13.4119C15.8272 13.542 15.7541 13.7185 15.7541 13.9026C15.7541 14.0866 15.8272 14.2631 15.9573 14.3932C16.0874 14.5234 16.2639 14.5965 16.448 14.5965C16.632 14.5965 16.8085 14.5234 16.9386 14.3932C17.0688 14.2631 17.1419 14.0866 17.1419 13.9026C17.1419 13.7185 17.0688 13.542 16.9386 13.4119C16.8085 13.2818 16.632 13.2087 16.448 13.2087ZM10.7871 13.9026H12.041Z" fill="#FFD94C"/>
</g>
<defs>
<clipPath id="clip0_524_373">
<rect width="31.1652" height="28" fill="white" transform="translate(0.986328)"/>
</clipPath>
</defs>
</svg>
