<svg width="32" height="28" viewBox="0 0 32 28" fill="none" xmlns="http://www.w3.org/2000/svg">
<g clip-path="url(#clip0_567_298)">
<path d="M25.8488 9.06608C25.5142 8.95129 25.1768 8.84495 24.8369 8.74715C24.894 8.51382 24.9465 8.28331 24.9932 8.05686C25.7593 4.33814 25.2585 1.34226 23.5479 0.355873C21.9078 -0.589741 19.2256 0.396277 16.5167 2.7538C16.2497 2.98656 15.9887 3.22603 15.7338 3.47198C15.5632 3.30843 15.3895 3.14806 15.213 2.99094C12.3739 0.470207 9.52823 -0.592197 7.81949 0.397014C6.18088 1.34558 5.69567 4.16191 6.38535 7.68622C6.45397 8.03527 6.53144 8.38252 6.6177 8.72763C6.21489 8.84208 5.82621 8.96391 5.45423 9.09359C2.12567 10.2541 0 12.0728 0 13.9592C0 15.9075 2.282 17.8618 5.74884 19.0467C6.02991 19.1424 6.31331 19.2311 6.59879 19.3126C6.50607 19.6843 6.42376 20.0585 6.35195 20.4348C5.69444 23.898 6.20789 26.6478 7.84209 27.5903C9.52995 28.5637 12.3629 27.5633 15.1212 25.152C15.3449 24.9559 15.5636 24.7543 15.7773 24.5474C16.0533 24.8137 16.3367 25.0723 16.6271 25.3228C19.2991 27.622 21.938 28.5504 23.5706 27.6053C25.2569 26.6291 25.8049 23.6751 25.0934 20.0811C25.0373 19.7996 24.9745 19.5194 24.9049 19.2409C25.1038 19.1819 25.2991 19.1213 25.4895 19.0582C29.0936 17.8641 31.4386 15.9336 31.4386 13.9592C31.4386 12.0659 29.2443 10.235 25.8488 9.06608ZM25.0671 17.7834C24.8952 17.8403 24.7188 17.8952 24.5391 17.9486C24.1412 16.689 23.6042 15.3496 22.9471 13.9657C23.5742 12.6148 24.0904 11.2926 24.4772 10.0412C24.7988 10.1343 25.1108 10.2324 25.4117 10.3359C28.321 11.3375 30.0956 12.8182 30.0956 13.9592C30.0956 15.1745 28.1791 16.7522 25.0671 17.7834ZM23.7759 20.342C24.0906 21.9311 24.1354 23.3679 23.927 24.4913C23.7398 25.5006 23.3633 26.1735 22.8976 26.443C21.9069 27.0165 19.7881 26.2711 17.5031 24.3047C17.2329 24.0718 16.9693 23.8314 16.7126 23.5838C17.5985 22.615 18.4838 21.4888 19.3479 20.2378C20.8677 20.103 22.3036 19.8824 23.6057 19.5814C23.6698 19.8402 23.7268 20.0939 23.7759 20.342ZM10.7181 26.3439C9.75014 26.6857 8.97916 26.6955 8.51311 26.4268C7.52144 25.8549 7.10918 23.647 7.67151 20.6853C7.73835 20.3354 7.81489 19.9873 7.90103 19.6416C9.18879 19.9265 10.6142 20.1314 12.1376 20.2549C13.0076 21.4789 13.9185 22.604 14.8364 23.5891C14.6414 23.7779 14.4416 23.9618 14.2375 24.1408C13.0177 25.207 11.7954 25.9635 10.7181 26.3439ZM6.18333 17.7759C4.65033 17.2519 3.38432 16.5709 2.51656 15.8278C1.73674 15.1601 1.34314 14.4971 1.34314 13.9592C1.34314 12.8144 3.04979 11.3542 5.89633 10.3618C6.24179 10.2415 6.60333 10.1279 6.97851 10.0213C7.37198 11.3009 7.88802 12.6389 8.51077 13.9919C7.87991 15.3649 7.35651 16.7242 6.95923 18.019C6.69864 17.9443 6.43993 17.8633 6.18333 17.7759ZM7.70344 7.42821C7.11261 4.40875 7.50498 2.13105 8.49247 1.55938C9.54419 0.950505 11.8699 1.81863 14.3213 3.99526C14.4811 4.13752 14.6384 4.28266 14.793 4.43061C13.8795 5.41147 12.977 6.52815 12.1148 7.74493C10.6362 7.88198 9.22084 8.10205 7.91958 8.39691C7.83941 8.07592 7.76734 7.75283 7.70344 7.42821ZM21.2646 10.7769C20.9573 10.246 20.6385 9.72178 20.3086 9.20461C21.3117 9.33147 22.2728 9.49984 23.1753 9.70566C22.9044 10.5742 22.5666 11.4821 22.1691 12.4129C21.8786 11.8616 21.577 11.3162 21.2646 10.7769ZM15.7344 5.39047C16.3538 6.06161 16.9743 6.81086 17.5845 7.62384C16.3466 7.56538 15.1066 7.56513 13.8687 7.6231C14.4796 6.81761 15.1053 6.06935 15.7344 5.39047ZM10.1687 10.7861C9.86022 11.321 9.56429 11.8631 9.28114 12.4118C8.89012 11.4843 8.55547 10.5722 8.28223 9.69142C9.17921 9.49075 10.1358 9.32668 11.1325 9.20215C10.7988 9.72248 10.4775 10.2507 10.1687 10.7861ZM11.1611 18.8118C10.1313 18.6969 9.16042 18.5413 8.26368 18.346C8.54123 17.4495 8.88325 16.518 9.28274 15.5706C9.56701 16.1197 9.86417 16.6621 10.1739 17.1973C10.4925 17.7474 10.8224 18.2863 11.1611 18.8118ZM15.7715 22.6225C15.1349 21.9358 14.4999 21.176 13.8799 20.3588C14.4819 20.3824 15.0956 20.3944 15.7193 20.3944C16.3601 20.3944 16.9935 20.38 17.617 20.3523C17.0048 21.1842 16.3868 21.9451 15.7715 22.6225ZM22.1818 15.5222C22.602 16.4801 22.9562 17.4066 23.2374 18.2878C22.3259 18.4958 21.3418 18.6633 20.3048 18.7877C20.6371 18.261 20.9589 17.7276 21.2699 17.1881C21.5862 16.6396 21.8902 16.0842 22.1818 15.5222ZM20.1066 16.517C19.6304 17.3443 19.1274 18.1559 18.5984 18.9505C17.6402 19.0183 16.6799 19.052 15.7193 19.0515C14.7409 19.0515 13.7893 19.0211 12.8729 18.9616C12.3301 18.1689 11.8175 17.3559 11.3362 16.5244C10.8571 15.6973 10.4098 14.8523 9.99489 13.9913C10.4087 13.13 10.8549 12.2846 11.3323 11.4569L11.3321 11.457C11.8094 10.6291 12.3179 9.81956 12.8565 9.03022C13.7915 8.95949 14.7502 8.92264 15.7192 8.92264C16.6925 8.92264 17.6526 8.95986 18.5873 9.03108C19.1206 9.81924 19.6258 10.626 20.1022 11.4498C20.5812 12.2757 21.0332 13.1169 21.4575 13.9722C21.0375 14.8363 20.5869 15.6851 20.1066 16.517ZM22.8771 1.51935C23.9298 2.1265 24.3392 4.57491 23.6778 7.7857C23.6356 7.99054 23.5882 8.19919 23.5366 8.41079C22.2321 8.10966 20.8158 7.88579 19.3329 7.74665C18.4691 6.51649 17.5739 5.39808 16.6754 4.42987C16.9109 4.20287 17.152 3.98175 17.3984 3.76672C19.7195 1.74691 21.8888 0.9494 22.8771 1.51935ZM15.7193 11.1518C17.2697 11.1518 18.5267 12.4088 18.5267 13.9592C18.5267 15.5096 17.2697 16.7666 15.7193 16.7666C14.1689 16.7666 12.9119 15.5096 12.9119 13.9592C12.9119 12.4088 14.1689 11.1518 15.7193 11.1518Z" fill="#00D8FF"/>
</g>
<defs>
<clipPath id="clip0_567_298">
<rect width="31.4386" height="28" fill="white"/>
</clipPath>
</defs>
</svg>
