<svg width="24" height="24" viewBox="0 0 24 24" fill="none" xmlns="http://www.w3.org/2000/svg">
<g clip-path="url(#clip0_567_294)">
<path d="M12 22.6875C17.9025 22.6875 22.6875 17.9025 22.6875 12C22.6875 6.09746 17.9025 1.3125 12 1.3125C6.09746 1.3125 1.3125 6.09746 1.3125 12C1.3125 17.9025 6.09746 22.6875 12 22.6875Z" stroke="var(--black)" stroke-width="3"/>
<path d="M9.15272 11.4085C11.7146 9.31545 14.2207 7.14982 16.8383 5.11816C15.4653 7.22801 14.0532 9.30982 12.6802 11.4196C11.5025 11.4252 10.3249 11.4253 9.15272 11.4085ZM11.3183 12.5749C12.5016 12.5749 13.6792 12.5749 14.8569 12.5917C12.2783 14.6735 9.78347 16.8559 7.16016 18.882C8.53322 16.7721 9.94528 14.6848 11.3183 12.5749Z" fill="var(--black)"/>
</g>
<defs>
<clipPath id="clip0_567_294">
<rect width="24" height="24" fill="var(--black)"/>
</clipPath>
</defs>
</svg>
