<svg width="41" height="24" viewBox="0 0 41 24" fill="none" xmlns="http://www.w3.org/2000/svg">
<g clip-path="url(#clip0_524_379)">
<path d="M20.0984 0C14.779 0 11.4542 2.65979 10.1244 7.97922C12.1192 5.31943 14.4464 4.32203 17.1062 4.98701C18.6237 5.36634 19.7084 6.46738 20.909 7.68592C22.8648 9.67122 25.1283 11.9688 30.0725 11.9688C35.3919 11.9688 38.7167 9.30904 40.0465 3.98961C38.0517 6.6494 35.7245 7.64681 33.0647 6.98182C31.5472 6.60249 30.4625 5.50145 29.2619 4.28291C27.3061 2.29761 25.0426 0 20.0984 0ZM10.1244 11.9688C4.80499 11.9688 1.48021 14.6286 0.150391 19.9481C2.1452 17.2883 4.47242 16.2909 7.13221 16.9558C8.64966 17.3352 9.73434 18.4362 10.935 19.6548C12.8908 21.6401 15.1543 23.9377 20.0984 23.9377C25.4179 23.9377 28.7426 21.2779 30.0725 15.9584C28.0777 18.6182 25.7504 19.6156 23.0906 18.9507C21.5732 18.5713 20.4885 17.4703 19.2879 16.2517C17.3321 14.2664 15.0686 11.9688 10.1244 11.9688Z" fill="url(#paint0_linear_524_379)"/>
</g>
<defs>
<linearGradient id="paint0_linear_524_379" x1="-110.681" y1="766.005" x2="3335" y2="2752.72" gradientUnits="userSpaceOnUse">
<stop stop-color="#2298BD"/>
<stop offset="1" stop-color="#0ED7B5"/>
</linearGradient>
<clipPath id="clip0_524_379">
<rect width="39.8961" height="24" fill="white" transform="translate(0.150391)"/>
</clipPath>
</defs>
</svg>
