<svg width="34" height="20" viewBox="0 0 34 20" fill="none" xmlns="http://www.w3.org/2000/svg">
<g clip-path="url(#clip0_454_541)">
<path d="M17.3773 0C12.9444 0 10.1738 2.21649 9.06559 6.64935C10.7279 4.43286 12.6673 3.60169 14.8838 4.15584C16.1483 4.47195 17.0522 5.38948 18.0527 6.40494C19.6826 8.05935 21.5688 9.97403 25.689 9.97403C30.1218 9.97403 32.8925 7.75753 34.0007 3.32468C32.3383 5.54117 30.399 6.37234 28.1825 5.81818C26.9179 5.50208 26.014 4.58455 25.0135 3.56909C23.3836 1.91468 21.4974 0 17.3773 0ZM9.06559 9.97403C4.63274 9.97403 1.86209 12.1905 0.753906 16.6234C2.41624 14.4069 4.35559 13.5757 6.57209 14.1299C7.83663 14.446 8.74053 15.3635 9.74105 16.379C11.3709 18.0334 13.2572 19.9481 17.3773 19.9481C21.8101 19.9481 24.5808 17.7316 25.689 13.2987C24.0266 15.5152 22.0873 16.3464 19.8708 15.7922C18.6062 15.4761 17.7023 14.5586 16.7018 13.5431C15.072 11.8887 13.1857 9.97403 9.06559 9.97403Z" fill="url(#paint0_linear_454_541)"/>
</g>
<defs>
<linearGradient id="paint0_linear_454_541" x1="-91.6056" y1="638.338" x2="2779.79" y2="2293.94" gradientUnits="userSpaceOnUse">
<stop stop-color="#2298BD"/>
<stop offset="1" stop-color="#0ED7B5"/>
</linearGradient>
<clipPath id="clip0_454_541">
<rect width="33.2468" height="20" fill="white" transform="translate(0.753906)"/>
</clipPath>
</defs>
</svg>
