<svg width="29" height="28" viewBox="0 0 29 28" fill="none" xmlns="http://www.w3.org/2000/svg">
<g clip-path="url(#clip0_524_353)">
<path d="M3.17383 0H26.7988C28.007 0 28.9863 0.979344 28.9863 2.1875V25.8125C28.9863 27.0207 28.007 28 26.7988 28H3.17383C1.96567 28 0.986328 27.0207 0.986328 25.8125V2.1875C0.986328 0.979344 1.96567 0 3.17383 0Z" fill="#3178C6"/>
<path d="M17.4492 21.927V24.9479C17.9405 25.1997 18.5217 25.3885 19.1925 25.5143C19.8632 25.6402 20.5702 25.7031 21.3136 25.7031C22.0378 25.7031 22.726 25.6339 23.3779 25.4954C24.0298 25.357 24.6015 25.1288 25.0927 24.8111C25.584 24.4932 25.9729 24.0778 26.2596 23.5648C26.5462 23.052 26.6895 22.4179 26.6895 21.6627C26.6895 21.1152 26.6075 20.6352 26.4438 20.223C26.2819 19.8136 26.0411 19.4399 25.7352 19.1232C25.4266 18.8022 25.0565 18.5143 24.6251 18.2594C24.1936 18.0045 23.707 17.7638 23.1653 17.5373C22.7685 17.3736 22.4127 17.2147 22.0977 17.0605C21.7828 16.9063 21.515 16.749 21.2946 16.5885C21.0741 16.428 20.9041 16.258 20.7844 16.0787C20.6648 15.8993 20.6049 15.6964 20.6049 15.4698C20.6049 15.2621 20.6584 15.0749 20.7655 14.9081C20.8726 14.7413 21.0238 14.5982 21.2191 14.4786C21.4143 14.359 21.6536 14.2662 21.9371 14.2C22.2205 14.134 22.5355 14.101 22.8819 14.101C23.1339 14.101 23.4 14.1199 23.6802 14.1576C23.9605 14.1953 24.2424 14.2535 24.5259 14.3323C24.8085 14.4106 25.0848 14.51 25.3526 14.6297C25.6122 14.7447 25.8605 14.8838 26.0942 15.045V12.2223C25.6344 12.0461 25.1321 11.9155 24.5873 11.8305C24.0425 11.7456 23.4173 11.7031 22.7118 11.7031C21.9938 11.7031 21.3136 11.7802 20.6711 11.9345C20.0286 12.0886 19.4633 12.3293 18.9751 12.6565C18.487 12.9839 18.1012 13.4008 17.8177 13.9075C17.5343 14.4141 17.3926 15.0198 17.3926 15.7247C17.3926 16.6247 17.6523 17.3925 18.1721 18.0282C18.6917 18.6637 19.4805 19.2019 20.5387 19.6424C20.9294 19.8015 21.3168 19.9684 21.7009 20.1428C22.0599 20.3065 22.3701 20.4763 22.6315 20.6525C22.8929 20.8287 23.0992 21.0207 23.2504 21.2284C23.4015 21.4361 23.4771 21.6721 23.4771 21.9365C23.4784 22.1267 23.4295 22.3139 23.3354 22.4793C23.241 22.646 23.0976 22.7908 22.9055 22.9135C22.7135 23.0362 22.474 23.1322 22.1875 23.2014C21.9009 23.2706 21.5655 23.3053 21.1812 23.3053C20.5262 23.3053 19.8775 23.1905 19.235 22.9607C18.5924 22.731 17.9972 22.3864 17.4492 21.927ZM12.414 14.4093H16.2988V11.9219H5.4707V14.4093H9.33656V25.4844H12.414V14.4093Z" fill="white"/>
</g>
<defs>
<clipPath id="clip0_524_353">
<rect width="28" height="28" fill="white" transform="translate(0.986328)"/>
</clipPath>
</defs>
</svg>
