<svg width="25" height="24" viewBox="0 0 25 24" fill="none" xmlns="http://www.w3.org/2000/svg">
<g clip-path="url(#clip0_454_507)">
<path d="M2.7832 0H23.0332C24.0688 0 24.9082 0.839438 24.9082 1.875V22.125C24.9082 23.1606 24.0688 24 23.0332 24H2.7832C1.74764 24 0.908203 23.1606 0.908203 22.125V1.875C0.908203 0.839438 1.74764 0 2.7832 0Z" fill="#3178C6"/>
<path d="M15.0193 18.7945V21.3839C15.4404 21.5997 15.9385 21.7615 16.5135 21.8694C17.0884 21.9773 17.6944 22.0312 18.3315 22.0312C18.9524 22.0312 19.5422 21.9719 20.101 21.8532C20.6597 21.7345 21.1498 21.539 21.5708 21.2666C21.9919 20.9942 22.3253 20.6381 22.571 20.1984C22.8166 19.7588 22.9395 19.2154 22.9395 18.568C22.9395 18.0987 22.8692 17.6873 22.7289 17.334C22.5901 16.983 22.3837 16.6628 22.1215 16.3913C21.857 16.1162 21.5398 15.8694 21.17 15.6509C20.8002 15.4325 20.3831 15.2261 19.9187 15.032C19.5786 14.8916 19.2736 14.7555 19.0036 14.6233C18.7337 14.4911 18.5042 14.3563 18.3153 14.2187C18.1263 14.0812 17.9805 13.9355 17.878 13.7817C17.7754 13.628 17.7241 13.4541 17.7241 13.2598C17.7241 13.0818 17.77 12.9214 17.8618 12.7784C17.9535 12.6354 18.0832 12.5127 18.2505 12.4103C18.4179 12.3077 18.623 12.2282 18.866 12.1715C19.1089 12.1148 19.3789 12.0865 19.6758 12.0865C19.8918 12.0865 20.1199 12.1027 20.3601 12.1351C20.6004 12.1674 20.842 12.2173 21.085 12.2848C21.3272 12.352 21.5641 12.4372 21.7935 12.5397C22.0161 12.6383 22.2289 12.7575 22.4293 12.8957V10.4763C22.0351 10.3253 21.6045 10.2133 21.1376 10.1405C20.6706 10.0676 20.1347 10.0312 19.53 10.0312C18.9146 10.0312 18.3315 10.0973 17.7809 10.2295C17.2302 10.3616 16.7456 10.568 16.3272 10.8485C15.9088 11.1291 15.5781 11.4864 15.3351 11.9207C15.0922 12.3549 14.9707 12.8741 14.9707 13.4783C14.9707 14.2497 15.1934 14.9078 15.6389 15.4527C16.0843 15.9975 16.7604 16.4587 17.6674 16.8364C18.0023 16.9727 18.3344 17.1157 18.6635 17.2653C18.9713 17.4055 19.2372 17.5511 19.4612 17.7022C19.6853 17.8532 19.8621 18.0177 19.9917 18.1957C20.1212 18.3738 20.186 18.5761 20.186 18.8027C20.1871 18.9658 20.1452 19.1262 20.0645 19.268C19.9836 19.4108 19.8607 19.535 19.6961 19.6402C19.5315 19.7453 19.3262 19.8276 19.0806 19.8869C18.835 19.9462 18.5475 19.976 18.2181 19.976C17.6566 19.976 17.1006 19.8775 16.5499 19.6806C15.9991 19.4837 15.489 19.1884 15.0193 18.7945ZM10.7034 12.3508H14.0332V10.2188H4.75195V12.3508H8.06555V21.8438H10.7034V12.3508Z" fill="white"/>
</g>
<defs>
<clipPath id="clip0_454_507">
<rect width="24" height="24" fill="white" transform="translate(0.908203)"/>
</clipPath>
</defs>
</svg>
