<svg width="29" height="28" viewBox="0 0 29 28" fill="none" xmlns="http://www.w3.org/2000/svg">
<g clip-path="url(#clip0_524_461)">
<path d="M27.133 2.96234L21.3409 0.173583C21.0138 0.0160939 20.6458 -0.035829 20.2879 0.0249992C19.93 0.0858274 19.5998 0.256399 19.3431 0.51311L0.382052 17.8011C-0.127901 18.2662 -0.12724 19.0691 0.383374 19.5334L1.93219 20.9413C2.13453 21.1253 2.39486 21.2327 2.66806 21.2448C2.94126 21.257 3.21011 21.1732 3.42799 21.0079L26.2614 3.68582C27.0275 3.10476 28.1277 3.65109 28.1277 4.61257V4.54533C28.1277 4.21459 28.0344 3.89057 27.8584 3.61053C27.6824 3.33049 27.431 3.10582 27.133 2.96234Z" fill="#0065A9"/>
<path d="M27.133 25.0033L21.3409 27.7921C21.0138 27.9495 20.6458 28.0014 20.2879 27.9406C19.93 27.8798 19.5999 27.7092 19.3431 27.4525L0.382052 10.1645C-0.127901 9.69955 -0.12724 8.89659 0.383374 8.43238L1.93219 7.02434C2.13454 6.84038 2.39488 6.73302 2.66808 6.72088C2.94128 6.70874 3.21012 6.79258 3.42799 6.95786L26.2614 24.2798C27.0275 24.8609 28.1277 24.3146 28.1277 23.353V23.4203C28.1277 23.7511 28.0344 24.0751 27.8584 24.3551C27.6824 24.6351 27.431 24.8598 27.133 25.0033Z" fill="#007ACC"/>
<path d="M21.3223 27.7944C20.9951 27.9518 20.627 28.0036 20.2691 27.9427C19.9112 27.8819 19.581 27.7113 19.3242 27.4546C19.9725 28.1027 21.0812 27.6436 21.0812 26.7267V1.24281C21.0812 0.325862 19.9725 -0.133272 19.3242 0.515028C19.581 0.258296 19.9111 0.0876809 20.2691 0.0267767C20.627 -0.0341274 20.995 0.0176886 21.3223 0.175059L27.1133 2.95996C27.4115 3.10335 27.6631 3.32804 27.8392 3.60815C28.0153 3.88826 28.1087 4.21241 28.1087 4.54328V23.4264C28.1087 24.1016 27.7218 24.7172 27.1133 25.0097L21.3223 27.7944Z" fill="#1F9CF0"/>
<path d="M19.9338 27.8462C20.1575 27.9334 20.3967 27.9737 20.6366 27.9644C20.8765 27.9552 21.1119 27.8967 21.3283 27.7926L27.1157 25.0077C27.4138 24.8643 27.6653 24.6395 27.8413 24.3594C28.0173 24.0793 28.1107 23.7552 28.1107 23.4244V4.54139C28.1107 4.21058 28.0173 3.88649 27.8413 3.60639C27.6653 3.32629 27.4138 3.10156 27.1158 2.95806L21.3282 0.173057C21.0012 0.0157207 20.6333 -0.0360781 20.2756 0.0248297C19.9178 0.0857375 19.5879 0.25634 19.3313 0.513026L8.25194 10.6212L3.4258 6.95788C3.2081 6.79263 2.93942 6.7088 2.66638 6.72094C2.39334 6.73308 2.13316 6.84043 1.93099 7.02435L0.383168 8.4324C-0.127226 8.8966 -0.127777 9.69956 0.381845 10.1645L4.56718 13.9829L0.381845 17.8012C-0.127777 18.2662 -0.127226 19.0691 0.383168 19.5334L1.93099 20.9413C2.13315 21.1253 2.39332 21.2326 2.66636 21.2448C2.9394 21.257 3.20809 21.1732 3.4258 21.0079L8.25194 17.3444L19.3313 27.4526C19.5027 27.6241 19.7078 27.7582 19.9338 27.8462ZM21.0873 7.60132L12.6805 13.9829L21.0873 20.3643V7.60132Z" fill="url(#paint0_linear_524_461)" fill-opacity="0.25"/>
</g>
<defs>
<linearGradient id="paint0_linear_524_461" x1="1405.53" y1="0" x2="1405.53" y2="2796.57" gradientUnits="userSpaceOnUse">
<stop stop-color="white"/>
<stop offset="1" stop-color="white" stop-opacity="0"/>
</linearGradient>
<clipPath id="clip0_524_461">
<rect width="28.2205" height="28" fill="white"/>
</clipPath>
</defs>
</svg>
